<svg width="960" height="620" viewBox="0 0 960 620" fill="none" xmlns="http://www.w3.org/2000/svg">
<g clip-path="url(#clip0_110_265215)">
<rect width="960" height="620" fill="#D20000"/>
<g opacity="0.2">
<path d="M902.826 350.997L873.579 321.75L844.332 292.503L873.534 263.301H873.579L902.781 234.054H902.826L932.073 204.761L902.826 175.514L873.579 146.267L844.332 117.02L815.085 146.267H815.04L785.792 175.56L815.04 204.807L844.287 175.56L873.534 204.807L844.332 234.009H844.287L815.085 263.256L785.838 234.009L756.591 204.761L727.344 175.514L698.097 146.267L668.849 117.02L698.051 87.8185H698.097L727.298 58.5714L756.545 87.8185L727.298 117.066L756.545 146.313L785.792 117.066H785.838L815.085 87.7731L785.838 58.526L756.591 29.2788L727.344 0.0317383L698.097 29.2788H698.051L668.849 58.526H668.804L639.602 87.7731L610.355 58.526L581.108 29.2788L551.861 0.0317383L522.614 29.2788H522.569L493.367 58.526H493.321L464.074 87.8185L493.321 117.066L522.569 146.313L551.861 117.02L522.614 87.7731L551.816 58.5714L581.063 87.8185L610.31 117.066L581.108 146.267H581.063L551.861 175.514H551.816L522.614 204.761H522.569L493.367 234.009H493.321L464.12 263.256L434.873 234.009L405.626 204.761L434.827 175.56L464.074 204.807L493.367 175.514L464.12 146.267L434.873 117.02L405.626 146.267H405.58L376.378 175.514H376.333L347.086 204.807L376.333 234.054L405.58 263.301L434.827 292.548L405.626 321.75H405.58L376.378 350.997H376.333L347.086 380.289L376.333 409.537L405.58 438.784L434.827 468.031L464.074 438.784H464.12L493.367 409.491L464.12 380.244L434.873 409.491L405.626 380.244L434.827 351.042H434.873L464.074 321.795L493.321 351.042L522.569 380.289L551.816 409.537L581.063 438.784L610.31 468.031L581.108 497.232H581.063L551.861 526.48L522.614 497.232L551.861 467.985L522.614 438.738L493.367 467.985H493.321L464.074 497.278L493.321 526.525L522.569 555.772L551.816 585.019L581.063 555.772H581.108L610.31 526.525H610.355L639.557 497.278L668.804 526.525L698.051 555.772L727.298 585.019L756.545 555.772H756.591L785.792 526.525H785.838L815.085 497.232L785.838 467.985L756.591 438.738L727.298 468.031L756.545 497.278L727.344 526.48L698.097 497.232L668.849 467.985L698.051 438.784H698.097L727.298 409.537H727.344L756.545 380.289H756.591L785.792 351.042H785.838L815.04 321.795L844.287 351.042L873.534 380.289L844.332 409.491L815.085 380.244L785.792 409.537L815.04 438.784L844.287 468.031L873.534 438.784H873.579L902.781 409.537H902.826L932.073 380.244L902.826 350.997ZM756.545 321.75H756.5L727.298 350.997H727.253L698.051 380.244H698.006L668.804 409.491H668.759L639.557 438.738L610.31 409.491L581.063 380.244L551.816 350.997L522.569 321.75L493.321 292.503L522.523 263.301H522.569L551.77 234.054H551.816L581.017 204.807H581.063L610.264 175.56H610.31L639.512 146.313L668.759 175.56L698.006 204.807L727.253 234.054L756.5 263.301L785.747 292.548L756.545 321.75Z" fill="white"/>
<path d="M668.76 233.964L639.513 204.717L610.266 233.964H610.221L581.019 263.211H580.974L551.727 292.504L580.974 321.751L610.221 350.998L639.468 380.245L668.715 350.998H668.76L697.962 321.751H698.007L727.255 292.459L698.007 263.211L668.76 233.964ZM639.513 321.706L610.266 292.459L639.468 263.257L668.715 292.504L639.513 321.706Z" fill="white"/>
</g>
</g>
<defs>
<clipPath id="clip0_110_265215">
<rect width="960" height="620" fill="white"/>
</clipPath>
</defs>
</svg>
