<svg xmlns="http://www.w3.org/2000/svg" width="72" height="72" viewBox="0 0 72 72" fill="none">
    <path d="M52.3731 36.0031L62.202 26.1742L46.6411 26.2007L43.7618 29.08L42.5707 30.2711L36.8145 36.0273L42.5528 41.7657L43.7425 42.9554L46.6128 45.8257L62.1715 45.8015L52.3731 36.0031Z" fill="#D00000"/>
    <path d="M19.6269 36.0031L9.79797 26.1742L25.3589 26.2007L28.2382 29.08L29.4293 30.2711L35.1855 36.0273L29.4472 41.7657L28.2575 42.9554L25.3872 45.8257L9.82851 45.8015L19.6269 36.0031Z" fill="#D00000"/>
    <path d="M36.0031 19.6269L26.1742 9.79797L26.2007 25.3589L29.08 28.2382L30.2711 29.4293L36.0273 35.1855L41.7657 29.4472L42.9554 28.2575L45.8257 25.3872L45.8015 9.82851L36.0031 19.6269Z" fill="#D00000"/>
    <path d="M36.0031 52.3721L26.1742 62.2011L26.2007 46.6401L29.08 43.7608L30.2711 42.5698L36.0273 36.8135L41.7657 42.5519L42.9554 43.7415L45.8257 46.6119L45.8015 62.1705L36.0031 52.3721Z" fill="#D00000"/>
</svg>