<svg width="488" height="92" viewBox="0 0 488 92" fill="none" xmlns="http://www.w3.org/2000/svg">
<g clip-path="url(#clip0_84_109553)">
<rect width="488" height="92" fill="#D20000"/>
<g opacity="0.45">
<path d="M488.141 0.584606V-30.0161L457.575 -30.0161V0.584606L488.141 0.584606Z" fill="#EB4941"/>
<path d="M478.247 -0.406975L478.631 -0.791396L480.485 -2.64729V-7.12793L477.32 -3.95966V-1.33492V-0.791396V0.520973L478.247 -0.406975Z" fill="#E03427"/>
<path d="M482.338 -0.791396L482.722 -0.406975L483.65 0.520973V-0.791396V-1.33492V-3.95966L480.484 -7.12793V-2.64729L482.338 -0.791396Z" fill="#E03427"/>
<path d="M462.974 -0.406975L463.358 -0.791396L465.213 -2.64729V-7.12793L462.047 -3.95966V-1.33492V-0.791396V0.520973L462.974 -0.406975Z" fill="#E03427"/>
<path d="M467.065 -0.791396L467.449 -0.406975L468.376 0.520973V-0.791396V-1.33492V-3.95966L465.211 -7.12793V-2.64729L467.065 -0.791396Z" fill="#E03427"/>
<path d="M457.562 0.584606V-30.0161L427.035 -30.0161V0.584606L457.562 0.584606Z" fill="#9B1E14"/>
<path d="M457.566 0.583984H427V31.1847H457.566V0.583984Z" fill="#F3AFAD"/>
<path d="M452.321 23.7595L453.857 22.2219L457.566 18.5088H452.321H450.149H439.661L427 31.1844H444.905L452.321 23.7595Z" fill="#FDBAAF"/>
<path d="M439.661 18.5091V8.00885V5.83473V0.583984L435.952 4.29706L434.416 5.83473L427 13.2596V31.1847L439.661 18.5091Z" fill="#FDBAAF"/>
<path d="M488.102 31.1847V0.583984L457.574 0.583984V31.1847L488.102 31.1847Z" fill="#EB4941"/>
<path d="M486.733 14.4917L485.344 15.8823L486.735 17.2756L488.125 15.885L486.733 14.4917Z" fill="#9B1E14"/>
<path d="M472.834 28.4004L471.445 29.791L472.837 31.1843L474.226 29.7937L472.834 28.4004Z" fill="#9B1E14"/>
<path d="M470.059 28.4013L471.447 27.01L472.837 25.6187L474.223 27.0074L475.61 28.3949L477 29.7862L478.393 28.4013L479.783 27.01L481.173 25.62L479.783 24.2287L478.393 22.8387L477.002 24.2261L478.391 25.6174L477.002 27.0087L475.615 25.62L474.229 24.2325L475.618 22.8412L477.007 21.4499L478.397 20.0586L479.785 18.6686L481.175 17.2773L482.558 18.6635L483.944 20.051L482.558 21.4448L481.17 20.0535L479.78 21.4448L481.17 22.8348L482.558 24.2287L483.957 22.8374L485.347 21.4474L486.735 20.0561L485.347 18.6648L483.957 17.2748L482.558 15.8835L483.957 14.4935L485.347 13.1022L486.736 11.7109L485.34 10.326L483.957 8.92577L482.558 7.53703L481.17 8.92577L479.782 10.3171L481.173 11.7173L482.558 10.326L483.946 11.7134L482.558 13.0996L481.169 14.4909L479.783 13.1022L478.396 11.7147L477.006 10.326L475.616 8.92577L474.23 7.53703L475.619 6.14573L477.009 4.75572L478.394 6.14319L477.006 7.53448L478.394 8.92577L479.784 7.53448L481.174 6.14319L479.784 4.75317L478.398 3.36443L477.009 1.97314L475.619 3.36443L474.23 4.75572L472.841 6.14701L471.455 4.75827L470.069 3.3708L468.679 1.98078L467.291 3.37207L465.89 4.75572L464.504 6.14701L465.894 7.5383L467.281 8.92577L468.67 7.53448L467.282 6.14447L468.67 4.75317L470.058 6.14192L471.443 7.52939L470.058 8.92577L468.668 10.326L467.278 11.716L465.889 13.1073L464.504 14.4922L463.117 13.1034L461.731 11.716L463.113 10.326L464.504 11.7134L465.892 10.326L464.504 8.92577L463.115 7.53576L461.722 8.92577L460.332 10.326L458.943 11.7173L460.332 13.1073L461.719 14.496L463.105 15.8835L461.716 17.2748L460.327 18.6661L458.938 20.0561L460.327 21.4474L461.713 22.8361L463.103 24.2261L464.504 22.8387L465.894 21.4486L464.495 20.0484L463.105 21.4461L461.718 20.0573L463.108 18.6673L464.504 17.276L465.89 18.6635L467.277 20.051L468.663 21.4397L470.05 22.8272L471.436 24.2159L470.047 25.606L468.658 26.9972L467.271 25.6098L468.66 24.2185L467.269 22.8183L465.88 24.2096L464.504 25.6187L465.894 27.0087L467.279 28.3974L468.669 29.7875L470.059 28.4013ZM471.449 21.4461L470.063 20.0586L468.676 18.6699L467.29 17.2824L465.902 15.8937L467.292 14.5036L468.682 13.1124L470.07 11.7211L471.449 10.326L472.838 8.92577L474.224 10.3132L475.611 11.702L476.997 13.0894L478.384 14.4782L479.77 15.8657L478.382 17.2569L477.002 18.6635L475.613 20.0548L474.224 21.4448L472.834 22.8361L471.449 21.4461Z" fill="#9B1E14"/>
<path d="M475.62 17.2749L477.009 15.8849L475.62 14.4936L474.233 13.1061L472.845 11.7148L471.45 13.101L470.06 14.491L468.672 15.8823L470.06 17.2736L471.447 18.6611L472.836 20.0524L474.226 18.6611L475.62 17.2749ZM471.453 15.8849L472.842 14.4936L474.228 15.8823L472.838 17.2723L471.453 15.8849Z" fill="#9B1E14"/>
<path d="M472.842 0.58252L471.453 1.97314L472.845 3.36648L474.234 1.97585L472.842 0.58252Z" fill="#9B1E14"/>
<path d="M458.944 14.4927L457.555 15.8833L458.946 17.2766L460.335 15.886L458.944 14.4927Z" fill="#9B1E14"/>
<path d="M488.141 61.7843V31.1836L457.575 31.1836V61.7843H488.141Z" fill="#FDBAAF"/>
<path d="M478.754 55.9904H480.382H484.315L481.534 53.2053L480.382 52.0521L474.82 46.4844H461.391L470.887 55.9904H478.754Z" fill="#E03427"/>
<path d="M474.82 46.4844L480.382 40.9154L481.534 39.7622L484.315 36.9771H480.382H478.754H470.887L461.391 46.4844H474.82Z" fill="#E03427"/>
<path d="M457.562 61.7843V31.1836L427.035 31.1836V61.7843H457.562Z" fill="#EB4941"/>
<path d="M442.293 31.2119L427.039 46.4843H457.547L442.293 31.2119Z" fill="#E43729"/>
<path d="M442.293 46.4844L427.039 61.7555H457.547L442.293 46.4844Z" fill="#E43729"/>
<path d="M488.125 92.3859V61.7852H457.559V92.3859H488.125Z" fill="#EC5E57"/>
<path d="M480.948 85.1976H486.351L482.066 80.9092H480.483H479.829H476.664V84.0775V84.7343V86.319L480.948 90.6075V85.1976Z" fill="#FDBAAF"/>
<path d="M465.204 73.2588H465.858H469.024V70.0906V69.4337V67.849L464.74 63.5605V68.9704H459.336L463.621 73.2588H465.204Z" fill="#FDBAAF"/>
<path d="M464.74 90.6075L469.024 86.319V84.7343V84.0775V80.9092H465.858H465.204H463.621L459.336 85.1976H464.74V90.6075Z" fill="#FDBAAF"/>
<path d="M479.829 73.2588H480.483H482.066L486.351 68.9704H480.948V63.5605L476.664 67.849V69.4337V70.0906V73.2588H479.829Z" fill="#FDBAAF"/>
<path d="M457.539 92.3839V61.7832H427.012V92.3839H457.539Z" fill="#FDBAAF"/>
<path d="M427.008 92.3839V61.7832L457.535 92.3839H427.008Z" fill="#E03427"/>
<path d="M442.273 77.1218V61.7935L457.565 77.1218H442.273Z" fill="#E03427"/>
</g>
<g opacity="0.45">
<path d="M305.141 0.584606V-30.0161L274.575 -30.0161V0.584606L305.141 0.584606Z" fill="#EB4941"/>
<path d="M295.247 -0.406975L295.631 -0.791396L297.485 -2.64729V-7.12793L294.32 -3.95966V-1.33492V-0.791396V0.520973L295.247 -0.406975Z" fill="#E03427"/>
<path d="M299.338 -0.791396L299.722 -0.406975L300.65 0.520973V-0.791396V-1.33492V-3.95966L297.484 -7.12793V-2.64729L299.338 -0.791396Z" fill="#E03427"/>
<path d="M279.974 -0.406975L280.358 -0.791396L282.213 -2.64729V-7.12793L279.047 -3.95966V-1.33492V-0.791396V0.520973L279.974 -0.406975Z" fill="#E03427"/>
<path d="M284.065 -0.791396L284.449 -0.406975L285.376 0.520973V-0.791396V-1.33492V-3.95966L282.211 -7.12793V-2.64729L284.065 -0.791396Z" fill="#E03427"/>
<path d="M396.797 0.584606V-30.0161L366.231 -30.0161V0.584606L396.797 0.584606Z" fill="#FDBAAF"/>
<path d="M385.336 0.582908L389.157 -3.24219H385.336V0.582908Z" fill="#EB4941"/>
<path d="M389.156 -3.24219L392.977 0.582908V-3.24219H389.156Z" fill="#EB4941"/>
<path d="M370.055 0.582908L373.875 -3.24219H370.055V0.582908Z" fill="#EB4941"/>
<path d="M373.875 -3.24219L377.696 0.582908V-3.24219H373.875Z" fill="#EB4941"/>
<path d="M427.352 0.58362V-30.0171L396.786 -30.0171V0.58362L427.352 0.58362Z" fill="#F3AFAD"/>
<path d="M366.242 0.5846V-30.0161L335.677 -30.0161V0.5846L366.242 0.5846Z" fill="#F3AFAD"/>
<path d="M343.096 -4.66614L344.632 -3.12847L348.339 0.583338V-4.66614V-6.84154V-17.3418L335.68 -30.0161V-12.0923L343.096 -4.66614Z" fill="#FDBAAF"/>
<path d="M335.695 0.583624V-30.0171L305.13 -30.0171V0.583624L335.695 0.583624Z" fill="#9B1E14"/>
<path d="M320.407 -3.24124L324.227 0.583859V-5.48155L323.108 -6.60171L322.644 -7.06632L320.407 -9.30664L318.169 -7.06632L317.705 -6.60171L316.586 -5.48155V0.583859L320.407 -3.24124Z" fill="#FDBAAF"/>
<path d="M274.562 0.584606V-30.0161L244.035 -30.0161V0.584606L274.562 0.584606Z" fill="#9B1E14"/>
<path d="M427.352 31.1847V0.583984L396.786 0.583984V31.1847L427.352 31.1847Z" fill="#9B1E14"/>
<path d="M427.345 0.582361V-30.0171L412.062 -14.718L427.345 0.582361Z" fill="#EC5E57"/>
<path d="M412.064 -14.718L396.781 -30.0171V0.582361L412.064 -14.718Z" fill="#EC5E57"/>
<path d="M420.166 23.9969H425.57L421.286 19.7085H419.704H419.047H415.883V22.8768V23.5336V25.1171L420.166 29.4068V23.9969Z" fill="#FDBAAF"/>
<path d="M404.421 12.0586H405.077H408.242V8.8891V8.23355V6.64878L403.957 2.36035V7.76894H398.555L402.838 12.0586H404.421Z" fill="#FDBAAF"/>
<path d="M403.957 29.4068L408.242 25.1171V23.5336V22.8768V19.7085H405.077H404.421H402.838L398.555 23.9969H403.957V29.4068Z" fill="#FDBAAF"/>
<path d="M419.047 12.0586H419.704H421.286L425.57 7.76894H420.166V2.36035L415.883 6.64878V8.23355V8.8891V12.0586H419.047Z" fill="#FDBAAF"/>
<path d="M412.063 27.3587L415.884 31.1838V25.1171L414.765 23.9969L414.301 23.5336L412.063 21.292L409.825 23.5336L409.361 23.9969L408.242 25.1171V31.1838L412.063 27.3587Z" fill="#FDBAAF"/>
<path d="M414.301 8.23318L414.765 7.76857L415.884 6.64841V0.583008L412.063 4.4081L408.242 0.583008V6.64841L409.361 7.76857L409.825 8.23318L412.063 10.4735L414.301 8.23318Z" fill="#FDBAAF"/>
<path d="M402.84 19.7083L403.959 18.5881L404.423 18.1235L406.66 15.8832L404.423 13.6429L403.959 13.1783L402.84 12.0581H396.781L400.602 15.8832L396.781 19.7083H402.84Z" fill="#FDBAAF"/>
<path d="M427.348 19.7083L423.527 15.8832L427.348 12.0581H421.289L420.169 13.1783L419.706 13.6429L417.469 15.8832L419.706 18.1235L420.169 18.5881L421.289 19.7083H427.348Z" fill="#FDBAAF"/>
<path d="M335.68 31.1847V0.583984L305.114 0.583984V31.1847L335.68 31.1847Z" fill="#F3AFAD"/>
<path d="M324.574 5.79578V11.7046H330.476L327.828 14.3574L326.302 15.8849L327.828 17.4123L330.476 20.0651H324.574V25.9739L321.924 23.3225L320.399 21.795L318.873 23.3225L316.221 25.9714V20.0625H310.324L312.972 17.4098L314.498 15.8823L312.972 14.3548L310.324 11.7021H316.221V5.79323L318.87 8.4447L320.396 9.97219L321.922 8.4447L324.572 5.79323M326.733 0.580673L324.877 2.43403L324.114 3.19777L320.405 6.91084L316.698 3.19777L315.935 2.43403L314.08 0.578125V9.54067H305.117L306.972 11.3966L307.735 12.1603L311.443 15.8734L307.735 19.5852L306.972 20.3489L305.117 22.2061H314.069V31.1687L315.924 29.3115L316.687 28.5477L320.395 24.8359L324.104 28.5579L324.867 29.3217L326.72 31.1788V22.2163H335.673L333.819 20.3591L333.056 19.5954L329.347 15.8836L333.056 12.1705L333.819 11.4068L335.673 9.55086H326.731V0.583222L326.733 0.580673Z" fill="#EC5E57"/>
<path d="M396.797 31.1847V0.583984L366.231 0.583984V31.1847L396.797 31.1847Z" fill="#EB4941"/>
<path d="M373.867 15.8831L366.227 8.23291V15.8831H373.867Z" fill="#E03427"/>
<path d="M366.227 23.534L373.867 15.8838H366.227V23.534Z" fill="#E03427"/>
<path d="M373.867 15.8831L381.509 8.23291H373.867V15.8831Z" fill="#E03427"/>
<path d="M373.867 0.583984L366.227 8.23416H373.867V0.583984Z" fill="#E03427"/>
<path d="M366.227 23.5342L373.867 31.1844V23.5342H366.227Z" fill="#E03427"/>
<path d="M381.509 23.534L373.867 15.8838V23.534H381.509Z" fill="#E03427"/>
<path d="M389.157 15.8831L381.516 8.23291V15.8831H389.157Z" fill="#E03427"/>
<path d="M381.516 23.534L389.157 15.8838H381.516V23.534Z" fill="#E03427"/>
<path d="M389.156 15.8831L396.798 8.23291H389.156V15.8831Z" fill="#E03427"/>
<path d="M389.157 0.583984L381.516 8.23416H389.157V0.583984Z" fill="#E03427"/>
<path d="M381.516 23.5342L389.157 31.1844V23.5342H381.516Z" fill="#E03427"/>
<path d="M396.798 23.534L389.156 15.8838V23.534H396.798Z" fill="#E03427"/>
<path d="M366.242 31.1847V0.583984L335.677 0.583984V31.1847L366.242 31.1847Z" fill="#9B1E14"/>
<path d="M335.672 15.8838L350.955 31.1841V15.8838H335.672Z" fill="#F3AFAD"/>
<path d="M350.953 15.8843H366.235L350.953 0.583984V15.8843Z" fill="#F3AFAD"/>
<path d="M274.566 0.583984H244V31.1847H274.566V0.583984Z" fill="#F3AFAD"/>
<path d="M269.321 23.7595L270.857 22.2219L274.566 18.5088H269.321H267.149H256.661L244 31.1844H261.905L269.321 23.7595Z" fill="#FDBAAF"/>
<path d="M256.661 18.5091V8.00885V5.83473V0.583984L252.952 4.29706L251.416 5.83473L244 13.2596V31.1847L256.661 18.5091Z" fill="#FDBAAF"/>
<path d="M305.102 31.1847V0.583984L274.574 0.583984V31.1847L305.102 31.1847Z" fill="#EB4941"/>
<path d="M303.733 14.4917L302.344 15.8823L303.735 17.2756L305.125 15.885L303.733 14.4917Z" fill="#9B1E14"/>
<path d="M289.834 28.4004L288.445 29.791L289.837 31.1843L291.226 29.7937L289.834 28.4004Z" fill="#9B1E14"/>
<path d="M287.059 28.4013L288.447 27.01L289.837 25.6187L291.223 27.0074L292.61 28.3949L294 29.7862L295.393 28.4013L296.783 27.01L298.173 25.62L296.783 24.2287L295.393 22.8387L294.002 24.2261L295.391 25.6174L294.002 27.0087L292.615 25.62L291.229 24.2325L292.618 22.8412L294.007 21.4499L295.397 20.0586L296.785 18.6686L298.175 17.2773L299.558 18.6635L300.944 20.051L299.558 21.4448L298.17 20.0535L296.78 21.4448L298.17 22.8348L299.558 24.2287L300.957 22.8374L302.347 21.4474L303.735 20.0561L302.347 18.6648L300.957 17.2748L299.558 15.8835L300.957 14.4935L302.347 13.1022L303.736 11.7109L302.34 10.326L300.957 8.92577L299.558 7.53703L298.17 8.92577L296.782 10.3171L298.173 11.7173L299.558 10.326L300.946 11.7134L299.558 13.0996L298.169 14.4909L296.783 13.1022L295.396 11.7147L294.006 10.326L292.616 8.92577L291.23 7.53703L292.619 6.14573L294.009 4.75572L295.394 6.14319L294.006 7.53448L295.394 8.92577L296.784 7.53448L298.174 6.14319L296.784 4.75317L295.398 3.36443L294.009 1.97314L292.619 3.36443L291.23 4.75572L289.841 6.14701L288.455 4.75827L287.069 3.3708L285.679 1.98078L284.291 3.37207L282.89 4.75572L281.504 6.14701L282.894 7.5383L284.281 8.92577L285.67 7.53448L284.282 6.14447L285.67 4.75317L287.058 6.14192L288.443 7.52939L287.058 8.92577L285.668 10.326L284.278 11.716L282.889 13.1073L281.504 14.4922L280.117 13.1034L278.731 11.716L280.113 10.326L281.504 11.7134L282.892 10.326L281.504 8.92577L280.115 7.53576L278.722 8.92577L277.332 10.326L275.943 11.7173L277.332 13.1073L278.719 14.496L280.105 15.8835L278.716 17.2748L277.327 18.6661L275.938 20.0561L277.327 21.4474L278.713 22.8361L280.103 24.2261L281.504 22.8387L282.894 21.4486L281.495 20.0484L280.105 21.4461L278.718 20.0573L280.108 18.6673L281.504 17.276L282.89 18.6635L284.277 20.051L285.663 21.4397L287.05 22.8272L288.436 24.2159L287.047 25.606L285.658 26.9972L284.271 25.6098L285.66 24.2185L284.269 22.8183L282.88 24.2096L281.504 25.6187L282.894 27.0087L284.279 28.3974L285.669 29.7875L287.059 28.4013ZM288.449 21.4461L287.063 20.0586L285.676 18.6699L284.29 17.2824L282.902 15.8937L284.292 14.5036L285.682 13.1124L287.07 11.7211L288.449 10.326L289.838 8.92577L291.224 10.3132L292.611 11.702L293.997 13.0894L295.384 14.4782L296.77 15.8657L295.382 17.2569L294.002 18.6635L292.613 20.0548L291.224 21.4448L289.834 22.8361L288.449 21.4461Z" fill="#9B1E14"/>
<path d="M292.62 17.2749L294.009 15.8849L292.62 14.4936L291.233 13.1061L289.845 11.7148L288.45 13.101L287.06 14.491L285.672 15.8823L287.06 17.2736L288.447 18.6611L289.836 20.0524L291.226 18.6611L292.62 17.2749ZM288.453 15.8849L289.842 14.4936L291.228 15.8823L289.838 17.2723L288.453 15.8849Z" fill="#9B1E14"/>
<path d="M289.842 0.58252L288.453 1.97314L289.845 3.36648L291.234 1.97585L289.842 0.58252Z" fill="#9B1E14"/>
<path d="M275.944 14.4927L274.555 15.8833L275.946 17.2766L277.335 15.886L275.944 14.4927Z" fill="#9B1E14"/>
<path d="M335.695 61.7833V31.1826L305.13 31.1826V61.7833H335.695Z" fill="#9B1E14"/>
<path d="M320.413 55.0909L323.279 57.9587V53.4094L322.439 52.5692L322.091 52.2217L320.413 50.5415L318.734 52.2217L318.386 52.5692L317.547 53.4094V57.9587L320.413 55.0909Z" fill="#E43729"/>
<path d="M318.386 40.3993L318.734 40.7468L320.413 42.427L322.091 40.7468L322.439 40.3993L323.279 39.5579V35.0098L320.413 37.8776L317.547 35.0098V39.5579L318.386 40.3993Z" fill="#E43729"/>
<path d="M308.945 49.3522H313.489L314.329 48.5121L314.677 48.1646L316.355 46.4844L314.677 44.8029L314.329 44.4554L313.489 43.6152H308.945L311.811 46.4844L308.945 49.3522Z" fill="#E43729"/>
<path d="M326.139 48.1646L326.488 48.5121L327.327 49.3522H331.871L329.005 46.4844L331.871 43.6152H327.327L326.488 44.4554L326.139 44.8029L324.461 46.4844L326.139 48.1646Z" fill="#E43729"/>
<path d="M314.333 52.5687V56.6267L317.546 53.4088V52.2212V51.7286V49.3521H315.173H314.682H313.494L310.281 52.5687H314.333Z" fill="#E43729"/>
<path d="M325.647 43.615H326.138H327.326L330.538 40.3984H326.486V36.3403L323.273 39.557V40.7459V41.2385V43.615H325.647Z" fill="#E43729"/>
<path d="M313.494 43.615H314.682H315.173H317.546V41.2385V40.7459V39.557L314.333 36.3403V40.3984H310.281L313.494 43.615Z" fill="#E43729"/>
<path d="M326.486 56.6267V52.5687H330.538L327.326 49.3521H326.138H325.647H323.273V51.7286V52.2212V53.4088L326.486 56.6267Z" fill="#E43729"/>
<path d="M427.352 61.7843V31.1836L396.786 31.1836V61.7843H427.352Z" fill="#E03427"/>
<path d="M415.891 54.1328V53.4772V50.3077L412.07 46.4839V51.8925L414.308 54.1328L414.772 54.5974L415.891 55.7176V54.1328Z" fill="#FDBAAF"/>
<path d="M409.369 54.5979L409.833 54.1333L412.071 51.893V46.4844L408.25 50.3082V53.4777V54.1333V55.718L409.369 54.5979Z" fill="#FDBAAF"/>
<path d="M412.071 41.0751L409.833 38.8348L409.369 38.3702L408.25 37.25V38.8348V39.4903V42.6599L412.071 46.485V41.0751Z" fill="#FDBAAF"/>
<path d="M415.891 42.6599V39.4903V38.8348V37.25L414.772 38.3702L414.308 38.8348L412.07 41.0751V46.485L415.891 42.6599Z" fill="#FDBAAF"/>
<path d="M412.068 46.4843L408.247 42.6592H405.083H404.427H402.844L403.963 43.7793L404.427 44.2427L406.664 46.4843H412.068Z" fill="#FDBAAF"/>
<path d="M404.427 50.3082H405.083H408.247L412.068 46.4844H406.664L404.427 48.7247L403.963 49.188L402.844 50.3082H404.427Z" fill="#FDBAAF"/>
<path d="M419.056 50.3077H419.712H421.295L420.175 49.1875L419.712 48.7242L417.474 46.4839H412.07L415.891 50.3077H419.056Z" fill="#FDBAAF"/>
<path d="M417.474 46.4843L419.712 44.2427L420.175 43.7793L421.295 42.6592H419.712H419.056H415.891L412.07 46.4843H417.474Z" fill="#FDBAAF"/>
<path d="M396.797 61.7843V31.1836L366.231 31.1836V61.7843H396.797Z" fill="#EC5E57"/>
<path d="M385.346 50.3187V42.6494L381.516 46.4847L385.346 50.3187Z" fill="#FDBAAF"/>
<path d="M377.688 50.3184H385.348L381.517 46.4844L377.688 50.3184Z" fill="#FDBAAF"/>
<path d="M381.517 46.4847L377.688 42.6494V50.3187L381.517 46.4847Z" fill="#FDBAAF"/>
<path d="M385.348 42.6494H377.688L381.517 46.4847L385.348 42.6494Z" fill="#FDBAAF"/>
<path d="M385.344 50.3184H393.004L389.175 46.4844L385.344 50.3184Z" fill="#FDBAAF"/>
<path d="M393.004 42.6494H385.344L389.175 46.4847L393.004 42.6494Z" fill="#FDBAAF"/>
<path d="M370.023 50.3184H377.685L373.854 46.4844L370.023 50.3184Z" fill="#FDBAAF"/>
<path d="M377.685 42.6494H370.023L373.854 46.4847L377.685 42.6494Z" fill="#FDBAAF"/>
<path d="M377.688 50.3188V57.9894L381.517 54.1541L377.688 50.3188Z" fill="#FDBAAF"/>
<path d="M385.346 57.9894V50.3188L381.516 54.1541L385.346 57.9894Z" fill="#FDBAAF"/>
<path d="M377.688 34.9785V42.6491L381.517 38.8138L377.688 34.9785Z" fill="#FDBAAF"/>
<path d="M385.346 42.6491V34.9785L381.516 38.8138L385.346 42.6491Z" fill="#FDBAAF"/>
<path d="M335.677 61.7832L366.242 61.7832V31.1825L335.677 31.1825V61.7832Z" fill="#FDBAAF"/>
<path d="M350.961 46.4844V61.7835L358.602 54.1333L350.961 46.4844Z" fill="#E03427"/>
<path d="M358.602 54.1333L366.243 61.7835V46.4844L358.602 54.1333Z" fill="#E03427"/>
<path d="M335.68 46.4844V61.7835L343.321 54.1333L335.68 46.4844Z" fill="#E03427"/>
<path d="M343.32 54.1333L350.962 61.7835V46.4844L343.32 54.1333Z" fill="#E03427"/>
<path d="M350.961 46.4847H366.244L358.602 38.8345L350.961 46.4847Z" fill="#E03427"/>
<path d="M358.602 38.8338L366.244 31.1836H350.961L358.602 38.8338Z" fill="#E03427"/>
<path d="M335.68 46.4847H350.962L343.321 38.8345L335.68 46.4847Z" fill="#E03427"/>
<path d="M343.321 38.8338L350.962 31.1836H335.68L343.321 38.8338Z" fill="#E03427"/>
<path d="M305.141 61.7843V31.1836L274.575 31.1836V61.7843H305.141Z" fill="#FDBAAF"/>
<path d="M295.754 55.9904H297.382H301.315L298.534 53.2053L297.382 52.0521L291.82 46.4844H278.391L287.887 55.9904H295.754Z" fill="#E03427"/>
<path d="M291.82 46.4844L297.382 40.9154L298.534 39.7622L301.315 36.9771H297.382H295.754H287.887L278.391 46.4844H291.82Z" fill="#E03427"/>
<path d="M274.562 61.7843V31.1836L244.035 31.1836V61.7843H274.562Z" fill="#EB4941"/>
<path d="M259.293 31.2119L244.039 46.4843H274.547L259.293 31.2119Z" fill="#E43729"/>
<path d="M259.293 46.4844L244.039 61.7555H274.547L259.293 46.4844Z" fill="#E43729"/>
<path d="M305.125 92.3859V61.7852H274.559V92.3859H305.125Z" fill="#EC5E57"/>
<path d="M297.948 85.1976H303.351L299.066 80.9092H297.483H296.829H293.664V84.0775V84.7343V86.319L297.948 90.6075V85.1976Z" fill="#FDBAAF"/>
<path d="M282.204 73.2588H282.858H286.024V70.0906V69.4337V67.849L281.74 63.5605V68.9704H276.336L280.621 73.2588H282.204Z" fill="#FDBAAF"/>
<path d="M281.74 90.6075L286.024 86.319V84.7343V84.0775V80.9092H282.858H282.204H280.621L276.336 85.1976H281.74V90.6075Z" fill="#FDBAAF"/>
<path d="M296.829 73.2588H297.483H299.066L303.351 68.9704H297.948V63.5605L293.664 67.849V69.4337V70.0906V73.2588H296.829Z" fill="#FDBAAF"/>
<path d="M427.352 92.3839V61.7832H396.786V92.3839H427.352Z" fill="#9B1E14"/>
<path d="M419.712 77.0833L412.07 69.4331V77.0833H419.712Z" fill="#E43729"/>
<path d="M412.07 84.7342L419.712 77.084H412.07V84.7342Z" fill="#E43729"/>
<path d="M412.071 77.084H404.43L412.071 84.7342V77.084Z" fill="#E43729"/>
<path d="M412.071 69.4336L404.43 77.0838H412.071V69.4336Z" fill="#E43729"/>
<path d="M419.711 77.0838L427.352 69.4336H419.711V77.0838Z" fill="#E43729"/>
<path d="M419.712 61.7832L412.07 69.4334H419.712V61.7832Z" fill="#E43729"/>
<path d="M404.43 92.3846L412.071 84.7344H404.43V92.3846Z" fill="#E43729"/>
<path d="M404.43 77.084L396.789 84.7342H404.43V77.084Z" fill="#E43729"/>
<path d="M412.07 84.7344L419.712 92.3846V84.7344H412.07Z" fill="#E43729"/>
<path d="M427.352 84.7342L419.711 77.084V84.7342H427.352Z" fill="#E43729"/>
<path d="M396.789 69.4336L404.43 77.0838V69.4336H396.789Z" fill="#E43729"/>
<path d="M412.071 69.4334L404.43 61.7832V69.4334H412.071Z" fill="#E43729"/>
<path d="M366.242 92.3839V61.7832H335.677V92.3839H366.242Z" fill="#EB4941"/>
<path d="M356.056 82.1845V71.9834L350.961 77.0839L356.056 82.1845Z" fill="#E43729"/>
<path d="M345.867 82.1845H356.055L350.961 77.084L345.867 82.1845Z" fill="#E43729"/>
<path d="M350.961 77.0839L345.867 71.9834V82.1845L350.961 77.0839Z" fill="#E43729"/>
<path d="M356.055 71.9834H345.867L350.961 77.0839L356.055 71.9834Z" fill="#E43729"/>
<path d="M356.055 82.1845H366.243L361.149 77.084L356.055 82.1845Z" fill="#E43729"/>
<path d="M366.243 71.9834H356.055L361.149 77.0839L366.243 71.9834Z" fill="#E43729"/>
<path d="M335.672 82.1845H345.861L340.767 77.084L335.672 82.1845Z" fill="#E43729"/>
<path d="M345.861 71.9834H335.672L340.767 77.0839L345.861 71.9834Z" fill="#E43729"/>
<path d="M345.867 82.1846V92.3844L350.961 87.2838L345.867 82.1846Z" fill="#E43729"/>
<path d="M356.056 92.3844V82.1846L350.961 87.2838L356.056 92.3844Z" fill="#E43729"/>
<path d="M345.867 61.7832V71.983L350.961 66.8837L345.867 61.7832Z" fill="#E43729"/>
<path d="M356.056 71.983V61.7832L350.961 66.8837L356.056 71.983Z" fill="#E43729"/>
<path d="M335.664 92.3859V61.7852H305.137V92.3859H335.664Z" fill="#E03427"/>
<path d="M320.374 92.3836L335.633 77.1074L320.393 61.8501L305.134 77.1263L320.374 92.3836Z" fill="#FDBAAF"/>
<path d="M396.773 92.3839V61.7832H366.246V92.3839H396.773Z" fill="#FDBAAF"/>
<path d="M395.405 75.6904L394.016 77.0811L395.407 78.4744L396.796 77.0838L395.405 75.6904Z" fill="#E03427"/>
<path d="M381.514 89.5991L380.125 90.9897L381.517 92.3831L382.906 90.9924L381.514 89.5991Z" fill="#E03427"/>
<path d="M378.732 89.6035L380.122 88.2122L381.512 86.8209L382.897 88.2097L384.285 89.5971L385.673 90.9884L387.063 89.5971L388.452 88.2071L389.841 86.8158L388.457 85.4284L387.068 84.0383L385.676 85.4284L387.065 86.8197L385.676 88.2109L384.29 86.8222L382.903 85.4347L384.292 84.0434L385.682 82.6521L387.07 81.2621L388.46 79.8708L389.85 78.4796L391.236 79.8683L392.623 81.2558L391.231 82.6458L389.842 81.2545L388.452 82.6458L389.841 84.0371L391.231 85.4284L392.62 84.0383L394.009 82.6471L395.398 81.2558L394.01 79.8657L392.624 78.477L391.237 77.0895L392.627 75.6982L394.016 74.307L395.406 72.9157L394.016 71.5256L392.629 70.1305L391.231 68.738L389.841 70.128L388.451 71.5193L389.843 72.9195L391.233 71.5282L392.619 72.9169L391.231 74.3006L389.841 75.6919L388.454 74.3031L387.068 72.9157L385.681 71.5269L384.295 70.1394L382.908 68.7507L384.297 67.3607L385.687 65.9694L387.073 67.3569L385.683 68.7482L387.082 70.142L388.471 68.7507L389.86 67.3594L388.471 65.9694L387.084 64.5807L385.696 63.1906L384.306 64.5807L382.899 65.9528L381.51 67.353L380.123 65.9643L378.737 64.5768L377.348 63.1855L375.958 64.5768L374.564 65.9528L373.176 67.353L374.564 68.7443L375.953 70.1344L377.342 68.7443L375.955 67.353L377.345 65.9618L378.731 67.3505L380.118 68.738L378.728 70.1293L377.34 71.5206L375.95 72.9118L374.561 74.3019L373.176 75.6932L371.79 74.3044L370.403 72.9169L371.793 71.5256L373.182 72.9169L374.571 71.5256L373.176 70.1331L371.786 68.7431L370.398 70.1344L369.008 71.5244L367.618 72.9157L369.008 74.307L370.394 75.6944L371.781 77.0832L370.391 78.4732L369.006 79.8657L367.617 81.257L369.006 82.6471L370.393 84.0358L371.781 85.4258L373.176 84.0409L374.566 82.6496L373.167 81.2494L371.777 82.6407L370.391 81.2532L371.781 79.8619L373.17 78.4706L374.557 79.8594L375.943 81.2469L377.33 82.6356L378.716 84.0231L380.102 85.4118L378.712 86.8031L377.323 88.1931L375.936 86.8056L377.326 85.4144L375.927 84.0142L374.563 85.4284L373.176 86.8197L374.564 88.2097L375.952 89.5984L377.341 90.9897L378.732 89.6035ZM380.122 82.6496L378.736 81.2609L377.349 79.8734L375.963 78.4846L374.576 77.0972L375.966 75.7059L377.354 74.3146L378.744 72.9233L380.133 71.5333L381.523 70.142L382.909 71.5307L384.296 72.9182L385.682 74.307L387.069 75.6944L388.455 77.0832L387.065 78.4732L385.677 79.8645L384.287 81.2558L382.897 82.6458L381.509 84.0371L380.122 82.6496Z" fill="#E03427"/>
<path d="M384.295 78.4764L385.685 77.0851L384.295 75.6938L382.909 74.3063L381.519 72.915L380.131 74.3063L378.741 75.6976L377.352 77.0876L378.741 78.4789L380.127 79.8664L381.517 81.2577L382.907 79.8664L384.295 78.4764ZM380.128 77.0851L381.517 75.6951L382.904 77.0825L381.514 78.4738L380.128 77.0851Z" fill="#E03427"/>
<path d="M381.514 61.7842L380.125 63.1748L381.517 64.5681L382.906 63.1775L381.514 61.7842Z" fill="#E03427"/>
<path d="M367.616 75.6938L366.227 77.0845L367.618 78.4778L369.007 77.0872L367.616 75.6938Z" fill="#E03427"/>
<path d="M274.539 92.3839V61.7832H244.012V92.3839H274.539Z" fill="#FDBAAF"/>
<path d="M244.008 92.3839V61.7832L274.535 92.3839H244.008Z" fill="#E03427"/>
<path d="M259.273 77.1218V61.7935L274.565 77.1218H259.273Z" fill="#E03427"/>
</g>
<g opacity="0.45">
<path d="M122.141 0.584606V-30.0161L91.575 -30.0161V0.584606L122.141 0.584606Z" fill="#EB4941"/>
<path d="M112.247 -0.406975L112.631 -0.791396L114.485 -2.64729V-7.12793L111.32 -3.95966V-1.33492V-0.791396V0.520973L112.247 -0.406975Z" fill="#E03427"/>
<path d="M116.338 -0.791396L116.722 -0.406975L117.65 0.520973V-0.791396V-1.33492V-3.95966L114.484 -7.12793V-2.64729L116.338 -0.791396Z" fill="#E03427"/>
<path d="M96.9738 -0.406975L97.3577 -0.791396L99.2128 -2.64729V-7.12793L96.0469 -3.95966V-1.33492V-0.791396V0.520973L96.9738 -0.406975Z" fill="#E03427"/>
<path d="M101.065 -0.791396L101.449 -0.406975L102.376 0.520973V-0.791396V-1.33492V-3.95966L99.2109 -7.12793V-2.64729L101.065 -0.791396Z" fill="#E03427"/>
<path d="M213.797 0.584606V-30.0161L183.231 -30.0161V0.584606L213.797 0.584606Z" fill="#FDBAAF"/>
<path d="M202.336 0.582908L206.157 -3.24219H202.336V0.582908Z" fill="#EB4941"/>
<path d="M206.156 -3.24219L209.977 0.582908V-3.24219H206.156Z" fill="#EB4941"/>
<path d="M187.055 0.582908L190.875 -3.24219H187.055V0.582908Z" fill="#EB4941"/>
<path d="M190.875 -3.24219L194.696 0.582908V-3.24219H190.875Z" fill="#EB4941"/>
<path d="M244.352 0.58362V-30.0171L213.786 -30.0171V0.58362L244.352 0.58362Z" fill="#F3AFAD"/>
<path d="M183.242 0.5846V-30.0161L152.677 -30.0161V0.5846L183.242 0.5846Z" fill="#F3AFAD"/>
<path d="M160.096 -4.66614L161.632 -3.12847L165.339 0.583338V-4.66614V-6.84154V-17.3418L152.68 -30.0161V-12.0923L160.096 -4.66614Z" fill="#FDBAAF"/>
<path d="M152.695 0.583624V-30.0171L122.13 -30.0171V0.583624L152.695 0.583624Z" fill="#9B1E14"/>
<path d="M137.407 -3.24124L141.227 0.583859V-5.48155L140.108 -6.60171L139.644 -7.06632L137.407 -9.30664L135.169 -7.06632L134.705 -6.60171L133.586 -5.48155V0.583859L137.407 -3.24124Z" fill="#FDBAAF"/>
<path d="M91.5625 0.584606V-30.0161L61.035 -30.0161V0.584606L91.5625 0.584606Z" fill="#9B1E14"/>
<path d="M244.352 31.1847V0.583984L213.786 0.583984V31.1847L244.352 31.1847Z" fill="#9B1E14"/>
<path d="M244.345 0.582361V-30.0171L229.062 -14.718L244.345 0.582361Z" fill="#EC5E57"/>
<path d="M229.064 -14.718L213.781 -30.0171V0.582361L229.064 -14.718Z" fill="#EC5E57"/>
<path d="M237.166 23.9969H242.57L238.286 19.7085H236.704H236.047H232.883V22.8768V23.5336V25.1171L237.166 29.4068V23.9969Z" fill="#FDBAAF"/>
<path d="M221.421 12.0586H222.077H225.242V8.8891V8.23355V6.64878L220.957 2.36035V7.76894H215.555L219.838 12.0586H221.421Z" fill="#FDBAAF"/>
<path d="M220.957 29.4068L225.242 25.1171V23.5336V22.8768V19.7085H222.077H221.421H219.838L215.555 23.9969H220.957V29.4068Z" fill="#FDBAAF"/>
<path d="M236.047 12.0586H236.704H238.286L242.57 7.76894H237.166V2.36035L232.883 6.64878V8.23355V8.8891V12.0586H236.047Z" fill="#FDBAAF"/>
<path d="M229.063 27.3587L232.884 31.1838V25.1171L231.765 23.9969L231.301 23.5336L229.063 21.292L226.825 23.5336L226.361 23.9969L225.242 25.1171V31.1838L229.063 27.3587Z" fill="#FDBAAF"/>
<path d="M231.301 8.23318L231.765 7.76857L232.884 6.64841V0.583008L229.063 4.4081L225.242 0.583008V6.64841L226.361 7.76857L226.825 8.23318L229.063 10.4735L231.301 8.23318Z" fill="#FDBAAF"/>
<path d="M219.84 19.7083L220.959 18.5881L221.423 18.1235L223.66 15.8832L221.423 13.6429L220.959 13.1783L219.84 12.0581H213.781L217.602 15.8832L213.781 19.7083H219.84Z" fill="#FDBAAF"/>
<path d="M244.348 19.7083L240.527 15.8832L244.348 12.0581H238.289L237.169 13.1783L236.706 13.6429L234.469 15.8832L236.706 18.1235L237.169 18.5881L238.289 19.7083H244.348Z" fill="#FDBAAF"/>
<path d="M152.68 31.1847V0.583984L122.114 0.583984V31.1847L152.68 31.1847Z" fill="#F3AFAD"/>
<path d="M141.574 5.79578V11.7046H147.476L144.828 14.3574L143.302 15.8849L144.828 17.4123L147.476 20.0651H141.574V25.9739L138.924 23.3225L137.399 21.795L135.873 23.3225L133.221 25.9714V20.0625H127.324L129.972 17.4098L131.498 15.8823L129.972 14.3548L127.324 11.7021H133.221V5.79323L135.87 8.4447L137.396 9.97219L138.922 8.4447L141.572 5.79323M143.733 0.580673L141.877 2.43403L141.114 3.19777L137.405 6.91084L133.698 3.19777L132.935 2.43403L131.08 0.578125V9.54067H122.117L123.972 11.3966L124.735 12.1603L128.443 15.8734L124.735 19.5852L123.972 20.3489L122.117 22.2061H131.069V31.1687L132.924 29.3115L133.687 28.5477L137.395 24.8359L141.104 28.5579L141.867 29.3217L143.72 31.1788V22.2163H152.673L150.819 20.3591L150.056 19.5954L146.347 15.8836L150.056 12.1705L150.819 11.4068L152.673 9.55086H143.731V0.583222L143.733 0.580673Z" fill="#EC5E57"/>
<path d="M213.797 31.1847V0.583984L183.231 0.583984V31.1847L213.797 31.1847Z" fill="#EB4941"/>
<path d="M190.867 15.8831L183.227 8.23291V15.8831H190.867Z" fill="#E03427"/>
<path d="M183.227 23.534L190.867 15.8838H183.227V23.534Z" fill="#E03427"/>
<path d="M190.867 15.8831L198.509 8.23291H190.867V15.8831Z" fill="#E03427"/>
<path d="M190.867 0.583984L183.227 8.23416H190.867V0.583984Z" fill="#E03427"/>
<path d="M183.227 23.5342L190.867 31.1844V23.5342H183.227Z" fill="#E03427"/>
<path d="M198.509 23.534L190.867 15.8838V23.534H198.509Z" fill="#E03427"/>
<path d="M206.157 15.8831L198.516 8.23291V15.8831H206.157Z" fill="#E03427"/>
<path d="M198.516 23.534L206.157 15.8838H198.516V23.534Z" fill="#E03427"/>
<path d="M206.156 15.8831L213.798 8.23291H206.156V15.8831Z" fill="#E03427"/>
<path d="M206.157 0.583984L198.516 8.23416H206.157V0.583984Z" fill="#E03427"/>
<path d="M198.516 23.5342L206.157 31.1844V23.5342H198.516Z" fill="#E03427"/>
<path d="M213.798 23.534L206.156 15.8838V23.534H213.798Z" fill="#E03427"/>
<path d="M183.242 31.1847V0.583984L152.677 0.583984V31.1847L183.242 31.1847Z" fill="#9B1E14"/>
<path d="M152.672 15.8838L167.955 31.1841V15.8838H152.672Z" fill="#F3AFAD"/>
<path d="M167.953 15.8843H183.235L167.953 0.583984V15.8843Z" fill="#F3AFAD"/>
<path d="M91.5656 0.583984H61V31.1847H91.5656V0.583984Z" fill="#F3AFAD"/>
<path d="M86.3209 23.7595L87.8568 22.2219L91.5656 18.5088H86.3209H84.1493H73.6611L61 31.1844H78.9045L86.3209 23.7595Z" fill="#FDBAAF"/>
<path d="M73.6611 18.5091V8.00885V5.83473V0.583984L69.9523 4.29706L68.4164 5.83473L61 13.2596V31.1847L73.6611 18.5091Z" fill="#FDBAAF"/>
<path d="M122.102 31.1847V0.583984L91.5741 0.583984V31.1847L122.102 31.1847Z" fill="#EB4941"/>
<path d="M120.733 14.4917L119.344 15.8823L120.735 17.2756L122.125 15.885L120.733 14.4917Z" fill="#9B1E14"/>
<path d="M106.834 28.4004L105.445 29.791L106.837 31.1843L108.226 29.7937L106.834 28.4004Z" fill="#9B1E14"/>
<path d="M104.059 28.4013L105.447 27.01L106.837 25.6187L108.223 27.0074L109.61 28.3949L111 29.7862L112.393 28.4013L113.783 27.01L115.173 25.62L113.783 24.2287L112.393 22.8387L111.002 24.2261L112.391 25.6174L111.002 27.0087L109.615 25.62L108.229 24.2325L109.618 22.8412L111.007 21.4499L112.397 20.0586L113.785 18.6686L115.175 17.2773L116.558 18.6635L117.944 20.051L116.558 21.4448L115.17 20.0535L113.78 21.4448L115.17 22.8348L116.558 24.2287L117.957 22.8374L119.347 21.4474L120.735 20.0561L119.347 18.6648L117.957 17.2748L116.558 15.8835L117.957 14.4935L119.347 13.1022L120.736 11.7109L119.34 10.326L117.957 8.92577L116.558 7.53703L115.17 8.92577L113.782 10.3171L115.173 11.7173L116.558 10.326L117.946 11.7134L116.558 13.0996L115.169 14.4909L113.783 13.1022L112.396 11.7147L111.006 10.326L109.616 8.92577L108.23 7.53703L109.619 6.14573L111.009 4.75572L112.394 6.14319L111.006 7.53448L112.394 8.92577L113.784 7.53448L115.174 6.14319L113.784 4.75317L112.398 3.36443L111.009 1.97314L109.619 3.36443L108.23 4.75572L106.841 6.14701L105.455 4.75827L104.069 3.3708L102.679 1.98078L101.291 3.37207L99.8898 4.75572L98.5039 6.14701L99.8936 7.5383L101.281 8.92577L102.67 7.53448L101.282 6.14447L102.67 4.75317L104.058 6.14192L105.443 7.52939L104.058 8.92577L102.668 10.326L101.278 11.716L99.8885 13.1073L98.5039 14.4922L97.1167 13.1034L95.7309 11.716L97.1129 10.326L98.5039 11.7134L99.8923 10.326L98.5039 8.92577L97.1155 7.53576L95.722 8.92577L94.3323 10.326L92.9426 11.7173L94.3323 13.1073L95.7194 14.496L97.1053 15.8835L95.7156 17.2748L94.3272 18.6661L92.9375 20.0561L94.3272 21.4474L95.7131 22.8361L97.1028 24.2261L98.5039 22.8387L99.8936 21.4486L98.495 20.0484L97.1053 21.4461L95.7182 20.0573L97.1078 18.6673L98.5039 17.276L99.8898 18.6635L101.277 20.051L102.663 21.4397L104.05 22.8272L105.436 24.2159L104.047 25.606L102.658 26.9972L101.271 25.6098L102.66 24.2185L101.269 22.8183L99.8796 24.2096L98.5039 25.6187L99.8936 27.0087L101.279 28.3974L102.669 29.7875L104.059 28.4013ZM105.449 21.4461L104.063 20.0586L102.676 18.6699L101.29 17.2824L99.9025 15.8937L101.292 14.5036L102.682 13.1124L104.07 11.7211L105.449 10.326L106.838 8.92577L108.224 10.3132L109.611 11.702L110.997 13.0894L112.384 14.4782L113.77 15.8657L112.382 17.2569L111.002 18.6635L109.613 20.0548L108.224 21.4448L106.834 22.8361L105.449 21.4461Z" fill="#9B1E14"/>
<path d="M109.62 17.2749L111.009 15.8849L109.62 14.4936L108.233 13.1061L106.845 11.7148L105.45 13.101L104.06 14.491L102.672 15.8823L104.06 17.2736L105.447 18.6611L106.836 20.0524L108.226 18.6611L109.62 17.2749ZM105.453 15.8849L106.842 14.4936L108.228 15.8823L106.838 17.2723L105.453 15.8849Z" fill="#9B1E14"/>
<path d="M106.842 0.58252L105.453 1.97314L106.845 3.36648L108.234 1.97585L106.842 0.58252Z" fill="#9B1E14"/>
<path d="M92.9437 14.4927L91.5547 15.8833L92.9464 17.2766L94.3354 15.886L92.9437 14.4927Z" fill="#9B1E14"/>
<path d="M152.695 61.7833V31.1826L122.13 31.1826V61.7833H152.695Z" fill="#9B1E14"/>
<path d="M137.413 55.0909L140.279 57.9587V53.4094L139.439 52.5692L139.091 52.2217L137.413 50.5415L135.734 52.2217L135.386 52.5692L134.547 53.4094V57.9587L137.413 55.0909Z" fill="#E43729"/>
<path d="M135.386 40.3993L135.734 40.7468L137.413 42.427L139.091 40.7468L139.439 40.3993L140.279 39.5579V35.0098L137.413 37.8776L134.547 35.0098V39.5579L135.386 40.3993Z" fill="#E43729"/>
<path d="M125.945 49.3522H130.489L131.329 48.5121L131.677 48.1646L133.355 46.4844L131.677 44.8029L131.329 44.4554L130.489 43.6152H125.945L128.811 46.4844L125.945 49.3522Z" fill="#E43729"/>
<path d="M143.139 48.1646L143.488 48.5121L144.327 49.3522H148.871L146.005 46.4844L148.871 43.6152H144.327L143.488 44.4554L143.139 44.8029L141.461 46.4844L143.139 48.1646Z" fill="#E43729"/>
<path d="M131.333 52.5687V56.6267L134.546 53.4088V52.2212V51.7286V49.3521H132.173H131.682H130.494L127.281 52.5687H131.333Z" fill="#E43729"/>
<path d="M142.647 43.615H143.138H144.326L147.538 40.3984H143.486V36.3403L140.273 39.557V40.7459V41.2385V43.615H142.647Z" fill="#E43729"/>
<path d="M130.494 43.615H131.682H132.173H134.546V41.2385V40.7459V39.557L131.333 36.3403V40.3984H127.281L130.494 43.615Z" fill="#E43729"/>
<path d="M143.486 56.6267V52.5687H147.538L144.326 49.3521H143.138H142.647H140.273V51.7286V52.2212V53.4088L143.486 56.6267Z" fill="#E43729"/>
<path d="M244.352 61.7843V31.1836L213.786 31.1836V61.7843H244.352Z" fill="#E03427"/>
<path d="M232.891 54.1328V53.4772V50.3077L229.07 46.4839V51.8925L231.308 54.1328L231.772 54.5974L232.891 55.7176V54.1328Z" fill="#FDBAAF"/>
<path d="M226.369 54.5979L226.833 54.1333L229.071 51.893V46.4844L225.25 50.3082V53.4777V54.1333V55.718L226.369 54.5979Z" fill="#FDBAAF"/>
<path d="M229.071 41.0751L226.833 38.8348L226.369 38.3702L225.25 37.25V38.8348V39.4903V42.6599L229.071 46.485V41.0751Z" fill="#FDBAAF"/>
<path d="M232.891 42.6599V39.4903V38.8348V37.25L231.772 38.3702L231.308 38.8348L229.07 41.0751V46.485L232.891 42.6599Z" fill="#FDBAAF"/>
<path d="M229.068 46.4843L225.247 42.6592H222.083H221.427H219.844L220.963 43.7793L221.427 44.2427L223.664 46.4843H229.068Z" fill="#FDBAAF"/>
<path d="M221.427 50.3082H222.083H225.247L229.068 46.4844H223.664L221.427 48.7247L220.963 49.188L219.844 50.3082H221.427Z" fill="#FDBAAF"/>
<path d="M236.056 50.3077H236.712H238.295L237.175 49.1875L236.712 48.7242L234.474 46.4839H229.07L232.891 50.3077H236.056Z" fill="#FDBAAF"/>
<path d="M234.474 46.4843L236.712 44.2427L237.175 43.7793L238.295 42.6592H236.712H236.056H232.891L229.07 46.4843H234.474Z" fill="#FDBAAF"/>
<path d="M213.797 61.7843V31.1836L183.231 31.1836V61.7843H213.797Z" fill="#EC5E57"/>
<path d="M202.346 50.3187V42.6494L198.516 46.4847L202.346 50.3187Z" fill="#FDBAAF"/>
<path d="M194.688 50.3184H202.348L198.517 46.4844L194.688 50.3184Z" fill="#FDBAAF"/>
<path d="M198.517 46.4847L194.688 42.6494V50.3187L198.517 46.4847Z" fill="#FDBAAF"/>
<path d="M202.348 42.6494H194.688L198.517 46.4847L202.348 42.6494Z" fill="#FDBAAF"/>
<path d="M202.344 50.3184H210.004L206.175 46.4844L202.344 50.3184Z" fill="#FDBAAF"/>
<path d="M210.004 42.6494H202.344L206.175 46.4847L210.004 42.6494Z" fill="#FDBAAF"/>
<path d="M187.023 50.3184H194.685L190.854 46.4844L187.023 50.3184Z" fill="#FDBAAF"/>
<path d="M194.685 42.6494H187.023L190.854 46.4847L194.685 42.6494Z" fill="#FDBAAF"/>
<path d="M194.688 50.3188V57.9894L198.517 54.1541L194.688 50.3188Z" fill="#FDBAAF"/>
<path d="M202.346 57.9894V50.3188L198.516 54.1541L202.346 57.9894Z" fill="#FDBAAF"/>
<path d="M194.688 34.9785V42.6491L198.517 38.8138L194.688 34.9785Z" fill="#FDBAAF"/>
<path d="M202.346 42.6491V34.9785L198.516 38.8138L202.346 42.6491Z" fill="#FDBAAF"/>
<path d="M152.677 61.7832L183.242 61.7832V31.1825L152.677 31.1825V61.7832Z" fill="#FDBAAF"/>
<path d="M167.961 46.4844V61.7835L175.602 54.1333L167.961 46.4844Z" fill="#E03427"/>
<path d="M175.602 54.1333L183.243 61.7835V46.4844L175.602 54.1333Z" fill="#E03427"/>
<path d="M152.68 46.4844V61.7835L160.321 54.1333L152.68 46.4844Z" fill="#E03427"/>
<path d="M160.32 54.1333L167.962 61.7835V46.4844L160.32 54.1333Z" fill="#E03427"/>
<path d="M167.961 46.4847H183.244L175.602 38.8345L167.961 46.4847Z" fill="#E03427"/>
<path d="M175.602 38.8338L183.244 31.1836H167.961L175.602 38.8338Z" fill="#E03427"/>
<path d="M152.68 46.4847H167.962L160.321 38.8345L152.68 46.4847Z" fill="#E03427"/>
<path d="M160.321 38.8338L167.962 31.1836H152.68L160.321 38.8338Z" fill="#E03427"/>
<path d="M122.141 61.7843V31.1836L91.575 31.1836V61.7843H122.141Z" fill="#FDBAAF"/>
<path d="M112.754 55.9904H114.382H118.315L115.534 53.2053L114.382 52.0521L108.82 46.4844H95.3906L104.887 55.9904H112.754Z" fill="#E03427"/>
<path d="M108.82 46.4844L114.382 40.9154L115.534 39.7622L118.315 36.9771H114.382H112.754H104.887L95.3906 46.4844H108.82Z" fill="#E03427"/>
<path d="M91.5625 61.7843V31.1836L61.035 31.1836V61.7843H91.5625Z" fill="#EB4941"/>
<path d="M76.2926 31.2119L61.0391 46.4843H91.5475L76.2926 31.2119Z" fill="#E43729"/>
<path d="M76.2926 46.4844L61.0391 61.7555H91.5475L76.2926 46.4844Z" fill="#E43729"/>
<path d="M122.125 92.3859V61.7852H91.5594V92.3859H122.125Z" fill="#EC5E57"/>
<path d="M114.948 85.1976H120.351L116.066 80.9092H114.483H113.829H110.664V84.0775V84.7343V86.319L114.948 90.6075V85.1976Z" fill="#FDBAAF"/>
<path d="M99.2037 73.2588H99.8585H103.024V70.0906V69.4337V67.849L98.7396 63.5605V68.9704H93.3359L97.6207 73.2588H99.2037Z" fill="#FDBAAF"/>
<path d="M98.7396 90.6075L103.024 86.319V84.7343V84.0775V80.9092H99.8585H99.2037H97.6207L93.3359 85.1976H98.7396V90.6075Z" fill="#FDBAAF"/>
<path d="M113.829 73.2588H114.483H116.066L120.351 68.9704H114.948V63.5605L110.664 67.849V69.4337V70.0906V73.2588H113.829Z" fill="#FDBAAF"/>
<path d="M244.352 92.3839V61.7832H213.786V92.3839H244.352Z" fill="#9B1E14"/>
<path d="M236.712 77.0833L229.07 69.4331V77.0833H236.712Z" fill="#E43729"/>
<path d="M229.07 84.7342L236.712 77.084H229.07V84.7342Z" fill="#E43729"/>
<path d="M229.071 77.084H221.43L229.071 84.7342V77.084Z" fill="#E43729"/>
<path d="M229.071 69.4336L221.43 77.0838H229.071V69.4336Z" fill="#E43729"/>
<path d="M236.711 77.0838L244.352 69.4336H236.711V77.0838Z" fill="#E43729"/>
<path d="M236.712 61.7832L229.07 69.4334H236.712V61.7832Z" fill="#E43729"/>
<path d="M221.43 92.3846L229.071 84.7344H221.43V92.3846Z" fill="#E43729"/>
<path d="M221.43 77.084L213.789 84.7342H221.43V77.084Z" fill="#E43729"/>
<path d="M229.07 84.7344L236.712 92.3846V84.7344H229.07Z" fill="#E43729"/>
<path d="M244.352 84.7342L236.711 77.084V84.7342H244.352Z" fill="#E43729"/>
<path d="M213.789 69.4336L221.43 77.0838V69.4336H213.789Z" fill="#E43729"/>
<path d="M229.071 69.4334L221.43 61.7832V69.4334H229.071Z" fill="#E43729"/>
<path d="M183.242 92.3839V61.7832H152.677V92.3839H183.242Z" fill="#EB4941"/>
<path d="M173.056 82.1845V71.9834L167.961 77.0839L173.056 82.1845Z" fill="#E43729"/>
<path d="M162.867 82.1845H173.055L167.961 77.084L162.867 82.1845Z" fill="#E43729"/>
<path d="M167.961 77.0839L162.867 71.9834V82.1845L167.961 77.0839Z" fill="#E43729"/>
<path d="M173.055 71.9834H162.867L167.961 77.0839L173.055 71.9834Z" fill="#E43729"/>
<path d="M173.055 82.1845H183.243L178.149 77.084L173.055 82.1845Z" fill="#E43729"/>
<path d="M183.243 71.9834H173.055L178.149 77.0839L183.243 71.9834Z" fill="#E43729"/>
<path d="M152.672 82.1845H162.861L157.767 77.084L152.672 82.1845Z" fill="#E43729"/>
<path d="M162.861 71.9834H152.672L157.767 77.0839L162.861 71.9834Z" fill="#E43729"/>
<path d="M162.867 82.1846V92.3844L167.961 87.2838L162.867 82.1846Z" fill="#E43729"/>
<path d="M173.056 92.3844V82.1846L167.961 87.2838L173.056 92.3844Z" fill="#E43729"/>
<path d="M162.867 61.7832V71.983L167.961 66.8837L162.867 61.7832Z" fill="#E43729"/>
<path d="M173.056 71.983V61.7832L167.961 66.8837L173.056 71.983Z" fill="#E43729"/>
<path d="M152.664 92.3859V61.7852H122.137V92.3859H152.664Z" fill="#E03427"/>
<path d="M137.374 92.3836L152.633 77.1074L137.393 61.8501L122.134 77.1263L137.374 92.3836Z" fill="#FDBAAF"/>
<path d="M213.773 92.3839V61.7832H183.246V92.3839H213.773Z" fill="#FDBAAF"/>
<path d="M212.405 75.6904L211.016 77.0811L212.407 78.4744L213.796 77.0838L212.405 75.6904Z" fill="#E03427"/>
<path d="M198.514 89.5991L197.125 90.9897L198.517 92.3831L199.906 90.9924L198.514 89.5991Z" fill="#E03427"/>
<path d="M195.732 89.6035L197.122 88.2122L198.512 86.8209L199.897 88.2097L201.285 89.5971L202.673 90.9884L204.063 89.5971L205.452 88.2071L206.841 86.8158L205.457 85.4284L204.068 84.0383L202.676 85.4284L204.065 86.8197L202.676 88.2109L201.29 86.8222L199.903 85.4347L201.292 84.0434L202.682 82.6521L204.07 81.2621L205.46 79.8708L206.85 78.4796L208.236 79.8683L209.623 81.2558L208.231 82.6458L206.842 81.2545L205.452 82.6458L206.841 84.0371L208.231 85.4284L209.62 84.0383L211.009 82.6471L212.398 81.2558L211.01 79.8657L209.624 78.477L208.237 77.0895L209.627 75.6982L211.016 74.307L212.406 72.9157L211.016 71.5256L209.629 70.1305L208.231 68.738L206.841 70.128L205.451 71.5193L206.843 72.9195L208.233 71.5282L209.619 72.9169L208.231 74.3006L206.841 75.6919L205.454 74.3031L204.068 72.9157L202.681 71.5269L201.295 70.1394L199.908 68.7507L201.297 67.3607L202.687 65.9694L204.073 67.3569L202.683 68.7482L204.082 70.142L205.471 68.7507L206.86 67.3594L205.471 65.9694L204.084 64.5807L202.696 63.1906L201.306 64.5807L199.899 65.9528L198.51 67.353L197.123 65.9643L195.737 64.5768L194.348 63.1855L192.958 64.5768L191.564 65.9528L190.176 67.353L191.564 68.7443L192.953 70.1344L194.342 68.7443L192.955 67.353L194.345 65.9618L195.731 67.3505L197.118 68.738L195.728 70.1293L194.34 71.5206L192.95 72.9118L191.561 74.3019L190.176 75.6932L188.79 74.3044L187.403 72.9169L188.793 71.5256L190.182 72.9169L191.571 71.5256L190.176 70.1331L188.786 68.7431L187.398 70.1344L186.008 71.5244L184.618 72.9157L186.008 74.307L187.394 75.6944L188.781 77.0832L187.391 78.4732L186.006 79.8657L184.617 81.257L186.006 82.6471L187.393 84.0358L188.781 85.4258L190.176 84.0409L191.566 82.6496L190.167 81.2494L188.777 82.6407L187.391 81.2532L188.781 79.8619L190.17 78.4706L191.557 79.8594L192.943 81.2469L194.33 82.6356L195.716 84.0231L197.102 85.4118L195.712 86.8031L194.323 88.1931L192.936 86.8056L194.326 85.4144L192.927 84.0142L191.563 85.4284L190.176 86.8197L191.564 88.2097L192.952 89.5984L194.341 90.9897L195.732 89.6035ZM197.122 82.6496L195.736 81.2609L194.349 79.8734L192.963 78.4846L191.576 77.0972L192.966 75.7059L194.354 74.3146L195.744 72.9233L197.133 71.5333L198.523 70.142L199.909 71.5307L201.296 72.9182L202.682 74.307L204.069 75.6944L205.455 77.0832L204.065 78.4732L202.677 79.8645L201.287 81.2558L199.897 82.6458L198.509 84.0371L197.122 82.6496Z" fill="#E03427"/>
<path d="M201.295 78.4764L202.685 77.0851L201.295 75.6938L199.909 74.3063L198.519 72.915L197.131 74.3063L195.741 75.6976L194.352 77.0876L195.741 78.4789L197.127 79.8664L198.517 81.2577L199.907 79.8664L201.295 78.4764ZM197.128 77.0851L198.517 75.6951L199.904 77.0825L198.514 78.4738L197.128 77.0851Z" fill="#E03427"/>
<path d="M198.514 61.7842L197.125 63.1748L198.517 64.5681L199.906 63.1775L198.514 61.7842Z" fill="#E03427"/>
<path d="M184.616 75.6938L183.227 77.0845L184.618 78.4778L186.007 77.0872L184.616 75.6938Z" fill="#E03427"/>
<path d="M91.5391 92.3839V61.7832H61.0116V92.3839H91.5391Z" fill="#FDBAAF"/>
<path d="M61.0078 92.3839V61.7832L91.5353 92.3839H61.0078Z" fill="#E03427"/>
<path d="M76.2734 77.1218V61.7935L91.5651 77.1218H76.2734Z" fill="#E03427"/>
</g>
<g opacity="0.45">
<path d="M30.7969 0.584606L30.7969 -30.0161L0.231258 -30.0161L0.231258 0.584606L30.7969 0.584606Z" fill="#FDBAAF"/>
<path d="M19.3359 0.582908L23.1566 -3.24219H19.3359V0.582908Z" fill="#EB4941"/>
<path d="M23.1562 -3.24219L26.9769 0.582908V-3.24219H23.1562Z" fill="#EB4941"/>
<path d="M4.05469 0.582908L7.87539 -3.24219H4.05469V0.582908Z" fill="#EB4941"/>
<path d="M7.875 -3.24219L11.6957 0.582908V-3.24219H7.875Z" fill="#EB4941"/>
<path d="M61.3516 0.58362V-30.0171L30.7859 -30.0171L30.7859 0.58362L61.3516 0.58362Z" fill="#F3AFAD"/>
<path d="M0.242188 0.5846L0.242188 -30.0161L-30.3234 -30.0161L-30.3234 0.5846L0.242188 0.5846Z" fill="#F3AFAD"/>
<path d="M61.3516 31.1847V0.583984L30.786 0.583984L30.786 31.1847L61.3516 31.1847Z" fill="#9B1E14"/>
<path d="M61.3453 0.582361V-30.0171L46.0625 -14.718L61.3453 0.582361Z" fill="#EC5E57"/>
<path d="M46.0641 -14.718L30.7812 -30.0171V0.582361L46.0641 -14.718Z" fill="#EC5E57"/>
<path d="M54.1663 23.9969H59.57L55.2865 19.7085H53.7035H53.0474H49.8828V22.8768V23.5336V25.1171L54.1663 29.4068V23.9969Z" fill="#FDBAAF"/>
<path d="M38.4211 12.0586H39.0772H42.2418V8.8891V8.23355V6.64878L37.9571 2.36035V7.76894H32.5547L36.8382 12.0586H38.4211Z" fill="#FDBAAF"/>
<path d="M37.9571 29.4068L42.2418 25.1171V23.5336V22.8768V19.7085H39.0772H38.4211H36.8382L32.5547 23.9969H37.9571V29.4068Z" fill="#FDBAAF"/>
<path d="M53.0474 12.0586H53.7035H55.2865L59.57 7.76894H54.1663V2.36035L49.8828 6.64878V8.23355V8.8891V12.0586H53.0474Z" fill="#FDBAAF"/>
<path d="M46.0629 27.3587L49.8836 31.1838V25.1171L48.7647 23.9969L48.3006 23.5336L46.0629 21.292L43.8251 23.5336L43.3611 23.9969L42.2422 25.1171V31.1838L46.0629 27.3587Z" fill="#FDBAAF"/>
<path d="M48.3006 8.23318L48.7647 7.76857L49.8836 6.64841V0.583008L46.0629 4.4081L42.2422 0.583008V6.64841L43.3611 7.76857L43.8251 8.23318L46.0629 10.4735L48.3006 8.23318Z" fill="#FDBAAF"/>
<path d="M36.8397 19.7083L37.9586 18.5881L38.4226 18.1235L40.6604 15.8832L38.4226 13.6429L37.9586 13.1783L36.8397 12.0581H30.7812L34.6019 15.8832L30.7812 19.7083H36.8397Z" fill="#FDBAAF"/>
<path d="M61.3479 19.7083L57.5272 15.8832L61.3479 12.0581H55.2895L54.1693 13.1783L53.7065 13.6429L51.4688 15.8832L53.7065 18.1235L54.1693 18.5881L55.2895 19.7083H61.3479Z" fill="#FDBAAF"/>
<path d="M30.7969 31.1847L30.7969 0.583984L0.231277 0.583984L0.231277 31.1847L30.7969 31.1847Z" fill="#EB4941"/>
<path d="M7.8667 15.8831L0.226562 8.23291V15.8831H7.8667Z" fill="#E03427"/>
<path d="M0.226562 23.534L7.8667 15.8838H0.226562V23.534Z" fill="#E03427"/>
<path d="M7.86719 15.8831L15.5086 8.23291H7.86719V15.8831Z" fill="#E03427"/>
<path d="M7.8667 0.583984L0.226562 8.23416H7.8667V0.583984Z" fill="#E03427"/>
<path d="M0.226562 23.5342L7.8667 31.1844V23.5342H0.226562Z" fill="#E03427"/>
<path d="M15.5086 23.534L7.86719 15.8838V23.534H15.5086Z" fill="#E03427"/>
<path d="M23.157 15.8831L15.5156 8.23291V15.8831H23.157Z" fill="#E03427"/>
<path d="M15.5156 23.534L23.157 15.8838H15.5156V23.534Z" fill="#E03427"/>
<path d="M23.1562 15.8831L30.7977 8.23291H23.1562V15.8831Z" fill="#E03427"/>
<path d="M23.157 0.583984L15.5156 8.23416H23.157V0.583984Z" fill="#E03427"/>
<path d="M15.5156 23.5342L23.157 31.1844V23.5342H15.5156Z" fill="#E03427"/>
<path d="M30.7977 23.534L23.1562 15.8838V23.534H30.7977Z" fill="#E03427"/>
<path d="M0.242188 31.1847L0.242188 0.583984L-30.3234 0.583984L-30.3234 31.1847L0.242188 31.1847Z" fill="#9B1E14"/>
<path d="M-15.0469 15.8843H0.234662L-15.0469 0.583984V15.8843Z" fill="#F3AFAD"/>
<path d="M61.3516 61.7843V31.1836L30.7859 31.1836L30.7859 61.7843H61.3516Z" fill="#E03427"/>
<path d="M49.891 54.1328V53.4772V50.3077L46.0703 46.4839V51.8925L48.3081 54.1328L48.7721 54.5974L49.891 55.7176V54.1328Z" fill="#FDBAAF"/>
<path d="M43.3689 54.5979L43.833 54.1333L46.0707 51.893V46.4844L42.25 50.3082V53.4777V54.1333V55.718L43.3689 54.5979Z" fill="#FDBAAF"/>
<path d="M46.0707 41.0751L43.833 38.8348L43.3689 38.3702L42.25 37.25V38.8348V39.4903V42.6599L46.0707 46.485V41.0751Z" fill="#FDBAAF"/>
<path d="M49.891 42.6599V39.4903V38.8348V37.25L48.7721 38.3702L48.3081 38.8348L46.0703 41.0751V46.485L49.891 42.6599Z" fill="#FDBAAF"/>
<path d="M46.0681 46.4843L42.2474 42.6592H39.0828H38.4267H36.8438L37.9626 43.7793L38.4267 44.2427L40.6645 46.4843H46.0681Z" fill="#FDBAAF"/>
<path d="M38.4267 50.3082H39.0828H42.2474L46.0681 46.4844H40.6645L38.4267 48.7247L37.9626 49.188L36.8438 50.3082H38.4267Z" fill="#FDBAAF"/>
<path d="M53.0556 50.3077H53.7117H55.2947L54.1745 49.1875L53.7117 48.7242L51.474 46.4839H46.0703L49.891 50.3077H53.0556Z" fill="#FDBAAF"/>
<path d="M51.474 46.4843L53.7117 44.2427L54.1745 43.7793L55.2947 42.6592H53.7117H53.0556H49.891L46.0703 46.4843H51.474Z" fill="#FDBAAF"/>
<path d="M30.7969 61.7843L30.7969 31.1836L0.231258 31.1836L0.231258 61.7843H30.7969Z" fill="#EC5E57"/>
<path d="M19.3465 50.3187V42.6494L15.5156 46.4847L19.3465 50.3187Z" fill="#FDBAAF"/>
<path d="M11.6875 50.3184H19.348L15.5171 46.4844L11.6875 50.3184Z" fill="#FDBAAF"/>
<path d="M15.5171 46.4847L11.6875 42.6494V50.3187L15.5171 46.4847Z" fill="#FDBAAF"/>
<path d="M19.348 42.6494H11.6875L15.5171 46.4847L19.348 42.6494Z" fill="#FDBAAF"/>
<path d="M19.3438 50.3184H27.0042L23.1746 46.4844L19.3438 50.3184Z" fill="#FDBAAF"/>
<path d="M27.0042 42.6494H19.3438L23.1746 46.4847L27.0042 42.6494Z" fill="#FDBAAF"/>
<path d="M4.02344 50.3184H11.6852L7.85431 46.4844L4.02344 50.3184Z" fill="#FDBAAF"/>
<path d="M11.6852 42.6494H4.02344L7.85431 46.4847L11.6852 42.6494Z" fill="#FDBAAF"/>
<path d="M11.6875 50.3188V57.9894L15.5171 54.1541L11.6875 50.3188Z" fill="#FDBAAF"/>
<path d="M19.3465 57.9894V50.3188L15.5156 54.1541L19.3465 57.9894Z" fill="#FDBAAF"/>
<path d="M11.6875 34.9785V42.6491L15.5171 38.8138L11.6875 34.9785Z" fill="#FDBAAF"/>
<path d="M19.3465 42.6491V34.9785L15.5156 38.8138L19.3465 42.6491Z" fill="#FDBAAF"/>
<path d="M-30.3234 61.7832L0.242188 61.7832L0.242187 31.1825L-30.3234 31.1825L-30.3234 61.7832Z" fill="#FDBAAF"/>
<path d="M-7.39844 54.1333L0.242963 61.7835V46.4844L-7.39844 54.1333Z" fill="#E03427"/>
<path d="M-15.0391 46.4847H0.243738L-7.39766 38.8345L-15.0391 46.4847Z" fill="#E03427"/>
<path d="M-7.39766 38.8338L0.243738 31.1836H-15.0391L-7.39766 38.8338Z" fill="#E03427"/>
<path d="M61.3516 92.3839V61.7832H30.7859L30.7859 92.3839H61.3516Z" fill="#9B1E14"/>
<path d="M53.7117 77.0833L46.0703 69.4331V77.0833H53.7117Z" fill="#E43729"/>
<path d="M46.0703 84.7342L53.7117 77.084H46.0703V84.7342Z" fill="#E43729"/>
<path d="M46.0711 77.084H38.4297L46.0711 84.7342V77.084Z" fill="#E43729"/>
<path d="M46.0711 69.4336L38.4297 77.0838H46.0711V69.4336Z" fill="#E43729"/>
<path d="M53.7109 77.0838L61.3523 69.4336H53.7109V77.0838Z" fill="#E43729"/>
<path d="M53.7117 61.7832L46.0703 69.4334H53.7117V61.7832Z" fill="#E43729"/>
<path d="M38.4297 92.3846L46.0711 84.7344H38.4297V92.3846Z" fill="#E43729"/>
<path d="M38.4305 77.084L30.7891 84.7342H38.4305V77.084Z" fill="#E43729"/>
<path d="M46.0703 84.7344L53.7117 92.3846V84.7344H46.0703Z" fill="#E43729"/>
<path d="M61.3523 84.7342L53.7109 77.084V84.7342H61.3523Z" fill="#E43729"/>
<path d="M30.7891 69.4336L38.4305 77.0838V69.4336H30.7891Z" fill="#E43729"/>
<path d="M46.0711 69.4334L38.4297 61.7832V69.4334H46.0711Z" fill="#E43729"/>
<path d="M0.242188 92.3839L0.242188 61.7832H-30.3234L-30.3234 92.3839H0.242188Z" fill="#EB4941"/>
<path d="M-9.94531 82.1845H0.242802L-4.85062 77.084L-9.94531 82.1845Z" fill="#E43729"/>
<path d="M0.242802 71.9834H-9.94531L-4.85062 77.0839L0.242802 71.9834Z" fill="#E43729"/>
<path d="M30.7734 92.3839L30.7734 61.7832H0.245972L0.245972 92.3839H30.7734Z" fill="#FDBAAF"/>
<path d="M29.4047 75.6904L28.0156 77.0811L29.4074 78.4744L30.7964 77.0838L29.4047 75.6904Z" fill="#E03427"/>
<path d="M15.514 89.5991L14.125 90.9897L15.5167 92.3831L16.9058 90.9924L15.514 89.5991Z" fill="#E03427"/>
<path d="M12.7322 89.6035L14.1219 88.2122L15.5116 86.8209L16.8974 88.2097L18.2846 89.5971L19.673 90.9884L21.0627 89.5971L22.4524 88.2071L23.8408 86.8158L22.4575 85.4284L21.0678 84.0383L19.6756 85.4284L21.0653 86.8197L19.6756 88.2109L18.2897 86.8222L16.9025 85.4347L18.2922 84.0434L19.6819 82.6521L21.0703 81.2621L22.46 79.8708L23.8497 78.4796L25.2356 79.8683L26.6228 81.2558L25.2305 82.6458L23.8421 81.2545L22.4524 82.6458L23.8408 84.0371L25.2305 85.4284L26.6202 84.0383L28.0086 82.6471L29.3983 81.2558L28.0099 79.8657L26.624 78.477L25.2369 77.0895L26.6266 75.6982L28.0163 74.307L29.406 72.9157L28.0163 71.5256L26.6291 70.1305L25.2305 68.738L23.8408 70.128L22.4511 71.5193L23.8434 72.9195L25.2331 71.5282L26.6189 72.9169L25.2305 74.3006L23.8408 75.6919L22.4537 74.3031L21.0678 72.9157L19.6806 71.5269L18.2948 70.1394L16.9076 68.7507L18.2973 67.3607L19.687 65.9694L21.0729 67.3569L19.6832 68.7482L21.0818 70.142L22.4715 68.7507L23.8599 67.3594L22.4715 65.9694L21.0843 64.5807L19.6959 63.1906L18.3062 64.5807L16.8987 65.9528L15.5103 67.353L14.1232 65.9643L12.7373 64.5768L11.3476 63.1855L9.95788 64.5768L8.56438 65.9528L7.17596 67.353L8.56438 68.7443L9.95279 70.1344L11.3425 68.7443L9.95534 67.353L11.345 65.9618L12.7309 67.3505L14.1181 68.738L12.7284 70.1293L11.3399 71.5206L9.95025 72.9118L8.56056 74.3019L7.17596 75.6932L5.79007 74.3044L4.40293 72.9169L5.79262 71.5256L7.18231 72.9169L8.57073 71.5256L7.17596 70.1331L5.78626 68.7431L4.39784 70.1344L3.00814 71.5244L1.61845 72.9157L3.00814 74.307L4.39403 75.6944L5.78118 77.0832L4.39148 78.4732L3.00561 79.8657L1.61719 81.257L3.00561 82.6471L4.39275 84.0358L5.78118 85.4258L7.17596 84.0409L8.56566 82.6496L7.16705 81.2494L5.77736 82.6407L4.39148 81.2532L5.78118 79.8619L7.1696 78.4706L8.55675 79.8594L9.94263 81.2469L11.3298 82.6356L12.7156 84.0231L14.1015 85.4118L12.7118 86.8031L11.3234 88.1931L9.93626 86.8056L11.326 85.4144L9.92737 84.0142L8.56311 85.4284L7.17596 86.8197L8.56438 88.2097L9.95152 89.5984L11.3412 90.9897L12.7322 89.6035ZM14.1219 82.6496L12.736 81.2609L11.3488 79.8734L9.96298 78.4846L8.57582 77.0972L9.96551 75.7059L11.3539 74.3146L12.7436 72.9233L14.1333 71.5333L15.523 70.142L16.9089 71.5307L18.296 72.9182L19.6819 74.307L21.0691 75.6944L22.455 77.0832L21.0653 78.4732L19.6768 79.8645L18.2871 81.2558L16.8974 82.6458L15.509 84.0371L14.1219 82.6496Z" fill="#E03427"/>
<path d="M18.2949 78.4764L19.6846 77.0851L18.2949 75.6938L16.9091 74.3063L15.5194 72.915L14.1309 74.3063L12.7412 75.6976L11.3516 77.0876L12.7412 78.4789L14.1271 79.8664L15.5168 81.2577L16.9065 79.8664L18.2949 78.4764ZM14.1284 77.0851L15.5168 75.6951L16.904 77.0825L15.5143 78.4738L14.1284 77.0851Z" fill="#E03427"/>
<path d="M15.514 61.7842L14.125 63.1748L15.5167 64.5681L16.9058 63.1775L15.514 61.7842Z" fill="#E03427"/>
<path d="M1.6156 75.6938L0.226562 77.0845L1.61829 78.4778L3.00732 77.0872L1.6156 75.6938Z" fill="#E03427"/>
</g>
</g>
<defs>
<clipPath id="clip0_84_109553">
<rect width="488" height="92" fill="white"/>
</clipPath>
</defs>
</svg>
