<svg width="488" height="92" viewBox="0 0 488 92" fill="none" xmlns="http://www.w3.org/2000/svg">
<g clip-path="url(#clip0_110_215718)">
<rect width="488" height="92" rx="46" fill="#D20000"/>
<g opacity="0.45">
<path d="M488.14 0.584545V-30.0162L457.574 -30.0162V0.584545L488.14 0.584545Z" fill="#EB4941"/>
<path d="M478.245 -0.406975L478.629 -0.791396L480.483 -2.64729V-7.12793L477.318 -3.95966V-1.33492V-0.791396V0.520973L478.245 -0.406975Z" fill="#E03427"/>
<path d="M482.337 -0.791396L482.721 -0.406975L483.649 0.520973V-0.791396V-1.33492V-3.95966L480.483 -7.12793V-2.64729L482.337 -0.791396Z" fill="#E03427"/>
<path d="M462.976 -0.406975L463.36 -0.791396L465.215 -2.64729V-7.12793L462.049 -3.95966V-1.33492V-0.791396V0.520973L462.976 -0.406975Z" fill="#E03427"/>
<path d="M467.068 -0.791396L467.452 -0.406975L468.379 0.520973V-0.791396V-1.33492V-3.95966L465.215 -7.12793V-2.64729L467.068 -0.791396Z" fill="#E03427"/>
<path d="M457.565 0.584545V-30.0162L427.038 -30.0162V0.584545L457.565 0.584545Z" fill="#9B1E14"/>
<path d="M457.566 0.58374H427V31.1845H457.566V0.58374Z" fill="#F3AFAD"/>
<path d="M452.321 23.7595L453.857 22.2219L457.566 18.5088H452.321H450.149H439.661L427 31.1844H444.905L452.321 23.7595Z" fill="#FDBAAF"/>
<path d="M439.661 18.5088V8.00861V5.83449V0.58374L435.952 4.29681L434.416 5.83449L427 13.2594V31.1845L439.661 18.5088Z" fill="#FDBAAF"/>
<path d="M488.104 31.1845V0.58374L457.576 0.58374V31.1845L488.104 31.1845Z" fill="#EB4941"/>
<path d="M486.731 14.4916L485.342 15.8822L486.734 17.2755L488.123 15.8849L486.731 14.4916Z" fill="#9B1E14"/>
<path d="M472.837 28.4001L471.448 29.7908L472.84 31.1841L474.229 29.7935L472.837 28.4001Z" fill="#9B1E14"/>
<path d="M470.062 28.4013L471.45 27.01L472.84 25.6187L474.226 27.0074L475.613 28.3949L477.003 29.7862L478.396 28.4013L479.786 27.01L481.176 25.62L479.786 24.2287L478.396 22.8387L477.005 24.2261L478.394 25.6174L477.005 27.0087L475.618 25.62L474.232 24.2325L475.621 22.8412L477.01 21.4499L478.4 20.0586L479.788 18.6686L481.178 17.2773L482.561 18.6635L483.947 20.051L482.561 21.4448L481.173 20.0535L479.783 21.4448L481.173 22.8348L482.561 24.2287L483.96 22.8374L485.35 21.4474L486.738 20.0561L485.35 18.6648L483.96 17.2748L482.561 15.8835L483.96 14.4935L485.35 13.1022L486.739 11.7109L485.343 10.326L483.96 8.92577L482.561 7.53703L481.173 8.92577L479.785 10.3171L481.176 11.7173L482.561 10.326L483.949 11.7134L482.561 13.0996L481.172 14.4909L479.786 13.1022L478.399 11.7147L477.009 10.326L475.619 8.92577L474.233 7.53703L475.622 6.14573L477.012 4.75572L478.397 6.14319L477.009 7.53448L478.397 8.92577L479.787 7.53448L481.177 6.14319L479.787 4.75317L478.401 3.36443L477.012 1.97314L475.622 3.36443L474.233 4.75572L472.844 6.14701L471.458 4.75827L470.072 3.3708L468.682 1.98078L467.294 3.37207L465.893 4.75572L464.507 6.14701L465.897 7.5383L467.284 8.92577L468.673 7.53448L467.285 6.14447L468.673 4.75317L470.061 6.14192L471.446 7.52939L470.061 8.92577L468.671 10.326L467.281 11.716L465.891 13.1073L464.507 14.4922L463.12 13.1034L461.734 11.716L463.116 10.326L464.507 11.7134L465.895 10.326L464.507 8.92577L463.118 7.53576L461.725 8.92577L460.335 10.326L458.946 11.7173L460.335 13.1073L461.722 14.496L463.108 15.8835L461.719 17.2748L460.33 18.6661L458.94 20.0561L460.33 21.4474L461.716 22.8361L463.106 24.2261L464.507 22.8387L465.897 21.4486L464.498 20.0484L463.108 21.4461L461.721 20.0573L463.111 18.6673L464.507 17.276L465.893 18.6635L467.28 20.051L468.666 21.4397L470.053 22.8272L471.439 24.2159L470.05 25.606L468.661 26.9972L467.274 25.6098L468.663 24.2185L467.272 22.8183L465.883 24.2096L464.507 25.6187L465.897 27.0087L467.282 28.3974L468.672 29.7875L470.062 28.4013ZM471.451 21.4461L470.066 20.0586L468.678 18.6699L467.293 17.2824L465.905 15.8937L467.295 14.5036L468.685 13.1124L470.073 11.7211L471.451 10.326L472.841 8.92577L474.227 10.3132L475.614 11.702L477 13.0894L478.387 14.4782L479.773 15.8657L478.385 17.2569L477.005 18.6635L475.615 20.0548L474.227 21.4448L472.837 22.8361L471.451 21.4461Z" fill="#9B1E14"/>
<path d="M475.62 17.275L477.009 15.885L475.62 14.4937L474.233 13.1062L472.845 11.7149L471.45 13.1011L470.06 14.4911L468.672 15.8824L470.06 17.2737L471.447 18.6612L472.836 20.0525L474.226 18.6612L475.62 17.275ZM471.453 15.885L472.842 14.4937L474.228 15.8824L472.838 17.2724L471.453 15.885Z" fill="#9B1E14"/>
<path d="M472.839 0.58252L471.45 1.97314L472.842 3.36648L474.231 1.97585L472.839 0.58252Z" fill="#9B1E14"/>
<path d="M458.946 14.4926L457.557 15.8832L458.949 17.2766L460.338 15.8859L458.946 14.4926Z" fill="#9B1E14"/>
<path d="M488.138 61.7844V31.1837L457.572 31.1837V61.7844H488.138Z" fill="#FDBAAF"/>
<path d="M478.755 55.9902H480.384H484.317L481.536 53.2051L480.384 52.0518L474.822 46.4841H461.393L470.889 55.9902H478.755Z" fill="#E03427"/>
<path d="M474.822 46.4846L480.384 40.9156L481.536 39.7624L484.317 36.9772H480.384H478.755H470.889L461.393 46.4846H474.822Z" fill="#E03427"/>
<path d="M457.564 61.7844V31.1837L427.037 31.1837V61.7844H457.564Z" fill="#EB4941"/>
<path d="M442.292 31.2122L427.038 46.4845H457.546L442.292 31.2122Z" fill="#E43729"/>
<path d="M442.292 46.4841L427.038 61.7552H457.546L442.292 46.4841Z" fill="#E43729"/>
<path d="M488.128 92.3858V61.7851H457.562V92.3858H488.128Z" fill="#EC5E57"/>
<path d="M480.949 85.1974H486.352L482.067 80.9089H480.484H479.83H476.665V84.0772V84.734V86.3188L480.949 90.6072V85.1974Z" fill="#FDBAAF"/>
<path d="M465.204 73.259H465.858H469.024V70.0907V69.4339V67.8491L464.74 63.5607V68.9705H459.336L463.621 73.259H465.204Z" fill="#FDBAAF"/>
<path d="M464.74 90.6072L469.024 86.3188V84.734V84.0772V80.9089H465.858H465.204H463.621L459.336 85.1974H464.74V90.6072Z" fill="#FDBAAF"/>
<path d="M479.83 73.259H480.484H482.067L486.352 68.9705H480.949V63.5607L476.665 67.8491V69.4339V70.0907V73.259H479.83Z" fill="#FDBAAF"/>
<path d="M457.537 92.3838V61.7831H427.01V92.3838H457.537Z" fill="#FDBAAF"/>
<path d="M427.01 92.3838V61.7831L457.537 92.3838H427.01Z" fill="#E03427"/>
<path d="M442.274 77.1218V61.7934L457.565 77.1218H442.274Z" fill="#E03427"/>
</g>
<g opacity="0.45">
<path d="M305.14 0.584545V-30.0162L274.574 -30.0162V0.584545L305.14 0.584545Z" fill="#EB4941"/>
<path d="M295.245 -0.406975L295.629 -0.791396L297.483 -2.64729V-7.12793L294.318 -3.95966V-1.33492V-0.791396V0.520973L295.245 -0.406975Z" fill="#E03427"/>
<path d="M299.337 -0.791396L299.721 -0.406975L300.649 0.520973V-0.791396V-1.33492V-3.95966L297.483 -7.12793V-2.64729L299.337 -0.791396Z" fill="#E03427"/>
<path d="M279.976 -0.406975L280.36 -0.791396L282.215 -2.64729V-7.12793L279.049 -3.95966V-1.33492V-0.791396V0.520973L279.976 -0.406975Z" fill="#E03427"/>
<path d="M284.068 -0.791396L284.452 -0.406975L285.379 0.520973V-0.791396V-1.33492V-3.95966L282.215 -7.12793V-2.64729L284.068 -0.791396Z" fill="#E03427"/>
<path d="M396.8 0.584545V-30.0162L366.234 -30.0162V0.584545L396.8 0.584545Z" fill="#FDBAAF"/>
<path d="M385.337 0.582969L389.158 -3.24213H385.337V0.582969Z" fill="#EB4941"/>
<path d="M389.158 -3.24213L392.979 0.582969V-3.24213H389.158Z" fill="#EB4941"/>
<path d="M370.055 0.582969L373.875 -3.24213H370.055V0.582969Z" fill="#EB4941"/>
<path d="M373.875 -3.24213L377.695 0.582969V-3.24213H373.875Z" fill="#EB4941"/>
<path d="M427.353 0.583559V-30.0172L396.787 -30.0172V0.583559L427.353 0.583559Z" fill="#F3AFAD"/>
<path d="M366.246 0.584539V-30.0162L335.68 -30.0162V0.584539L366.246 0.584539Z" fill="#F3AFAD"/>
<path d="M343.097 -4.6662L344.633 -3.12853L348.34 0.583277V-4.6662V-6.8416V-17.3418L335.681 -30.0162V-12.0923L343.097 -4.6662Z" fill="#FDBAAF"/>
<path d="M335.691 0.583563V-30.0172L305.126 -30.0172V0.583563L335.691 0.583563Z" fill="#9B1E14"/>
<path d="M320.41 -3.24148L324.23 0.583615V-5.4818L323.111 -6.60195L322.647 -7.06657L320.41 -9.30688L318.172 -7.06657L317.708 -6.60195L316.589 -5.4818V0.583615L320.41 -3.24148Z" fill="#FDBAAF"/>
<path d="M274.565 0.584545V-30.0162L244.038 -30.0162V0.584545L274.565 0.584545Z" fill="#9B1E14"/>
<path d="M427.353 31.1845V0.58374L396.787 0.58374V31.1845L427.353 31.1845Z" fill="#9B1E14"/>
<path d="M427.352 0.5823V-30.0172L412.069 -14.7181L427.352 0.5823Z" fill="#EC5E57"/>
<path d="M412.069 -14.7181L396.786 -30.0172V0.5823L412.069 -14.7181Z" fill="#EC5E57"/>
<path d="M420.173 23.9968H425.577L421.293 19.7083H419.71H419.054H415.89V22.8766V23.5334V25.1169L420.173 29.4066V23.9968Z" fill="#FDBAAF"/>
<path d="M404.428 12.0584H405.084H408.249V8.88885V8.23331V6.64854L403.964 2.36011V7.76869H398.561L402.845 12.0584H404.428Z" fill="#FDBAAF"/>
<path d="M403.964 29.4066L408.249 25.1169V23.5334V22.8766V19.7083H405.084H404.428H402.845L398.561 23.9968H403.964V29.4066Z" fill="#FDBAAF"/>
<path d="M419.054 12.0584H419.71H421.293L425.577 7.76869H420.173V2.36011L415.89 6.64854V8.23331V8.88885V12.0584H419.054Z" fill="#FDBAAF"/>
<path d="M412.068 27.3585L415.888 31.1836V25.1169L414.77 23.9967L414.306 23.5334L412.068 21.2918L409.83 23.5334L409.366 23.9967L408.247 25.1169V31.1836L412.068 27.3585Z" fill="#FDBAAF"/>
<path d="M414.306 8.23318L414.77 7.76857L415.888 6.64841V0.583008L412.068 4.4081L408.247 0.583008V6.64841L409.366 7.76857L409.83 8.23318L412.068 10.4735L414.306 8.23318Z" fill="#FDBAAF"/>
<path d="M402.844 19.7083L403.963 18.5881L404.427 18.1235L406.665 15.8832L404.427 13.6429L403.963 13.1783L402.844 12.0581H396.786L400.607 15.8832L396.786 19.7083H402.844Z" fill="#FDBAAF"/>
<path d="M427.352 19.7083L423.531 15.8832L427.352 12.0581H421.293L420.173 13.1783L419.71 13.6429L417.472 15.8832L419.71 18.1235L420.173 18.5881L421.293 19.7083H427.352Z" fill="#FDBAAF"/>
<path d="M335.681 31.1845V0.58374L305.115 0.58374V31.1845L335.681 31.1845Z" fill="#F3AFAD"/>
<path d="M324.572 5.79602V11.7049H330.474L327.826 14.3576L326.3 15.8851L327.826 17.4126L330.474 20.0653H324.572V25.9742L321.923 23.3227L320.397 21.7952L318.871 23.3227L316.219 25.9716V20.0628H310.322L312.97 17.41L314.496 15.8826L312.97 14.3551L310.322 11.7023H316.219V5.79348L318.869 8.44494L320.394 9.97243L321.92 8.44494L324.57 5.79348M326.731 0.580917L324.875 2.43427L324.112 3.19802L320.403 6.91109L316.696 3.19802L315.933 2.43427L314.078 0.578369V9.54091H305.115L306.97 11.3968L307.733 12.1606L311.441 15.8736L307.733 19.5854L306.97 20.3492L305.115 22.2064H314.068V31.1689L315.923 29.3117L316.686 28.548L320.393 24.8362L324.102 28.5582L324.865 29.3219L326.719 31.1791V22.2165H335.671L333.817 20.3594L333.054 19.5956L329.345 15.8838L333.054 12.1707L333.817 11.407L335.671 9.55111H326.729V0.583466L326.731 0.580917Z" fill="#EC5E57"/>
<path d="M396.795 31.1849V0.584229L366.229 0.584229V31.1849L396.795 31.1849Z" fill="#EB4941"/>
<path d="M373.871 15.8832L366.23 8.23297V15.8832H373.871Z" fill="#E03427"/>
<path d="M366.23 23.5339L373.871 15.8837H366.23V23.5339Z" fill="#E03427"/>
<path d="M373.871 15.8832L381.513 8.23297H373.871V15.8832Z" fill="#E03427"/>
<path d="M373.871 0.58374L366.23 8.23392H373.871V0.58374Z" fill="#E03427"/>
<path d="M366.23 23.5339L373.871 31.1841V23.5339H366.23Z" fill="#E03427"/>
<path d="M381.513 23.5339L373.871 15.8837V23.5339H381.513Z" fill="#E03427"/>
<path d="M389.154 15.8832L381.513 8.23297V15.8832H389.154Z" fill="#E03427"/>
<path d="M381.513 23.5339L389.154 15.8837H381.513V23.5339Z" fill="#E03427"/>
<path d="M389.153 15.8832L396.795 8.23297H389.153V15.8832Z" fill="#E03427"/>
<path d="M389.154 0.58374L381.513 8.23392H389.154V0.58374Z" fill="#E03427"/>
<path d="M381.513 23.5339L389.154 31.1841V23.5339H381.513Z" fill="#E03427"/>
<path d="M396.795 23.5339L389.153 15.8837V23.5339H396.795Z" fill="#E03427"/>
<path d="M366.239 31.1845V0.58374L335.673 0.58374V31.1845L366.239 31.1845Z" fill="#9B1E14"/>
<path d="M335.673 15.8837L350.956 31.1841V15.8837H335.673Z" fill="#F3AFAD"/>
<path d="M350.956 15.8841H366.238L350.956 0.58374V15.8841Z" fill="#F3AFAD"/>
<path d="M274.566 0.58374H244V31.1845H274.566V0.58374Z" fill="#F3AFAD"/>
<path d="M269.321 23.7595L270.857 22.2219L274.566 18.5088H269.321H267.149H256.661L244 31.1844H261.905L269.321 23.7595Z" fill="#FDBAAF"/>
<path d="M256.661 18.5088V8.00861V5.83449V0.58374L252.952 4.29681L251.416 5.83449L244 13.2594V31.1845L256.661 18.5088Z" fill="#FDBAAF"/>
<path d="M305.104 31.1845V0.58374L274.576 0.58374V31.1845L305.104 31.1845Z" fill="#EB4941"/>
<path d="M303.731 14.4916L302.342 15.8822L303.734 17.2755L305.123 15.8849L303.731 14.4916Z" fill="#9B1E14"/>
<path d="M289.837 28.4001L288.448 29.7908L289.84 31.1841L291.229 29.7935L289.837 28.4001Z" fill="#9B1E14"/>
<path d="M287.062 28.4013L288.45 27.01L289.84 25.6187L291.226 27.0074L292.613 28.3949L294.003 29.7862L295.396 28.4013L296.786 27.01L298.176 25.62L296.786 24.2287L295.396 22.8387L294.005 24.2261L295.394 25.6174L294.005 27.0087L292.618 25.62L291.232 24.2325L292.621 22.8412L294.01 21.4499L295.4 20.0586L296.788 18.6686L298.178 17.2773L299.561 18.6635L300.947 20.051L299.561 21.4448L298.173 20.0535L296.783 21.4448L298.173 22.8348L299.561 24.2287L300.96 22.8374L302.35 21.4474L303.738 20.0561L302.35 18.6648L300.96 17.2748L299.561 15.8835L300.96 14.4935L302.35 13.1022L303.739 11.7109L302.343 10.326L300.96 8.92577L299.561 7.53703L298.173 8.92577L296.785 10.3171L298.176 11.7173L299.561 10.326L300.949 11.7134L299.561 13.0996L298.172 14.4909L296.786 13.1022L295.399 11.7147L294.009 10.326L292.619 8.92577L291.233 7.53703L292.622 6.14573L294.012 4.75572L295.397 6.14319L294.009 7.53448L295.397 8.92577L296.787 7.53448L298.177 6.14319L296.787 4.75317L295.401 3.36443L294.012 1.97314L292.622 3.36443L291.233 4.75572L289.844 6.14701L288.458 4.75827L287.072 3.3708L285.682 1.98078L284.294 3.37207L282.893 4.75572L281.507 6.14701L282.897 7.5383L284.284 8.92577L285.673 7.53448L284.285 6.14447L285.673 4.75317L287.061 6.14192L288.446 7.52939L287.061 8.92577L285.671 10.326L284.281 11.716L282.891 13.1073L281.507 14.4922L280.12 13.1034L278.734 11.716L280.116 10.326L281.507 11.7134L282.895 10.326L281.507 8.92577L280.118 7.53576L278.725 8.92577L277.335 10.326L275.946 11.7173L277.335 13.1073L278.722 14.496L280.108 15.8835L278.719 17.2748L277.33 18.6661L275.94 20.0561L277.33 21.4474L278.716 22.8361L280.106 24.2261L281.507 22.8387L282.897 21.4486L281.498 20.0484L280.108 21.4461L278.721 20.0573L280.111 18.6673L281.507 17.276L282.893 18.6635L284.28 20.051L285.666 21.4397L287.053 22.8272L288.439 24.2159L287.05 25.606L285.661 26.9972L284.274 25.6098L285.663 24.2185L284.272 22.8183L282.883 24.2096L281.507 25.6187L282.897 27.0087L284.282 28.3974L285.672 29.7875L287.062 28.4013ZM288.451 21.4461L287.066 20.0586L285.678 18.6699L284.293 17.2824L282.905 15.8937L284.295 14.5036L285.685 13.1124L287.073 11.7211L288.451 10.326L289.841 8.92577L291.227 10.3132L292.614 11.702L294 13.0894L295.387 14.4782L296.773 15.8657L295.385 17.2569L294.005 18.6635L292.615 20.0548L291.227 21.4448L289.837 22.8361L288.451 21.4461Z" fill="#9B1E14"/>
<path d="M292.62 17.275L294.009 15.885L292.62 14.4937L291.233 13.1062L289.845 11.7149L288.45 13.1011L287.06 14.4911L285.672 15.8824L287.06 17.2737L288.447 18.6612L289.836 20.0525L291.226 18.6612L292.62 17.275ZM288.453 15.885L289.842 14.4937L291.228 15.8824L289.838 17.2724L288.453 15.885Z" fill="#9B1E14"/>
<path d="M289.839 0.58252L288.45 1.97314L289.842 3.36648L291.231 1.97585L289.839 0.58252Z" fill="#9B1E14"/>
<path d="M275.946 14.4926L274.557 15.8832L275.949 17.2766L277.338 15.8859L275.946 14.4926Z" fill="#9B1E14"/>
<path d="M335.691 61.7834V31.1827L305.126 31.1827V61.7834H335.691Z" fill="#9B1E14"/>
<path d="M320.41 55.0908L323.276 57.9586V53.4092L322.436 52.5691L322.088 52.2216L320.41 50.5414L318.731 52.2216L318.383 52.5691L317.544 53.4092V57.9586L320.41 55.0908Z" fill="#E43729"/>
<path d="M318.383 40.399L318.731 40.7465L320.41 42.4268L322.088 40.7465L322.436 40.399L323.276 39.5576V35.0095L320.41 37.8774L317.544 35.0095V39.5576L318.383 40.399Z" fill="#E43729"/>
<path d="M308.946 49.3523H313.491L314.33 48.5122L314.678 48.1647L316.356 46.4845L314.678 44.803L314.33 44.4555L313.491 43.6154H308.946L311.812 46.4845L308.946 49.3523Z" fill="#E43729"/>
<path d="M326.139 48.1647L326.487 48.5122L327.327 49.3523H331.871L329.005 46.4845L331.871 43.6154H327.327L326.487 44.4555L326.139 44.803L324.461 46.4845L326.139 48.1647Z" fill="#E43729"/>
<path d="M314.33 52.5686V56.6266L317.543 53.4087V52.2211V51.7285V49.3519H315.169H314.679H313.491L310.278 52.5686H314.33Z" fill="#E43729"/>
<path d="M325.648 43.6151H326.139H327.327L330.539 40.3985H326.487V36.3405L323.274 39.5571V40.746V41.2386V43.6151H325.648Z" fill="#E43729"/>
<path d="M313.491 43.6151H314.679H315.169H317.543V41.2386V40.746V39.5571L314.33 36.3405V40.3985H310.278L313.491 43.6151Z" fill="#E43729"/>
<path d="M326.487 56.6266V52.5686H330.539L327.327 49.3519H326.139H325.648H323.274V51.7285V52.2211V53.4087L326.487 56.6266Z" fill="#E43729"/>
<path d="M427.352 61.7844V31.1837L396.786 31.1837V61.7844H427.352Z" fill="#E03427"/>
<path d="M415.891 54.133V53.4775V50.3079L412.07 46.4841V51.8927L414.308 54.133L414.772 54.5976L415.891 55.7178V54.133Z" fill="#FDBAAF"/>
<path d="M409.368 54.5976L409.832 54.133L412.07 51.8927V46.4841L408.249 50.3079V53.4775V54.133V55.7178L409.368 54.5976Z" fill="#FDBAAF"/>
<path d="M412.07 41.075L409.832 38.8346L409.368 38.37L408.249 37.2499V38.8346V39.4902V42.6597L412.07 46.4848V41.075Z" fill="#FDBAAF"/>
<path d="M415.891 42.6597V39.4902V38.8346V37.2499L414.772 38.37L414.308 38.8346L412.07 41.075V46.4848L415.891 42.6597Z" fill="#FDBAAF"/>
<path d="M412.07 46.4843L408.249 42.6592H405.085H404.429H402.846L403.965 43.7794L404.429 44.2427L406.666 46.4843H412.07Z" fill="#FDBAAF"/>
<path d="M404.429 50.3079H405.085H408.249L412.07 46.4841H406.666L404.429 48.7244L403.965 49.1878L402.846 50.3079H404.429Z" fill="#FDBAAF"/>
<path d="M419.056 50.3079H419.712H421.295L420.175 49.1878L419.712 48.7244L417.474 46.4841H412.07L415.891 50.3079H419.056Z" fill="#FDBAAF"/>
<path d="M417.474 46.4843L419.712 44.2427L420.175 43.7794L421.295 42.6592H419.712H419.056H415.891L412.07 46.4843H417.474Z" fill="#FDBAAF"/>
<path d="M396.799 61.7844V31.1837L366.233 31.1837V61.7844H396.799Z" fill="#EC5E57"/>
<path d="M385.346 50.3187V42.6494L381.516 46.4847L385.346 50.3187Z" fill="#FDBAAF"/>
<path d="M377.686 50.3181H385.347L381.516 46.4841L377.686 50.3181Z" fill="#FDBAAF"/>
<path d="M381.516 46.4847L377.686 42.6494V50.3187L381.516 46.4847Z" fill="#FDBAAF"/>
<path d="M385.347 42.6494H377.686L381.516 46.4847L385.347 42.6494Z" fill="#FDBAAF"/>
<path d="M385.347 50.3181H393.007L389.178 46.4841L385.347 50.3181Z" fill="#FDBAAF"/>
<path d="M393.007 42.6494H385.347L389.178 46.4847L393.007 42.6494Z" fill="#FDBAAF"/>
<path d="M370.025 50.3181H377.687L373.856 46.4841L370.025 50.3181Z" fill="#FDBAAF"/>
<path d="M377.687 42.6494H370.025L373.856 46.4847L377.687 42.6494Z" fill="#FDBAAF"/>
<path d="M377.686 50.3188V57.9894L381.516 54.1541L377.686 50.3188Z" fill="#FDBAAF"/>
<path d="M385.346 57.9894V50.3188L381.516 54.1541L385.346 57.9894Z" fill="#FDBAAF"/>
<path d="M377.686 34.9786V42.6491L381.516 38.8138L377.686 34.9786Z" fill="#FDBAAF"/>
<path d="M385.346 42.6491V34.9786L381.516 38.8138L385.346 42.6491Z" fill="#FDBAAF"/>
<path d="M335.68 61.7831L366.245 61.7831V31.1824L335.68 31.1824V61.7831Z" fill="#FDBAAF"/>
<path d="M350.964 46.4841V61.7832L358.605 54.133L350.964 46.4841Z" fill="#E03427"/>
<path d="M358.605 54.133L366.246 61.7832V46.4841L358.605 54.133Z" fill="#E03427"/>
<path d="M335.681 46.4841V61.7832L343.322 54.133L335.681 46.4841Z" fill="#E03427"/>
<path d="M343.321 54.133L350.963 61.7832V46.4841L343.321 54.133Z" fill="#E03427"/>
<path d="M350.964 46.4846H366.247L358.605 38.8344L350.964 46.4846Z" fill="#E03427"/>
<path d="M358.605 38.8338L366.247 31.1837H350.964L358.605 38.8338Z" fill="#E03427"/>
<path d="M335.681 46.4846H350.963L343.322 38.8344L335.681 46.4846Z" fill="#E03427"/>
<path d="M343.322 38.8338L350.963 31.1837H335.681L343.322 38.8338Z" fill="#E03427"/>
<path d="M305.138 61.7844V31.1837L274.572 31.1837V61.7844H305.138Z" fill="#FDBAAF"/>
<path d="M295.755 55.9902H297.384H301.317L298.536 53.2051L297.384 52.0518L291.822 46.4841H278.393L287.889 55.9902H295.755Z" fill="#E03427"/>
<path d="M291.822 46.4846L297.384 40.9156L298.536 39.7624L301.317 36.9772H297.384H295.755H287.889L278.393 46.4846H291.822Z" fill="#E03427"/>
<path d="M274.564 61.7844V31.1837L244.037 31.1837V61.7844H274.564Z" fill="#EB4941"/>
<path d="M259.292 31.2122L244.038 46.4845H274.546L259.292 31.2122Z" fill="#E43729"/>
<path d="M259.292 46.4841L244.038 61.7552H274.546L259.292 46.4841Z" fill="#E43729"/>
<path d="M305.128 92.3858V61.7851H274.562V92.3858H305.128Z" fill="#EC5E57"/>
<path d="M297.949 85.1974H303.352L299.067 80.9089H297.484H296.83H293.665V84.0772V84.734V86.3188L297.949 90.6072V85.1974Z" fill="#FDBAAF"/>
<path d="M282.204 73.259H282.858H286.024V70.0907V69.4339V67.8491L281.74 63.5607V68.9705H276.336L280.621 73.259H282.204Z" fill="#FDBAAF"/>
<path d="M281.74 90.6072L286.024 86.3188V84.734V84.0772V80.9089H282.858H282.204H280.621L276.336 85.1974H281.74V90.6072Z" fill="#FDBAAF"/>
<path d="M296.83 73.259H297.484H299.067L303.352 68.9705H297.949V63.5607L293.665 67.8491V69.4339V70.0907V73.259H296.83Z" fill="#FDBAAF"/>
<path d="M427.353 92.3838V61.7831H396.787V92.3838H427.353Z" fill="#9B1E14"/>
<path d="M419.712 77.0835L412.07 69.4333V77.0835H419.712Z" fill="#E43729"/>
<path d="M412.07 84.7342L419.712 77.084H412.07V84.7342Z" fill="#E43729"/>
<path d="M412.07 77.084H404.429L412.07 84.7342V77.084Z" fill="#E43729"/>
<path d="M412.07 69.4333L404.429 77.0835H412.07V69.4333Z" fill="#E43729"/>
<path d="M419.712 77.0835L427.353 69.4333H419.712V77.0835Z" fill="#E43729"/>
<path d="M419.712 61.7831L412.07 69.4333H419.712V61.7831Z" fill="#E43729"/>
<path d="M404.429 92.3844L412.07 84.7343H404.429V92.3844Z" fill="#E43729"/>
<path d="M404.429 77.084L396.787 84.7342H404.429V77.084Z" fill="#E43729"/>
<path d="M412.07 84.7343L419.712 92.3844V84.7343H412.07Z" fill="#E43729"/>
<path d="M427.353 84.7342L419.712 77.084V84.7342H427.353Z" fill="#E43729"/>
<path d="M396.787 69.4333L404.429 77.0835V69.4333H396.787Z" fill="#E43729"/>
<path d="M412.07 69.4333L404.429 61.7831V69.4333H412.07Z" fill="#E43729"/>
<path d="M366.24 92.3838V61.7831H335.675V92.3838H366.24Z" fill="#EB4941"/>
<path d="M356.052 82.1844V71.9833L350.957 77.0838L356.052 82.1844Z" fill="#E43729"/>
<path d="M345.863 82.1846H356.051L350.957 77.084L345.863 82.1846Z" fill="#E43729"/>
<path d="M350.957 77.0838L345.863 71.9833V82.1844L350.957 77.0838Z" fill="#E43729"/>
<path d="M356.051 71.9833H345.863L350.957 77.0838L356.051 71.9833Z" fill="#E43729"/>
<path d="M356.052 82.1846H366.24L361.147 77.084L356.052 82.1846Z" fill="#E43729"/>
<path d="M366.24 71.9833H356.052L361.147 77.0838L366.24 71.9833Z" fill="#E43729"/>
<path d="M335.674 82.1846H345.863L340.769 77.084L335.674 82.1846Z" fill="#E43729"/>
<path d="M345.863 71.9833H335.674L340.769 77.0838L345.863 71.9833Z" fill="#E43729"/>
<path d="M345.863 82.1844V92.3842L350.957 87.2836L345.863 82.1844Z" fill="#E43729"/>
<path d="M356.052 92.3842V82.1844L350.957 87.2836L356.052 92.3842Z" fill="#E43729"/>
<path d="M345.863 61.7831V71.9829L350.957 66.8836L345.863 61.7831Z" fill="#E43729"/>
<path d="M356.052 71.9829V61.7831L350.957 66.8836L356.052 71.9829Z" fill="#E43729"/>
<path d="M335.664 92.3858V61.7851H305.136V92.3858H335.664Z" fill="#E03427"/>
<path d="M320.377 92.3834L335.635 77.1072L320.396 61.8499L305.137 77.1261L320.377 92.3834Z" fill="#FDBAAF"/>
<path d="M396.777 92.3838V61.7831H366.25V92.3838H396.777Z" fill="#FDBAAF"/>
<path d="M395.405 75.6905L394.016 77.0811L395.407 78.4745L396.796 77.0838L395.405 75.6905Z" fill="#E03427"/>
<path d="M381.511 89.5991L380.122 90.9897L381.514 92.383L382.903 90.9924L381.511 89.5991Z" fill="#E03427"/>
<path d="M378.735 89.6033L380.125 88.212L381.515 86.8207L382.9 88.2094L384.288 89.5969L385.676 90.9882L387.066 89.5969L388.455 88.2069L389.844 86.8156L388.46 85.4281L387.071 84.0381L385.679 85.4281L387.068 86.8194L385.679 88.2107L384.293 86.8219L382.905 85.4345L384.295 84.0432L385.685 82.6519L387.073 81.2619L388.463 79.8706L389.853 78.4793L391.239 79.868L392.626 81.2555L391.233 82.6455L389.845 81.2542L388.455 82.6455L389.844 84.0368L391.233 85.4281L392.623 84.0381L394.012 82.6468L395.401 81.2555L394.013 79.8655L392.627 78.4768L391.24 77.0893L392.629 75.698L394.019 74.3067L395.409 72.9154L394.019 71.5254L392.632 70.1303L391.233 68.7377L389.844 70.1278L388.454 71.519L389.846 72.9192L391.236 71.528L392.622 72.9167L391.233 74.3003L389.844 75.6916L388.457 74.3029L387.071 72.9154L385.684 71.5267L384.298 70.1392L382.911 68.7505L384.3 67.3605L385.69 65.9692L387.076 67.3566L385.686 68.7479L387.085 70.1418L388.474 68.7505L389.863 67.3592L388.474 65.9692L387.087 64.5804L385.699 63.1904L384.309 64.5804L382.902 65.9526L381.513 67.3528L380.126 65.9641L378.74 64.5766L377.351 63.1853L375.961 64.5766L374.567 65.9526L373.179 67.3528L374.567 68.7441L375.956 70.1341L377.345 68.7441L375.958 67.3528L377.348 65.9615L378.734 67.3503L380.121 68.7377L378.731 70.129L377.343 71.5203L375.953 72.9116L374.563 74.3016L373.179 75.6929L371.793 74.3042L370.406 72.9167L371.796 71.5254L373.185 72.9167L374.574 71.5254L373.179 70.1328L371.789 68.7428L370.401 70.1341L369.011 71.5241L367.621 72.9154L369.011 74.3067L370.397 75.6942L371.784 77.0829L370.394 78.4729L369.009 79.8655L367.62 81.2568L369.009 82.6468L370.396 84.0356L371.784 85.4256L373.179 84.0406L374.569 82.6494L373.17 81.2492L371.78 82.6404L370.394 81.253L371.784 79.8617L373.173 78.4704L374.56 79.8591L375.946 81.2466L377.333 82.6354L378.719 84.0228L380.104 85.4116L378.715 86.8029L377.326 88.1929L375.939 86.8054L377.329 85.4141L375.93 84.0139L374.566 85.4281L373.179 86.8194L374.567 88.2094L375.954 89.5982L377.344 90.9894L378.735 89.6033ZM380.125 82.6494L378.739 81.2606L377.352 79.8731L375.966 78.4844L374.579 77.0969L375.968 75.7056L377.357 74.3143L378.747 72.9231L380.136 71.533L381.526 70.1418L382.912 71.5305L384.299 72.918L385.685 74.3067L387.072 75.6942L388.458 77.0829L387.068 78.4729L385.68 79.8642L384.29 81.2555L382.9 82.6455L381.512 84.0368L380.125 82.6494Z" fill="#E03427"/>
<path d="M384.293 78.4766L385.683 77.0853L384.293 75.6941L382.907 74.3066L381.518 72.9153L380.129 74.3066L378.739 75.6979L377.35 77.0879L378.739 78.4792L380.125 79.8666L381.515 81.2579L382.905 79.8666L384.293 78.4766ZM380.127 77.0853L381.515 75.6953L382.902 77.0828L381.512 78.4741L380.127 77.0853Z" fill="#E03427"/>
<path d="M381.513 61.7844L380.124 63.175L381.516 64.5683L382.905 63.1777L381.513 61.7844Z" fill="#E03427"/>
<path d="M367.62 75.6939L366.23 77.0845L367.622 78.4779L369.011 77.0872L367.62 75.6939Z" fill="#E03427"/>
<path d="M274.537 92.3838V61.7831H244.01V92.3838H274.537Z" fill="#FDBAAF"/>
<path d="M244.01 92.3838V61.7831L274.537 92.3838H244.01Z" fill="#E03427"/>
<path d="M259.274 77.1218V61.7934L274.565 77.1218H259.274Z" fill="#E03427"/>
</g>
<g opacity="0.45">
<path d="M122.14 0.584545V-30.0162L91.574 -30.0162V0.584545L122.14 0.584545Z" fill="#EB4941"/>
<path d="M112.245 -0.406975L112.629 -0.791396L114.483 -2.64729V-7.12793L111.318 -3.95966V-1.33492V-0.791396V0.520973L112.245 -0.406975Z" fill="#E03427"/>
<path d="M116.337 -0.791396L116.721 -0.406975L117.649 0.520973V-0.791396V-1.33492V-3.95966L114.483 -7.12793V-2.64729L116.337 -0.791396Z" fill="#E03427"/>
<path d="M96.9758 -0.406975L97.3598 -0.791396L99.2149 -2.64729V-7.12793L96.049 -3.95966V-1.33492V-0.791396V0.520973L96.9758 -0.406975Z" fill="#E03427"/>
<path d="M101.068 -0.791396L101.452 -0.406975L102.379 0.520973V-0.791396V-1.33492V-3.95966L99.2147 -7.12793V-2.64729L101.068 -0.791396Z" fill="#E03427"/>
<path d="M213.8 0.584545V-30.0162L183.234 -30.0162V0.584545L213.8 0.584545Z" fill="#FDBAAF"/>
<path d="M202.337 0.582969L206.158 -3.24213H202.337V0.582969Z" fill="#EB4941"/>
<path d="M206.158 -3.24213L209.979 0.582969V-3.24213H206.158Z" fill="#EB4941"/>
<path d="M187.055 0.582969L190.875 -3.24213H187.055V0.582969Z" fill="#EB4941"/>
<path d="M190.875 -3.24213L194.695 0.582969V-3.24213H190.875Z" fill="#EB4941"/>
<path d="M244.353 0.583559V-30.0172L213.787 -30.0172V0.583559L244.353 0.583559Z" fill="#F3AFAD"/>
<path d="M183.246 0.584539V-30.0162L152.68 -30.0162V0.584539L183.246 0.584539Z" fill="#F3AFAD"/>
<path d="M160.097 -4.6662L161.633 -3.12853L165.34 0.583277V-4.6662V-6.8416V-17.3418L152.681 -30.0162V-12.0923L160.097 -4.6662Z" fill="#FDBAAF"/>
<path d="M152.691 0.583563V-30.0172L122.126 -30.0172V0.583563L152.691 0.583563Z" fill="#9B1E14"/>
<path d="M137.41 -3.24148L141.23 0.583615V-5.4818L140.111 -6.60195L139.647 -7.06657L137.41 -9.30688L135.172 -7.06657L134.708 -6.60195L133.589 -5.4818V0.583615L137.41 -3.24148Z" fill="#FDBAAF"/>
<path d="M91.5652 0.584545V-30.0162L61.0377 -30.0162V0.584545L91.5652 0.584545Z" fill="#9B1E14"/>
<path d="M244.353 31.1845V0.58374L213.787 0.58374V31.1845L244.353 31.1845Z" fill="#9B1E14"/>
<path d="M244.352 0.5823V-30.0172L229.069 -14.7181L244.352 0.5823Z" fill="#EC5E57"/>
<path d="M229.069 -14.7181L213.786 -30.0172V0.5823L229.069 -14.7181Z" fill="#EC5E57"/>
<path d="M237.173 23.9968H242.577L238.293 19.7083H236.71H236.054H232.89V22.8766V23.5334V25.1169L237.173 29.4066V23.9968Z" fill="#FDBAAF"/>
<path d="M221.428 12.0584H222.084H225.249V8.88885V8.23331V6.64854L220.964 2.36011V7.76869H215.561L219.845 12.0584H221.428Z" fill="#FDBAAF"/>
<path d="M220.964 29.4066L225.249 25.1169V23.5334V22.8766V19.7083H222.084H221.428H219.845L215.561 23.9968H220.964V29.4066Z" fill="#FDBAAF"/>
<path d="M236.054 12.0584H236.71H238.293L242.577 7.76869H237.173V2.36011L232.89 6.64854V8.23331V8.88885V12.0584H236.054Z" fill="#FDBAAF"/>
<path d="M229.068 27.3585L232.888 31.1836V25.1169L231.77 23.9967L231.306 23.5334L229.068 21.2918L226.83 23.5334L226.366 23.9967L225.247 25.1169V31.1836L229.068 27.3585Z" fill="#FDBAAF"/>
<path d="M231.306 8.23318L231.77 7.76857L232.888 6.64841V0.583008L229.068 4.4081L225.247 0.583008V6.64841L226.366 7.76857L226.83 8.23318L229.068 10.4735L231.306 8.23318Z" fill="#FDBAAF"/>
<path d="M219.844 19.7083L220.963 18.5881L221.427 18.1235L223.665 15.8832L221.427 13.6429L220.963 13.1783L219.844 12.0581H213.786L217.607 15.8832L213.786 19.7083H219.844Z" fill="#FDBAAF"/>
<path d="M244.352 19.7083L240.531 15.8832L244.352 12.0581H238.293L237.173 13.1783L236.71 13.6429L234.472 15.8832L236.71 18.1235L237.173 18.5881L238.293 19.7083H244.352Z" fill="#FDBAAF"/>
<path d="M152.681 31.1845V0.58374L122.115 0.58374V31.1845L152.681 31.1845Z" fill="#F3AFAD"/>
<path d="M141.572 5.79602V11.7049H147.474L144.826 14.3576L143.3 15.8851L144.826 17.4126L147.474 20.0653H141.572V25.9742L138.923 23.3227L137.397 21.7952L135.871 23.3227L133.219 25.9716V20.0628H127.322L129.97 17.41L131.496 15.8826L129.97 14.3551L127.322 11.7023H133.219V5.79348L135.869 8.44494L137.394 9.97243L138.92 8.44494L141.57 5.79348M143.731 0.580917L141.875 2.43427L141.112 3.19802L137.403 6.91109L133.696 3.19802L132.933 2.43427L131.078 0.578369V9.54091H122.115L123.97 11.3968L124.733 12.1606L128.441 15.8736L124.733 19.5854L123.97 20.3492L122.115 22.2064H131.068V31.1689L132.923 29.3117L133.686 28.548L137.393 24.8362L141.102 28.5582L141.865 29.3219L143.719 31.1791V22.2165H152.671L150.817 20.3594L150.054 19.5956L146.345 15.8838L150.054 12.1707L150.817 11.407L152.671 9.55111H143.729V0.583466L143.731 0.580917Z" fill="#EC5E57"/>
<path d="M213.795 31.1849V0.584229L183.229 0.584229V31.1849L213.795 31.1849Z" fill="#EB4941"/>
<path d="M190.871 15.8832L183.23 8.23297V15.8832H190.871Z" fill="#E03427"/>
<path d="M183.23 23.5339L190.871 15.8837H183.23V23.5339Z" fill="#E03427"/>
<path d="M190.871 15.8832L198.513 8.23297H190.871V15.8832Z" fill="#E03427"/>
<path d="M190.871 0.58374L183.23 8.23392H190.871V0.58374Z" fill="#E03427"/>
<path d="M183.23 23.5339L190.871 31.1841V23.5339H183.23Z" fill="#E03427"/>
<path d="M198.513 23.5339L190.871 15.8837V23.5339H198.513Z" fill="#E03427"/>
<path d="M206.154 15.8832L198.513 8.23297V15.8832H206.154Z" fill="#E03427"/>
<path d="M198.513 23.5339L206.154 15.8837H198.513V23.5339Z" fill="#E03427"/>
<path d="M206.153 15.8832L213.795 8.23297H206.153V15.8832Z" fill="#E03427"/>
<path d="M206.154 0.58374L198.513 8.23392H206.154V0.58374Z" fill="#E03427"/>
<path d="M198.513 23.5339L206.154 31.1841V23.5339H198.513Z" fill="#E03427"/>
<path d="M213.795 23.5339L206.153 15.8837V23.5339H213.795Z" fill="#E03427"/>
<path d="M183.239 31.1845V0.58374L152.673 0.58374V31.1845L183.239 31.1845Z" fill="#9B1E14"/>
<path d="M152.673 15.8837L167.956 31.1841V15.8837H152.673Z" fill="#F3AFAD"/>
<path d="M167.956 15.8841H183.238L167.956 0.58374V15.8841Z" fill="#F3AFAD"/>
<path d="M91.5656 0.58374H61V31.1845H91.5656V0.58374Z" fill="#F3AFAD"/>
<path d="M86.3209 23.7595L87.8568 22.2219L91.5656 18.5088H86.3209H84.1493H73.6611L61 31.1844H78.9045L86.3209 23.7595Z" fill="#FDBAAF"/>
<path d="M73.6611 18.5088V8.00861V5.83449V0.58374L69.9523 4.29681L68.4164 5.83449L61 13.2594V31.1845L73.6611 18.5088Z" fill="#FDBAAF"/>
<path d="M122.104 31.1845V0.58374L91.576 0.58374V31.1845L122.104 31.1845Z" fill="#EB4941"/>
<path d="M120.731 14.4916L119.342 15.8822L120.734 17.2755L122.123 15.8849L120.731 14.4916Z" fill="#9B1E14"/>
<path d="M106.837 28.4001L105.448 29.7908L106.84 31.1841L108.229 29.7935L106.837 28.4001Z" fill="#9B1E14"/>
<path d="M104.062 28.4013L105.45 27.01L106.84 25.6187L108.226 27.0074L109.613 28.3949L111.003 29.7862L112.396 28.4013L113.786 27.01L115.176 25.62L113.786 24.2287L112.396 22.8387L111.005 24.2261L112.394 25.6174L111.005 27.0087L109.618 25.62L108.232 24.2325L109.621 22.8412L111.01 21.4499L112.4 20.0586L113.788 18.6686L115.178 17.2773L116.561 18.6635L117.947 20.051L116.561 21.4448L115.173 20.0535L113.783 21.4448L115.173 22.8348L116.561 24.2287L117.96 22.8374L119.35 21.4474L120.738 20.0561L119.35 18.6648L117.96 17.2748L116.561 15.8835L117.96 14.4935L119.35 13.1022L120.739 11.7109L119.343 10.326L117.96 8.92577L116.561 7.53703L115.173 8.92577L113.785 10.3171L115.176 11.7173L116.561 10.326L117.949 11.7134L116.561 13.0996L115.172 14.4909L113.786 13.1022L112.399 11.7147L111.009 10.326L109.619 8.92577L108.233 7.53703L109.622 6.14573L111.012 4.75572L112.397 6.14319L111.009 7.53448L112.397 8.92577L113.787 7.53448L115.177 6.14319L113.787 4.75317L112.401 3.36443L111.012 1.97314L109.622 3.36443L108.233 4.75572L106.844 6.14701L105.458 4.75827L104.072 3.3708L102.682 1.98078L101.294 3.37207L99.8927 4.75572L98.5068 6.14701L99.8965 7.5383L101.284 8.92577L102.673 7.53448L101.285 6.14447L102.673 4.75317L104.061 6.14192L105.446 7.52939L104.061 8.92577L102.671 10.326L101.281 11.716L99.8914 13.1073L98.5068 14.4922L97.1197 13.1034L95.7338 11.716L97.1159 10.326L98.5068 11.7134L99.8953 10.326L98.5068 8.92577L97.1184 7.53576L95.7249 8.92577L94.3352 10.326L92.9455 11.7173L94.3352 13.1073L95.7224 14.496L97.1082 15.8835L95.7185 17.2748L94.3301 18.6661L92.9404 20.0561L94.3301 21.4474L95.716 22.8361L97.1057 24.2261L98.5068 22.8387L99.8965 21.4486L98.4979 20.0484L97.1082 21.4461L95.7211 20.0573L97.1108 18.6673L98.5068 17.276L99.8927 18.6635L101.28 20.051L102.666 21.4397L104.053 22.8272L105.439 24.2159L104.05 25.606L102.661 26.9972L101.274 25.6098L102.663 24.2185L101.272 22.8183L99.8825 24.2096L98.5068 25.6187L99.8965 27.0087L101.282 28.3974L102.672 29.7875L104.062 28.4013ZM105.451 21.4461L104.066 20.0586L102.678 18.6699L101.293 17.2824L99.9054 15.8937L101.295 14.5036L102.685 13.1124L104.073 11.7211L105.451 10.326L106.841 8.92577L108.227 10.3132L109.614 11.702L111 13.0894L112.387 14.4782L113.773 15.8657L112.385 17.2569L111.005 18.6635L109.615 20.0548L108.227 21.4448L106.837 22.8361L105.451 21.4461Z" fill="#9B1E14"/>
<path d="M109.62 17.275L111.009 15.885L109.62 14.4937L108.233 13.1062L106.845 11.7149L105.45 13.1011L104.06 14.4911L102.672 15.8824L104.06 17.2737L105.447 18.6612L106.836 20.0525L108.226 18.6612L109.62 17.275ZM105.453 15.885L106.842 14.4937L108.228 15.8824L106.838 17.2724L105.453 15.885Z" fill="#9B1E14"/>
<path d="M106.839 0.58252L105.45 1.97314L106.842 3.36648L108.231 1.97585L106.839 0.58252Z" fill="#9B1E14"/>
<path d="M92.9464 14.4926L91.5574 15.8832L92.9491 17.2766L94.3381 15.8859L92.9464 14.4926Z" fill="#9B1E14"/>
<path d="M152.691 61.7834V31.1827L122.126 31.1827V61.7834H152.691Z" fill="#9B1E14"/>
<path d="M137.41 55.0908L140.276 57.9586V53.4092L139.436 52.5691L139.088 52.2216L137.41 50.5414L135.731 52.2216L135.383 52.5691L134.544 53.4092V57.9586L137.41 55.0908Z" fill="#E43729"/>
<path d="M135.383 40.399L135.731 40.7465L137.41 42.4268L139.088 40.7465L139.436 40.399L140.276 39.5576V35.0095L137.41 37.8774L134.544 35.0095V39.5576L135.383 40.399Z" fill="#E43729"/>
<path d="M125.946 49.3523H130.491L131.33 48.5122L131.678 48.1647L133.356 46.4845L131.678 44.803L131.33 44.4555L130.491 43.6154H125.946L128.812 46.4845L125.946 49.3523Z" fill="#E43729"/>
<path d="M143.139 48.1647L143.487 48.5122L144.327 49.3523H148.871L146.005 46.4845L148.871 43.6154H144.327L143.487 44.4555L143.139 44.803L141.461 46.4845L143.139 48.1647Z" fill="#E43729"/>
<path d="M131.33 52.5686V56.6266L134.543 53.4087V52.2211V51.7285V49.3519H132.169H131.679H130.491L127.278 52.5686H131.33Z" fill="#E43729"/>
<path d="M142.648 43.6151H143.139H144.327L147.539 40.3985H143.487V36.3405L140.274 39.5571V40.746V41.2386V43.6151H142.648Z" fill="#E43729"/>
<path d="M130.491 43.6151H131.679H132.169H134.543V41.2386V40.746V39.5571L131.33 36.3405V40.3985H127.278L130.491 43.6151Z" fill="#E43729"/>
<path d="M143.487 56.6266V52.5686H147.539L144.327 49.3519H143.139H142.648H140.274V51.7285V52.2211V53.4087L143.487 56.6266Z" fill="#E43729"/>
<path d="M244.352 61.7844V31.1837L213.786 31.1837V61.7844H244.352Z" fill="#E03427"/>
<path d="M232.891 54.133V53.4775V50.3079L229.07 46.4841V51.8927L231.308 54.133L231.772 54.5976L232.891 55.7178V54.133Z" fill="#FDBAAF"/>
<path d="M226.368 54.5976L226.832 54.133L229.07 51.8927V46.4841L225.249 50.3079V53.4775V54.133V55.7178L226.368 54.5976Z" fill="#FDBAAF"/>
<path d="M229.07 41.075L226.832 38.8346L226.368 38.37L225.249 37.2499V38.8346V39.4902V42.6597L229.07 46.4848V41.075Z" fill="#FDBAAF"/>
<path d="M232.891 42.6597V39.4902V38.8346V37.2499L231.772 38.37L231.308 38.8346L229.07 41.075V46.4848L232.891 42.6597Z" fill="#FDBAAF"/>
<path d="M229.07 46.4843L225.249 42.6592H222.085H221.429H219.846L220.965 43.7794L221.429 44.2427L223.666 46.4843H229.07Z" fill="#FDBAAF"/>
<path d="M221.429 50.3079H222.085H225.249L229.07 46.4841H223.666L221.429 48.7244L220.965 49.1878L219.846 50.3079H221.429Z" fill="#FDBAAF"/>
<path d="M236.056 50.3079H236.712H238.295L237.175 49.1878L236.712 48.7244L234.474 46.4841H229.07L232.891 50.3079H236.056Z" fill="#FDBAAF"/>
<path d="M234.474 46.4843L236.712 44.2427L237.175 43.7794L238.295 42.6592H236.712H236.056H232.891L229.07 46.4843H234.474Z" fill="#FDBAAF"/>
<path d="M213.799 61.7844V31.1837L183.233 31.1837V61.7844H213.799Z" fill="#EC5E57"/>
<path d="M202.346 50.3187V42.6494L198.516 46.4847L202.346 50.3187Z" fill="#FDBAAF"/>
<path d="M194.686 50.3181H202.347L198.516 46.4841L194.686 50.3181Z" fill="#FDBAAF"/>
<path d="M198.516 46.4847L194.686 42.6494V50.3187L198.516 46.4847Z" fill="#FDBAAF"/>
<path d="M202.347 42.6494H194.686L198.516 46.4847L202.347 42.6494Z" fill="#FDBAAF"/>
<path d="M202.347 50.3181H210.007L206.178 46.4841L202.347 50.3181Z" fill="#FDBAAF"/>
<path d="M210.007 42.6494H202.347L206.178 46.4847L210.007 42.6494Z" fill="#FDBAAF"/>
<path d="M187.025 50.3181H194.687L190.856 46.4841L187.025 50.3181Z" fill="#FDBAAF"/>
<path d="M194.687 42.6494H187.025L190.856 46.4847L194.687 42.6494Z" fill="#FDBAAF"/>
<path d="M194.686 50.3188V57.9894L198.516 54.1541L194.686 50.3188Z" fill="#FDBAAF"/>
<path d="M202.346 57.9894V50.3188L198.516 54.1541L202.346 57.9894Z" fill="#FDBAAF"/>
<path d="M194.686 34.9786V42.6491L198.516 38.8138L194.686 34.9786Z" fill="#FDBAAF"/>
<path d="M202.346 42.6491V34.9786L198.516 38.8138L202.346 42.6491Z" fill="#FDBAAF"/>
<path d="M152.68 61.7831L183.245 61.7831V31.1824L152.68 31.1824V61.7831Z" fill="#FDBAAF"/>
<path d="M167.964 46.4841V61.7832L175.605 54.133L167.964 46.4841Z" fill="#E03427"/>
<path d="M175.605 54.133L183.246 61.7832V46.4841L175.605 54.133Z" fill="#E03427"/>
<path d="M152.681 46.4841V61.7832L160.322 54.133L152.681 46.4841Z" fill="#E03427"/>
<path d="M160.321 54.133L167.963 61.7832V46.4841L160.321 54.133Z" fill="#E03427"/>
<path d="M167.964 46.4846H183.247L175.605 38.8344L167.964 46.4846Z" fill="#E03427"/>
<path d="M175.605 38.8338L183.247 31.1837H167.964L175.605 38.8338Z" fill="#E03427"/>
<path d="M152.681 46.4846H167.963L160.322 38.8344L152.681 46.4846Z" fill="#E03427"/>
<path d="M160.322 38.8338L167.963 31.1837H152.681L160.322 38.8338Z" fill="#E03427"/>
<path d="M122.138 61.7844V31.1837L91.5722 31.1837V61.7844H122.138Z" fill="#FDBAAF"/>
<path d="M112.755 55.9902H114.384H118.317L115.536 53.2051L114.384 52.0518L108.822 46.4841H95.3926L104.889 55.9902H112.755Z" fill="#E03427"/>
<path d="M108.822 46.4846L114.384 40.9156L115.536 39.7624L118.317 36.9772H114.384H112.755H104.889L95.3926 46.4846H108.822Z" fill="#E03427"/>
<path d="M91.5642 61.7844V31.1837L61.0367 31.1837V61.7844H91.5642Z" fill="#EB4941"/>
<path d="M76.2916 31.2122L61.0381 46.4845H91.5465L76.2916 31.2122Z" fill="#E43729"/>
<path d="M76.2916 46.4841L61.0381 61.7552H91.5465L76.2916 46.4841Z" fill="#E43729"/>
<path d="M122.128 92.3858V61.7851H91.5623V92.3858H122.128Z" fill="#EC5E57"/>
<path d="M114.949 85.1974H120.352L116.067 80.9089H114.484H113.83H110.665V84.0772V84.734V86.3188L114.949 90.6072V85.1974Z" fill="#FDBAAF"/>
<path d="M99.2037 73.259H99.8585H103.024V70.0907V69.4339V67.8491L98.7396 63.5607V68.9705H93.3359L97.6207 73.259H99.2037Z" fill="#FDBAAF"/>
<path d="M98.7396 90.6072L103.024 86.3188V84.734V84.0772V80.9089H99.8585H99.2037H97.6207L93.3359 85.1974H98.7396V90.6072Z" fill="#FDBAAF"/>
<path d="M113.83 73.259H114.484H116.067L120.352 68.9705H114.949V63.5607L110.665 67.8491V69.4339V70.0907V73.259H113.83Z" fill="#FDBAAF"/>
<path d="M244.353 92.3838V61.7831H213.787V92.3838H244.353Z" fill="#9B1E14"/>
<path d="M236.712 77.0835L229.07 69.4333V77.0835H236.712Z" fill="#E43729"/>
<path d="M229.07 84.7342L236.712 77.084H229.07V84.7342Z" fill="#E43729"/>
<path d="M229.07 77.084H221.429L229.07 84.7342V77.084Z" fill="#E43729"/>
<path d="M229.07 69.4333L221.429 77.0835H229.07V69.4333Z" fill="#E43729"/>
<path d="M236.712 77.0835L244.353 69.4333H236.712V77.0835Z" fill="#E43729"/>
<path d="M236.712 61.7831L229.07 69.4333H236.712V61.7831Z" fill="#E43729"/>
<path d="M221.429 92.3844L229.07 84.7343H221.429V92.3844Z" fill="#E43729"/>
<path d="M221.429 77.084L213.787 84.7342H221.429V77.084Z" fill="#E43729"/>
<path d="M229.07 84.7343L236.712 92.3844V84.7343H229.07Z" fill="#E43729"/>
<path d="M244.353 84.7342L236.712 77.084V84.7342H244.353Z" fill="#E43729"/>
<path d="M213.787 69.4333L221.429 77.0835V69.4333H213.787Z" fill="#E43729"/>
<path d="M229.07 69.4333L221.429 61.7831V69.4333H229.07Z" fill="#E43729"/>
<path d="M183.24 92.3838V61.7831H152.675V92.3838H183.24Z" fill="#EB4941"/>
<path d="M173.052 82.1844V71.9833L167.957 77.0838L173.052 82.1844Z" fill="#E43729"/>
<path d="M162.863 82.1846H173.051L167.957 77.084L162.863 82.1846Z" fill="#E43729"/>
<path d="M167.957 77.0838L162.863 71.9833V82.1844L167.957 77.0838Z" fill="#E43729"/>
<path d="M173.051 71.9833H162.863L167.957 77.0838L173.051 71.9833Z" fill="#E43729"/>
<path d="M173.052 82.1846H183.24L178.147 77.084L173.052 82.1846Z" fill="#E43729"/>
<path d="M183.24 71.9833H173.052L178.147 77.0838L183.24 71.9833Z" fill="#E43729"/>
<path d="M152.674 82.1846H162.863L157.769 77.084L152.674 82.1846Z" fill="#E43729"/>
<path d="M162.863 71.9833H152.674L157.769 77.0838L162.863 71.9833Z" fill="#E43729"/>
<path d="M162.863 82.1844V92.3842L167.957 87.2836L162.863 82.1844Z" fill="#E43729"/>
<path d="M173.052 92.3842V82.1844L167.957 87.2836L173.052 92.3842Z" fill="#E43729"/>
<path d="M162.863 61.7831V71.9829L167.957 66.8836L162.863 61.7831Z" fill="#E43729"/>
<path d="M173.052 71.9829V61.7831L167.957 66.8836L173.052 71.9829Z" fill="#E43729"/>
<path d="M152.664 92.3858V61.7851H122.136V92.3858H152.664Z" fill="#E03427"/>
<path d="M137.377 92.3834L152.635 77.1072L137.396 61.8499L122.137 77.1261L137.377 92.3834Z" fill="#FDBAAF"/>
<path d="M213.777 92.3838V61.7831H183.25V92.3838H213.777Z" fill="#FDBAAF"/>
<path d="M212.405 75.6905L211.016 77.0811L212.407 78.4745L213.796 77.0838L212.405 75.6905Z" fill="#E03427"/>
<path d="M198.511 89.5991L197.122 90.9897L198.514 92.383L199.903 90.9924L198.511 89.5991Z" fill="#E03427"/>
<path d="M195.735 89.6033L197.125 88.212L198.515 86.8207L199.9 88.2094L201.288 89.5969L202.676 90.9882L204.066 89.5969L205.455 88.2069L206.844 86.8156L205.46 85.4281L204.071 84.0381L202.679 85.4281L204.068 86.8194L202.679 88.2107L201.293 86.8219L199.905 85.4345L201.295 84.0432L202.685 82.6519L204.073 81.2619L205.463 79.8706L206.853 78.4793L208.239 79.868L209.626 81.2555L208.233 82.6455L206.845 81.2542L205.455 82.6455L206.844 84.0368L208.233 85.4281L209.623 84.0381L211.012 82.6468L212.401 81.2555L211.013 79.8655L209.627 78.4768L208.24 77.0893L209.629 75.698L211.019 74.3067L212.409 72.9154L211.019 71.5254L209.632 70.1303L208.233 68.7377L206.844 70.1278L205.454 71.519L206.846 72.9192L208.236 71.528L209.622 72.9167L208.233 74.3003L206.844 75.6916L205.457 74.3029L204.071 72.9154L202.684 71.5267L201.298 70.1392L199.911 68.7505L201.3 67.3605L202.69 65.9692L204.076 67.3566L202.686 68.7479L204.085 70.1418L205.474 68.7505L206.863 67.3592L205.474 65.9692L204.087 64.5804L202.699 63.1904L201.309 64.5804L199.902 65.9526L198.513 67.3528L197.126 65.9641L195.74 64.5766L194.351 63.1853L192.961 64.5766L191.567 65.9526L190.179 67.3528L191.567 68.7441L192.956 70.1341L194.345 68.7441L192.958 67.3528L194.348 65.9615L195.734 67.3503L197.121 68.7377L195.731 70.129L194.343 71.5203L192.953 72.9116L191.563 74.3016L190.179 75.6929L188.793 74.3042L187.406 72.9167L188.796 71.5254L190.185 72.9167L191.574 71.5254L190.179 70.1328L188.789 68.7428L187.401 70.1341L186.011 71.5241L184.621 72.9154L186.011 74.3067L187.397 75.6942L188.784 77.0829L187.394 78.4729L186.009 79.8655L184.62 81.2568L186.009 82.6468L187.396 84.0356L188.784 85.4256L190.179 84.0406L191.569 82.6494L190.17 81.2492L188.78 82.6404L187.394 81.253L188.784 79.8617L190.173 78.4704L191.56 79.8591L192.946 81.2466L194.333 82.6354L195.719 84.0228L197.104 85.4116L195.715 86.8029L194.326 88.1929L192.939 86.8054L194.329 85.4141L192.93 84.0139L191.566 85.4281L190.179 86.8194L191.567 88.2094L192.954 89.5982L194.344 90.9894L195.735 89.6033ZM197.125 82.6494L195.739 81.2606L194.352 79.8731L192.966 78.4844L191.579 77.0969L192.968 75.7056L194.357 74.3143L195.747 72.9231L197.136 71.533L198.526 70.1418L199.912 71.5305L201.299 72.918L202.685 74.3067L204.072 75.6942L205.458 77.0829L204.068 78.4729L202.68 79.8642L201.29 81.2555L199.9 82.6455L198.512 84.0368L197.125 82.6494Z" fill="#E03427"/>
<path d="M201.293 78.4766L202.683 77.0853L201.293 75.6941L199.907 74.3066L198.518 72.9153L197.129 74.3066L195.739 75.6979L194.35 77.0879L195.739 78.4792L197.125 79.8666L198.515 81.2579L199.905 79.8666L201.293 78.4766ZM197.127 77.0853L198.515 75.6953L199.902 77.0828L198.512 78.4741L197.127 77.0853Z" fill="#E03427"/>
<path d="M198.513 61.7844L197.124 63.175L198.516 64.5683L199.905 63.1777L198.513 61.7844Z" fill="#E03427"/>
<path d="M184.62 75.6939L183.23 77.0845L184.622 78.4779L186.011 77.0872L184.62 75.6939Z" fill="#E03427"/>
<path d="M91.5371 92.3838V61.7831H61.0096V92.3838H91.5371Z" fill="#FDBAAF"/>
<path d="M61.0098 92.3838V61.7831L91.5372 92.3838H61.0098Z" fill="#E03427"/>
<path d="M76.2736 77.1218V61.7934L91.5653 77.1218H76.2736Z" fill="#E03427"/>
</g>
<g opacity="0.45">
<path d="M30.7998 0.584545L30.7998 -30.0162L0.234188 -30.0162L0.234188 0.584545L30.7998 0.584545Z" fill="#FDBAAF"/>
<path d="M19.3369 0.582969L23.1576 -3.24213H19.3369V0.582969Z" fill="#EB4941"/>
<path d="M23.1581 -3.24213L26.9788 0.582969V-3.24213H23.1581Z" fill="#EB4941"/>
<path d="M4.05469 0.582969L7.87539 -3.24213H4.05469V0.582969Z" fill="#EB4941"/>
<path d="M7.87476 -3.24213L11.6955 0.582969V-3.24213H7.87476Z" fill="#EB4941"/>
<path d="M61.3525 0.583559V-30.0172L30.7869 -30.0172L30.7869 0.583559L61.3525 0.583559Z" fill="#F3AFAD"/>
<path d="M0.246094 0.584539L0.246094 -30.0162L-30.3195 -30.0162L-30.3195 0.584539L0.246094 0.584539Z" fill="#F3AFAD"/>
<path d="M61.3525 31.1845V0.58374L30.7869 0.58374L30.7869 31.1845L61.3525 31.1845Z" fill="#9B1E14"/>
<path d="M61.3519 0.5823V-30.0172L46.0691 -14.7181L61.3519 0.5823Z" fill="#EC5E57"/>
<path d="M46.0687 -14.7181L30.7859 -30.0172V0.5823L46.0687 -14.7181Z" fill="#EC5E57"/>
<path d="M54.173 23.9968H59.5767L55.2932 19.7083H53.7102H53.0541H49.8895V22.8766V23.5334V25.1169L54.173 29.4066V23.9968Z" fill="#FDBAAF"/>
<path d="M38.4279 12.0584H39.0839H42.2486V8.88885V8.23331V6.64854L37.9638 2.36011V7.76869H32.5614L36.8449 12.0584H38.4279Z" fill="#FDBAAF"/>
<path d="M37.9638 29.4066L42.2486 25.1169V23.5334V22.8766V19.7083H39.0839H38.4279H36.8449L32.5614 23.9968H37.9638V29.4066Z" fill="#FDBAAF"/>
<path d="M53.0541 12.0584H53.7102H55.2932L59.5767 7.76869H54.173V2.36011L49.8895 6.64854V8.23331V8.88885V12.0584H53.0541Z" fill="#FDBAAF"/>
<path d="M46.0678 27.3585L49.8885 31.1836V25.1169L48.7696 23.9967L48.3055 23.5334L46.0678 21.2918L43.83 23.5334L43.366 23.9967L42.2471 25.1169V31.1836L46.0678 27.3585Z" fill="#FDBAAF"/>
<path d="M48.3055 8.23318L48.7696 7.76857L49.8885 6.64841V0.583008L46.0678 4.4081L42.2471 0.583008V6.64841L43.366 7.76857L43.83 8.23318L46.0678 10.4735L48.3055 8.23318Z" fill="#FDBAAF"/>
<path d="M36.8444 19.7083L37.9633 18.5881L38.4274 18.1235L40.6652 15.8832L38.4274 13.6429L37.9633 13.1783L36.8444 12.0581H30.786L34.6067 15.8832L30.786 19.7083H36.8444Z" fill="#FDBAAF"/>
<path d="M61.3516 19.7083L57.5309 15.8832L61.3516 12.0581H55.2931L54.173 13.1783L53.7102 13.6429L51.4724 15.8832L53.7102 18.1235L54.173 18.5881L55.2931 19.7083H61.3516Z" fill="#FDBAAF"/>
<path d="M30.7949 31.1849L30.7949 0.584229L0.229324 0.584229L0.229324 31.1849L30.7949 31.1849Z" fill="#EB4941"/>
<path d="M7.8706 15.8832L0.230469 8.23297V15.8832H7.8706Z" fill="#E03427"/>
<path d="M0.230469 23.5339L7.8706 15.8837H0.230469V23.5339Z" fill="#E03427"/>
<path d="M7.87109 15.8832L15.5125 8.23297H7.87109V15.8832Z" fill="#E03427"/>
<path d="M7.8706 0.58374L0.230469 8.23392H7.8706V0.58374Z" fill="#E03427"/>
<path d="M0.230469 23.5339L7.8706 31.1841V23.5339H0.230469Z" fill="#E03427"/>
<path d="M15.5125 23.5339L7.87109 15.8837V23.5339H15.5125Z" fill="#E03427"/>
<path d="M23.154 15.8832L15.5126 8.23297V15.8832H23.154Z" fill="#E03427"/>
<path d="M15.5126 23.5339L23.154 15.8837H15.5126V23.5339Z" fill="#E03427"/>
<path d="M23.1533 15.8832L30.7947 8.23297H23.1533V15.8832Z" fill="#E03427"/>
<path d="M23.154 0.58374L15.5126 8.23392H23.154V0.58374Z" fill="#E03427"/>
<path d="M15.5126 23.5339L23.154 31.1841V23.5339H15.5126Z" fill="#E03427"/>
<path d="M30.7947 23.5339L23.1533 15.8837V23.5339H30.7947Z" fill="#E03427"/>
<path d="M0.238525 31.1845L0.238525 0.58374L-30.3271 0.58374L-30.3271 31.1845L0.238525 31.1845Z" fill="#9B1E14"/>
<path d="M-15.0439 15.8841H0.237592L-15.0439 0.58374V15.8841Z" fill="#F3AFAD"/>
<path d="M61.3516 61.7844V31.1837L30.7859 31.1837L30.7859 61.7844H61.3516Z" fill="#E03427"/>
<path d="M49.8911 54.133V53.4775V50.3079L46.0704 46.4841V51.8927L48.3082 54.133L48.7723 54.5976L49.8911 55.7178V54.133Z" fill="#FDBAAF"/>
<path d="M43.368 54.5976L43.8321 54.133L46.0699 51.8927V46.4841L42.2491 50.3079V53.4775V54.133V55.7178L43.368 54.5976Z" fill="#FDBAAF"/>
<path d="M46.0699 41.075L43.8321 38.8346L43.368 38.37L42.2491 37.2499V38.8346V39.4902V42.6597L46.0699 46.4848V41.075Z" fill="#FDBAAF"/>
<path d="M49.8911 42.6597V39.4902V38.8346V37.2499L48.7723 38.37L48.3082 38.8346L46.0704 41.075V46.4848L49.8911 42.6597Z" fill="#FDBAAF"/>
<path d="M46.0701 46.4843L42.2494 42.6592H39.0847H38.4287H36.8457L37.9646 43.7794L38.4287 44.2427L40.6664 46.4843H46.0701Z" fill="#FDBAAF"/>
<path d="M38.4287 50.3079H39.0847H42.2494L46.0701 46.4841H40.6664L38.4287 48.7244L37.9646 49.1878L36.8457 50.3079H38.4287Z" fill="#FDBAAF"/>
<path d="M53.0558 50.3079H53.7118H55.2948L54.1746 49.1878L53.7118 48.7244L51.4741 46.4841H46.0704L49.8911 50.3079H53.0558Z" fill="#FDBAAF"/>
<path d="M51.4741 46.4843L53.7118 44.2427L54.1746 43.7794L55.2948 42.6592H53.7118H53.0558H49.8911L46.0704 46.4843H51.4741Z" fill="#FDBAAF"/>
<path d="M30.7988 61.7844L30.7988 31.1837L0.233212 31.1837L0.233212 61.7844H30.7988Z" fill="#EC5E57"/>
<path d="M19.3464 50.3187V42.6494L15.5155 46.4847L19.3464 50.3187Z" fill="#FDBAAF"/>
<path d="M11.6863 50.3181H19.3468L15.5159 46.4841L11.6863 50.3181Z" fill="#FDBAAF"/>
<path d="M15.5159 46.4847L11.6863 42.6494V50.3187L15.5159 46.4847Z" fill="#FDBAAF"/>
<path d="M19.3468 42.6494H11.6863L15.5159 46.4847L19.3468 42.6494Z" fill="#FDBAAF"/>
<path d="M19.3467 50.3181H27.0072L23.1776 46.4841L19.3467 50.3181Z" fill="#FDBAAF"/>
<path d="M27.0072 42.6494H19.3467L23.1776 46.4847L27.0072 42.6494Z" fill="#FDBAAF"/>
<path d="M4.02539 50.3181H11.6871L7.85626 46.4841L4.02539 50.3181Z" fill="#FDBAAF"/>
<path d="M11.6871 42.6494H4.02539L7.85626 46.4847L11.6871 42.6494Z" fill="#FDBAAF"/>
<path d="M11.6863 50.3188V57.9894L15.5159 54.1541L11.6863 50.3188Z" fill="#FDBAAF"/>
<path d="M19.3464 57.9894V50.3188L15.5155 54.1541L19.3464 57.9894Z" fill="#FDBAAF"/>
<path d="M11.6863 34.9786V42.6491L15.5159 38.8138L11.6863 34.9786Z" fill="#FDBAAF"/>
<path d="M19.3464 42.6491V34.9786L15.5155 38.8138L19.3464 42.6491Z" fill="#FDBAAF"/>
<path d="M-30.3205 61.7831L0.245117 61.7831L0.245117 31.1824L-30.3205 31.1824L-30.3205 61.7831Z" fill="#FDBAAF"/>
<path d="M-7.39539 54.133L0.246015 61.7832V46.4841L-7.39539 54.133Z" fill="#E03427"/>
<path d="M-15.0361 46.4846H0.246668L-7.39473 38.8344L-15.0361 46.4846Z" fill="#E03427"/>
<path d="M-7.39473 38.8338L0.246668 31.1837H-15.0361L-7.39473 38.8338Z" fill="#E03427"/>
<path d="M61.3525 92.3838V61.7831H30.7869L30.7869 92.3838H61.3525Z" fill="#9B1E14"/>
<path d="M53.7118 77.0835L46.0704 69.4333V77.0835H53.7118Z" fill="#E43729"/>
<path d="M46.0704 84.7342L53.7118 77.084H46.0704V84.7342Z" fill="#E43729"/>
<path d="M46.0701 77.084H38.4287L46.0701 84.7342V77.084Z" fill="#E43729"/>
<path d="M46.0701 69.4333L38.4287 77.0835H46.0701V69.4333Z" fill="#E43729"/>
<path d="M53.7119 77.0835L61.3533 69.4333H53.7119V77.0835Z" fill="#E43729"/>
<path d="M53.7118 61.7831L46.0704 69.4333H53.7118V61.7831Z" fill="#E43729"/>
<path d="M38.4287 92.3844L46.0701 84.7343H38.4287V92.3844Z" fill="#E43729"/>
<path d="M38.4285 77.084L30.7871 84.7342H38.4285V77.084Z" fill="#E43729"/>
<path d="M46.0704 84.7343L53.7118 92.3844V84.7343H46.0704Z" fill="#E43729"/>
<path d="M61.3533 84.7342L53.7119 77.084V84.7342H61.3533Z" fill="#E43729"/>
<path d="M30.7871 69.4333L38.4285 77.0835V69.4333H30.7871Z" fill="#E43729"/>
<path d="M46.0701 69.4333L38.4287 61.7831V69.4333H46.0701Z" fill="#E43729"/>
<path d="M0.240234 92.3838L0.240234 61.7831H-30.3254L-30.3254 92.3838H0.240234Z" fill="#EB4941"/>
<path d="M-9.94812 82.1846H0.239994L-4.85343 77.084L-9.94812 82.1846Z" fill="#E43729"/>
<path d="M0.239994 71.9833H-9.94812L-4.85343 77.0838L0.239994 71.9833Z" fill="#E43729"/>
<path d="M30.7773 92.3838L30.7773 61.7831H0.249878L0.249878 92.3838H30.7773Z" fill="#FDBAAF"/>
<path d="M29.4047 75.6905L28.0156 77.0811L29.4074 78.4745L30.7964 77.0838L29.4047 75.6905Z" fill="#E03427"/>
<path d="M15.5111 89.5991L14.1221 90.9897L15.5138 92.383L16.9028 90.9924L15.5111 89.5991Z" fill="#E03427"/>
<path d="M12.7351 89.6033L14.1248 88.212L15.5145 86.8207L16.9004 88.2094L18.2875 89.5969L19.676 90.9882L21.0656 89.5969L22.4553 88.2069L23.8438 86.8156L22.4604 85.4281L21.0707 84.0381L19.6785 85.4281L21.0682 86.8194L19.6785 88.2107L18.2926 86.8219L16.9055 85.4345L18.2952 84.0432L19.6848 82.6519L21.0733 81.2619L22.463 79.8706L23.8527 78.4793L25.2385 79.868L26.6257 81.2555L25.2335 82.6455L23.845 81.2542L22.4553 82.6455L23.8438 84.0368L25.2335 85.4281L26.6231 84.0381L28.0116 82.6468L29.4013 81.2555L28.0128 79.8655L26.627 78.4768L25.2398 77.0893L26.6295 75.698L28.0192 74.3067L29.4089 72.9154L28.0192 71.5254L26.632 70.1303L25.2335 68.7377L23.8438 70.1278L22.4541 71.519L23.8463 72.9192L25.236 71.528L26.6219 72.9167L25.2335 74.3003L23.8438 75.6916L22.4566 74.3029L21.0707 72.9154L19.6836 71.5267L18.2977 70.1392L16.9106 68.7505L18.3002 67.3605L19.6899 65.9692L21.0758 67.3566L19.6861 68.7479L21.0847 70.1418L22.4744 68.7505L23.8628 67.3592L22.4744 65.9692L21.0873 64.5804L19.6988 63.1904L18.3091 64.5804L16.9016 65.9526L15.5132 67.3528L14.1261 65.9641L12.7402 64.5766L11.3505 63.1853L9.96081 64.5766L8.56731 65.9526L7.17889 67.3528L8.56731 68.7441L9.95572 70.1341L11.3454 68.7441L9.95827 67.3528L11.348 65.9615L12.7338 67.3503L14.121 68.7377L12.7313 70.129L11.3429 71.5203L9.95318 72.9116L8.56349 74.3016L7.17889 75.6929L5.793 74.3042L4.40586 72.9167L5.79555 71.5254L7.18524 72.9167L8.57366 71.5254L7.17889 70.1328L5.78919 68.7428L4.40077 70.1341L3.01107 71.5241L1.62138 72.9154L3.01107 74.3067L4.39696 75.6942L5.78411 77.0829L4.39441 78.4729L3.00854 79.8655L1.62012 81.2568L3.00854 82.6468L4.39568 84.0356L5.78411 85.4256L7.17889 84.0406L8.56859 82.6494L7.16998 81.2492L5.78029 82.6404L4.39441 81.253L5.78411 79.8617L7.17253 78.4704L8.55968 79.8591L9.94556 81.2466L11.3327 82.6354L12.7186 84.0228L14.1045 85.4116L12.7148 86.8029L11.3263 88.1929L9.93919 86.8054L11.3289 85.4141L9.9303 84.0139L8.56604 85.4281L7.17889 86.8194L8.56731 88.2094L9.95445 89.5982L11.3442 90.9894L12.7351 89.6033ZM14.1248 82.6494L12.7389 81.2606L11.3518 79.8731L9.96591 78.4844L8.57875 77.0969L9.96844 75.7056L11.3569 74.3143L12.7466 72.9231L14.1362 71.533L15.5259 70.1418L16.9118 71.5305L18.299 72.918L19.6848 74.3067L21.072 75.6942L22.4579 77.0829L21.0682 78.4729L19.6798 79.8642L18.2901 81.2555L16.9004 82.6455L15.512 84.0368L14.1248 82.6494Z" fill="#E03427"/>
<path d="M18.2931 78.4766L19.6828 77.0853L18.2931 75.6941L16.9072 74.3066L15.5175 72.9153L14.1291 74.3066L12.7394 75.6979L11.3497 77.0879L12.7394 78.4792L14.1253 79.8666L15.515 81.2579L16.9047 79.8666L18.2931 78.4766ZM14.1266 77.0853L15.515 75.6953L16.9021 77.0828L15.5125 78.4741L14.1266 77.0853Z" fill="#E03427"/>
<path d="M15.5132 61.7844L14.1241 63.175L15.5159 64.5683L16.9049 63.1777L15.5132 61.7844Z" fill="#E03427"/>
<path d="M1.6195 75.6939L0.230469 77.0845L1.6222 78.4779L3.01123 77.0872L1.6195 75.6939Z" fill="#E03427"/>
</g>
<path d="M153.828 34.7273V58H150.328V37.7273H139.374V58H135.874V34.7273H153.828ZM166.277 58.3523C164.641 58.3523 163.213 57.9773 161.993 57.2273C160.773 56.4773 159.826 55.428 159.152 54.0795C158.478 52.7311 158.141 51.1553 158.141 49.3523C158.141 47.5417 158.478 45.9583 159.152 44.6023C159.826 43.2462 160.773 42.1932 161.993 41.4432C163.213 40.6932 164.641 40.3182 166.277 40.3182C167.913 40.3182 169.341 40.6932 170.561 41.4432C171.781 42.1932 172.728 43.2462 173.402 44.6023C174.076 45.9583 174.413 47.5417 174.413 49.3523C174.413 51.1553 174.076 52.7311 173.402 54.0795C172.728 55.428 171.781 56.4773 170.561 57.2273C169.341 57.9773 167.913 58.3523 166.277 58.3523ZM166.288 55.5C167.349 55.5 168.228 55.2197 168.925 54.6591C169.622 54.0985 170.137 53.3523 170.47 52.4205C170.811 51.4886 170.982 50.4621 170.982 49.3409C170.982 48.2273 170.811 47.2045 170.47 46.2727C170.137 45.3333 169.622 44.5795 168.925 44.0114C168.228 43.4432 167.349 43.1591 166.288 43.1591C165.22 43.1591 164.334 43.4432 163.629 44.0114C162.932 44.5795 162.413 45.3333 162.072 46.2727C161.739 47.2045 161.572 48.2273 161.572 49.3409C161.572 50.4621 161.739 51.4886 162.072 52.4205C162.413 53.3523 162.932 54.0985 163.629 54.6591C164.334 55.2197 165.22 55.5 166.288 55.5ZM178.206 58V40.5455H181.604V47.8636H183.24L189.001 40.5455H193.206L186.445 49.0341L193.286 58H189.07L183.808 51.0227H181.604V58H178.206ZM201.004 58.3864C199.898 58.3864 198.898 58.1818 198.004 57.7727C197.11 57.3561 196.402 56.7538 195.879 55.9659C195.364 55.178 195.107 54.2121 195.107 53.0682C195.107 52.0833 195.296 51.2727 195.675 50.6364C196.054 50 196.565 49.4962 197.209 49.125C197.853 48.7538 198.572 48.4735 199.368 48.2841C200.163 48.0947 200.974 47.9508 201.8 47.8523C202.845 47.7311 203.694 47.6326 204.345 47.5568C204.997 47.4735 205.47 47.3409 205.766 47.1591C206.061 46.9773 206.209 46.6818 206.209 46.2727V46.1932C206.209 45.2008 205.929 44.4318 205.368 43.8864C204.815 43.3409 203.989 43.0682 202.891 43.0682C201.747 43.0682 200.845 43.322 200.186 43.8295C199.535 44.3295 199.084 44.8864 198.834 45.5L195.641 44.7727C196.019 43.7121 196.572 42.8561 197.3 42.2045C198.035 41.5455 198.879 41.0682 199.834 40.7727C200.788 40.4697 201.792 40.3182 202.845 40.3182C203.542 40.3182 204.281 40.4015 205.061 40.5682C205.849 40.7273 206.584 41.0227 207.266 41.4545C207.955 41.8864 208.519 42.5038 208.959 43.3068C209.398 44.1023 209.618 45.1364 209.618 46.4091V58H206.3V55.6136H206.163C205.944 56.053 205.614 56.4848 205.175 56.9091C204.735 57.3333 204.171 57.6856 203.482 57.9659C202.792 58.2462 201.966 58.3864 201.004 58.3864ZM201.743 55.6591C202.682 55.6591 203.485 55.4735 204.152 55.1023C204.826 54.7311 205.338 54.2462 205.686 53.6477C206.042 53.0417 206.22 52.3939 206.22 51.7045V49.4545C206.099 49.5758 205.864 49.6894 205.516 49.7955C205.175 49.8939 204.785 49.9811 204.345 50.0568C203.906 50.125 203.478 50.1894 203.061 50.25C202.644 50.303 202.296 50.3485 202.016 50.3864C201.357 50.4697 200.754 50.6098 200.209 50.8068C199.671 51.0038 199.239 51.2879 198.913 51.6591C198.595 52.0227 198.436 52.5076 198.436 53.1136C198.436 53.9545 198.747 54.5909 199.368 55.0227C199.989 55.447 200.781 55.6591 201.743 55.6591ZM213.109 53.3864H216.587C216.632 54.0985 216.954 54.6477 217.553 55.0341C218.159 55.4205 218.943 55.6136 219.905 55.6136C220.882 55.6136 221.715 55.4053 222.405 54.9886C223.094 54.5644 223.439 53.9091 223.439 53.0227C223.439 52.4924 223.306 52.0303 223.041 51.6364C222.784 51.2348 222.416 50.9242 221.939 50.7045C221.469 50.4848 220.912 50.375 220.268 50.375H217.428V47.7045H220.268C221.231 47.7045 221.95 47.4848 222.428 47.0455C222.905 46.6061 223.143 46.0568 223.143 45.3977C223.143 44.6856 222.886 44.1136 222.371 43.6818C221.863 43.2424 221.155 43.0227 220.246 43.0227C219.321 43.0227 218.553 43.2311 217.939 43.6477C217.325 44.0568 217.003 44.5871 216.973 45.2386H213.541C213.564 44.2614 213.859 43.4053 214.428 42.6705C215.003 41.928 215.776 41.3523 216.746 40.9432C217.723 40.5265 218.833 40.3182 220.075 40.3182C221.371 40.3182 222.492 40.5265 223.439 40.9432C224.386 41.3598 225.117 41.9356 225.632 42.6705C226.155 43.4053 226.416 44.25 226.416 45.2045C226.416 46.1667 226.128 46.9545 225.553 47.5682C224.984 48.1742 224.242 48.6098 223.325 48.875V49.0568C224 49.1023 224.598 49.3068 225.121 49.6705C225.643 50.0341 226.053 50.5152 226.348 51.1136C226.643 51.7121 226.791 52.3902 226.791 53.1477C226.791 54.2159 226.496 55.1402 225.905 55.9205C225.321 56.7008 224.511 57.303 223.473 57.7273C222.443 58.1439 221.265 58.3523 219.939 58.3523C218.651 58.3523 217.496 58.1515 216.473 57.75C215.458 57.3409 214.651 56.7652 214.053 56.0227C213.462 55.2803 213.147 54.4015 213.109 53.3864ZM235.379 58.3864C234.273 58.3864 233.273 58.1818 232.379 57.7727C231.485 57.3561 230.777 56.7538 230.254 55.9659C229.739 55.178 229.482 54.2121 229.482 53.0682C229.482 52.0833 229.671 51.2727 230.05 50.6364C230.429 50 230.94 49.4962 231.584 49.125C232.228 48.7538 232.947 48.4735 233.743 48.2841C234.538 48.0947 235.349 47.9508 236.175 47.8523C237.22 47.7311 238.069 47.6326 238.72 47.5568C239.372 47.4735 239.845 47.3409 240.141 47.1591C240.436 46.9773 240.584 46.6818 240.584 46.2727V46.1932C240.584 45.2008 240.304 44.4318 239.743 43.8864C239.19 43.3409 238.364 43.0682 237.266 43.0682C236.122 43.0682 235.22 43.322 234.561 43.8295C233.91 44.3295 233.459 44.8864 233.209 45.5L230.016 44.7727C230.394 43.7121 230.947 42.8561 231.675 42.2045C232.41 41.5455 233.254 41.0682 234.209 40.7727C235.163 40.4697 236.167 40.3182 237.22 40.3182C237.917 40.3182 238.656 40.4015 239.436 40.5682C240.224 40.7273 240.959 41.0227 241.641 41.4545C242.33 41.8864 242.894 42.5038 243.334 43.3068C243.773 44.1023 243.993 45.1364 243.993 46.4091V58H240.675V55.6136H240.538C240.319 56.053 239.989 56.4848 239.55 56.9091C239.11 57.3333 238.546 57.6856 237.857 57.9659C237.167 58.2462 236.341 58.3864 235.379 58.3864ZM236.118 55.6591C237.057 55.6591 237.86 55.4735 238.527 55.1023C239.201 54.7311 239.713 54.2462 240.061 53.6477C240.417 53.0417 240.595 52.3939 240.595 51.7045V49.4545C240.474 49.5758 240.239 49.6894 239.891 49.7955C239.55 49.8939 239.16 49.9811 238.72 50.0568C238.281 50.125 237.853 50.1894 237.436 50.25C237.019 50.303 236.671 50.3485 236.391 50.3864C235.732 50.4697 235.129 50.6098 234.584 50.8068C234.046 51.0038 233.614 51.2879 233.288 51.6591C232.97 52.0227 232.811 52.5076 232.811 53.1136C232.811 53.9545 233.122 54.5909 233.743 55.0227C234.364 55.447 235.156 55.6591 236.118 55.6591ZM246.354 43.4773V40.5455H261.081V43.4773H255.388V58H252.07V43.4773H246.354ZM267.232 46.5455H272.3C274.436 46.5455 276.08 47.0758 277.232 48.1364C278.383 49.197 278.959 50.5644 278.959 52.2386C278.959 53.3295 278.701 54.3106 278.186 55.1818C277.671 56.053 276.917 56.7424 275.925 57.25C274.932 57.75 273.724 58 272.3 58H264.675V40.5455H268.004V55.0682H272.3C273.277 55.0682 274.08 54.8144 274.709 54.3068C275.338 53.7917 275.652 53.1364 275.652 52.3409C275.652 51.5 275.338 50.8144 274.709 50.2841C274.08 49.7462 273.277 49.4773 272.3 49.4773H267.232V46.5455ZM298.76 58.3523C297.04 58.3523 295.559 57.9848 294.317 57.25C293.082 56.5076 292.127 55.4659 291.453 54.125C290.786 52.7765 290.453 51.197 290.453 49.3864C290.453 47.5985 290.786 46.0227 291.453 44.6591C292.127 43.2955 293.067 42.2311 294.271 41.4659C295.483 40.7008 296.9 40.3182 298.521 40.3182C299.506 40.3182 300.461 40.4811 301.385 40.8068C302.309 41.1326 303.139 41.6439 303.874 42.3409C304.608 43.0379 305.188 43.9432 305.612 45.0568C306.036 46.1629 306.249 47.5076 306.249 49.0909V50.2955H292.374V47.75H302.919C302.919 46.8561 302.737 46.0644 302.374 45.375C302.01 44.678 301.499 44.1288 300.839 43.7273C300.188 43.3258 299.423 43.125 298.544 43.125C297.589 43.125 296.756 43.3598 296.044 43.8295C295.339 44.2917 294.794 44.8977 294.408 45.6477C294.029 46.3902 293.839 47.197 293.839 48.0682V50.0568C293.839 51.2235 294.044 52.2159 294.453 53.0341C294.87 53.8523 295.449 54.4773 296.192 54.9091C296.934 55.3333 297.802 55.5455 298.794 55.5455C299.438 55.5455 300.025 55.4545 300.555 55.2727C301.086 55.0833 301.544 54.803 301.93 54.4318C302.317 54.0606 302.612 53.6023 302.817 53.0568L306.033 53.6364C305.775 54.5833 305.313 55.4129 304.646 56.125C303.987 56.8295 303.158 57.3788 302.158 57.7727C301.165 58.1591 300.033 58.3523 298.76 58.3523ZM335.03 55.0682L334.712 63H331.382V58H329.212V55.0682H335.03ZM310.018 40.5455H313.348V55.0568H319.382V40.5455H322.712V55.0568H328.746V40.5455H332.075V58H310.018V40.5455ZM345.947 58.3523C344.228 58.3523 342.747 57.9848 341.504 57.25C340.269 56.5076 339.315 55.4659 338.641 54.125C337.974 52.7765 337.641 51.197 337.641 49.3864C337.641 47.5985 337.974 46.0227 338.641 44.6591C339.315 43.2955 340.254 42.2311 341.459 41.4659C342.671 40.7008 344.088 40.3182 345.709 40.3182C346.694 40.3182 347.648 40.4811 348.572 40.8068C349.497 41.1326 350.326 41.6439 351.061 42.3409C351.796 43.0379 352.375 43.9432 352.8 45.0568C353.224 46.1629 353.436 47.5076 353.436 49.0909V50.2955H339.561V47.75H350.107C350.107 46.8561 349.925 46.0644 349.561 45.375C349.197 44.678 348.686 44.1288 348.027 43.7273C347.375 43.3258 346.61 43.125 345.732 43.125C344.777 43.125 343.944 43.3598 343.232 43.8295C342.527 44.2917 341.982 44.8977 341.595 45.6477C341.216 46.3902 341.027 47.197 341.027 48.0682V50.0568C341.027 51.2235 341.232 52.2159 341.641 53.0341C342.057 53.8523 342.637 54.4773 343.379 54.9091C344.122 55.3333 344.989 55.5455 345.982 55.5455C346.625 55.5455 347.213 55.4545 347.743 55.2727C348.273 55.0833 348.732 54.803 349.118 54.4318C349.504 54.0606 349.8 53.6023 350.004 53.0568L353.22 53.6364C352.963 54.5833 352.5 55.4129 351.834 56.125C351.175 56.8295 350.345 57.3788 349.345 57.7727C348.353 58.1591 347.22 58.3523 345.947 58.3523Z" fill="white"/>
</g>
<defs>
<clipPath id="clip0_110_215718">
<rect width="488" height="92" rx="46" fill="white"/>
</clipPath>
</defs>
</svg>
