<svg width="480" height="336" viewBox="0 0 480 336" fill="none" xmlns="http://www.w3.org/2000/svg">
<g clip-path="url(#clip0_110_215726)" filter="url(#filter0_b_110_215726)">
<rect width="480" height="336" fill="#D20000"/>
<g opacity="0.2">
<path d="M630.258 200.991L613.513 184.246L596.769 167.502L613.487 150.783H613.513L630.232 134.039H630.258L647.003 117.268L630.258 100.524L613.513 83.7791L596.769 67.0346L580.024 83.7791H579.998L563.254 100.55L579.998 117.294L596.743 100.55L613.487 117.294L596.769 134.013H596.743L580.024 150.757L563.28 134.013L546.535 117.268L529.791 100.524L513.046 83.7791L496.302 67.0346L513.02 50.3161H513.046L529.765 33.5716L546.509 50.3161L529.765 67.0606L546.509 83.8051L563.254 67.0606H563.28L580.024 50.2901L563.28 33.5456L546.535 16.801L529.791 0.0565186L513.046 16.801H513.02L496.302 33.5456H496.276L479.557 50.2901L462.813 33.5456L446.068 16.801L429.324 0.0565186L412.579 16.801H412.553L395.835 33.5456H395.809L379.064 50.3161L395.809 67.0606L412.553 83.8051L429.324 67.0346L412.579 50.2901L429.298 33.5716L446.042 50.3161L462.787 67.0606L446.068 83.7791H446.042L429.324 100.524H429.298L412.579 117.268H412.553L395.835 134.013H395.809L379.09 150.757L362.346 134.013L345.601 117.268L362.32 100.55L379.064 117.294L395.835 100.524L379.09 83.7791L362.346 67.0346L345.601 83.7791H345.575L328.857 100.524H328.831L312.086 117.294L328.831 134.039L345.575 150.783L362.32 167.528L345.601 184.246H345.575L328.857 200.991H328.831L312.086 217.761L328.831 234.506L345.575 251.25L362.32 267.995L379.064 251.25H379.09L395.835 234.48L379.09 217.735L362.346 234.48L345.601 217.735L362.32 201.017H362.346L379.064 184.272L395.809 201.017L412.553 217.761L429.298 234.506L446.042 251.25L462.787 267.995L446.068 284.713H446.042L429.324 301.458L412.579 284.713L429.324 267.969L412.579 251.224L395.835 267.969H395.809L379.064 284.739L395.809 301.484L412.553 318.228L429.298 334.973L446.042 318.228H446.068L462.787 301.484H462.813L479.531 284.739L496.276 301.484L513.02 318.228L529.765 334.973L546.509 318.228H546.535L563.254 301.484H563.28L580.024 284.713L563.28 267.969L546.535 251.224L529.765 267.995L546.509 284.739L529.791 301.458L513.046 284.713L496.302 267.969L513.02 251.25H513.046L529.765 234.506H529.791L546.509 217.761H546.535L563.254 201.017H563.28L579.998 184.272L596.743 201.017L613.487 217.761L596.769 234.48L580.024 217.735L563.254 234.506L579.998 251.25L596.743 267.995L613.487 251.25H613.513L630.232 234.506H630.258L647.003 217.735L630.258 200.991ZM546.509 184.246H546.483L529.765 200.991H529.739L513.02 217.735H512.994L496.276 234.48H496.25L479.531 251.224L462.787 234.48L446.042 217.735L429.298 200.991L412.553 184.246L395.809 167.502L412.527 150.783H412.553L429.272 134.039H429.298L446.016 117.294H446.042L462.761 100.55H462.787L479.505 83.8051L496.25 100.55L512.994 117.294L529.739 134.039L546.483 150.783L563.228 167.528L546.509 184.246Z" fill="white"/>
<path d="M496.246 133.987L479.502 117.243L462.757 133.987H462.731L446.013 150.732H445.987L429.242 167.503L445.987 184.247L462.731 200.992L479.476 217.736L496.22 200.992H496.246L512.965 184.247H512.991L529.735 167.476L512.991 150.732L496.246 133.987ZM479.502 184.221L462.757 167.476L479.476 150.758L496.22 167.503L479.502 184.221Z" fill="white"/>
</g>
</g>
<defs>
<filter id="filter0_b_110_215726" x="-30" y="-30" width="540" height="396" filterUnits="userSpaceOnUse" color-interpolation-filters="sRGB">
<feFlood flood-opacity="0" result="BackgroundImageFix"/>
<feGaussianBlur in="BackgroundImageFix" stdDeviation="15"/>
<feComposite in2="SourceAlpha" operator="in" result="effect1_backgroundBlur_110_215726"/>
<feBlend mode="normal" in="SourceGraphic" in2="effect1_backgroundBlur_110_215726" result="shape"/>
</filter>
<clipPath id="clip0_110_215726">
<rect width="480" height="336" fill="white"/>
</clipPath>
</defs>
</svg>
