<svg width="480" height="336" viewBox="0 0 480 336" fill="none" xmlns="http://www.w3.org/2000/svg">
<g clip-path="url(#clip0_110_215726)" filter="url(#filter0_b_110_215726)">
<rect width="480" height="336" fill="#D20000"/>
<g opacity="0.2">
<path d="M639.201 187.366L621.518 169.684L603.836 152.002L621.491 134.347H621.518L639.173 116.665H639.201L656.883 98.9552L639.201 81.273L621.518 63.5908L603.836 45.9086L586.154 63.5908H586.126L568.444 81.3005L586.126 98.9827L603.809 81.3005L621.491 98.9827L603.836 116.637H603.809L586.154 134.32L568.472 116.637L550.789 98.9552L533.107 81.273L515.425 63.5908L497.743 45.9086L515.398 28.2538H515.425L533.08 10.5716L550.762 28.2538L533.08 45.936L550.762 63.6182L568.444 45.936H568.472L586.154 28.2264L568.472 10.5441L550.789 -7.13809L533.107 -24.8203L515.425 -7.13809H515.398L497.743 10.5441H497.715L480.061 28.2264L462.378 10.5441L444.696 -7.13809L427.014 -24.8203L409.332 -7.13809H409.304L391.649 10.5441H391.622L373.94 28.2538L391.622 45.936L409.304 63.6182L427.014 45.9086L409.332 28.2264L426.986 10.5716L444.669 28.2538L462.351 45.936L444.696 63.5908H444.669L427.014 81.273H426.986L409.332 98.9552H409.304L391.649 116.637H391.622L373.967 134.32L356.285 116.637L338.603 98.9552L356.258 81.3005L373.94 98.9827L391.649 81.273L373.967 63.5908L356.285 45.9086L338.603 63.5908H338.575L320.921 81.273H320.893L303.211 98.9827L320.893 116.665L338.575 134.347L356.258 152.029L338.603 169.684H338.575L320.921 187.366H320.893L303.211 205.076L320.893 222.758L338.575 240.44L356.258 258.123L373.94 240.44H373.967L391.649 222.731L373.967 205.049L356.285 222.731L338.603 205.049L356.258 187.394H356.285L373.94 169.712L391.622 187.394L409.304 205.076L426.986 222.758L444.669 240.44L462.351 258.123L444.696 275.777H444.669L427.014 293.46L409.332 275.777L427.014 258.095L409.332 240.413L391.649 258.095H391.622L373.94 275.805L391.622 293.487L409.304 311.169L426.986 328.852L444.669 311.169H444.696L462.351 293.487H462.378L480.033 275.805L497.715 293.487L515.398 311.169L533.08 328.852L550.762 311.169H550.789L568.444 293.487H568.472L586.154 275.777L568.472 258.095L550.789 240.413L533.08 258.123L550.762 275.805L533.107 293.46L515.425 275.777L497.743 258.095L515.398 240.44H515.425L533.08 222.758H533.107L550.762 205.076H550.789L568.444 187.394H568.472L586.126 169.712L603.809 187.394L621.491 205.076L603.836 222.731L586.154 205.049L568.444 222.758L586.126 240.44L603.809 258.123L621.491 240.44H621.518L639.173 222.758H639.201L656.883 205.049L639.201 187.366ZM550.762 169.684H550.735L533.08 187.366H533.052L515.398 205.049H515.37L497.715 222.731H497.688L480.033 240.413L462.351 222.731L444.669 205.049L426.986 187.366L409.304 169.684L391.622 152.002L409.277 134.347H409.304L426.959 116.665H426.986L444.641 98.9827H444.669L462.323 81.3005H462.351L480.006 63.6182L497.688 81.3005L515.37 98.9827L533.052 116.665L550.735 134.347L568.417 152.029L550.762 169.684Z" fill="white"/>
<path d="M497.686 116.611L480.004 98.9285L462.322 116.611H462.294L444.639 134.293H444.612L426.93 152.003L444.612 169.685L462.294 187.367L479.976 205.049L497.659 187.367H497.686L515.341 169.685H515.368L533.05 151.975L515.368 134.293L497.686 116.611ZM480.004 169.657L462.322 151.975L479.976 134.32L497.659 152.003L480.004 169.657Z" fill="white"/>
</g>
</g>
<defs>
<filter id="filter0_b_110_215726" x="-30" y="-30" width="540" height="396" filterUnits="userSpaceOnUse" color-interpolation-filters="sRGB">
<feFlood flood-opacity="0" result="BackgroundImageFix"/>
<feGaussianBlur in="BackgroundImageFix" stdDeviation="15"/>
<feComposite in2="SourceAlpha" operator="in" result="effect1_backgroundBlur_110_215726"/>
<feBlend mode="normal" in="SourceGraphic" in2="effect1_backgroundBlur_110_215726" result="shape"/>
</filter>
<clipPath id="clip0_110_215726">
<rect width="480" height="336" fill="white"/>
</clipPath>
</defs>
</svg>
