<svg width="196" height="77" viewBox="0 0 196 77" fill="none" xmlns="http://www.w3.org/2000/svg">
<rect y="11" width="196" height="66" rx="8" fill="#F1F1F1"/>
<path d="M30.9027 28.3636V40H29.4936V29.6136H23.63V40H22.2209V28.3636H30.9027ZM33.5632 43.2727V31.2727H34.8587V32.6591H35.0178C35.1162 32.5076 35.2526 32.3144 35.4268 32.0795C35.6049 31.8409 35.8587 31.6288 36.1882 31.4432C36.5215 31.2538 36.9723 31.1591 37.5405 31.1591C38.2753 31.1591 38.9231 31.3428 39.4837 31.7102C40.0443 32.0777 40.4818 32.5985 40.7962 33.2727C41.1106 33.947 41.2678 34.7424 41.2678 35.6591C41.2678 36.5833 41.1106 37.3845 40.7962 38.0625C40.4818 38.7367 40.0462 39.2595 39.4893 39.6307C38.9325 39.9981 38.2905 40.1818 37.5632 40.1818C37.0026 40.1818 36.5537 40.089 36.2166 39.9034C35.8795 39.714 35.62 39.5 35.4382 39.2614C35.2564 39.0189 35.1162 38.8182 35.0178 38.6591H34.9041V43.2727H33.5632ZM34.8814 35.6364C34.8814 36.2955 34.978 36.8769 35.1712 37.3807C35.3643 37.8807 35.6465 38.2727 36.0178 38.5568C36.389 38.8371 36.8435 38.9773 37.3814 38.9773C37.942 38.9773 38.4098 38.8295 38.7848 38.5341C39.1636 38.2348 39.4477 37.8333 39.6371 37.3295C39.8303 36.822 39.9268 36.2576 39.9268 35.6364C39.9268 35.0227 39.8321 34.4697 39.6428 33.9773C39.4571 33.4811 39.175 33.089 38.7962 32.8011C38.4212 32.5095 37.9496 32.3636 37.3814 32.3636C36.8359 32.3636 36.3776 32.5019 36.0064 32.7784C35.6352 33.0511 35.3549 33.4337 35.1655 33.9261C34.9761 34.4148 34.8814 34.9848 34.8814 35.6364ZM46.8587 40.1818C46.0708 40.1818 45.3795 39.9943 44.7848 39.6193C44.1939 39.2443 43.7318 38.7197 43.3984 38.0455C43.0689 37.3712 42.9041 36.5833 42.9041 35.6818C42.9041 34.7727 43.0689 33.9792 43.3984 33.3011C43.7318 32.6231 44.1939 32.0966 44.7848 31.7216C45.3795 31.3466 46.0708 31.1591 46.8587 31.1591C47.6465 31.1591 48.3359 31.3466 48.9268 31.7216C49.5215 32.0966 49.9837 32.6231 50.3132 33.3011C50.6465 33.9792 50.8132 34.7727 50.8132 35.6818C50.8132 36.5833 50.6465 37.3712 50.3132 38.0455C49.9837 38.7197 49.5215 39.2443 48.9268 39.6193C48.3359 39.9943 47.6465 40.1818 46.8587 40.1818ZM46.8587 38.9773C47.4571 38.9773 47.9496 38.8239 48.3359 38.517C48.7223 38.2102 49.0083 37.8068 49.1939 37.3068C49.3795 36.8068 49.4723 36.2652 49.4723 35.6818C49.4723 35.0985 49.3795 34.5549 49.1939 34.0511C49.0083 33.5473 48.7223 33.1402 48.3359 32.8295C47.9496 32.5189 47.4571 32.3636 46.8587 32.3636C46.2602 32.3636 45.7678 32.5189 45.3814 32.8295C44.995 33.1402 44.709 33.5473 44.5234 34.0511C44.3378 34.5549 44.245 35.0985 44.245 35.6818C44.245 36.2652 44.3378 36.8068 44.5234 37.3068C44.709 37.8068 44.995 38.2102 45.3814 38.517C45.7678 38.8239 46.2602 38.9773 46.8587 38.9773ZM56.4055 40.1818C55.5874 40.1818 54.8828 39.9886 54.2919 39.6023C53.701 39.2159 53.2464 38.6837 52.9283 38.0057C52.6101 37.3277 52.451 36.553 52.451 35.6818C52.451 34.7955 52.6139 34.0133 52.9396 33.3352C53.2692 32.6534 53.7275 32.1212 54.3146 31.7386C54.9055 31.3523 55.5949 31.1591 56.3828 31.1591C56.9964 31.1591 57.5495 31.2727 58.0419 31.5C58.5343 31.7273 58.9377 32.0455 59.2521 32.4545C59.5665 32.8636 59.7616 33.3409 59.8374 33.8864H58.4964C58.3942 33.4886 58.1669 33.1364 57.8146 32.8295C57.4661 32.5189 56.9964 32.3636 56.4055 32.3636C55.8828 32.3636 55.4245 32.5 55.0305 32.7727C54.6404 33.0417 54.3355 33.4223 54.1158 33.9148C53.8999 34.4034 53.7919 34.9773 53.7919 35.6364C53.7919 36.3106 53.898 36.8977 54.1101 37.3977C54.326 37.8977 54.629 38.286 55.0192 38.5625C55.4131 38.839 55.8752 38.9773 56.4055 38.9773C56.754 38.9773 57.0703 38.9167 57.3544 38.7955C57.6385 38.6742 57.879 38.5 58.076 38.2727C58.273 38.0455 58.4131 37.7727 58.4964 37.4545H59.8374C59.7616 37.9697 59.5741 38.4337 59.2749 38.8466C58.9794 39.2557 58.5874 39.5814 58.0987 39.8239C57.6139 40.0625 57.0495 40.1818 56.4055 40.1818ZM61.0249 40V38.75H61.343C61.6044 38.75 61.8222 38.6989 61.9964 38.5966C62.1707 38.4905 62.3108 38.3068 62.4169 38.0455C62.5268 37.7803 62.6101 37.4129 62.6669 36.9432C62.7275 36.4697 62.7711 35.8674 62.7976 35.1364L62.9567 31.2727H68.7749V40H67.4339V32.5227H64.2294L64.093 35.6364C64.0627 36.3523 63.9983 36.983 63.8999 37.5284C63.8052 38.0701 63.6593 38.5246 63.4624 38.892C63.2692 39.2595 63.0116 39.536 62.6896 39.7216C62.3677 39.9072 61.9643 40 61.4794 40H61.0249ZM71.7862 43.2727C71.5589 43.2727 71.3563 43.2538 71.1783 43.2159C71.0002 43.1818 70.8771 43.1477 70.8089 43.1136L71.1499 41.9318C71.4756 42.0152 71.7635 42.0455 72.0135 42.0227C72.2635 42 72.4851 41.8883 72.6783 41.6875C72.8752 41.4905 73.0552 41.1705 73.218 40.7273L73.468 40.0455L70.2408 31.2727H71.6953L74.1044 38.2273H74.1953L76.6044 31.2727H78.0589L74.3544 41.2727C74.1877 41.7235 73.9813 42.0966 73.7351 42.392C73.4889 42.6913 73.2029 42.9129 72.8771 43.0568C72.5552 43.2008 72.1915 43.2727 71.7862 43.2727ZM79.8288 31.2727H81.1697V38.75H84.4652V31.2727H85.8061V38.75H89.1016V31.2727H90.4425V40H79.8288V31.2727ZM95.4595 40.2045C94.9065 40.2045 94.4046 40.1004 93.9538 39.892C93.5031 39.6799 93.1451 39.375 92.88 38.9773C92.6148 38.5758 92.4822 38.0909 92.4822 37.5227C92.4822 37.0227 92.5807 36.6174 92.7777 36.3068C92.9747 35.9924 93.2379 35.7462 93.5675 35.5682C93.897 35.3902 94.2607 35.2576 94.6584 35.1705C95.0599 35.0795 95.4633 35.0076 95.8686 34.9545C96.3989 34.8864 96.8288 34.8352 97.1584 34.8011C97.4917 34.7633 97.7341 34.7008 97.8857 34.6136C98.041 34.5265 98.1186 34.375 98.1186 34.1591V34.1136C98.1186 33.553 97.9652 33.1174 97.6584 32.8068C97.3554 32.4962 96.8951 32.3409 96.2777 32.3409C95.6375 32.3409 95.1357 32.4811 94.772 32.7614C94.4084 33.0417 94.1527 33.3409 94.005 33.6591L92.7322 33.2045C92.9595 32.6742 93.2625 32.2614 93.6413 31.9659C94.0239 31.6667 94.4406 31.4583 94.8913 31.3409C95.3459 31.2197 95.7929 31.1591 96.2322 31.1591C96.5125 31.1591 96.8345 31.1932 97.1982 31.2614C97.5656 31.3258 97.9197 31.4602 98.2607 31.6648C98.6054 31.8693 98.8913 32.178 99.1186 32.5909C99.3459 33.0038 99.4595 33.5568 99.4595 34.25V40H98.1186V38.8182H98.0504C97.9595 39.0076 97.808 39.2102 97.5959 39.4261C97.3838 39.642 97.1016 39.8258 96.7493 39.9773C96.397 40.1288 95.9671 40.2045 95.4595 40.2045ZM95.6641 39C96.1944 39 96.6413 38.8958 97.005 38.6875C97.3724 38.4792 97.6489 38.2102 97.8345 37.8807C98.0239 37.5511 98.1186 37.2045 98.1186 36.8409V35.6136C98.0618 35.6818 97.9368 35.7443 97.7436 35.8011C97.5542 35.8542 97.3345 35.9015 97.0845 35.9432C96.8383 35.9811 96.5978 36.0152 96.3629 36.0455C96.1319 36.072 95.9444 36.0947 95.8004 36.1136C95.4519 36.1591 95.1262 36.233 94.8232 36.3352C94.5239 36.4337 94.2815 36.5833 94.0959 36.7841C93.9141 36.9811 93.8232 37.25 93.8232 37.5909C93.8232 38.0568 93.9955 38.4091 94.3402 38.6477C94.6887 38.8826 95.13 39 95.6641 39ZM100.719 32.5227V31.2727H107.81V32.5227H104.947V40H103.606V32.5227H100.719ZM110.925 34.4318H113.425C114.448 34.4318 115.23 34.6913 115.772 35.2102C116.314 35.7292 116.585 36.3864 116.585 37.1818C116.585 37.7045 116.463 38.1799 116.221 38.608C115.978 39.0322 115.622 39.3712 115.153 39.625C114.683 39.875 114.107 40 113.425 40H109.766V31.2727H111.107V38.75H113.425C113.956 38.75 114.391 38.6098 114.732 38.3295C115.073 38.0492 115.244 37.6894 115.244 37.25C115.244 36.7879 115.073 36.411 114.732 36.1193C114.391 35.8277 113.956 35.6818 113.425 35.6818H110.925V34.4318ZM125.694 40.2045C125.141 40.2045 124.639 40.1004 124.188 39.892C123.737 39.6799 123.379 39.375 123.114 38.9773C122.849 38.5758 122.717 38.0909 122.717 37.5227C122.717 37.0227 122.815 36.6174 123.012 36.3068C123.209 35.9924 123.472 35.7462 123.802 35.5682C124.131 35.3902 124.495 35.2576 124.893 35.1705C125.294 35.0795 125.698 35.0076 126.103 34.9545C126.633 34.8864 127.063 34.8352 127.393 34.8011C127.726 34.7633 127.969 34.7008 128.12 34.6136C128.275 34.5265 128.353 34.375 128.353 34.1591V34.1136C128.353 33.553 128.2 33.1174 127.893 32.8068C127.59 32.4962 127.129 32.3409 126.512 32.3409C125.872 32.3409 125.37 32.4811 125.006 32.7614C124.643 33.0417 124.387 33.3409 124.239 33.6591L122.967 33.2045C123.194 32.6742 123.497 32.2614 123.876 31.9659C124.258 31.6667 124.675 31.4583 125.126 31.3409C125.58 31.2197 126.027 31.1591 126.467 31.1591C126.747 31.1591 127.069 31.1932 127.433 31.2614C127.8 31.3258 128.154 31.4602 128.495 31.6648C128.84 31.8693 129.126 32.178 129.353 32.5909C129.58 33.0038 129.694 33.5568 129.694 34.25V40H128.353V38.8182H128.285C128.194 39.0076 128.042 39.2102 127.83 39.4261C127.618 39.642 127.336 39.8258 126.984 39.9773C126.631 40.1288 126.201 40.2045 125.694 40.2045ZM125.898 39C126.429 39 126.876 38.8958 127.239 38.6875C127.607 38.4792 127.883 38.2102 128.069 37.8807C128.258 37.5511 128.353 37.2045 128.353 36.8409V35.6136C128.296 35.6818 128.171 35.7443 127.978 35.8011C127.789 35.8542 127.569 35.9015 127.319 35.9432C127.073 35.9811 126.832 36.0152 126.597 36.0455C126.366 36.072 126.179 36.0947 126.035 36.1136C125.686 36.1591 125.361 36.233 125.058 36.3352C124.758 36.4337 124.516 36.5833 124.33 36.7841C124.148 36.9811 124.058 37.25 124.058 37.5909C124.058 38.0568 124.23 38.4091 124.575 38.6477C124.923 38.8826 125.364 39 125.898 39ZM132.692 43.2727C132.465 43.2727 132.263 43.2538 132.085 43.2159C131.906 43.1818 131.783 43.1477 131.715 43.1136L132.056 41.9318C132.382 42.0152 132.67 42.0455 132.92 42.0227C133.17 42 133.391 41.8883 133.585 41.6875C133.781 41.4905 133.961 41.1705 134.124 40.7273L134.374 40.0455L131.147 31.2727H132.602L135.011 38.2273H135.102L137.511 31.2727H138.965L135.261 41.2727C135.094 41.7235 134.888 42.0966 134.641 42.392C134.395 42.6913 134.109 42.9129 133.783 43.0568C133.461 43.2008 133.098 43.2727 132.692 43.2727ZM139.069 42.5V38.75H139.796C139.974 38.5644 140.128 38.3636 140.256 38.1477C140.385 37.9318 140.497 37.6761 140.592 37.3807C140.69 37.0814 140.773 36.7178 140.842 36.2898C140.91 35.858 140.97 35.3371 141.023 34.7273L141.319 31.2727H146.864V38.75H148.205V42.5H146.864V40H140.41V42.5H139.069ZM141.319 38.75H145.523V32.5227H142.569L142.342 34.7273C142.247 35.6402 142.129 36.4375 141.989 37.1193C141.849 37.8011 141.626 38.3447 141.319 38.75ZM151.326 38.0227L155.531 31.2727H157.076V40H155.735V33.25L151.553 40H149.985V31.2727H151.326V38.0227ZM163.077 40.1818C162.29 40.1818 161.598 39.9943 161.004 39.6193C160.413 39.2443 159.951 38.7197 159.617 38.0455C159.288 37.3712 159.123 36.5833 159.123 35.6818C159.123 34.7727 159.288 33.9792 159.617 33.3011C159.951 32.6231 160.413 32.0966 161.004 31.7216C161.598 31.3466 162.29 31.1591 163.077 31.1591C163.865 31.1591 164.555 31.3466 165.146 31.7216C165.74 32.0966 166.202 32.6231 166.532 33.3011C166.865 33.9792 167.032 34.7727 167.032 35.6818C167.032 36.5833 166.865 37.3712 166.532 38.0455C166.202 38.7197 165.74 39.2443 165.146 39.6193C164.555 39.9943 163.865 40.1818 163.077 40.1818ZM163.077 38.9773C163.676 38.9773 164.168 38.8239 164.555 38.517C164.941 38.2102 165.227 37.8068 165.413 37.3068C165.598 36.8068 165.691 36.2652 165.691 35.6818C165.691 35.0985 165.598 34.5549 165.413 34.0511C165.227 33.5473 164.941 33.1402 164.555 32.8295C164.168 32.5189 163.676 32.3636 163.077 32.3636C162.479 32.3636 161.987 32.5189 161.6 32.8295C161.214 33.1402 160.928 33.5473 160.742 34.0511C160.557 34.5549 160.464 35.0985 160.464 35.6818C160.464 36.2652 160.557 36.8068 160.742 37.3068C160.928 37.8068 161.214 38.2102 161.6 38.517C161.987 38.8239 162.479 38.9773 163.077 38.9773ZM174.079 34.3864V35.6364H168.988V34.3864H174.079ZM47.1179 59V50.2727H53.9815V59H52.6406V51.5227H48.4588V59H47.1179ZM56.4304 62.2727V50.2727H57.7259V51.6591H57.8849C57.9834 51.5076 58.1198 51.3144 58.294 51.0795C58.4721 50.8409 58.7259 50.6288 59.0554 50.4432C59.3887 50.2538 59.8395 50.1591 60.4077 50.1591C61.1425 50.1591 61.7902 50.3428 62.3509 50.7102C62.9115 51.0777 63.349 51.5985 63.6634 52.2727C63.9777 52.947 64.1349 53.7424 64.1349 54.6591C64.1349 55.5833 63.9777 56.3845 63.6634 57.0625C63.349 57.7367 62.9134 58.2595 62.3565 58.6307C61.7997 58.9981 61.1577 59.1818 60.4304 59.1818C59.8698 59.1818 59.4209 59.089 59.0838 58.9034C58.7467 58.714 58.4872 58.5 58.3054 58.2614C58.1236 58.0189 57.9834 57.8182 57.8849 57.6591H57.7713V62.2727H56.4304ZM57.7486 54.6364C57.7486 55.2955 57.8452 55.8769 58.0384 56.3807C58.2315 56.8807 58.5137 57.2727 58.8849 57.5568C59.2562 57.8371 59.7107 57.9773 60.2486 57.9773C60.8092 57.9773 61.277 57.8295 61.652 57.5341C62.0308 57.2348 62.3149 56.8333 62.5043 56.3295C62.6974 55.822 62.794 55.2576 62.794 54.6364C62.794 54.0227 62.6993 53.4697 62.5099 52.9773C62.3243 52.4811 62.0421 52.089 61.6634 51.8011C61.2884 51.5095 60.8168 51.3636 60.2486 51.3636C59.7031 51.3636 59.2448 51.5019 58.8736 51.7784C58.5024 52.0511 58.2221 52.4337 58.0327 52.9261C57.8433 53.4148 57.7486 53.9848 57.7486 54.6364ZM67.5213 57.0227L71.7259 50.2727H73.2713V59H71.9304V52.25L67.7486 59H66.1804V50.2727H67.5213V57.0227ZM81.1136 50.2727V51.5227H77.0682V59H75.7273V50.2727H81.1136ZM81.5639 59V57.75H81.8821C82.1435 57.75 82.3613 57.6989 82.5355 57.5966C82.7098 57.4905 82.8499 57.3068 82.956 57.0455C83.0658 56.7803 83.1491 56.4129 83.206 55.9432C83.2666 55.4697 83.3101 54.8674 83.3366 54.1364L83.4957 50.2727H89.3139V59H87.973V51.5227H84.7685L84.6321 54.6364C84.6018 55.3523 84.5374 55.983 84.4389 56.5284C84.3442 57.0701 84.1984 57.5246 84.0014 57.892C83.8082 58.2595 83.5507 58.536 83.2287 58.7216C82.9067 58.9072 82.5033 59 82.0185 59H81.5639ZM94.3423 59.2045C93.7893 59.2045 93.2874 59.1004 92.8366 58.892C92.3859 58.6799 92.0279 58.375 91.7628 57.9773C91.4976 57.5758 91.3651 57.0909 91.3651 56.5227C91.3651 56.0227 91.4635 55.6174 91.6605 55.3068C91.8575 54.9924 92.1207 54.7462 92.4503 54.5682C92.7798 54.3902 93.1435 54.2576 93.5412 54.1705C93.9427 54.0795 94.3461 54.0076 94.7514 53.9545C95.2817 53.8864 95.7116 53.8352 96.0412 53.8011C96.3745 53.7633 96.617 53.7008 96.7685 53.6136C96.9238 53.5265 97.0014 53.375 97.0014 53.1591V53.1136C97.0014 52.553 96.848 52.1174 96.5412 51.8068C96.2382 51.4962 95.7779 51.3409 95.1605 51.3409C94.5204 51.3409 94.0185 51.4811 93.6548 51.7614C93.2912 52.0417 93.0355 52.3409 92.8878 52.6591L91.6151 52.2045C91.8423 51.6742 92.1454 51.2614 92.5241 50.9659C92.9067 50.6667 93.3234 50.4583 93.7741 50.3409C94.2287 50.2197 94.6757 50.1591 95.1151 50.1591C95.3954 50.1591 95.7173 50.1932 96.081 50.2614C96.4484 50.3258 96.8026 50.4602 97.1435 50.6648C97.4882 50.8693 97.7741 51.178 98.0014 51.5909C98.2287 52.0038 98.3423 52.5568 98.3423 53.25V59H97.0014V57.8182H96.9332C96.8423 58.0076 96.6908 58.2102 96.4787 58.4261C96.2666 58.642 95.9844 58.8258 95.6321 58.9773C95.2798 59.1288 94.8499 59.2045 94.3423 59.2045ZM94.5469 58C95.0772 58 95.5241 57.8958 95.8878 57.6875C96.2552 57.4792 96.5317 57.2102 96.7173 56.8807C96.9067 56.5511 97.0014 56.2045 97.0014 55.8409V54.6136C96.9446 54.6818 96.8196 54.7443 96.6264 54.8011C96.437 54.8542 96.2173 54.9015 95.9673 54.9432C95.7211 54.9811 95.4806 55.0152 95.2457 55.0455C95.0147 55.072 94.8272 55.0947 94.6832 55.1136C94.3348 55.1591 94.009 55.233 93.706 55.3352C93.4067 55.4337 93.1643 55.5833 92.9787 55.7841C92.7969 55.9811 92.706 56.25 92.706 56.5909C92.706 57.0568 92.8783 57.4091 93.223 57.6477C93.5715 57.8826 94.0128 58 94.5469 58ZM100.79 50.2727H102.131V57.75H105.426V50.2727H106.767V57.75H110.062V50.2727H111.403V59H100.79V50.2727ZM117.511 59.1818C116.67 59.1818 115.945 58.9962 115.335 58.625C114.729 58.25 114.261 57.7273 113.932 57.0568C113.606 56.3826 113.443 55.5985 113.443 54.7045C113.443 53.8106 113.606 53.0227 113.932 52.3409C114.261 51.6553 114.72 51.1212 115.307 50.7386C115.898 50.3523 116.587 50.1591 117.375 50.1591C117.83 50.1591 118.278 50.2348 118.722 50.3864C119.165 50.5379 119.568 50.7841 119.932 51.125C120.295 51.4621 120.585 51.9091 120.801 52.4659C121.017 53.0227 121.125 53.7083 121.125 54.5227V55.0909H114.398V53.9318H119.761C119.761 53.4394 119.663 53 119.466 52.6136C119.273 52.2273 118.996 51.9223 118.636 51.6989C118.28 51.4754 117.86 51.3636 117.375 51.3636C116.841 51.3636 116.379 51.4962 115.989 51.7614C115.602 52.0227 115.305 52.3636 115.097 52.7841C114.888 53.2045 114.784 53.6553 114.784 54.1364V54.9091C114.784 55.5682 114.898 56.1269 115.125 56.5852C115.356 57.0398 115.676 57.3864 116.085 57.625C116.494 57.8598 116.97 57.9773 117.511 57.9773C117.864 57.9773 118.182 57.928 118.466 57.8295C118.754 57.7273 119.002 57.5758 119.21 57.375C119.419 57.1705 119.58 56.9167 119.693 56.6136L120.989 56.9773C120.852 57.4167 120.623 57.803 120.301 58.1364C119.979 58.4659 119.581 58.7235 119.108 58.9091C118.634 59.0909 118.102 59.1818 117.511 59.1818ZM129.006 54.0227V55.2727H124.188V54.0227H129.006ZM124.506 50.2727V59H123.165V50.2727H124.506ZM130.028 50.2727V59H128.688V50.2727H130.028ZM133.818 57.0227L138.023 50.2727H139.568V59H138.227V52.25L134.045 59H132.477V50.2727H133.818V57.0227ZM145.683 59.1818C144.842 59.1818 144.117 58.9962 143.507 58.625C142.901 58.25 142.433 57.7273 142.104 57.0568C141.778 56.3826 141.615 55.5985 141.615 54.7045C141.615 53.8106 141.778 53.0227 142.104 52.3409C142.433 51.6553 142.892 51.1212 143.479 50.7386C144.07 50.3523 144.759 50.1591 145.547 50.1591C146.001 50.1591 146.45 50.2348 146.893 50.3864C147.337 50.5379 147.74 50.7841 148.104 51.125C148.467 51.4621 148.757 51.9091 148.973 52.4659C149.189 53.0227 149.297 53.7083 149.297 54.5227V55.0909H142.57V53.9318H147.933C147.933 53.4394 147.835 53 147.638 52.6136C147.445 52.2273 147.168 51.9223 146.808 51.6989C146.452 51.4754 146.032 51.3636 145.547 51.3636C145.013 51.3636 144.551 51.4962 144.161 51.7614C143.774 52.0227 143.477 52.3636 143.268 52.7841C143.06 53.2045 142.956 53.6553 142.956 54.1364V54.9091C142.956 55.5682 143.07 56.1269 143.297 56.5852C143.528 57.0398 143.848 57.3864 144.257 57.625C144.666 57.8598 145.142 57.9773 145.683 57.9773C146.036 57.9773 146.354 57.928 146.638 57.8295C146.926 57.7273 147.174 57.5758 147.382 57.375C147.59 57.1705 147.751 56.9167 147.865 56.6136L149.161 56.9773C149.024 57.4167 148.795 57.803 148.473 58.1364C148.151 58.4659 147.753 58.7235 147.28 58.9091C146.806 59.0909 146.274 59.1818 145.683 59.1818Z" fill="#2B2B2B"/>
<path d="M96.2781 1.9139C97.0523 0.603846 98.9477 0.60385 99.7219 1.91391L109.217 17.9825C110.005 19.3158 109.044 21 107.495 21H88.5049C86.9563 21 85.9952 19.3158 86.783 17.9825L96.2781 1.9139Z" fill="#F1F1F1"/>
</svg>
