<svg width="375" height="188" viewBox="0 0 375 188" fill="none" xmlns="http://www.w3.org/2000/svg">
<rect width="375" height="188" fill="#D20000"/>
<path d="M25.128 48.888H22.104L15.528 35.208L17.904 35.136V51H13.92V33.84H18.528L24.36 46.056H22.92L28.752 33.84H33.264V51H29.232V35.136L31.704 35.208L25.128 48.888ZM50.1077 47.88H39.4037V44.448H50.1077V47.88ZM53.7557 51H49.3157L44.1797 36.864H45.2357L40.0757 51H35.7797L42.4757 33.84H47.0597L53.7557 51ZM56.2716 51V33.84H68.0796V37.32H58.1916L60.3996 34.848V51H56.2716ZM80.4827 47.88H69.7787V44.448H80.4827V47.88ZM84.1307 51H79.6907L74.5547 36.864H75.6107L70.4507 51H66.1547L72.8507 33.84H77.4347L84.1307 51ZM92.4306 51.384C90.8786 51.384 89.4626 51.112 88.1826 50.568C86.9026 50.008 85.8546 49.216 85.0386 48.192L87.6066 45.576C88.2466 46.296 88.9906 46.848 89.8386 47.232C90.7026 47.6 91.6146 47.784 92.5746 47.784C93.2626 47.784 93.8546 47.696 94.3506 47.52C94.8466 47.344 95.2306 47.104 95.5026 46.8C95.7746 46.48 95.9106 46.112 95.9106 45.696C95.9106 45.136 95.6466 44.712 95.1186 44.424C94.5906 44.12 93.8226 43.968 92.8146 43.968H89.6226V40.536H92.8386C93.6546 40.536 94.2866 40.392 94.7346 40.104C95.1826 39.8 95.4066 39.4 95.4066 38.904C95.4066 38.344 95.1346 37.896 94.5906 37.56C94.0626 37.224 93.3506 37.056 92.4546 37.056C91.5906 37.056 90.8066 37.24 90.1026 37.608C89.3986 37.96 88.7266 38.544 88.0866 39.36L85.4706 36.672C86.3666 35.584 87.4146 34.776 88.6146 34.248C89.8146 33.704 91.1426 33.432 92.5986 33.432C93.9426 33.432 95.1426 33.64 96.1986 34.056C97.2546 34.472 98.0786 35.048 98.6706 35.784C99.2786 36.504 99.5826 37.336 99.5826 38.28C99.5826 39.096 99.3506 39.816 98.8866 40.44C98.4226 41.064 97.7826 41.552 96.9666 41.904C97.9266 42.224 98.6866 42.744 99.2466 43.464C99.8066 44.168 100.087 45 100.087 45.96C100.087 47.016 99.7506 47.952 99.0786 48.768C98.4226 49.584 97.5186 50.224 96.3666 50.688C95.2146 51.152 93.9026 51.384 92.4306 51.384ZM102.772 51V33.84H106.9V49.296H104.068L113.908 33.84H118.228V51H114.1V35.328H116.98L107.092 51H102.772ZM133.197 51V33.84H137.325V51H133.197ZM126.189 51H122.061V33.84H126.189V51ZM125.949 43.968V40.512H133.437V43.968H125.949ZM158.834 45.48L161.474 48.192C160.706 49.136 159.698 49.904 158.45 50.496C157.218 51.088 155.858 51.384 154.37 51.384C152.978 51.384 151.714 51.168 150.578 50.736C149.442 50.288 148.458 49.664 147.626 48.864C146.81 48.064 146.178 47.12 145.73 46.032C145.282 44.928 145.058 43.72 145.058 42.408C145.058 41.112 145.29 39.92 145.754 38.832C146.218 37.728 146.866 36.776 147.698 35.976C148.546 35.176 149.538 34.56 150.674 34.128C151.826 33.68 153.09 33.456 154.466 33.456C155.954 33.456 157.298 33.752 158.498 34.344C159.714 34.936 160.706 35.704 161.474 36.648L158.834 39.36C158.338 38.656 157.706 38.104 156.938 37.704C156.186 37.288 155.362 37.08 154.466 37.08C153.506 37.08 152.642 37.312 151.874 37.776C151.122 38.224 150.53 38.848 150.098 39.648C149.666 40.448 149.45 41.368 149.45 42.408C149.45 43.448 149.666 44.376 150.098 45.192C150.53 45.992 151.122 46.624 151.874 47.088C152.642 47.536 153.506 47.76 154.466 47.76C155.362 47.76 156.186 47.552 156.938 47.136C157.706 46.72 158.338 46.168 158.834 45.48ZM163.796 51V47.544H166.22C166.796 47.544 167.292 47.448 167.708 47.256C168.124 47.064 168.5 46.744 168.836 46.296C169.188 45.832 169.54 45.2 169.892 44.4L174.62 33.84H178.82L172.34 47.256C171.924 48.104 171.436 48.808 170.876 49.368C170.332 49.912 169.7 50.32 168.98 50.592C168.26 50.864 167.436 51 166.508 51H163.796ZM169.052 47.184L162.428 33.84H166.628L172.076 45.336L169.052 47.184ZM180.983 51V33.84H188.567C189.719 33.84 190.727 34.024 191.591 34.392C192.455 34.76 193.127 35.28 193.607 35.952C194.087 36.608 194.327 37.384 194.327 38.28C194.327 39.128 194.087 39.88 193.607 40.536C193.127 41.192 192.455 41.704 191.591 42.072C190.727 42.44 189.719 42.624 188.567 42.624H185.351V41.352H188.567C189.863 41.352 190.991 41.544 191.951 41.928C192.927 42.296 193.687 42.824 194.231 43.512C194.775 44.2 195.047 45.016 195.047 45.96C195.047 46.968 194.775 47.856 194.231 48.624C193.687 49.376 192.927 49.96 191.951 50.376C190.991 50.792 189.863 51 188.567 51H180.983ZM185.111 47.616H188.591C189.295 47.616 189.847 47.448 190.247 47.112C190.663 46.76 190.871 46.28 190.871 45.672C190.871 45.112 190.663 44.672 190.247 44.352C189.847 44.032 189.295 43.872 188.591 43.872H184.871V40.584H188.279C188.871 40.584 189.327 40.432 189.647 40.128C189.983 39.808 190.151 39.376 190.151 38.832C190.151 38.32 189.983 37.928 189.647 37.656C189.327 37.368 188.871 37.224 188.279 37.224H185.111V47.616ZM210.268 51H197.74V33.84H210.268V37.272H201.868V47.568H210.268V51ZM209.812 44.088H201.628V40.656H209.812V44.088ZM224.415 51V33.84H228.543V51H224.415ZM217.407 51H213.279V33.84H217.407V51ZM217.167 43.968V40.512H224.655V43.968H217.167ZM232.381 51V33.84H236.509V49.296H233.677L243.517 33.84H247.837V51H243.709V35.328H246.589L236.701 51H232.381ZM255.798 51H251.67V33.84H258.846C260.126 33.84 261.254 34.072 262.23 34.536C263.206 35 263.966 35.648 264.51 36.48C265.054 37.296 265.326 38.256 265.326 39.36C265.326 40.448 265.054 41.408 264.51 42.24C263.966 43.072 263.206 43.72 262.23 44.184C261.254 44.648 260.126 44.88 258.846 44.88H255.558V41.448H258.846C259.55 41.448 260.11 41.264 260.526 40.896C260.942 40.512 261.15 40 261.15 39.36C261.15 38.72 260.942 38.216 260.526 37.848C260.11 37.464 259.55 37.272 258.846 37.272H255.798V51ZM276.62 51.384C275.26 51.384 274.012 51.16 272.876 50.712C271.74 50.264 270.748 49.64 269.9 48.84C269.068 48.04 268.42 47.096 267.956 46.008C267.508 44.904 267.284 43.704 267.284 42.408C267.284 41.112 267.508 39.92 267.956 38.832C268.42 37.744 269.068 36.8 269.9 36C270.748 35.2 271.74 34.576 272.876 34.128C274.012 33.68 275.26 33.456 276.62 33.456C277.98 33.456 279.228 33.68 280.364 34.128C281.5 34.576 282.484 35.2 283.316 36C284.164 36.8 284.812 37.744 285.26 38.832C285.724 39.92 285.956 41.112 285.956 42.408C285.956 43.704 285.724 44.904 285.26 46.008C284.812 47.096 284.164 48.04 283.316 48.84C282.484 49.64 281.5 50.264 280.364 50.712C279.228 51.16 277.98 51.384 276.62 51.384ZM276.62 47.76C277.612 47.76 278.476 47.536 279.212 47.088C279.964 46.624 280.548 45.992 280.964 45.192C281.396 44.376 281.612 43.448 281.612 42.408C281.612 41.368 281.396 40.448 280.964 39.648C280.548 38.848 279.964 38.224 279.212 37.776C278.476 37.312 277.612 37.08 276.62 37.08C275.644 37.08 274.78 37.312 274.028 37.776C273.276 38.224 272.684 38.848 272.252 39.648C271.836 40.448 271.628 41.368 271.628 42.408C271.628 43.448 271.836 44.376 272.252 45.192C272.684 45.992 273.276 46.624 274.028 47.088C274.78 47.536 275.644 47.76 276.62 47.76ZM289.006 51V33.84H296.59C297.742 33.84 298.75 34.024 299.614 34.392C300.478 34.76 301.15 35.28 301.63 35.952C302.11 36.608 302.35 37.384 302.35 38.28C302.35 39.128 302.11 39.88 301.63 40.536C301.15 41.192 300.478 41.704 299.614 42.072C298.75 42.44 297.742 42.624 296.59 42.624H293.374V41.352H296.59C297.886 41.352 299.014 41.544 299.974 41.928C300.95 42.296 301.71 42.824 302.254 43.512C302.798 44.2 303.07 45.016 303.07 45.96C303.07 46.968 302.798 47.856 302.254 48.624C301.71 49.376 300.95 49.96 299.974 50.376C299.014 50.792 297.886 51 296.59 51H289.006ZM293.134 47.616H296.614C297.318 47.616 297.87 47.448 298.27 47.112C298.686 46.76 298.894 46.28 298.894 45.672C298.894 45.112 298.686 44.672 298.27 44.352C297.87 44.032 297.318 43.872 296.614 43.872H292.894V40.584H296.302C296.894 40.584 297.35 40.432 297.67 40.128C298.006 39.808 298.174 39.376 298.174 38.832C298.174 38.32 298.006 37.928 297.67 37.656C297.35 37.368 296.894 37.224 296.302 37.224H293.134V47.616ZM18.048 79H13.92V61.84H21.096C22.376 61.84 23.504 62.072 24.48 62.536C25.456 63 26.216 63.648 26.76 64.48C27.304 65.296 27.576 66.256 27.576 67.36C27.576 68.448 27.304 69.408 26.76 70.24C26.216 71.072 25.456 71.72 24.48 72.184C23.504 72.648 22.376 72.88 21.096 72.88H17.808V69.448H21.096C21.8 69.448 22.36 69.264 22.776 68.896C23.192 68.512 23.4 68 23.4 67.36C23.4 66.72 23.192 66.216 22.776 65.848C22.36 65.464 21.8 65.272 21.096 65.272H18.048V79ZM42.8543 79H30.3263V61.84H42.8543V65.272H34.4543V75.568H42.8543V79ZM42.3983 72.088H34.2143V68.656H42.3983V72.088ZM58.3806 73.48L61.0206 76.192C60.2526 77.136 59.2446 77.904 57.9966 78.496C56.7646 79.088 55.4046 79.384 53.9166 79.384C52.5246 79.384 51.2606 79.168 50.1246 78.736C48.9886 78.288 48.0046 77.664 47.1726 76.864C46.3566 76.064 45.7246 75.12 45.2766 74.032C44.8286 72.928 44.6046 71.72 44.6046 70.408C44.6046 69.112 44.8366 67.92 45.3006 66.832C45.7646 65.728 46.4126 64.776 47.2446 63.976C48.0926 63.176 49.0846 62.56 50.2206 62.128C51.3726 61.68 52.6366 61.456 54.0126 61.456C55.5006 61.456 56.8446 61.752 58.0446 62.344C59.2606 62.936 60.2526 63.704 61.0206 64.648L58.3806 67.36C57.8846 66.656 57.2526 66.104 56.4846 65.704C55.7326 65.288 54.9086 65.08 54.0126 65.08C53.0526 65.08 52.1886 65.312 51.4206 65.776C50.6686 66.224 50.0766 66.848 49.6446 67.648C49.2126 68.448 48.9966 69.368 48.9966 70.408C48.9966 71.448 49.2126 72.376 49.6446 73.192C50.0766 73.992 50.6686 74.624 51.4206 75.088C52.1886 75.536 53.0526 75.76 54.0126 75.76C54.9086 75.76 55.7326 75.552 56.4846 75.136C57.2526 74.72 57.8846 74.168 58.3806 73.48ZM63.6544 79V61.84H78.8704V79H74.7424V62.848L76.7104 65.296H65.5744L67.7824 62.848V79H63.6544ZM82.3971 79V75.544H84.8211C85.3971 75.544 85.8931 75.448 86.3091 75.256C86.7251 75.064 87.1011 74.744 87.4371 74.296C87.7891 73.832 88.1411 73.2 88.4931 72.4L93.2211 61.84H97.4211L90.9411 75.256C90.5251 76.104 90.0371 76.808 89.4771 77.368C88.9331 77.912 88.3011 78.32 87.5811 78.592C86.8611 78.864 86.0371 79 85.1091 79H82.3971ZM87.6531 75.184L81.0291 61.84H85.2291L90.6771 73.336L87.6531 75.184ZM99.5841 79V61.84H103.712V75.856L103.424 75.568H107.192C107.896 75.568 108.448 75.392 108.848 75.04C109.264 74.688 109.472 74.2 109.472 73.576C109.472 73 109.264 72.552 108.848 72.232C108.448 71.912 107.896 71.752 107.192 71.752H101.528V68.32H107.168C108.48 68.32 109.616 68.536 110.576 68.968C111.552 69.4 112.304 70.008 112.832 70.792C113.376 71.576 113.648 72.504 113.648 73.576C113.648 74.648 113.376 75.592 112.832 76.408C112.304 77.224 111.552 77.864 110.576 78.328C109.6 78.776 108.464 79 107.168 79H99.5841ZM101.456 65.32V61.84H112.304V65.32H101.456ZM114.908 79V75.544H116.66C117.124 75.544 117.436 75.464 117.596 75.304C117.772 75.144 117.892 74.816 117.956 74.32L119.372 61.84H131.348V79H127.22V62.368L129.188 65.296H120.212L123.308 62.368L121.844 74.32C121.7 75.456 121.46 76.368 121.124 77.056C120.788 77.744 120.316 78.24 119.708 78.544C119.116 78.848 118.34 79 117.38 79H114.908ZM135.186 79V61.84H139.314V77.296H136.482L146.322 61.84H150.642V79H146.514V63.328H149.394L139.506 79H135.186ZM158.603 79H154.475V61.84H158.603V79ZM171.251 79H165.875L158.003 70.096H158.387L165.251 61.84H170.243L162.851 70.456V69.736L171.251 79ZM173.412 79V61.84H177.54V77.296H174.708L184.548 61.84H188.868V79H184.74V63.328H187.62L177.732 79H173.412ZM208.597 76.888H205.573L198.997 63.208L201.373 63.136V79H197.389V61.84H201.997L207.829 74.056H206.389L212.221 61.84H216.733V79H212.701V63.136L215.173 63.208L208.597 76.888ZM229.112 79.384C227.752 79.384 226.504 79.16 225.368 78.712C224.232 78.264 223.24 77.64 222.392 76.84C221.56 76.04 220.912 75.096 220.448 74.008C220 72.904 219.776 71.704 219.776 70.408C219.776 69.112 220 67.92 220.448 66.832C220.912 65.744 221.56 64.8 222.392 64C223.24 63.2 224.232 62.576 225.368 62.128C226.504 61.68 227.752 61.456 229.112 61.456C230.472 61.456 231.72 61.68 232.856 62.128C233.992 62.576 234.976 63.2 235.808 64C236.656 64.8 237.304 65.744 237.752 66.832C238.216 67.92 238.448 69.112 238.448 70.408C238.448 71.704 238.216 72.904 237.752 74.008C237.304 75.096 236.656 76.04 235.808 76.84C234.976 77.64 233.992 78.264 232.856 78.712C231.72 79.16 230.472 79.384 229.112 79.384ZM229.112 75.76C230.104 75.76 230.968 75.536 231.704 75.088C232.456 74.624 233.04 73.992 233.456 73.192C233.888 72.376 234.104 71.448 234.104 70.408C234.104 69.368 233.888 68.448 233.456 67.648C233.04 66.848 232.456 66.224 231.704 65.776C230.968 65.312 230.104 65.08 229.112 65.08C228.136 65.08 227.272 65.312 226.52 65.776C225.768 66.224 225.176 66.848 224.744 67.648C224.328 68.448 224.12 69.368 224.12 70.408C224.12 71.448 224.328 72.376 224.744 73.192C225.176 73.992 225.768 74.624 226.52 75.088C227.272 75.536 228.136 75.76 229.112 75.76ZM245.626 79H241.498V61.84H248.674C249.954 61.84 251.082 62.072 252.058 62.536C253.034 63 253.794 63.648 254.338 64.48C254.882 65.296 255.154 66.256 255.154 67.36C255.154 68.448 254.882 69.408 254.338 70.24C253.794 71.072 253.034 71.72 252.058 72.184C251.082 72.648 249.954 72.88 248.674 72.88H245.386V69.448H248.674C249.378 69.448 249.938 69.264 250.354 68.896C250.77 68.512 250.978 68 250.978 67.36C250.978 66.72 250.77 66.216 250.354 65.848C249.938 65.464 249.378 65.272 248.674 65.272H245.626V79ZM254.962 77.08V75.544H256.066C256.514 75.544 256.874 75.24 257.146 74.632C257.418 74.008 257.642 72.992 257.818 71.584L259.018 61.84H270.946V76.48H266.866V62.368L268.786 65.296H259.474L262.93 62.368L261.682 72.04C261.538 73.176 261.266 74.12 260.866 74.872C260.482 75.608 259.962 76.16 259.306 76.528C258.65 76.896 257.866 77.08 256.954 77.08H254.962ZM254.362 83.176V75.544H273.178V83.176H269.338V77.032L271.498 79H256.402L258.202 77.464V83.176H254.362ZM284.003 79.384C282.643 79.384 281.395 79.16 280.259 78.712C279.123 78.264 278.131 77.64 277.283 76.84C276.451 76.04 275.803 75.096 275.339 74.008C274.891 72.904 274.667 71.704 274.667 70.408C274.667 69.112 274.891 67.92 275.339 66.832C275.803 65.744 276.451 64.8 277.283 64C278.131 63.2 279.123 62.576 280.259 62.128C281.395 61.68 282.643 61.456 284.003 61.456C285.363 61.456 286.611 61.68 287.747 62.128C288.883 62.576 289.867 63.2 290.699 64C291.547 64.8 292.195 65.744 292.643 66.832C293.107 67.92 293.339 69.112 293.339 70.408C293.339 71.704 293.107 72.904 292.643 74.008C292.195 75.096 291.547 76.04 290.699 76.84C289.867 77.64 288.883 78.264 287.747 78.712C286.611 79.16 285.363 79.384 284.003 79.384ZM284.003 75.76C284.995 75.76 285.859 75.536 286.595 75.088C287.347 74.624 287.931 73.992 288.347 73.192C288.779 72.376 288.995 71.448 288.995 70.408C288.995 69.368 288.779 68.448 288.347 67.648C287.931 66.848 287.347 66.224 286.595 65.776C285.859 65.312 284.995 65.08 284.003 65.08C283.027 65.08 282.163 65.312 281.411 65.776C280.659 66.224 280.067 66.848 279.635 67.648C279.219 68.448 279.011 69.368 279.011 70.408C279.011 71.448 279.219 72.376 279.635 73.192C280.067 73.992 280.659 74.624 281.411 75.088C282.163 75.536 283.027 75.76 284.003 75.76ZM296.389 79V61.84H303.973C305.125 61.84 306.133 62.024 306.997 62.392C307.861 62.76 308.533 63.28 309.013 63.952C309.493 64.608 309.733 65.384 309.733 66.28C309.733 67.128 309.493 67.88 309.013 68.536C308.533 69.192 307.861 69.704 306.997 70.072C306.133 70.44 305.125 70.624 303.973 70.624H300.757V69.352H303.973C305.269 69.352 306.397 69.544 307.357 69.928C308.333 70.296 309.093 70.824 309.637 71.512C310.181 72.2 310.453 73.016 310.453 73.96C310.453 74.968 310.181 75.856 309.637 76.624C309.093 77.376 308.333 77.96 307.357 78.376C306.397 78.792 305.269 79 303.973 79H296.389ZM300.517 75.616H303.997C304.701 75.616 305.253 75.448 305.653 75.112C306.069 74.76 306.277 74.28 306.277 73.672C306.277 73.112 306.069 72.672 305.653 72.352C305.253 72.032 304.701 71.872 303.997 71.872H300.277V68.584H303.685C304.277 68.584 304.733 68.432 305.053 68.128C305.389 67.808 305.557 67.376 305.557 66.832C305.557 66.32 305.389 65.928 305.053 65.656C304.733 65.368 304.277 65.224 303.685 65.224H300.517V75.616ZM313.147 79V61.84H317.275V77.296H314.443L324.283 61.84H328.603V79H324.475V63.328H327.355L317.467 79H313.147ZM341.892 79V65.272H338.844C338.14 65.272 337.58 65.464 337.164 65.848C336.748 66.216 336.54 66.72 336.54 67.36C336.54 68 336.748 68.512 337.164 68.896C337.58 69.264 338.14 69.448 338.844 69.448H342.132V72.88H338.844C337.564 72.88 336.436 72.648 335.46 72.184C334.484 71.72 333.724 71.072 333.18 70.24C332.636 69.408 332.364 68.448 332.364 67.36C332.364 66.256 332.636 65.296 333.18 64.48C333.724 63.648 334.484 63 335.46 62.536C336.436 62.072 337.564 61.84 338.844 61.84H346.02V79H341.892ZM330.876 79L336.54 71.008H341.124L335.748 79H330.876Z" fill="white"/>
<path d="M13.233 96.8182H14.4659V105.866H18.0455V96.8182H19.2784V105.866H22.858V96.8182H24.0909V107H13.233V96.8182ZM27.5772 105.27L31.2562 99.3636H32.6085V107H31.4352V101.094L27.7761 107H26.4039V99.3636H27.5772V105.27ZM34.7575 109.864V99.3636H35.891V100.577H36.0302C36.1164 100.444 36.2357 100.275 36.3881 100.07C36.5439 99.8608 36.766 99.6752 37.0543 99.5128C37.346 99.3471 37.7404 99.2642 38.2376 99.2642C38.8806 99.2642 39.4473 99.425 39.9379 99.7464C40.4284 100.068 40.8112 100.524 41.0863 101.114C41.3614 101.704 41.4989 102.4 41.4989 103.202C41.4989 104.01 41.3614 104.711 41.0863 105.305C40.8112 105.895 40.43 106.352 39.9428 106.677C39.4556 106.998 38.8938 107.159 38.2575 107.159C37.7669 107.159 37.3742 107.078 37.0792 106.915C36.7842 106.75 36.5572 106.562 36.3981 106.354C36.239 106.142 36.1164 105.966 36.0302 105.827H35.9308V109.864H34.7575ZM35.9109 103.182C35.9109 103.759 35.9954 104.267 36.1644 104.708C36.3335 105.146 36.5804 105.489 36.9052 105.737C37.23 105.982 37.6277 106.105 38.0984 106.105C38.5889 106.105 38.9982 105.976 39.3263 105.717C39.6578 105.455 39.9064 105.104 40.0721 104.663C40.2411 104.219 40.3256 103.725 40.3256 103.182C40.3256 102.645 40.2428 102.161 40.0771 101.73C39.9147 101.296 39.6677 100.953 39.3363 100.701C39.0082 100.446 38.5955 100.318 38.0984 100.318C37.6211 100.318 37.2201 100.439 36.8952 100.681C36.5704 100.92 36.3252 101.254 36.1594 101.685C35.9937 102.113 35.9109 102.612 35.9109 103.182ZM46.391 107.159C45.7016 107.159 45.0967 106.995 44.5763 106.667C44.0593 106.339 43.6549 105.88 43.3633 105.29C43.0749 104.7 42.9308 104.01 42.9308 103.222C42.9308 102.426 43.0749 101.732 43.3633 101.138C43.6549 100.545 44.0593 100.085 44.5763 99.7564C45.0967 99.4283 45.7016 99.2642 46.391 99.2642C47.0804 99.2642 47.6836 99.4283 48.2006 99.7564C48.721 100.085 49.1254 100.545 49.4137 101.138C49.7054 101.732 49.8512 102.426 49.8512 103.222C49.8512 104.01 49.7054 104.7 49.4137 105.29C49.1254 105.88 48.721 106.339 48.2006 106.667C47.6836 106.995 47.0804 107.159 46.391 107.159ZM46.391 106.105C46.9147 106.105 47.3455 105.971 47.6836 105.702C48.0217 105.434 48.2719 105.081 48.4343 104.643C48.5967 104.206 48.6779 103.732 48.6779 103.222C48.6779 102.711 48.5967 102.236 48.4343 101.795C48.2719 101.354 48.0217 100.998 47.6836 100.726C47.3455 100.454 46.9147 100.318 46.391 100.318C45.8673 100.318 45.4364 100.454 45.0984 100.726C44.7603 100.998 44.5101 101.354 44.3477 101.795C44.1853 102.236 44.104 102.711 44.104 103.222C44.104 103.732 44.1853 104.206 44.3477 104.643C44.5101 105.081 44.7603 105.434 45.0984 105.702C45.4364 105.971 45.8673 106.105 46.391 106.105ZM51.6422 107V99.3636H52.8155V102.685H53.5911L56.3354 99.3636H57.8468L54.7644 103.043L57.8865 107H56.3752L53.8695 103.778H52.8155V107H51.6422ZM60.335 105.27L64.014 99.3636H65.3663V107H64.193V101.094L60.5339 107H59.1618V99.3636H60.335V105.27ZM68.6886 105.27L72.3675 99.3636H73.7198V107H72.5465V101.094L68.8874 107H67.5153V99.3636H68.6886V105.27ZM71.592 96.8182H72.6857C72.6857 97.3551 72.5001 97.7943 72.1289 98.1357C71.7577 98.477 71.2539 98.6477 70.6175 98.6477C69.9911 98.6477 69.4923 98.477 69.1211 98.1357C68.7532 97.7943 68.5692 97.3551 68.5692 96.8182H69.663C69.663 97.0767 69.7343 97.3037 69.8768 97.4993C70.0226 97.6948 70.2695 97.7926 70.6175 97.7926C70.9656 97.7926 71.2141 97.6948 71.3633 97.4993C71.5157 97.3037 71.592 97.0767 71.592 96.8182ZM79.8063 107V99.3636H82.9284C83.7504 99.3636 84.4033 99.5492 84.8873 99.9205C85.3712 100.292 85.6131 100.782 85.6131 101.392C85.6131 101.856 85.4756 102.216 85.2005 102.471C84.9254 102.723 84.5724 102.893 84.1415 102.983C84.4232 103.023 84.6967 103.122 84.9618 103.281C85.2303 103.44 85.4524 103.659 85.628 103.938C85.8037 104.213 85.8915 104.551 85.8915 104.952C85.8915 105.343 85.7921 105.692 85.5932 106.001C85.3944 106.309 85.1093 106.553 84.7381 106.732C84.3669 106.911 83.9228 107 83.4057 107H79.8063ZM80.9199 105.926H83.4057C83.8101 105.926 84.1266 105.83 84.3553 105.638C84.584 105.446 84.6983 105.184 84.6983 104.852C84.6983 104.458 84.584 104.148 84.3553 103.923C84.1266 103.694 83.8101 103.58 83.4057 103.58H80.9199V105.926ZM80.9199 102.565H82.9284C83.2433 102.565 83.5134 102.522 83.7388 102.436C83.9642 102.347 84.1365 102.221 84.2559 102.058C84.3785 101.893 84.4398 101.697 84.4398 101.472C84.4398 101.15 84.3056 100.898 84.0371 100.716C83.7686 100.53 83.3991 100.438 82.9284 100.438H80.9199V102.565ZM88.6818 102.128H90.8693C91.7642 102.128 92.4486 102.355 92.9226 102.809C93.3965 103.263 93.6335 103.838 93.6335 104.534C93.6335 104.991 93.5275 105.407 93.3153 105.782C93.1032 106.153 92.7917 106.45 92.3807 106.672C91.9697 106.891 91.4659 107 90.8693 107H87.6676V99.3636H88.8409V105.906H90.8693C91.3333 105.906 91.7145 105.784 92.0128 105.538C92.3111 105.293 92.4602 104.978 92.4602 104.594C92.4602 104.189 92.3111 103.86 92.0128 103.604C91.7145 103.349 91.3333 103.222 90.8693 103.222H88.6818V102.128ZM94.8466 107V99.3636H96.0199V107H94.8466ZM103.835 96.5L104.432 97.2159C104.2 97.4413 103.931 97.5987 103.626 97.6882C103.321 97.7777 102.977 97.8324 102.592 97.8523C102.208 97.8722 101.78 97.892 101.31 97.9119C100.779 97.9318 100.34 98.0611 99.9922 98.2997C99.6442 98.5384 99.3757 98.883 99.1868 99.3338C98.9979 99.7846 98.8769 100.338 98.8239 100.994H98.9233C99.1818 100.517 99.5398 100.166 99.9972 99.9403C100.455 99.715 100.945 99.6023 101.469 99.6023C102.065 99.6023 102.602 99.7415 103.08 100.02C103.557 100.298 103.935 100.711 104.213 101.258C104.491 101.805 104.631 102.479 104.631 103.281C104.631 104.08 104.488 104.769 104.203 105.349C103.921 105.929 103.525 106.377 103.015 106.692C102.508 107.003 101.913 107.159 101.23 107.159C100.547 107.159 99.9491 106.998 99.4354 106.677C98.9216 106.352 98.5223 105.871 98.2372 105.235C97.9522 104.595 97.8097 103.805 97.8097 102.864V102.048C97.8097 100.348 98.098 99.0587 98.6747 98.1804C99.2547 97.3021 100.126 96.848 101.29 96.8182C101.701 96.8049 102.067 96.8016 102.388 96.8082C102.71 96.8149 102.99 96.8 103.229 96.7635C103.467 96.727 103.67 96.6392 103.835 96.5ZM101.23 106.105C101.691 106.105 102.087 105.989 102.418 105.757C102.753 105.525 103.01 105.199 103.189 104.778C103.368 104.353 103.457 103.855 103.457 103.281C103.457 102.724 103.366 102.25 103.184 101.859C103.005 101.468 102.748 101.17 102.413 100.964C102.079 100.759 101.678 100.656 101.21 100.656C100.869 100.656 100.562 100.714 100.29 100.83C100.019 100.946 99.7867 101.117 99.5945 101.342C99.4022 101.568 99.2531 101.843 99.147 102.168C99.0443 102.492 98.9896 102.864 98.983 103.281C98.983 104.136 99.1835 104.821 99.5845 105.335C99.9856 105.848 100.534 106.105 101.23 106.105ZM109.528 107.159C108.838 107.159 108.233 106.995 107.713 106.667C107.196 106.339 106.792 105.88 106.5 105.29C106.212 104.7 106.067 104.01 106.067 103.222C106.067 102.426 106.212 101.732 106.5 101.138C106.792 100.545 107.196 100.085 107.713 99.7564C108.233 99.4283 108.838 99.2642 109.528 99.2642C110.217 99.2642 110.82 99.4283 111.337 99.7564C111.858 100.085 112.262 100.545 112.55 101.138C112.842 101.732 112.988 102.426 112.988 103.222C112.988 104.01 112.842 104.7 112.55 105.29C112.262 105.88 111.858 106.339 111.337 106.667C110.82 106.995 110.217 107.159 109.528 107.159ZM109.528 106.105C110.051 106.105 110.482 105.971 110.82 105.702C111.158 105.434 111.409 105.081 111.571 104.643C111.733 104.206 111.815 103.732 111.815 103.222C111.815 102.711 111.733 102.236 111.571 101.795C111.409 101.354 111.158 100.998 110.82 100.726C110.482 100.454 110.051 100.318 109.528 100.318C109.004 100.318 108.573 100.454 108.235 100.726C107.897 100.998 107.647 101.354 107.484 101.795C107.322 102.236 107.241 102.711 107.241 103.222C107.241 103.732 107.322 104.206 107.484 104.643C107.647 105.081 107.897 105.434 108.235 105.702C108.573 105.971 109.004 106.105 109.528 106.105ZM114.779 109.864V99.3636H115.912V100.577H116.052C116.138 100.444 116.257 100.275 116.41 100.07C116.565 99.8608 116.787 99.6752 117.076 99.5128C117.367 99.3471 117.762 99.2642 118.259 99.2642C118.902 99.2642 119.469 99.425 119.959 99.7464C120.45 100.068 120.833 100.524 121.108 101.114C121.383 101.704 121.52 102.4 121.52 103.202C121.52 104.01 121.383 104.711 121.108 105.305C120.833 105.895 120.452 106.352 119.964 106.677C119.477 106.998 118.915 107.159 118.279 107.159C117.788 107.159 117.396 107.078 117.101 106.915C116.806 106.75 116.579 106.562 116.42 106.354C116.26 106.142 116.138 105.966 116.052 105.827H115.952V109.864H114.779ZM115.932 103.182C115.932 103.759 116.017 104.267 116.186 104.708C116.355 105.146 116.602 105.489 116.927 105.737C117.251 105.982 117.649 106.105 118.12 106.105C118.61 106.105 119.02 105.976 119.348 105.717C119.679 105.455 119.928 105.104 120.094 104.663C120.263 104.219 120.347 103.725 120.347 103.182C120.347 102.645 120.264 102.161 120.099 101.73C119.936 101.296 119.689 100.953 119.358 100.701C119.03 100.446 118.617 100.318 118.12 100.318C117.643 100.318 117.242 100.439 116.917 100.681C116.592 100.92 116.347 101.254 116.181 101.685C116.015 102.113 115.932 102.612 115.932 103.182ZM130.35 107.159C129.634 107.159 129.018 106.99 128.501 106.652C127.983 106.314 127.586 105.848 127.307 105.255C127.029 104.662 126.89 103.984 126.89 103.222C126.89 102.446 127.032 101.762 127.317 101.168C127.606 100.572 128.007 100.106 128.52 99.7713C129.037 99.4332 129.641 99.2642 130.33 99.2642C130.867 99.2642 131.351 99.3636 131.782 99.5625C132.213 99.7614 132.566 100.04 132.841 100.398C133.116 100.756 133.287 101.173 133.353 101.651H132.18C132.09 101.303 131.891 100.994 131.583 100.726C131.278 100.454 130.867 100.318 130.35 100.318C129.893 100.318 129.492 100.437 129.147 100.676C128.805 100.911 128.539 101.245 128.346 101.675C128.157 102.103 128.063 102.605 128.063 103.182C128.063 103.772 128.156 104.286 128.341 104.723C128.53 105.161 128.796 105.5 129.137 105.742C129.482 105.984 129.886 106.105 130.35 106.105C130.655 106.105 130.932 106.052 131.18 105.946C131.429 105.84 131.639 105.688 131.812 105.489C131.984 105.29 132.107 105.051 132.18 104.773H133.353C133.287 105.223 133.122 105.629 132.861 105.991C132.602 106.349 132.259 106.634 131.831 106.846C131.407 107.055 130.913 107.159 130.35 107.159ZM135.824 109.864C135.625 109.864 135.448 109.847 135.292 109.814C135.136 109.784 135.028 109.754 134.969 109.724L135.267 108.69C135.552 108.763 135.804 108.79 136.023 108.77C136.241 108.75 136.435 108.652 136.604 108.477C136.777 108.304 136.934 108.024 137.077 107.636L137.295 107.04L134.471 99.3636H135.744L137.852 105.449H137.932L140.04 99.3636H141.312L138.071 108.114C137.925 108.508 137.744 108.835 137.529 109.093C137.314 109.355 137.063 109.549 136.778 109.675C136.497 109.801 136.178 109.864 135.824 109.864ZM142.861 107V99.3636H145.983C146.805 99.3636 147.458 99.5492 147.942 99.9205C148.426 100.292 148.668 100.782 148.668 101.392C148.668 101.856 148.53 102.216 148.255 102.471C147.98 102.723 147.627 102.893 147.196 102.983C147.478 103.023 147.751 103.122 148.017 103.281C148.285 103.44 148.507 103.659 148.683 103.938C148.858 104.213 148.946 104.551 148.946 104.952C148.946 105.343 148.847 105.692 148.648 106.001C148.449 106.309 148.164 106.553 147.793 106.732C147.422 106.911 146.977 107 146.46 107H142.861ZM143.975 105.926H146.46C146.865 105.926 147.181 105.83 147.41 105.638C147.639 105.446 147.753 105.184 147.753 104.852C147.753 104.458 147.639 104.148 147.41 103.923C147.181 103.694 146.865 103.58 146.46 103.58H143.975V105.926ZM143.975 102.565H145.983C146.298 102.565 146.568 102.522 146.794 102.436C147.019 102.347 147.191 102.221 147.311 102.058C147.433 101.893 147.494 101.697 147.494 101.472C147.494 101.15 147.36 100.898 147.092 100.716C146.823 100.53 146.454 100.438 145.983 100.438H143.975V102.565ZM153.924 107.159C153.188 107.159 152.554 106.997 152.02 106.672C151.49 106.344 151.08 105.886 150.792 105.3C150.507 104.71 150.364 104.024 150.364 103.241C150.364 102.459 150.507 101.77 150.792 101.173C151.08 100.573 151.481 100.106 151.995 99.7713C152.512 99.4332 153.115 99.2642 153.805 99.2642C154.202 99.2642 154.595 99.3305 154.983 99.4631C155.371 99.5956 155.724 99.8111 156.042 100.109C156.36 100.404 156.614 100.795 156.803 101.283C156.991 101.77 157.086 102.37 157.086 103.082V103.58H151.2V102.565H155.893C155.893 102.134 155.807 101.75 155.634 101.412C155.465 101.074 155.223 100.807 154.908 100.612C154.597 100.416 154.229 100.318 153.805 100.318C153.337 100.318 152.933 100.434 152.592 100.666C152.254 100.895 151.993 101.193 151.811 101.561C151.629 101.929 151.538 102.323 151.538 102.744V103.42C151.538 103.997 151.637 104.486 151.836 104.887C152.038 105.285 152.318 105.588 152.676 105.797C153.034 106.002 153.45 106.105 153.924 106.105C154.232 106.105 154.511 106.062 154.759 105.976C155.011 105.886 155.228 105.754 155.411 105.578C155.593 105.399 155.734 105.177 155.833 104.912L156.967 105.23C156.847 105.615 156.647 105.953 156.365 106.244C156.083 106.533 155.735 106.758 155.321 106.92C154.907 107.08 154.441 107.159 153.924 107.159ZM163.982 102.645V103.739H159.766V102.645H163.982ZM160.044 99.3636V107H158.871V99.3636H160.044ZM164.876 99.3636V107H163.703V99.3636H164.876ZM168.192 105.27L171.871 99.3636H173.224V107H172.05V101.094L168.391 107H167.019V99.3636H168.192V105.27ZM175.373 109.864V99.3636H176.506V100.577H176.645C176.732 100.444 176.851 100.275 177.003 100.07C177.159 99.8608 177.381 99.6752 177.67 99.5128C177.961 99.3471 178.356 99.2642 178.853 99.2642C179.496 99.2642 180.063 99.425 180.553 99.7464C181.044 100.068 181.426 100.524 181.702 101.114C181.977 101.704 182.114 102.4 182.114 103.202C182.114 104.01 181.977 104.711 181.702 105.305C181.426 105.895 181.045 106.352 180.558 106.677C180.071 106.998 179.509 107.159 178.873 107.159C178.382 107.159 177.989 107.078 177.694 106.915C177.399 106.75 177.172 106.562 177.013 106.354C176.854 106.142 176.732 105.966 176.645 105.827H176.546V109.864H175.373ZM176.526 103.182C176.526 103.759 176.611 104.267 176.78 104.708C176.949 105.146 177.196 105.489 177.52 105.737C177.845 105.982 178.243 106.105 178.714 106.105C179.204 106.105 179.613 105.976 179.942 105.717C180.273 105.455 180.522 105.104 180.687 104.663C180.856 104.219 180.941 103.725 180.941 103.182C180.941 102.645 180.858 102.161 180.692 101.73C180.53 101.296 180.283 100.953 179.952 100.701C179.623 100.446 179.211 100.318 178.714 100.318C178.236 100.318 177.835 100.439 177.51 100.681C177.186 100.92 176.94 101.254 176.775 101.685C176.609 102.113 176.526 102.612 176.526 103.182ZM187.006 107.159C186.317 107.159 185.712 106.995 185.192 106.667C184.675 106.339 184.27 105.88 183.979 105.29C183.69 104.7 183.546 104.01 183.546 103.222C183.546 102.426 183.69 101.732 183.979 101.138C184.27 100.545 184.675 100.085 185.192 99.7564C185.712 99.4283 186.317 99.2642 187.006 99.2642C187.696 99.2642 188.299 99.4283 188.816 99.7564C189.336 100.085 189.741 100.545 190.029 101.138C190.321 101.732 190.466 102.426 190.466 103.222C190.466 104.01 190.321 104.7 190.029 105.29C189.741 105.88 189.336 106.339 188.816 106.667C188.299 106.995 187.696 107.159 187.006 107.159ZM187.006 106.105C187.53 106.105 187.961 105.971 188.299 105.702C188.637 105.434 188.887 105.081 189.05 104.643C189.212 104.206 189.293 103.732 189.293 103.222C189.293 102.711 189.212 102.236 189.05 101.795C188.887 101.354 188.637 100.998 188.299 100.726C187.961 100.454 187.53 100.318 187.006 100.318C186.483 100.318 186.052 100.454 185.714 100.726C185.376 100.998 185.125 101.354 184.963 101.795C184.8 102.236 184.719 102.711 184.719 103.222C184.719 103.732 184.8 104.206 184.963 104.643C185.125 105.081 185.376 105.434 185.714 105.702C186.052 105.971 186.483 106.105 187.006 106.105ZM192.257 107V99.3636H195.38C196.202 99.3636 196.855 99.5492 197.338 99.9205C197.822 100.292 198.064 100.782 198.064 101.392C198.064 101.856 197.927 102.216 197.652 102.471C197.377 102.723 197.024 102.893 196.593 102.983C196.874 103.023 197.148 103.122 197.413 103.281C197.681 103.44 197.904 103.659 198.079 103.938C198.255 104.213 198.343 104.551 198.343 104.952C198.343 105.343 198.243 105.692 198.044 106.001C197.846 106.309 197.56 106.553 197.189 106.732C196.818 106.911 196.374 107 195.857 107H192.257ZM193.371 105.926H195.857C196.261 105.926 196.578 105.83 196.806 105.638C197.035 105.446 197.15 105.184 197.15 104.852C197.15 104.458 197.035 104.148 196.806 103.923C196.578 103.694 196.261 103.58 195.857 103.58H193.371V105.926ZM193.371 102.565H195.38C195.694 102.565 195.965 102.522 196.19 102.436C196.415 102.347 196.588 102.221 196.707 102.058C196.83 101.893 196.891 101.697 196.891 101.472C196.891 101.15 196.757 100.898 196.488 100.716C196.22 100.53 195.85 100.438 195.38 100.438H193.371V102.565ZM201.869 105.608L201.789 106.145C201.733 106.523 201.647 106.927 201.531 107.358C201.418 107.789 201.3 108.195 201.178 108.576C201.055 108.957 200.954 109.26 200.874 109.486H199.98C200.023 109.274 200.079 108.994 200.149 108.646C200.218 108.298 200.288 107.908 200.357 107.477C200.43 107.05 200.49 106.612 200.536 106.165L200.596 105.608H201.869ZM207.98 107V99.3636H211.102C211.924 99.3636 212.577 99.5492 213.061 99.9205C213.545 100.292 213.787 100.782 213.787 101.392C213.787 101.856 213.649 102.216 213.374 102.471C213.099 102.723 212.746 102.893 212.315 102.983C212.597 103.023 212.871 103.122 213.136 103.281C213.404 103.44 213.626 103.659 213.802 103.938C213.978 104.213 214.065 104.551 214.065 104.952C214.065 105.343 213.966 105.692 213.767 106.001C213.568 106.309 213.283 106.553 212.912 106.732C212.541 106.911 212.097 107 211.58 107H207.98ZM209.094 105.926H211.58C211.984 105.926 212.3 105.83 212.529 105.638C212.758 105.446 212.872 105.184 212.872 104.852C212.872 104.458 212.758 104.148 212.529 103.923C212.3 103.694 211.984 103.58 211.58 103.58H209.094V105.926ZM209.094 102.565H211.102C211.417 102.565 211.687 102.522 211.913 102.436C212.138 102.347 212.31 102.221 212.43 102.058C212.552 101.893 212.614 101.697 212.614 101.472C212.614 101.15 212.479 100.898 212.211 100.716C211.942 100.53 211.573 100.438 211.102 100.438H209.094V102.565ZM219.779 107V99.3636H220.952V102.685H221.728L224.472 99.3636H225.983L222.901 103.043L226.023 107H224.512L222.006 103.778H220.952V107H219.779ZM230.086 107.159C229.397 107.159 228.792 106.995 228.272 106.667C227.755 106.339 227.35 105.88 227.059 105.29C226.77 104.7 226.626 104.01 226.626 103.222C226.626 102.426 226.77 101.732 227.059 101.138C227.35 100.545 227.755 100.085 228.272 99.7564C228.792 99.4283 229.397 99.2642 230.086 99.2642C230.776 99.2642 231.379 99.4283 231.896 99.7564C232.416 100.085 232.821 100.545 233.109 101.138C233.401 101.732 233.547 102.426 233.547 103.222C233.547 104.01 233.401 104.7 233.109 105.29C232.821 105.88 232.416 106.339 231.896 106.667C231.379 106.995 230.776 107.159 230.086 107.159ZM230.086 106.105C230.61 106.105 231.041 105.971 231.379 105.702C231.717 105.434 231.967 105.081 232.13 104.643C232.292 104.206 232.373 103.732 232.373 103.222C232.373 102.711 232.292 102.236 232.13 101.795C231.967 101.354 231.717 100.998 231.379 100.726C231.041 100.454 230.61 100.318 230.086 100.318C229.563 100.318 229.132 100.454 228.794 100.726C228.456 100.998 228.205 101.354 228.043 101.795C227.881 102.236 227.799 102.711 227.799 103.222C227.799 103.732 227.881 104.206 228.043 104.643C228.205 105.081 228.456 105.434 228.794 105.702C229.132 105.971 229.563 106.105 230.086 106.105ZM234.339 100.457V99.3636H240.544V100.457H238.038V107H236.865V100.457H234.339ZM244.961 107.159C244.272 107.159 243.667 106.995 243.147 106.667C242.63 106.339 242.225 105.88 241.934 105.29C241.645 104.7 241.501 104.01 241.501 103.222C241.501 102.426 241.645 101.732 241.934 101.138C242.225 100.545 242.63 100.085 243.147 99.7564C243.667 99.4283 244.272 99.2642 244.961 99.2642C245.651 99.2642 246.254 99.4283 246.771 99.7564C247.291 100.085 247.696 100.545 247.984 101.138C248.276 101.732 248.422 102.426 248.422 103.222C248.422 104.01 248.276 104.7 247.984 105.29C247.696 105.88 247.291 106.339 246.771 106.667C246.254 106.995 245.651 107.159 244.961 107.159ZM244.961 106.105C245.485 106.105 245.916 105.971 246.254 105.702C246.592 105.434 246.842 105.081 247.005 104.643C247.167 104.206 247.248 103.732 247.248 103.222C247.248 102.711 247.167 102.236 247.005 101.795C246.842 101.354 246.592 100.998 246.254 100.726C245.916 100.454 245.485 100.318 244.961 100.318C244.438 100.318 244.007 100.454 243.669 100.726C243.331 100.998 243.08 101.354 242.918 101.795C242.756 102.236 242.674 102.711 242.674 103.222C242.674 103.732 242.756 104.206 242.918 104.643C243.08 105.081 243.331 105.434 243.669 105.702C244.007 105.971 244.438 106.105 244.961 106.105ZM250.213 109.864V99.3636H251.346V100.577H251.485C251.571 100.444 251.691 100.275 251.843 100.07C251.999 99.8608 252.221 99.6752 252.509 99.5128C252.801 99.3471 253.195 99.2642 253.693 99.2642C254.336 99.2642 254.902 99.425 255.393 99.7464C255.883 100.068 256.266 100.524 256.541 101.114C256.816 101.704 256.954 102.4 256.954 103.202C256.954 104.01 256.816 104.711 256.541 105.305C256.266 105.895 255.885 106.352 255.398 106.677C254.911 106.998 254.349 107.159 253.713 107.159C253.222 107.159 252.829 107.078 252.534 106.915C252.239 106.75 252.012 106.562 251.853 106.354C251.694 106.142 251.571 105.966 251.485 105.827H251.386V109.864H250.213ZM251.366 103.182C251.366 103.759 251.45 104.267 251.619 104.708C251.789 105.146 252.035 105.489 252.36 105.737C252.685 105.982 253.083 106.105 253.553 106.105C254.044 106.105 254.453 105.976 254.781 105.717C255.113 105.455 255.361 105.104 255.527 104.663C255.696 104.219 255.781 103.725 255.781 103.182C255.781 102.645 255.698 102.161 255.532 101.73C255.37 101.296 255.123 100.953 254.791 100.701C254.463 100.446 254.051 100.318 253.553 100.318C253.076 100.318 252.675 100.439 252.35 100.681C252.026 100.92 251.78 101.254 251.615 101.685C251.449 102.113 251.366 102.612 251.366 103.182ZM259.758 102.128H261.945C262.84 102.128 263.525 102.355 263.999 102.809C264.473 103.263 264.71 103.838 264.71 104.534C264.71 104.991 264.604 105.407 264.392 105.782C264.179 106.153 263.868 106.45 263.457 106.672C263.046 106.891 262.542 107 261.945 107H258.744V99.3636H259.917V105.906H261.945C262.41 105.906 262.791 105.784 263.089 105.538C263.387 105.293 263.536 104.978 263.536 104.594C263.536 104.189 263.387 103.86 263.089 103.604C262.791 103.349 262.41 103.222 261.945 103.222H259.758V102.128ZM265.923 107V99.3636H267.096V107H265.923ZM270.119 99.3636L271.948 102.486L273.778 99.3636H275.13L272.664 103.182L275.13 107H273.778L271.948 104.037L270.119 107H268.767L271.193 103.182L268.767 99.3636H270.119ZM280.742 107V99.3636H286.748V107H285.574V100.457H281.915V107H280.742ZM288.89 109.864V99.3636H290.024V100.577H290.163C290.249 100.444 290.368 100.275 290.521 100.07C290.677 99.8608 290.899 99.6752 291.187 99.5128C291.479 99.3471 291.873 99.2642 292.37 99.2642C293.013 99.2642 293.58 99.425 294.071 99.7464C294.561 100.068 294.944 100.524 295.219 101.114C295.494 101.704 295.632 102.4 295.632 103.202C295.632 104.01 295.494 104.711 295.219 105.305C294.944 105.895 294.563 106.352 294.076 106.677C293.588 106.998 293.027 107.159 292.39 107.159C291.9 107.159 291.507 107.078 291.212 106.915C290.917 106.75 290.69 106.562 290.531 106.354C290.372 106.142 290.249 105.966 290.163 105.827H290.064V109.864H288.89ZM290.044 103.182C290.044 103.759 290.128 104.267 290.297 104.708C290.466 105.146 290.713 105.489 291.038 105.737C291.363 105.982 291.761 106.105 292.231 106.105C292.722 106.105 293.131 105.976 293.459 105.717C293.791 105.455 294.039 105.104 294.205 104.663C294.374 104.219 294.458 103.725 294.458 103.182C294.458 102.645 294.376 102.161 294.21 101.73C294.047 101.296 293.801 100.953 293.469 100.701C293.141 100.446 292.728 100.318 292.231 100.318C291.754 100.318 291.353 100.439 291.028 100.681C290.703 100.92 290.458 101.254 290.292 101.685C290.127 102.113 290.044 102.612 290.044 103.182ZM300.623 107.159C299.887 107.159 299.253 106.997 298.719 106.672C298.189 106.344 297.779 105.886 297.491 105.3C297.206 104.71 297.064 104.024 297.064 103.241C297.064 102.459 297.206 101.77 297.491 101.173C297.779 100.573 298.181 100.106 298.694 99.7713C299.211 99.4332 299.815 99.2642 300.504 99.2642C300.902 99.2642 301.294 99.3305 301.682 99.4631C302.07 99.5956 302.423 99.8111 302.741 100.109C303.059 100.404 303.313 100.795 303.502 101.283C303.691 101.77 303.785 102.37 303.785 103.082V103.58H297.899V102.565H302.592C302.592 102.134 302.506 101.75 302.333 101.412C302.164 101.074 301.922 100.807 301.608 100.612C301.296 100.416 300.928 100.318 300.504 100.318C300.037 100.318 299.632 100.434 299.291 100.666C298.953 100.895 298.693 101.193 298.51 101.561C298.328 101.929 298.237 102.323 298.237 102.744V103.42C298.237 103.997 298.336 104.486 298.535 104.887C298.737 105.285 299.017 105.588 299.375 105.797C299.733 106.002 300.149 106.105 300.623 106.105C300.931 106.105 301.21 106.062 301.458 105.976C301.71 105.886 301.927 105.754 302.11 105.578C302.292 105.399 302.433 105.177 302.532 104.912L303.666 105.23C303.547 105.615 303.346 105.953 303.064 106.244C302.783 106.533 302.435 106.758 302.02 106.92C301.606 107.08 301.14 107.159 300.623 107.159ZM305.57 107V99.3636H306.743V102.685H307.519L310.263 99.3636H311.775L308.692 103.043L311.814 107H310.303L307.797 103.778H306.743V107H305.57ZM313.089 109.864V99.3636H314.223V100.577H314.362C314.448 100.444 314.568 100.275 314.72 100.07C314.876 99.8608 315.098 99.6752 315.386 99.5128C315.678 99.3471 316.072 99.2642 316.57 99.2642C317.213 99.2642 317.779 99.425 318.27 99.7464C318.76 100.068 319.143 100.524 319.418 101.114C319.693 101.704 319.831 102.4 319.831 103.202C319.831 104.01 319.693 104.711 319.418 105.305C319.143 105.895 318.762 106.352 318.275 106.677C317.788 106.998 317.226 107.159 316.589 107.159C316.099 107.159 315.706 107.078 315.411 106.915C315.116 106.75 314.889 106.562 314.73 106.354C314.571 106.142 314.448 105.966 314.362 105.827H314.263V109.864H313.089ZM314.243 103.182C314.243 103.759 314.327 104.267 314.496 104.708C314.665 105.146 314.912 105.489 315.237 105.737C315.562 105.982 315.96 106.105 316.43 106.105C316.921 106.105 317.33 105.976 317.658 105.717C317.99 105.455 318.238 105.104 318.404 104.663C318.573 104.219 318.658 103.725 318.658 103.182C318.658 102.645 318.575 102.161 318.409 101.73C318.247 101.296 318 100.953 317.668 100.701C317.34 100.446 316.928 100.318 316.43 100.318C315.953 100.318 315.552 100.439 315.227 100.681C314.902 100.92 314.657 101.254 314.491 101.685C314.326 102.113 314.243 102.612 314.243 103.182ZM323.868 107.179C323.384 107.179 322.945 107.088 322.55 106.906C322.156 106.72 321.843 106.453 321.611 106.105C321.379 105.754 321.263 105.33 321.263 104.832C321.263 104.395 321.349 104.04 321.521 103.768C321.694 103.493 321.924 103.278 322.212 103.122C322.501 102.966 322.819 102.85 323.167 102.774C323.518 102.695 323.871 102.632 324.226 102.585C324.69 102.526 325.066 102.481 325.354 102.451C325.646 102.418 325.858 102.363 325.991 102.287C326.127 102.211 326.195 102.078 326.195 101.889V101.849C326.195 101.359 326.06 100.978 325.792 100.706C325.527 100.434 325.124 100.298 324.584 100.298C324.024 100.298 323.585 100.421 323.266 100.666C322.948 100.911 322.724 101.173 322.595 101.452L321.482 101.054C321.68 100.59 321.946 100.229 322.277 99.9702C322.612 99.7083 322.976 99.526 323.371 99.4233C323.768 99.3172 324.16 99.2642 324.544 99.2642C324.789 99.2642 325.071 99.294 325.389 99.3537C325.711 99.41 326.021 99.5277 326.319 99.7067C326.621 99.8857 326.871 100.156 327.07 100.517C327.268 100.878 327.368 101.362 327.368 101.969V107H326.195V105.966H326.135C326.055 106.132 325.923 106.309 325.737 106.498C325.552 106.687 325.305 106.848 324.996 106.98C324.688 107.113 324.312 107.179 323.868 107.179ZM324.047 106.125C324.511 106.125 324.902 106.034 325.22 105.852C325.542 105.669 325.784 105.434 325.946 105.146C326.112 104.857 326.195 104.554 326.195 104.236V103.162C326.145 103.222 326.036 103.276 325.866 103.326C325.701 103.372 325.509 103.414 325.29 103.45C325.074 103.483 324.864 103.513 324.658 103.54C324.456 103.563 324.292 103.583 324.166 103.599C323.861 103.639 323.576 103.704 323.311 103.793C323.049 103.879 322.837 104.01 322.675 104.186C322.516 104.358 322.436 104.594 322.436 104.892C322.436 105.3 322.587 105.608 322.888 105.817C323.193 106.022 323.58 106.125 324.047 106.125ZM332.612 107.159C331.896 107.159 331.279 106.99 330.762 106.652C330.245 106.314 329.847 105.848 329.569 105.255C329.291 104.662 329.151 103.984 329.151 103.222C329.151 102.446 329.294 101.762 329.579 101.168C329.867 100.572 330.268 100.106 330.782 99.7713C331.299 99.4332 331.902 99.2642 332.592 99.2642C333.129 99.2642 333.613 99.3636 334.044 99.5625C334.474 99.7614 334.827 100.04 335.102 100.398C335.378 100.756 335.548 101.173 335.615 101.651H334.441C334.352 101.303 334.153 100.994 333.845 100.726C333.54 100.454 333.129 100.318 332.612 100.318C332.154 100.318 331.753 100.437 331.409 100.676C331.067 100.911 330.8 101.245 330.608 101.675C330.419 102.103 330.325 102.605 330.325 103.182C330.325 103.772 330.418 104.286 330.603 104.723C330.792 105.161 331.057 105.5 331.399 105.742C331.743 105.984 332.148 106.105 332.612 106.105C332.917 106.105 333.193 106.052 333.442 105.946C333.691 105.84 333.901 105.688 334.073 105.489C334.246 105.29 334.368 105.051 334.441 104.773H335.615C335.548 105.223 335.384 105.629 335.122 105.991C334.864 106.349 334.521 106.634 334.093 106.846C333.669 107.055 333.175 107.159 332.612 107.159ZM342.441 102.645V103.739H338.225V102.645H342.441ZM338.503 99.3636V107H337.33V99.3636H338.503ZM343.335 99.3636V107H342.162V99.3636H343.335ZM348.58 107.159C347.891 107.159 347.286 106.995 346.766 106.667C346.249 106.339 345.844 105.88 345.553 105.29C345.264 104.7 345.12 104.01 345.12 103.222C345.12 102.426 345.264 101.732 345.553 101.138C345.844 100.545 346.249 100.085 346.766 99.7564C347.286 99.4283 347.891 99.2642 348.58 99.2642C349.27 99.2642 349.873 99.4283 350.39 99.7564C350.91 100.085 351.315 100.545 351.603 101.138C351.895 101.732 352.041 102.426 352.041 103.222C352.041 104.01 351.895 104.7 351.603 105.29C351.315 105.88 350.91 106.339 350.39 106.667C349.873 106.995 349.27 107.159 348.58 107.159ZM348.58 106.105C349.104 106.105 349.535 105.971 349.873 105.702C350.211 105.434 350.461 105.081 350.624 104.643C350.786 104.206 350.867 103.732 350.867 103.222C350.867 102.711 350.786 102.236 350.624 101.795C350.461 101.354 350.211 100.998 349.873 100.726C349.535 100.454 349.104 100.318 348.58 100.318C348.057 100.318 347.626 100.454 347.288 100.726C346.95 100.998 346.7 101.354 346.537 101.795C346.375 102.236 346.294 102.711 346.294 103.222C346.294 103.732 346.375 104.206 346.537 104.643C346.7 105.081 346.95 105.434 347.288 105.702C347.626 105.971 348.057 106.105 348.58 106.105ZM16.1761 127.159C15.4602 127.159 14.8438 126.99 14.3267 126.652C13.8097 126.314 13.4119 125.848 13.1335 125.255C12.8551 124.662 12.7159 123.984 12.7159 123.222C12.7159 122.446 12.8584 121.762 13.1435 121.168C13.4318 120.572 13.8329 120.106 14.3466 119.771C14.8636 119.433 15.4669 119.264 16.1562 119.264C16.6932 119.264 17.1771 119.364 17.608 119.562C18.0388 119.761 18.3918 120.04 18.6669 120.398C18.942 120.756 19.1127 121.173 19.179 121.651H18.0057C17.9162 121.303 17.7173 120.994 17.4091 120.726C17.1042 120.454 16.6932 120.318 16.1761 120.318C15.7188 120.318 15.3177 120.437 14.973 120.676C14.6316 120.911 14.3648 121.245 14.1726 121.675C13.9837 122.103 13.8892 122.605 13.8892 123.182C13.8892 123.772 13.982 124.286 14.1676 124.723C14.3565 125.161 14.6217 125.5 14.9631 125.742C15.3078 125.984 15.7121 126.105 16.1761 126.105C16.4811 126.105 16.7578 126.052 17.0064 125.946C17.255 125.84 17.4654 125.688 17.6378 125.489C17.8101 125.29 17.9328 125.051 18.0057 124.773H19.179C19.1127 125.223 18.9486 125.629 18.6868 125.991C18.4283 126.349 18.0852 126.634 17.6577 126.846C17.2334 127.055 16.7396 127.159 16.1761 127.159ZM23.9964 127.159C23.3071 127.159 22.7022 126.995 22.1818 126.667C21.6648 126.339 21.2604 125.88 20.9688 125.29C20.6804 124.7 20.5362 124.01 20.5362 123.222C20.5362 122.426 20.6804 121.732 20.9688 121.138C21.2604 120.545 21.6648 120.085 22.1818 119.756C22.7022 119.428 23.3071 119.264 23.9964 119.264C24.6858 119.264 25.2891 119.428 25.8061 119.756C26.3265 120.085 26.7308 120.545 27.0192 121.138C27.3108 121.732 27.4567 122.426 27.4567 123.222C27.4567 124.01 27.3108 124.7 27.0192 125.29C26.7308 125.88 26.3265 126.339 25.8061 126.667C25.2891 126.995 24.6858 127.159 23.9964 127.159ZM23.9964 126.105C24.5201 126.105 24.951 125.971 25.2891 125.702C25.6271 125.434 25.8774 125.081 26.0398 124.643C26.2022 124.206 26.2834 123.732 26.2834 123.222C26.2834 122.711 26.2022 122.236 26.0398 121.795C25.8774 121.354 25.6271 120.998 25.2891 120.726C24.951 120.454 24.5201 120.318 23.9964 120.318C23.4728 120.318 23.0419 120.454 22.7038 120.726C22.3658 120.998 22.1155 121.354 21.9531 121.795C21.7907 122.236 21.7095 122.711 21.7095 123.222C21.7095 123.732 21.7907 124.206 21.9531 124.643C22.1155 125.081 22.3658 125.434 22.7038 125.702C23.0419 125.971 23.4728 126.105 23.9964 126.105ZM35.1341 119.364V127H33.9608V119.364H35.1341ZM34.6767 123.003V124.097C34.4115 124.196 34.148 124.284 33.8862 124.36C33.6243 124.433 33.3493 124.491 33.0609 124.534C32.7725 124.574 32.456 124.594 32.1113 124.594C31.2463 124.594 30.5519 124.36 30.0282 123.893C29.5079 123.425 29.2477 122.724 29.2477 121.79V119.344H30.421V121.79C30.421 122.181 30.4956 122.502 30.6447 122.754C30.7939 123.006 30.996 123.193 31.2512 123.316C31.5065 123.439 31.7931 123.5 32.1113 123.5C32.6085 123.5 33.0576 123.455 33.4586 123.366C33.863 123.273 34.269 123.152 34.6767 123.003ZM40.4885 127.159C39.7527 127.159 39.118 126.997 38.5843 126.672C38.054 126.344 37.6447 125.886 37.3564 125.3C37.0713 124.71 36.9288 124.024 36.9288 123.241C36.9288 122.459 37.0713 121.77 37.3564 121.173C37.6447 120.573 38.0458 120.106 38.5595 119.771C39.0765 119.433 39.6797 119.264 40.3691 119.264C40.7669 119.264 41.1596 119.33 41.5474 119.463C41.9352 119.596 42.2882 119.811 42.6064 120.109C42.9245 120.404 43.1781 120.795 43.367 121.283C43.5559 121.77 43.6504 122.37 43.6504 123.082V123.58H37.764V122.565H42.4572C42.4572 122.134 42.371 121.75 42.1987 121.412C42.0297 121.074 41.7877 120.807 41.4728 120.612C41.1613 120.416 40.7934 120.318 40.3691 120.318C39.9018 120.318 39.4975 120.434 39.1561 120.666C38.818 120.895 38.5578 121.193 38.3755 121.561C38.1932 121.929 38.1021 122.323 38.1021 122.744V123.42C38.1021 123.997 38.2015 124.486 38.4004 124.887C38.6026 125.285 38.8826 125.588 39.2406 125.797C39.5985 126.002 40.0145 126.105 40.4885 126.105C40.7967 126.105 41.0751 126.062 41.3237 125.976C41.5756 125.886 41.7927 125.754 41.975 125.578C42.1573 125.399 42.2981 125.177 42.3975 124.912L43.5311 125.23C43.4118 125.615 43.2112 125.953 42.9295 126.244C42.6478 126.533 42.2998 126.758 41.8855 126.92C41.4712 127.08 41.0055 127.159 40.4885 127.159ZM44.7243 120.457V119.364H50.9288V120.457H48.4231V127H47.2498V120.457H44.7243ZM54.4909 127.179C54.007 127.179 53.5679 127.088 53.1735 126.906C52.7791 126.72 52.4658 126.453 52.2338 126.105C52.0018 125.754 51.8858 125.33 51.8858 124.832C51.8858 124.395 51.972 124.04 52.1444 123.768C52.3167 123.493 52.5471 123.278 52.8354 123.122C53.1238 122.966 53.4419 122.85 53.79 122.774C54.1413 122.695 54.4943 122.632 54.8489 122.585C55.3129 122.526 55.6891 122.481 55.9775 122.451C56.2691 122.418 56.4812 122.363 56.6138 122.287C56.7497 122.211 56.8176 122.078 56.8176 121.889V121.849C56.8176 121.359 56.6834 120.978 56.415 120.706C56.1498 120.434 55.7471 120.298 55.2069 120.298C54.6467 120.298 54.2076 120.421 53.8894 120.666C53.5712 120.911 53.3475 121.173 53.2182 121.452L52.1046 121.054C52.3034 120.59 52.5686 120.229 52.9 119.97C53.2348 119.708 53.5994 119.526 53.9938 119.423C54.3915 119.317 54.7826 119.264 55.1671 119.264C55.4123 119.264 55.6941 119.294 56.0123 119.354C56.3337 119.41 56.6436 119.528 56.9419 119.707C57.2435 119.886 57.4938 120.156 57.6926 120.517C57.8915 120.878 57.9909 121.362 57.9909 121.969V127H56.8176V125.966H56.758C56.6784 126.132 56.5459 126.309 56.3603 126.498C56.1747 126.687 55.9277 126.848 55.6195 126.98C55.3113 127.113 54.9351 127.179 54.4909 127.179ZM54.6699 126.125C55.1339 126.125 55.525 126.034 55.8432 125.852C56.1647 125.669 56.4067 125.434 56.5691 125.146C56.7348 124.857 56.8176 124.554 56.8176 124.236V123.162C56.7679 123.222 56.6586 123.276 56.4895 123.326C56.3238 123.372 56.1316 123.414 55.9128 123.45C55.6974 123.483 55.4869 123.513 55.2814 123.54C55.0792 123.563 54.9152 123.583 54.7892 123.599C54.4843 123.639 54.1993 123.704 53.9341 123.793C53.6723 123.879 53.4602 124.01 53.2978 124.186C53.1387 124.358 53.0591 124.594 53.0591 124.892C53.0591 125.3 53.2099 125.608 53.5115 125.817C53.8165 126.022 54.2026 126.125 54.6699 126.125ZM63.7915 122.705V123.798H59.7546V122.705H63.7915ZM60.7489 119.364V127H59.5756V119.364H60.7489ZM66.1381 127.159C65.4487 127.159 64.8439 126.995 64.3235 126.667C63.8065 126.339 63.4021 125.88 63.1104 125.29C62.8221 124.7 62.6779 124.01 62.6779 123.222C62.6779 122.426 62.8221 121.732 63.1104 121.138C63.4021 120.545 63.8065 120.085 64.3235 119.756C64.8439 119.428 65.4487 119.264 66.1381 119.264C66.8275 119.264 67.4308 119.428 67.9478 119.756C68.4682 120.085 68.8725 120.545 69.1609 121.138C69.4525 121.732 69.5984 122.426 69.5984 123.222C69.5984 124.01 69.4525 124.7 69.1609 125.29C68.8725 125.88 68.4682 126.339 67.9478 126.667C67.4308 126.995 66.8275 127.159 66.1381 127.159ZM66.1381 126.105C66.6618 126.105 67.0927 125.971 67.4308 125.702C67.7688 125.434 68.0191 125.081 68.1815 124.643C68.3439 124.206 68.4251 123.732 68.4251 123.222C68.4251 122.711 68.3439 122.236 68.1815 121.795C68.0191 121.354 67.7688 120.998 67.4308 120.726C67.0927 120.454 66.6618 120.318 66.1381 120.318C65.6145 120.318 65.1836 120.454 64.8455 120.726C64.5075 120.998 64.2572 121.354 64.0948 121.795C63.9324 122.236 63.8512 122.711 63.8512 123.222C63.8512 123.732 63.9324 124.206 64.0948 124.643C64.2572 125.081 64.5075 125.434 64.8455 125.702C65.1836 125.971 65.6145 126.105 66.1381 126.105ZM70.5094 120.457V119.364H76.714V120.457H74.2083V127H73.035V120.457H70.5094ZM81.1312 127.159C80.4153 127.159 79.7988 126.99 79.2818 126.652C78.7647 126.314 78.367 125.848 78.0886 125.255C77.8102 124.662 77.671 123.984 77.671 123.222C77.671 122.446 77.8135 121.762 78.0985 121.168C78.3869 120.572 78.7879 120.106 79.3017 119.771C79.8187 119.433 80.4219 119.264 81.1113 119.264C81.6483 119.264 82.1322 119.364 82.563 119.562C82.9939 119.761 83.3469 120.04 83.622 120.398C83.8971 120.756 84.0678 121.173 84.1341 121.651H82.9608C82.8713 121.303 82.6724 120.994 82.3642 120.726C82.0592 120.454 81.6483 120.318 81.1312 120.318C80.6738 120.318 80.2728 120.437 79.9281 120.676C79.5867 120.911 79.3199 121.245 79.1277 121.675C78.9387 122.103 78.8443 122.605 78.8443 123.182C78.8443 123.772 78.9371 124.286 79.1227 124.723C79.3116 125.161 79.5768 125.5 79.9181 125.742C80.2628 125.984 80.6672 126.105 81.1312 126.105C81.4361 126.105 81.7129 126.052 81.9615 125.946C82.21 125.84 82.4205 125.688 82.5929 125.489C82.7652 125.29 82.8878 125.051 82.9608 124.773H84.1341C84.0678 125.223 83.9037 125.629 83.6419 125.991C83.3833 126.349 83.0403 126.634 82.6127 126.846C82.1885 127.055 81.6947 127.159 81.1312 127.159ZM90.443 127V120.438H88.4146C87.9572 120.438 87.5976 120.544 87.3358 120.756C87.0739 120.968 86.943 121.259 86.943 121.631C86.943 121.995 87.0607 122.282 87.296 122.491C87.5346 122.7 87.8611 122.804 88.2754 122.804H90.7413V123.898H88.2754C87.7583 123.898 87.3126 123.807 86.938 123.624C86.5635 123.442 86.2752 123.182 86.073 122.844C85.8708 122.502 85.7697 122.098 85.7697 121.631C85.7697 121.16 85.8758 120.756 86.0879 120.418C86.3 120.08 86.6033 119.819 86.9977 119.637C87.3954 119.455 87.8677 119.364 88.4146 119.364H91.5566V127H90.443ZM85.3521 127L87.5197 123.202H88.7924L86.6248 127H85.3521ZM97.2106 120.457V119.364H103.415V120.457H100.909V127H99.7362V120.457H97.2106ZM105.127 129.864V119.364H106.26V120.577H106.399C106.485 120.444 106.605 120.275 106.757 120.07C106.913 119.861 107.135 119.675 107.423 119.513C107.715 119.347 108.11 119.264 108.607 119.264C109.25 119.264 109.816 119.425 110.307 119.746C110.798 120.068 111.18 120.524 111.455 121.114C111.731 121.704 111.868 122.4 111.868 123.202C111.868 124.01 111.731 124.711 111.455 125.305C111.18 125.895 110.799 126.352 110.312 126.677C109.825 126.998 109.263 127.159 108.627 127.159C108.136 127.159 107.743 127.078 107.448 126.915C107.153 126.75 106.926 126.562 106.767 126.354C106.608 126.142 106.485 125.966 106.399 125.827H106.3V129.864H105.127ZM106.28 123.182C106.28 123.759 106.365 124.267 106.534 124.708C106.703 125.146 106.95 125.489 107.274 125.737C107.599 125.982 107.997 126.105 108.468 126.105C108.958 126.105 109.367 125.976 109.695 125.717C110.027 125.455 110.276 125.104 110.441 124.663C110.61 124.219 110.695 123.725 110.695 123.182C110.695 122.645 110.612 122.161 110.446 121.73C110.284 121.296 110.037 120.953 109.705 120.701C109.377 120.446 108.965 120.318 108.468 120.318C107.99 120.318 107.589 120.439 107.264 120.681C106.94 120.92 106.694 121.254 106.529 121.685C106.363 122.113 106.28 122.612 106.28 123.182ZM115.905 127.179C115.421 127.179 114.982 127.088 114.588 126.906C114.193 126.72 113.88 126.453 113.648 126.105C113.416 125.754 113.3 125.33 113.3 124.832C113.3 124.395 113.386 124.04 113.558 123.768C113.731 123.493 113.961 123.278 114.249 123.122C114.538 122.966 114.856 122.85 115.204 122.774C115.555 122.695 115.908 122.632 116.263 122.585C116.727 122.526 117.103 122.481 117.392 122.451C117.683 122.418 117.895 122.363 118.028 122.287C118.164 122.211 118.232 122.078 118.232 121.889V121.849C118.232 121.359 118.097 120.978 117.829 120.706C117.564 120.434 117.161 120.298 116.621 120.298C116.061 120.298 115.622 120.421 115.303 120.666C114.985 120.911 114.762 121.173 114.632 121.452L113.519 121.054C113.718 120.59 113.983 120.229 114.314 119.97C114.649 119.708 115.013 119.526 115.408 119.423C115.806 119.317 116.197 119.264 116.581 119.264C116.826 119.264 117.108 119.294 117.426 119.354C117.748 119.41 118.058 119.528 118.356 119.707C118.658 119.886 118.908 120.156 119.107 120.517C119.306 120.878 119.405 121.362 119.405 121.969V127H118.232V125.966H118.172C118.093 126.132 117.96 126.309 117.774 126.498C117.589 126.687 117.342 126.848 117.034 126.98C116.725 127.113 116.349 127.179 115.905 127.179ZM116.084 126.125C116.548 126.125 116.939 126.034 117.257 125.852C117.579 125.669 117.821 125.434 117.983 125.146C118.149 124.857 118.232 124.554 118.232 124.236V123.162C118.182 123.222 118.073 123.276 117.904 123.326C117.738 123.372 117.546 123.414 117.327 123.45C117.111 123.483 116.901 123.513 116.695 123.54C116.493 123.563 116.329 123.583 116.203 123.599C115.898 123.639 115.613 123.704 115.348 123.793C115.086 123.879 114.874 124.01 114.712 124.186C114.553 124.358 114.473 124.594 114.473 124.892C114.473 125.3 114.624 125.608 114.926 125.817C115.231 126.022 115.617 126.125 116.084 126.125ZM120.731 129.188V125.906H121.368C121.523 125.744 121.658 125.568 121.77 125.379C121.883 125.19 121.981 124.967 122.064 124.708C122.15 124.446 122.223 124.128 122.282 123.754C122.342 123.376 122.395 122.92 122.441 122.386L122.7 119.364H127.552V125.906H128.725V129.188H127.552V127H121.904V129.188H120.731ZM122.7 125.906H126.379V120.457H123.794L123.595 122.386C123.512 123.185 123.409 123.883 123.287 124.479C123.164 125.076 122.968 125.552 122.7 125.906ZM131.456 125.27L135.135 119.364H136.487V127H135.314V121.094L131.655 127H130.283V119.364H131.456V125.27ZM144.642 119.364V125.906H145.716V129.466H144.543V127H138.636V119.364H139.81V125.906H143.469V119.364H144.642ZM148.696 125.27L152.375 119.364H153.728V127H152.554V121.094L148.895 127H147.523V119.364H148.696V125.27ZM157.05 125.27L160.729 119.364H162.081V127H160.908V121.094L157.249 127H155.877V119.364H157.05V125.27ZM169.341 125.27L173.02 119.364H174.372V127H173.199V121.094L169.54 127H168.168V119.364H169.341V125.27ZM183.561 127.159C182.845 127.159 182.229 126.99 181.711 126.652C181.194 126.314 180.797 125.848 180.518 125.255C180.24 124.662 180.101 123.984 180.101 123.222C180.101 122.446 180.243 121.762 180.528 121.168C180.817 120.572 181.218 120.106 181.731 119.771C182.248 119.433 182.852 119.264 183.541 119.264C184.078 119.264 184.562 119.364 184.993 119.562C185.424 119.761 185.777 120.04 186.052 120.398C186.327 120.756 186.497 121.173 186.564 121.651H185.39C185.301 121.303 185.102 120.994 184.794 120.726C184.489 120.454 184.078 120.318 183.561 120.318C183.104 120.318 182.702 120.437 182.358 120.676C182.016 120.911 181.75 121.245 181.557 121.675C181.368 122.103 181.274 122.605 181.274 123.182C181.274 123.772 181.367 124.286 181.552 124.723C181.741 125.161 182.006 125.5 182.348 125.742C182.693 125.984 183.097 126.105 183.561 126.105C183.866 126.105 184.143 126.052 184.391 125.946C184.64 125.84 184.85 125.688 185.023 125.489C185.195 125.29 185.318 125.051 185.39 124.773H186.564C186.497 125.223 186.333 125.629 186.072 125.991C185.813 126.349 185.47 126.634 185.042 126.846C184.618 127.055 184.124 127.159 183.561 127.159ZM191.381 127.159C190.692 127.159 190.087 126.995 189.567 126.667C189.05 126.339 188.645 125.88 188.354 125.29C188.065 124.7 187.921 124.01 187.921 123.222C187.921 122.426 188.065 121.732 188.354 121.138C188.645 120.545 189.05 120.085 189.567 119.756C190.087 119.428 190.692 119.264 191.381 119.264C192.071 119.264 192.674 119.428 193.191 119.756C193.711 120.085 194.116 120.545 194.404 121.138C194.696 121.732 194.841 122.426 194.841 123.222C194.841 124.01 194.696 124.7 194.404 125.29C194.116 125.88 193.711 126.339 193.191 126.667C192.674 126.995 192.071 127.159 191.381 127.159ZM191.381 126.105C191.905 126.105 192.336 125.971 192.674 125.702C193.012 125.434 193.262 125.081 193.425 124.643C193.587 124.206 193.668 123.732 193.668 123.222C193.668 122.711 193.587 122.236 193.425 121.795C193.262 121.354 193.012 120.998 192.674 120.726C192.336 120.454 191.905 120.318 191.381 120.318C190.858 120.318 190.427 120.454 190.089 120.726C189.751 120.998 189.5 121.354 189.338 121.795C189.175 122.236 189.094 122.711 189.094 123.222C189.094 123.732 189.175 124.206 189.338 124.643C189.5 125.081 189.751 125.434 190.089 125.702C190.427 125.971 190.858 126.105 191.381 126.105ZM196.632 127V119.364H199.755C200.577 119.364 201.23 119.549 201.713 119.92C202.197 120.292 202.439 120.782 202.439 121.392C202.439 121.856 202.302 122.216 202.027 122.471C201.752 122.723 201.399 122.893 200.968 122.983C201.249 123.023 201.523 123.122 201.788 123.281C202.056 123.44 202.279 123.659 202.454 123.938C202.63 124.213 202.718 124.551 202.718 124.952C202.718 125.343 202.618 125.692 202.419 126.001C202.221 126.309 201.935 126.553 201.564 126.732C201.193 126.911 200.749 127 200.232 127H196.632ZM197.746 125.926H200.232C200.636 125.926 200.953 125.83 201.181 125.638C201.41 125.446 201.525 125.184 201.525 124.852C201.525 124.458 201.41 124.148 201.181 123.923C200.953 123.694 200.636 123.58 200.232 123.58H197.746V125.926ZM197.746 122.565H199.755C200.069 122.565 200.34 122.522 200.565 122.436C200.79 122.347 200.963 122.221 201.082 122.058C201.205 121.893 201.266 121.697 201.266 121.472C201.266 121.15 201.132 120.898 200.863 120.716C200.595 120.53 200.225 120.438 199.755 120.438H197.746V122.565ZM204.494 129.864V119.364H205.627V120.577H205.767C205.853 120.444 205.972 120.275 206.124 120.07C206.28 119.861 206.502 119.675 206.791 119.513C207.082 119.347 207.477 119.264 207.974 119.264C208.617 119.264 209.184 119.425 209.674 119.746C210.165 120.068 210.548 120.524 210.823 121.114C211.098 121.704 211.235 122.4 211.235 123.202C211.235 124.01 211.098 124.711 210.823 125.305C210.548 125.895 210.166 126.352 209.679 126.677C209.192 126.998 208.63 127.159 207.994 127.159C207.503 127.159 207.11 127.078 206.816 126.915C206.521 126.75 206.294 126.562 206.134 126.354C205.975 126.142 205.853 125.966 205.767 125.827H205.667V129.864H204.494ZM205.647 123.182C205.647 123.759 205.732 124.267 205.901 124.708C206.07 125.146 206.317 125.489 206.642 125.737C206.966 125.982 207.364 126.105 207.835 126.105C208.325 126.105 208.735 125.976 209.063 125.717C209.394 125.455 209.643 125.104 209.808 124.663C209.977 124.219 210.062 123.725 210.062 123.182C210.062 122.645 209.979 122.161 209.813 121.73C209.651 121.296 209.404 120.953 209.073 120.701C208.744 120.446 208.332 120.318 207.835 120.318C207.357 120.318 206.956 120.439 206.632 120.681C206.307 120.92 206.061 121.254 205.896 121.685C205.73 122.113 205.647 122.612 205.647 123.182ZM216.227 127.159C215.491 127.159 214.856 126.997 214.323 126.672C213.792 126.344 213.383 125.886 213.095 125.3C212.81 124.71 212.667 124.024 212.667 123.241C212.667 122.459 212.81 121.77 213.095 121.173C213.383 120.573 213.784 120.106 214.298 119.771C214.815 119.433 215.418 119.264 216.107 119.264C216.505 119.264 216.898 119.33 217.286 119.463C217.673 119.596 218.026 119.811 218.345 120.109C218.663 120.404 218.916 120.795 219.105 121.283C219.294 121.77 219.389 122.37 219.389 123.082V123.58H213.502V122.565H218.195C218.195 122.134 218.109 121.75 217.937 121.412C217.768 121.074 217.526 120.807 217.211 120.612C216.9 120.416 216.532 120.318 216.107 120.318C215.64 120.318 215.236 120.434 214.894 120.666C214.556 120.895 214.296 121.193 214.114 121.561C213.932 121.929 213.84 122.323 213.84 122.744V123.42C213.84 123.997 213.94 124.486 214.139 124.887C214.341 125.285 214.621 125.588 214.979 125.797C215.337 126.002 215.753 126.105 216.227 126.105C216.535 126.105 216.813 126.062 217.062 125.976C217.314 125.886 217.531 125.754 217.713 125.578C217.896 125.399 218.036 125.177 218.136 124.912L219.269 125.23C219.15 125.615 218.95 125.953 218.668 126.244C218.386 126.533 218.038 126.758 217.624 126.92C217.209 127.08 216.744 127.159 216.227 127.159ZM225.35 125.409L228.014 119.364H229.128L225.827 127H224.872L221.631 119.364H222.725L225.35 125.409ZM222.347 119.364V127H221.173V119.364H222.347ZM228.352 127V119.364H229.526V127H228.352ZM234.875 127.159C234.139 127.159 233.505 126.997 232.971 126.672C232.441 126.344 232.031 125.886 231.743 125.3C231.458 124.71 231.316 124.024 231.316 123.241C231.316 122.459 231.458 121.77 231.743 121.173C232.031 120.573 232.432 120.106 232.946 119.771C233.463 119.433 234.066 119.264 234.756 119.264C235.154 119.264 235.546 119.33 235.934 119.463C236.322 119.596 236.675 119.811 236.993 120.109C237.311 120.404 237.565 120.795 237.754 121.283C237.943 121.77 238.037 122.37 238.037 123.082V123.58H232.151V122.565H236.844C236.844 122.134 236.758 121.75 236.585 121.412C236.416 121.074 236.174 120.807 235.86 120.612C235.548 120.416 235.18 120.318 234.756 120.318C234.289 120.318 233.884 120.434 233.543 120.666C233.205 120.895 232.945 121.193 232.762 121.561C232.58 121.929 232.489 122.323 232.489 122.744V123.42C232.489 123.997 232.588 124.486 232.787 124.887C232.989 125.285 233.269 125.588 233.627 125.797C233.985 126.002 234.401 126.105 234.875 126.105C235.183 126.105 235.462 126.062 235.71 125.976C235.962 125.886 236.179 125.754 236.362 125.578C236.544 125.399 236.685 125.177 236.784 124.912L237.918 125.23C237.798 125.615 237.598 125.953 237.316 126.244C237.035 126.533 236.686 126.758 236.272 126.92C235.858 127.08 235.392 127.159 234.875 127.159ZM244.933 122.645V123.739H240.717V122.645H244.933ZM240.995 119.364V127H239.822V119.364H240.995ZM245.828 119.364V127H244.654V119.364H245.828ZM253.081 122.645V123.739H248.865V122.645H253.081ZM249.144 119.364V127H247.97V119.364H249.144ZM253.976 119.364V127H252.803V119.364H253.976ZM259.221 127.159C258.532 127.159 257.927 126.995 257.406 126.667C256.889 126.339 256.485 125.88 256.193 125.29C255.905 124.7 255.761 124.01 255.761 123.222C255.761 122.426 255.905 121.732 256.193 121.138C256.485 120.545 256.889 120.085 257.406 119.756C257.927 119.428 258.532 119.264 259.221 119.264C259.91 119.264 260.514 119.428 261.031 119.756C261.551 120.085 261.955 120.545 262.244 121.138C262.535 121.732 262.681 122.426 262.681 123.222C262.681 124.01 262.535 124.7 262.244 125.29C261.955 125.88 261.551 126.339 261.031 126.667C260.514 126.995 259.91 127.159 259.221 127.159ZM259.221 126.105C259.745 126.105 260.176 125.971 260.514 125.702C260.852 125.434 261.102 125.081 261.264 124.643C261.427 124.206 261.508 123.732 261.508 123.222C261.508 122.711 261.427 122.236 261.264 121.795C261.102 121.354 260.852 120.998 260.514 120.726C260.176 120.454 259.745 120.318 259.221 120.318C258.697 120.318 258.267 120.454 257.928 120.726C257.59 120.998 257.34 121.354 257.178 121.795C257.015 122.236 256.934 122.711 256.934 123.222C256.934 123.732 257.015 124.206 257.178 124.643C257.34 125.081 257.59 125.434 257.928 125.702C258.267 125.971 258.697 126.105 259.221 126.105ZM267.575 127.159C266.859 127.159 266.242 126.99 265.725 126.652C265.208 126.314 264.81 125.848 264.532 125.255C264.254 124.662 264.114 123.984 264.114 123.222C264.114 122.446 264.257 121.762 264.542 121.168C264.83 120.572 265.231 120.106 265.745 119.771C266.262 119.433 266.865 119.264 267.555 119.264C268.092 119.264 268.576 119.364 269.006 119.562C269.437 119.761 269.79 120.04 270.065 120.398C270.34 120.756 270.511 121.173 270.577 121.651H269.404C269.315 121.303 269.116 120.994 268.808 120.726C268.503 120.454 268.092 120.318 267.575 120.318C267.117 120.318 266.716 120.437 266.371 120.676C266.03 120.911 265.763 121.245 265.571 121.675C265.382 122.103 265.288 122.605 265.288 123.182C265.288 123.772 265.38 124.286 265.566 124.723C265.755 125.161 266.02 125.5 266.362 125.742C266.706 125.984 267.111 126.105 267.575 126.105C267.879 126.105 268.156 126.052 268.405 125.946C268.653 125.84 268.864 125.688 269.036 125.489C269.209 125.29 269.331 125.051 269.404 124.773H270.577C270.511 125.223 270.347 125.629 270.085 125.991C269.827 126.349 269.484 126.634 269.056 126.846C268.632 127.055 268.138 127.159 267.575 127.159ZM271.691 120.457V119.364H277.896V120.457H275.39V127H274.217V120.457H271.691ZM280.621 122.128H282.809C283.704 122.128 284.388 122.355 284.862 122.809C285.336 123.263 285.573 123.838 285.573 124.534C285.573 124.991 285.467 125.407 285.255 125.782C285.043 126.153 284.731 126.45 284.32 126.672C283.909 126.891 283.405 127 282.809 127H279.607V119.364H280.78V125.906H282.809C283.273 125.906 283.654 125.784 283.952 125.538C284.251 125.293 284.4 124.978 284.4 124.594C284.4 124.189 284.251 123.86 283.952 123.604C283.654 123.349 283.273 123.222 282.809 123.222H280.621V122.128Z" fill="white"/>
<path d="M26.1668 145.833L17.8335 154.167M26.1668 145.833H18.6668M26.1668 145.833V153.333" stroke="white" stroke-linecap="round" stroke-linejoin="round"/>
</svg>
