<svg width="204" height="55" viewBox="0 0 204 55" fill="none" xmlns="http://www.w3.org/2000/svg">
<path d="M0.83806 0.123843H1.83832L4.1903 5.97198H4.2714L6.62338 0.123843H7.62364V7.16913H6.83965V1.81636H6.77206L4.60933 7.16913H3.85237L1.68964 1.81636H1.62205V7.16913H0.83806V0.123843Z" fill="#D00000"/>
<path d="M9.30398 7.16913V0.123843H13.4808V0.88066H10.142V3.2612H13.2645V4.01801H10.142V6.41231H13.5348V7.16913H9.30398Z" fill="#D00000"/>
<path d="M19.087 0.123843V7.16913H18.2489V0.123843H19.087ZM14.4101 7.16913L16.6539 3.49512L14.5993 0.123843H15.6131L17.4109 3.24744H19.9386L21.7363 0.123843H22.7501L20.682 3.50888L22.9258 7.16913H21.9661L20.0872 4.04553H17.2487L15.3563 7.16913H14.4101Z" fill="#D00000"/>
<path d="M23.4293 8.87541V6.41231H23.8754C24.0286 6.27012 24.1728 6.06945 24.308 5.8103C24.4454 5.54885 24.5614 5.20025 24.656 4.76451C24.7529 4.32647 24.8171 3.77033 24.8486 3.09607L24.9973 0.123843H29.1065V6.41231H29.904V8.86165H29.1065V7.16913H24.2269V8.87541H23.4293ZM24.8757 6.41231H28.309V0.88066H25.7543L25.6462 3.09607C25.6191 3.60979 25.5718 4.07535 25.5042 4.49274C25.4366 4.90785 25.3499 5.27594 25.244 5.59701C25.1381 5.91579 25.0154 6.18756 24.8757 6.41231Z" fill="#D00000"/>
<path d="M31.5354 7.26545V6.46735H31.9679C32.1346 6.46735 32.2743 6.4341 32.387 6.36759C32.5019 6.30108 32.5965 6.21508 32.6708 6.10958C32.7474 6.00409 32.8105 5.894 32.8601 5.77933L32.9682 5.51789L30.5757 0.123843H31.4813L33.3872 4.49962L35.1309 0.123843H36.0231L33.6305 6.02702C33.5359 6.24719 33.4278 6.4513 33.3061 6.63935C33.1867 6.82741 33.0234 6.97878 32.8161 7.09344C32.6111 7.20811 32.3329 7.26545 31.9814 7.26545H31.5354Z" fill="#D00000"/>
<path d="M37.1086 7.16913V0.123843H37.9467V3.2612H41.6369V0.123843H42.4749V7.16913H41.6369V4.01801H37.9467V7.16913H37.1086Z" fill="#D00000"/>
<path d="M44.4366 7.16913H43.558L46.0992 0.123843H46.9643L49.5055 7.16913H48.6269L46.5588 1.23843H46.5047L44.4366 7.16913ZM44.761 4.41706H48.3025V5.17388H44.761V4.41706Z" fill="#D00000"/>
<path d="M50.5835 7.16913V0.123843H52.922C53.4649 0.123843 53.9087 0.223605 54.2534 0.423129C54.6003 0.620361 54.8572 0.887541 55.0239 1.22467C55.1906 1.5618 55.2739 1.93791 55.2739 2.35301C55.2739 2.76812 55.1906 3.14538 55.0239 3.4848C54.8594 3.82422 54.6048 4.09484 54.2602 4.29666C53.9155 4.49618 53.4739 4.59595 52.9355 4.59595H51.2594V3.83913H52.9084C53.2802 3.83913 53.5787 3.77377 53.804 3.64304C54.0292 3.51232 54.1926 3.33573 54.2939 3.11327C54.3976 2.88852 54.4494 2.6351 54.4494 2.35301C54.4494 2.07093 54.3976 1.81866 54.2939 1.5962C54.1926 1.37374 54.0281 1.19944 53.8006 1.0733C53.573 0.944875 53.2711 0.88066 52.8949 0.88066H51.4216V7.16913H50.5835Z" fill="#D00000"/>
<path d="M62.4633 3.64648C62.4633 4.38954 62.3315 5.03169 62.068 5.57293C61.8044 6.11417 61.4428 6.53157 60.9832 6.82512C60.5236 7.11867 59.9987 7.26545 59.4085 7.26545C58.8182 7.26545 58.2933 7.11867 57.8337 6.82512C57.3741 6.53157 57.0126 6.11417 56.749 5.57293C56.4854 5.03169 56.3536 4.38954 56.3536 3.64648C56.3536 2.90343 56.4854 2.26128 56.749 1.72004C57.0126 1.1788 57.3741 0.761404 57.8337 0.467851C58.2933 0.174297 58.8182 0.0275203 59.4085 0.0275203C59.9987 0.0275203 60.5236 0.174297 60.9832 0.467851C61.4428 0.761404 61.8044 1.1788 62.068 1.72004C62.3315 2.26128 62.4633 2.90343 62.4633 3.64648ZM61.6523 3.64648C61.6523 3.03644 61.5521 2.52158 61.3516 2.10189C61.1533 1.6822 60.8841 1.36456 60.5439 1.14899C60.206 0.933408 59.8275 0.825619 59.4085 0.825619C58.9894 0.825619 58.6098 0.933408 58.2697 1.14899C57.9317 1.36456 57.6625 1.6822 57.462 2.10189C57.2638 2.52158 57.1646 3.03644 57.1646 3.64648C57.1646 4.25653 57.2638 4.77139 57.462 5.19108C57.6625 5.61077 57.9317 5.9284 58.2697 6.14398C58.6098 6.35956 58.9894 6.46735 59.4085 6.46735C59.8275 6.46735 60.206 6.35956 60.5439 6.14398C60.8841 5.9284 61.1533 5.61077 61.3516 5.19108C61.5521 4.77139 61.6523 4.25653 61.6523 3.64648Z" fill="#D00000"/>
<path d="M63.2777 8.87541V6.41231H63.7238C63.877 6.27012 64.0212 6.06945 64.1563 5.8103C64.2938 5.54885 64.4098 5.20025 64.5044 4.76451C64.6013 4.32647 64.6655 3.77033 64.697 3.09607L64.8457 0.123843H68.9549V6.41231H69.7524V8.86165H68.9549V7.16913H64.0752V8.87541H63.2777ZM64.7241 6.41231H68.1574V0.88066H65.6027L65.4945 3.09607C65.4675 3.60979 65.4202 4.07535 65.3526 4.49274C65.285 4.90785 65.1983 5.27594 65.0924 5.59701C64.9865 5.91579 64.8637 6.18756 64.7241 6.41231Z" fill="#D00000"/>
<path d="M71.0188 7.16913V0.123843H71.8569V3.2612H75.547V0.123843H76.3851V7.16913H75.547V4.01801H71.8569V7.16913H71.0188Z" fill="#D00000"/>
<path d="M78.3468 7.16913H77.4682L80.0094 0.123843H80.8745L83.4157 7.16913H82.5371L80.4689 1.23843H80.4149L78.3468 7.16913ZM78.6712 4.41706H82.2127V5.17388H78.6712V4.41706Z" fill="#D00000"/>
<path d="M89.1976 7.16913H88.3596V0.88066H86.8862C86.5122 0.88066 86.2115 0.939142 85.9839 1.0561C85.7564 1.17077 85.5908 1.3336 85.4872 1.5446C85.3835 1.75559 85.3317 2.00213 85.3317 2.28421C85.3317 2.5663 85.3824 2.8094 85.4838 3.01351C85.5874 3.21533 85.7519 3.37128 85.9772 3.48136C86.2047 3.59144 86.5032 3.64648 86.8727 3.64648H88.738V4.41706H86.8456C86.3095 4.41706 85.869 4.32647 85.5243 4.1453C85.1797 3.96183 84.924 3.70955 84.7573 3.38848C84.5905 3.0674 84.5072 2.69932 84.5072 2.28421C84.5072 1.86911 84.5905 1.49873 84.7573 1.17307C84.924 0.847406 85.1808 0.591693 85.5277 0.405929C85.8747 0.217871 86.3185 0.123843 86.8592 0.123843H89.1976V7.16913ZM85.94 4.00425H86.8862L85.2101 7.16913H84.2368L85.94 4.00425Z" fill="#D00000"/>
<path d="M93.5543 7.16913V0.123843H95.9739C96.456 0.123843 96.8536 0.208698 97.1668 0.378409C97.4799 0.545826 97.7131 0.771724 97.8663 1.0561C98.0195 1.33819 98.0961 1.65124 98.0961 1.99525C98.0961 2.29797 98.0431 2.54795 97.9373 2.74518C97.8336 2.94241 97.6962 3.09837 97.525 3.21303C97.356 3.3277 97.1724 3.41256 96.9742 3.4676V3.5364C97.1859 3.55016 97.3988 3.62584 97.6128 3.76345C97.8269 3.90105 98.006 4.09828 98.1502 4.35514C98.2943 4.612 98.3664 4.92619 98.3664 5.29772C98.3664 5.6509 98.2876 5.96854 98.1299 6.25063C97.9722 6.53271 97.7232 6.75632 97.3831 6.92144C97.0429 7.08657 96.6002 7.16913 96.055 7.16913H93.5543ZM94.3924 6.41231H96.055C96.6024 6.41231 96.9911 6.30452 97.2209 6.08894C97.4529 5.87107 97.5689 5.60733 97.5689 5.29772C97.5689 5.05921 97.5092 4.83905 97.3898 4.63723C97.2704 4.43312 97.1003 4.27029 96.8795 4.14874C96.6588 4.02489 96.3974 3.96297 96.0956 3.96297H94.3924V6.41231ZM94.3924 3.21991H95.9469C96.1992 3.21991 96.4267 3.16946 96.6295 3.06855C96.8345 2.96764 96.9967 2.82545 97.1161 2.64198C97.2377 2.45851 97.2986 2.24293 97.2986 1.99525C97.2986 1.68564 97.1927 1.42305 96.9809 1.20747C96.7692 0.989596 96.4335 0.88066 95.9739 0.88066H94.3924V3.21991Z" fill="#D00000"/>
<path d="M100.365 3.08231H102.339C102.834 3.08231 103.252 3.16487 103.592 3.33C103.935 3.49512 104.194 3.7279 104.37 4.02833C104.548 4.32877 104.637 4.6831 104.637 5.09132C104.637 5.49954 104.548 5.8596 104.37 6.1715C104.194 6.4834 103.935 6.72765 103.592 6.90424C103.252 7.08083 102.834 7.16913 102.339 7.16913H99.7435V0.123843H100.582V6.42607H102.339C102.654 6.42607 102.921 6.36185 103.14 6.23342C103.36 6.1027 103.527 5.93528 103.64 5.73117C103.755 5.52477 103.812 5.3069 103.812 5.07756C103.812 4.74043 103.685 4.45032 103.43 4.20722C103.176 3.96183 102.812 3.83913 102.339 3.83913H100.365V3.08231ZM106.151 0.123843V7.16913H105.313V0.123843H106.151Z" fill="#D00000"/>
<path d="M113.397 2.32549H112.559C112.51 2.0801 112.423 1.86452 112.299 1.67876C112.178 1.49299 112.029 1.33704 111.853 1.21091C111.68 1.08248 111.487 0.986156 111.275 0.921941C111.063 0.857726 110.843 0.825619 110.613 0.825619C110.194 0.825619 109.814 0.933408 109.474 1.14899C109.136 1.36456 108.867 1.6822 108.666 2.10189C108.468 2.52158 108.369 3.03644 108.369 3.64648C108.369 4.25653 108.468 4.77139 108.666 5.19108C108.867 5.61077 109.136 5.9284 109.474 6.14398C109.814 6.35956 110.194 6.46735 110.613 6.46735C110.843 6.46735 111.063 6.43524 111.275 6.37103C111.487 6.30681 111.68 6.21164 111.853 6.0855C112.029 5.95707 112.178 5.79997 112.299 5.61421C112.423 5.42615 112.51 5.21057 112.559 4.96748H113.397C113.334 5.32754 113.219 5.64976 113.053 5.93414C112.886 6.21852 112.679 6.46047 112.431 6.66C112.183 6.85723 111.905 7.00744 111.596 7.11065C111.29 7.21385 110.962 7.26545 110.613 7.26545C110.023 7.26545 109.498 7.11867 109.038 6.82512C108.579 6.53157 108.217 6.11417 107.953 5.57293C107.69 5.03169 107.558 4.38954 107.558 3.64648C107.558 2.90343 107.69 2.26128 107.953 1.72004C108.217 1.1788 108.579 0.761404 109.038 0.467851C109.498 0.174297 110.023 0.0275203 110.613 0.0275203C110.962 0.0275203 111.29 0.0791216 111.596 0.182324C111.905 0.285527 112.183 0.43689 112.431 0.636415C112.679 0.833646 112.886 1.07445 113.053 1.35883C113.219 1.64092 113.334 1.96314 113.397 2.32549Z" fill="#D00000"/>
<path d="M114.373 0.88066V0.123843H119.564V0.88066H117.388V7.16913H116.549V0.88066H114.373Z" fill="#D00000"/>
<path d="M120.333 7.16913H119.454L121.995 0.123843H122.86L125.401 7.16913H124.523L122.455 1.23843H122.401L120.333 7.16913ZM120.657 4.41706H124.198V5.17388H120.657V4.41706Z" fill="#D00000"/>
<path d="M126.479 7.16913V0.123843H128.899C129.381 0.123843 129.779 0.208698 130.092 0.378409C130.405 0.545826 130.638 0.771724 130.791 1.0561C130.945 1.33819 131.021 1.65124 131.021 1.99525C131.021 2.29797 130.968 2.54795 130.862 2.74518C130.759 2.94241 130.621 3.09837 130.45 3.21303C130.281 3.3277 130.098 3.41256 129.899 3.4676V3.5364C130.111 3.55016 130.324 3.62584 130.538 3.76345C130.752 3.90105 130.931 4.09828 131.075 4.35514C131.219 4.612 131.292 4.92619 131.292 5.29772C131.292 5.6509 131.213 5.96854 131.055 6.25063C130.897 6.53271 130.648 6.75632 130.308 6.92144C129.968 7.08657 129.525 7.16913 128.98 7.16913H126.479ZM127.318 6.41231H128.98C129.528 6.41231 129.916 6.30452 130.146 6.08894C130.378 5.87107 130.494 5.60733 130.494 5.29772C130.494 5.05921 130.434 4.83905 130.315 4.63723C130.196 4.43312 130.025 4.27029 129.805 4.14874C129.584 4.02489 129.323 3.96297 129.021 3.96297H127.318V6.41231ZM127.318 3.21991H128.872C129.124 3.21991 129.352 3.16946 129.555 3.06855C129.76 2.96764 129.922 2.82545 130.041 2.64198C130.163 2.45851 130.224 2.24293 130.224 1.99525C130.224 1.68564 130.118 1.42305 129.906 1.20747C129.694 0.989596 129.359 0.88066 128.899 0.88066H127.318V3.21991Z" fill="#D00000"/>
<path d="M136.737 7.16913L134.358 3.93545H133.507V7.16913H132.669V0.123843H133.507V3.17863H133.872L136.643 0.123843H137.643L134.845 3.21991L137.738 7.16913H136.737Z" fill="#D00000"/>
<path d="M139.104 7.16913H138.226L140.767 0.123843H141.632L144.173 7.16913H143.295L141.227 1.23843H141.173L139.104 7.16913ZM139.429 4.41706H142.97V5.17388H139.429V4.41706Z" fill="#D00000"/>
<path d="M148.117 3.26808V4.02489H145.089V3.26808H148.117Z" fill="#D00000"/>
<path d="M152.007 0.963222H153.102C153.616 0.963222 154.072 1.08018 154.471 1.31411C154.87 1.54804 155.183 1.8737 155.41 2.29109C155.638 2.70849 155.752 3.19239 155.752 3.74281C155.752 4.29322 155.638 4.77827 155.41 5.19796C155.183 5.61765 154.87 5.9456 154.471 6.18182C154.072 6.41804 153.616 6.53615 153.102 6.53615H152.007C151.494 6.53615 151.037 6.41919 150.639 6.18526C150.24 5.95134 149.927 5.62568 149.699 5.20828C149.472 4.79088 149.358 4.30698 149.358 3.75657C149.358 3.20615 149.472 2.7211 149.699 2.30141C149.927 1.88172 150.24 1.55377 150.639 1.31755C151.037 1.08133 151.494 0.963222 152.007 0.963222ZM152.007 1.72004C151.615 1.72004 151.284 1.80375 151.014 1.97117C150.746 2.13858 150.542 2.3748 150.402 2.67982C150.265 2.98484 150.196 3.34376 150.196 3.75657C150.196 4.16479 150.265 4.52027 150.402 4.82299C150.542 5.12572 150.746 5.36079 151.014 5.52821C151.284 5.69563 151.615 5.77933 152.007 5.77933H153.102C153.494 5.77933 153.824 5.69563 154.092 5.52821C154.363 5.36079 154.567 5.12457 154.704 4.81955C154.844 4.51453 154.913 4.15562 154.913 3.74281C154.913 3.33458 154.844 2.97911 154.704 2.67638C154.567 2.37365 154.363 2.13858 154.092 1.97117C153.824 1.80375 153.494 1.72004 153.102 1.72004H152.007ZM152.981 0V7.45809H152.143V0H152.981Z" fill="#D00000"/>
<path d="M162.995 3.64648C162.995 4.38954 162.863 5.03169 162.6 5.57293C162.336 6.11417 161.975 6.53157 161.515 6.82512C161.055 7.11867 160.53 7.26545 159.94 7.26545C159.35 7.26545 158.825 7.11867 158.365 6.82512C157.906 6.53157 157.544 6.11417 157.281 5.57293C157.017 5.03169 156.885 4.38954 156.885 3.64648C156.885 2.90343 157.017 2.26128 157.281 1.72004C157.544 1.1788 157.906 0.761404 158.365 0.467851C158.825 0.174297 159.35 0.0275203 159.94 0.0275203C160.53 0.0275203 161.055 0.174297 161.515 0.467851C161.975 0.761404 162.336 1.1788 162.6 1.72004C162.863 2.26128 162.995 2.90343 162.995 3.64648ZM162.184 3.64648C162.184 3.03644 162.084 2.52158 161.883 2.10189C161.685 1.6822 161.416 1.36456 161.076 1.14899C160.738 0.933408 160.359 0.825619 159.94 0.825619C159.521 0.825619 159.142 0.933408 158.801 1.14899C158.463 1.36456 158.194 1.6822 157.994 2.10189C157.795 2.52158 157.696 3.03644 157.696 3.64648C157.696 4.25653 157.795 4.77139 157.994 5.19108C158.194 5.61077 158.463 5.9284 158.801 6.14398C159.142 6.35956 159.521 6.46735 159.94 6.46735C160.359 6.46735 160.738 6.35956 161.076 6.14398C161.416 5.9284 161.685 5.61077 161.883 5.19108C162.084 4.77139 162.184 4.25653 162.184 3.64648Z" fill="#D00000"/>
<path d="M164.404 7.16913V0.123843H166.743C167.286 0.123843 167.729 0.223605 168.074 0.423129C168.421 0.620361 168.678 0.887541 168.845 1.22467C169.011 1.5618 169.095 1.93791 169.095 2.35301C169.095 2.76812 169.011 3.14538 168.845 3.4848C168.68 3.82422 168.426 4.09484 168.081 4.29666C167.736 4.49618 167.295 4.59595 166.756 4.59595H165.08V3.83913H166.729C167.101 3.83913 167.399 3.77377 167.625 3.64304C167.85 3.51232 168.013 3.33573 168.115 3.11327C168.218 2.88852 168.27 2.6351 168.27 2.35301C168.27 2.07093 168.218 1.81866 168.115 1.5962C168.013 1.37374 167.849 1.19944 167.621 1.0733C167.394 0.944875 167.092 0.88066 166.716 0.88066H165.242V7.16913H164.404Z" fill="#D00000"/>
<path d="M170.81 7.26545V6.46735H171.242C171.409 6.46735 171.549 6.4341 171.661 6.36759C171.776 6.30108 171.871 6.21508 171.945 6.10958C172.022 6.00409 172.085 5.894 172.134 5.77933L172.242 5.51789L169.85 0.123843H170.756L172.661 4.49962L174.405 0.123843H175.297L172.905 6.02702C172.81 6.24719 172.702 6.4513 172.58 6.63935C172.461 6.82741 172.298 6.97878 172.09 7.09344C171.885 7.20811 171.607 7.26545 171.256 7.26545H170.81Z" fill="#D00000"/>
<path d="M176.383 0.123843H177.383L179.735 5.97198H179.816L182.168 0.123843H183.168V7.16913H182.384V1.81636H182.317L180.154 7.16913H179.397L177.234 1.81636H177.167V7.16913H176.383V0.123843Z" fill="#D00000"/>
<path d="M153.44 19.8459V22.7945C152.237 22.9406 151.012 22.878 149.836 22.5929C150.386 23.1975 150.813 23.9079 151.092 24.6827C151.371 25.4575 151.496 26.2813 151.461 27.1062C151.298 31.2858 146.633 34.5612 146.184 39.7492C145.98 42.4127 146.578 45.0692 147.898 47.3711L145.592 47.5589V19.8528H135.621V51.6897H145.606V48.7828C146.887 48.4849 148.211 48.4377 149.509 48.6437C148.824 47.8148 148.321 46.845 148.033 45.8001C147.746 44.7551 147.681 43.6593 147.843 42.5865C148.659 37.2039 152.468 35.5279 152.672 29.4776C152.801 25.6388 151.441 23.6916 151.441 23.6916C151.441 23.6916 152.563 23.7959 153.454 23.782V51.7106H163.2V19.8807L153.447 19.8459H153.44ZM97.2904 22.9128C97.2134 22.7098 97.0937 22.5267 96.9397 22.3765C96.7858 22.2262 96.6013 22.1125 96.3994 22.0435C96.1773 21.9592 95.9341 21.9524 95.7078 22.0241C95.4815 22.0958 95.2847 22.242 95.148 22.4399C95.0839 22.5272 95.0401 22.6284 95.0201 22.7356C95 22.8429 95.0043 22.9534 95.0324 23.0588C95.0736 23.2111 95.1638 23.3447 95.2885 23.4381C95.4131 23.5315 95.5649 23.5791 95.7193 23.5734C95.8281 23.5456 95.937 23.5456 96.0458 23.5734C96.1818 23.629 96.1274 23.782 96.0458 23.8516C95.9642 23.9211 95.7125 23.8516 95.5697 23.8168C94.589 23.2707 93.691 22.582 92.9036 21.7722L92.346 21.2437C92.0399 20.9655 91.7339 20.6874 91.4142 20.4301C91.0946 20.1658 90.7681 19.9154 90.4212 19.6859C90.0812 19.4634 89.7275 19.2687 89.3535 19.1087L89.2038 19.0392C88.8282 18.8894 88.4349 18.7912 88.034 18.7471C87.5326 18.6975 87.0269 18.7186 86.531 18.8097C86.463 18.8097 86.2658 18.8792 86.3678 18.9766C86.3882 19.0044 86.4154 19.0183 86.4494 19.0253C86.7214 19.1157 87.0071 19.1991 87.2791 19.3104C88.4356 19.7562 89.4693 20.4816 90.292 21.4245C90.5641 21.7305 90.8157 22.0504 91.0402 22.3981C91.3394 22.8502 91.5434 23.3509 91.8563 23.789C91.984 23.9992 92.161 24.1735 92.3712 24.2961C92.5814 24.4188 92.8181 24.4859 93.0601 24.4914C93.3457 24.4914 93.6042 24.3662 93.8898 24.3593C94.1415 24.3593 94.3863 24.401 94.6243 24.4775C95.0868 24.6722 95.5765 24.7904 96.073 24.8113C96.4031 24.7962 96.7169 24.6599 96.9567 24.4274C97.1966 24.195 97.3464 23.8819 97.3788 23.5456C97.406 23.3231 97.3788 23.0936 97.2972 22.8849M62.387 46.2654C63.1828 45.9107 64.1757 45.5004 64.9987 46.0081C65.2027 46.1402 65.3727 45.8203 65.1891 45.6812C64.53 45.2112 63.7652 44.9194 62.966 44.8331C62.1669 44.7467 61.3594 44.8686 60.6187 45.1874C60.6138 44.9459 60.5237 44.7144 60.365 44.5354C60.2062 44.3565 59.9896 44.2423 59.755 44.2138C59.5272 44.1919 59.2991 44.2523 59.1102 44.3844C58.9214 44.5165 58.7838 44.712 58.7212 44.9371C58.6736 45.0901 58.6668 45.2431 58.694 45.3961C58.728 45.7299 58.8572 46.0359 59.0681 46.2862C59.3265 46.5574 59.6598 46.7313 60.0202 46.7869C60.8432 46.8565 61.6661 46.6757 62.387 46.2654ZM62.4618 39.2276C62.4278 39.5684 62.353 39.9022 62.2442 40.2221C62.1218 40.542 62.0878 40.8966 62.1626 41.2304C62.2179 41.3937 62.3165 41.5381 62.4474 41.6474C62.5783 41.7567 62.7364 41.8266 62.9039 41.8494C62.8662 42.0103 62.8627 42.1775 62.8937 42.3399C62.9247 42.5023 62.9895 42.656 63.0837 42.7905C63.1778 42.925 63.2992 43.0373 63.4395 43.1197C63.5798 43.2021 63.7358 43.2527 63.8969 43.2681C63.8427 43.41 63.8244 43.5636 63.8438 43.7147C63.8632 43.8658 63.9196 44.0094 64.0078 44.1322C64.096 44.255 64.2132 44.353 64.3483 44.4171C64.4835 44.4813 64.6324 44.5094 64.781 44.499C64.781 44.9927 65.3931 45.4308 65.7332 45.6812L66.6173 46.3488L67.0526 46.6757C67.1954 46.8078 67.3382 46.9399 67.4607 47.0929C67.5491 47.1625 67.7735 47.3016 67.7939 47.0929C67.8044 47.0425 67.8044 46.9904 67.7939 46.9399C67.6753 46.6093 67.5321 46.2885 67.3655 45.9802C67.243 45.7368 67.1138 45.5073 66.9846 45.2709C66.8486 45.0344 66.6921 44.8119 66.5357 44.5616L66.2977 44.2417C66.2977 44.1999 66.0596 43.9843 66.0664 43.9426C66.1065 43.6769 66.0447 43.4056 65.894 43.1853C65.7432 42.965 65.515 42.8128 65.2571 42.7604C65.3203 42.6068 65.3513 42.4414 65.348 42.2749C65.3447 42.1083 65.3072 41.9443 65.2379 41.7935C65.1687 41.6427 65.0692 41.5085 64.946 41.3995C64.8228 41.2905 64.6785 41.2092 64.5226 41.1609C64.6178 40.9175 64.6178 40.6532 64.5226 40.4168C64.4138 40.1664 64.1825 39.9856 64.0873 39.7074C63.9921 39.4223 64.1213 39.2554 64.2913 39.0816C64.4886 38.9077 64.6518 38.706 64.781 38.4765C64.9034 38.1984 64.9374 37.8785 64.8762 37.5725C64.6722 36.9953 64.3526 36.4667 63.9377 36.0216C63.7725 35.8211 63.6492 35.588 63.5756 35.3368C63.5019 35.0856 63.4793 34.8217 63.5092 34.5612C63.5963 34.6789 63.7068 34.7762 63.8334 34.847C63.96 34.9177 64.0999 34.9602 64.2437 34.9715C64.4685 34.9813 64.6896 34.9111 64.8694 34.7729C65.0492 34.6347 65.1766 34.437 65.2299 34.2135C65.2974 33.9786 65.2931 33.7283 65.2178 33.4959C65.1424 33.2636 64.9996 33.0602 64.8082 32.9131C64.6113 32.7674 64.3824 32.6734 64.1417 32.6395C63.9009 32.6055 63.6557 32.6326 63.4276 32.7183C62.2918 33.1843 62.013 34.5126 62.047 35.6392C62.081 36.7727 62.5503 38.0314 62.455 39.2554M72.4799 50.6953C70.4543 49.352 68.2811 48.2573 66.0052 47.4337C64.7496 46.8938 63.3698 46.7298 62.0266 46.9608C61.431 47.0737 60.8773 47.3521 60.4262 47.7655C59.9751 48.1789 59.6441 48.7113 59.4694 49.3044C59.3333 49.8816 59.3877 50.4866 59.6326 51.0291C59.8842 51.5507 60.2651 51.9957 60.7344 52.3226C61.2415 52.7038 61.8338 52.9494 62.4574 53.0368C63.0811 53.1243 63.7162 53.0509 64.3049 52.8233C64.8223 52.6128 65.2584 52.2354 65.5468 51.7484C65.8353 51.2614 65.9604 50.6914 65.9032 50.125C65.8352 49.5687 65.5768 49.061 65.1551 48.7063C64.8497 48.4632 64.4792 48.321 64.0928 48.2987C63.7064 48.2763 63.3226 48.3748 62.9923 48.5812C62.7815 48.7202 62.5979 48.915 62.4686 49.1375C62.3211 49.3909 62.2502 49.6832 62.2647 49.9777C62.2792 50.2722 62.3786 50.5557 62.5503 50.7926C62.718 50.988 62.9423 51.1236 63.1905 51.1799C63.4388 51.2361 63.6981 51.2101 63.9309 51.1056C64.1582 50.9802 64.328 50.7682 64.4031 50.5155C64.4783 50.2628 64.4528 49.99 64.3322 49.7564C64.5582 49.8873 64.7298 50.0978 64.8149 50.3487C64.9001 50.5996 64.8928 50.8736 64.7946 51.1195C64.6457 51.436 64.3915 51.6881 64.0776 51.8308C63.7637 51.9735 63.4104 51.9974 63.0807 51.8984C62.5983 51.744 62.1815 51.4266 61.8985 50.9983C61.6156 50.57 61.4833 50.0561 61.5233 49.5409C61.5505 49.1931 61.6525 48.8663 61.8157 48.5672C61.9927 48.2846 62.2258 48.0431 62.5 47.8586C62.7742 47.6741 63.0833 47.5507 63.4072 47.4963C64.067 47.4135 64.732 47.601 65.2571 48.0179C65.842 48.4212 66.3453 48.9358 66.9234 49.3531C67.4928 49.7453 68.1298 50.0237 68.8005 50.1737C69.7526 50.3128 70.6912 50.5006 71.6161 50.7509C71.8882 50.8483 72.1602 50.9665 72.4187 51.1056C72.6567 51.2516 72.888 51.4116 73.1056 51.5854C73.2824 51.7036 73.4797 51.4324 73.33 51.2864C73.0689 51.0442 72.7758 50.8406 72.4595 50.6814" fill="#D00000"/>
<path d="M94.7332 43.4419L94.6311 43.3724C94.4981 43.3182 94.3559 43.2915 94.2127 43.2937C94.0695 43.2959 93.9282 43.3269 93.7968 43.3851C93.6653 43.4432 93.5465 43.5273 93.4469 43.6325C93.3473 43.7378 93.269 43.862 93.2165 43.9983C92.9664 44.512 92.6533 44.9911 92.2847 45.4239C91.5276 46.2911 90.532 46.9044 89.4283 47.1833C88.7754 47.3572 88.1021 47.4546 87.422 47.4754C86.7214 47.5032 86.0277 47.4337 85.3476 47.2668C84.6899 47.1032 84.0938 46.7452 83.6337 46.2376C83.1918 45.7232 82.9229 45.0774 82.8666 44.3952C82.8103 43.713 82.9695 43.0303 83.3209 42.4474C83.4749 42.1725 83.6853 41.935 83.9378 41.7513C84.1902 41.5676 84.4786 41.4421 84.7831 41.3834C85.1096 41.3252 85.4456 41.3895 85.7293 41.5646C86.013 41.7396 86.2253 42.0137 86.327 42.3362C86.3742 42.5083 86.3764 42.6901 86.3334 42.8633C86.2905 43.0366 86.2038 43.1953 86.0821 43.3237C85.983 43.4183 85.8642 43.4888 85.7346 43.5297C85.605 43.5707 85.4681 43.5811 85.334 43.5601C85.362 43.4526 85.3678 43.3402 85.3509 43.2303C85.334 43.1203 85.2949 43.0152 85.236 42.9216C85.1771 42.828 85.0997 42.748 85.0089 42.6867C84.918 42.6254 84.8156 42.5842 84.7083 42.5657C84.495 42.5506 84.2828 42.6079 84.1046 42.7286C83.9263 42.8493 83.7919 43.0266 83.7221 43.2333C83.6745 43.3724 83.6541 43.5115 83.6745 43.6645C83.7059 43.9552 83.8171 44.2309 83.9952 44.4598C84.1733 44.6886 84.4111 44.8614 84.6811 44.958C84.9507 45.0573 85.2397 45.0889 85.5238 45.0502C85.8078 45.0115 86.0786 44.9035 86.3134 44.7354C86.5595 44.5577 86.7674 44.3302 86.9241 44.067C87.0809 43.8039 87.1832 43.5107 87.2247 43.2055C87.2876 42.7056 87.223 42.1977 87.037 41.7309C86.8511 41.2642 86.5503 40.8546 86.1637 40.542C85.9052 40.3526 85.6111 40.22 85.3 40.1525C84.6607 40.0343 84.001 40.1525 83.4365 40.4933C82.9536 40.7854 82.5319 41.1818 82.2123 41.6547C81.9854 41.985 81.7895 42.3366 81.6274 42.7048C81.5458 42.8856 81.471 43.0803 81.3962 43.275C81.3426 43.4657 81.2744 43.6517 81.1921 43.8314C81.1445 43.7201 81.1241 43.588 81.0901 43.4697C80.9896 43.1139 80.8359 42.7761 80.6344 42.4683C80.2141 41.804 79.6072 41.2852 78.8933 40.9801C78.5448 40.7933 78.1492 40.7185 77.7584 40.7657C77.3676 40.8129 76.9998 40.9797 76.7034 41.2444C76.4608 41.4911 76.3238 41.8263 76.3225 42.1762C76.3565 42.5239 76.513 42.8438 76.7646 43.0733C77.0793 43.3327 77.4111 43.5697 77.7576 43.7827C77.9208 43.8939 78.0772 44.033 78.2064 44.1999C78.2676 44.2695 78.3221 44.3599 78.3629 44.4573C78.4173 44.5824 78.4309 44.7146 78.4241 44.8536C78.4188 44.8812 78.4204 44.9096 78.4287 44.9364C78.437 44.9631 78.4518 44.9873 78.4717 45.0066C78.4921 45.0275 78.5193 45.0345 78.5397 45.0345C78.5669 45.0345 78.5941 45.0275 78.6077 45.0066C78.8296 44.7144 78.931 44.345 78.8903 43.9773C78.8497 43.6097 78.6702 43.2728 78.3901 43.0386C78.254 42.9273 78.084 42.8508 77.9412 42.7604C77.7984 42.6561 77.6419 42.4961 77.6759 42.3153C77.71 42.1275 77.9072 42.0928 78.05 42.1345C78.3697 42.2736 78.6213 42.5309 78.7777 42.8438C78.941 43.122 79.0702 43.4141 79.1722 43.7201C79.3558 44.3599 79.5803 44.9927 79.8591 45.5978C80.2182 46.1614 80.6888 46.642 81.2405 47.0085C81.7922 47.375 82.4128 47.6193 83.0624 47.7258C85.0105 48.1493 87.0176 48.2082 88.9862 47.8996C87.5366 48.5441 85.9602 48.8346 84.3818 48.7481C82.517 48.617 80.7141 48.0097 79.1382 46.9817C77.5353 45.9603 76.1722 44.5902 75.1459 42.969C74.0245 41.1599 73.2812 39.1331 72.9628 37.0161C72.6227 34.8881 72.6703 32.7114 73.0852 30.5973C73.4524 28.4966 74.2904 26.5114 75.5336 24.7974C76.7157 23.1942 78.3518 22.0021 80.2196 21.3828C81.1677 21.0692 82.1676 20.953 83.1604 21.041C84.1531 21.129 85.1186 21.4195 85.9997 21.8953C86.8809 22.3711 87.6599 23.0225 88.2908 23.8112C88.9218 24.5999 89.3918 25.5098 89.6731 26.4873C89.7887 26.8559 89.8772 27.2383 89.9248 27.6208C89.6196 27.6161 89.3217 27.7154 89.0778 27.903C88.834 28.0906 88.6582 28.3559 88.5781 28.657C88.4783 29.0209 88.4783 29.4058 88.5781 29.7697C88.2742 30.2584 87.8818 30.6833 87.422 31.0215C86.63 31.6233 85.6375 31.8808 84.6607 31.7378C84.2279 31.6617 83.816 31.492 83.4524 31.2402C83.0889 30.9883 82.782 30.6601 82.5524 30.2774C82.329 29.8937 82.2043 29.4583 82.19 29.012C82.1758 28.5657 82.2723 28.123 82.4707 27.7251C82.6952 27.2453 83.0896 26.8767 83.5725 26.682C83.7876 26.5912 84.0276 26.5835 84.2478 26.6603C84.468 26.737 84.6535 26.8931 84.7695 27.0993C84.5836 26.9957 84.3704 26.9548 84.1604 26.9822C83.9504 27.0097 83.7542 27.1042 83.5997 27.2522C83.4347 27.4276 83.328 27.6518 83.295 27.8929C83.262 28.1339 83.3044 28.3795 83.4161 28.5944C83.5375 28.8094 83.7119 28.9881 83.922 29.1125C84.132 29.237 84.3703 29.303 84.6131 29.3038C84.849 29.3089 85.0832 29.2626 85.3001 29.1678C85.5171 29.0731 85.7118 28.9321 85.8713 28.7544C86.2113 28.4067 86.4086 27.9407 86.429 27.447C86.429 26.9324 86.2658 26.4316 85.9529 26.0283C85.6011 25.6012 85.1352 25.2882 84.6122 25.1276C84.0892 24.9671 83.5317 24.9659 83.008 25.1242C82.0386 25.4026 81.2167 26.0629 80.7229 26.9602C80.2164 27.8478 80.0492 28.8957 80.2536 29.9018C80.4723 30.9314 81.0145 31.8595 81.7974 32.5445C82.6402 33.2661 83.6918 33.684 84.7899 33.7337C85.8764 33.7621 86.9514 33.5007 87.909 32.9751C88.8667 32.4495 89.6739 31.6779 90.2512 30.7364L90.5165 30.3052C90.7359 30.3228 90.9545 30.2616 91.1345 30.1322C91.3145 30.0027 91.4447 29.813 91.5026 29.5959C91.5704 29.3351 91.5585 29.0594 91.4685 28.8058C91.3786 28.5522 91.2148 28.3328 90.9993 28.1772C91.285 26.0909 90.7953 23.9698 89.6187 22.2382C88.1157 20.1519 85.8917 18.7471 83.4025 18.309C80.5936 17.857 77.7168 18.3507 75.2003 19.7138C72.9966 20.8555 71.0845 22.5082 69.6166 24.5401C66.6503 28.5128 65.296 33.5019 65.8352 38.4696C66.2267 41.5281 67.4515 44.4124 69.3696 46.7931C71.2878 49.1738 73.822 50.9549 76.683 51.9331C80.1142 53.1252 83.8463 53.044 87.2247 51.7037C89.7797 50.7187 92.0557 49.101 93.849 46.9956C94.1483 46.6409 94.4271 46.2862 94.6924 45.8829C95.012 45.4865 95.1956 44.9858 95.216 44.4712C95.2169 44.2724 95.174 44.076 95.0904 43.8966C95.0068 43.7172 94.8847 43.5594 94.7332 43.435" fill="#D00000"/>
<path d="M84.3955 37.4751C84.3615 37.2039 84.239 36.9535 84.0418 36.7727C83.8191 36.5836 83.5469 36.4655 83.2591 36.4334C82.9713 36.4012 82.6805 36.4564 82.4231 36.5919C81.8641 36.8944 81.4121 37.3688 81.1309 37.948C80.8132 38.5553 80.6495 39.2343 80.6548 39.923C80.5071 39.8888 80.3529 39.8989 80.2106 39.9519C80.0683 40.0049 79.9439 40.0987 79.8523 40.2221C79.8203 40.2758 79.8007 40.3363 79.7948 40.3989C79.7889 40.4615 79.7969 40.5247 79.8183 40.5837C79.8408 40.6434 79.8764 40.6971 79.9224 40.7405C79.9684 40.7839 80.0235 40.8159 80.0835 40.834H80.4848C80.5256 40.9036 80.5528 40.9801 80.5528 41.0635C80.5528 41.1609 80.6072 41.2583 80.6344 41.3556L80.7705 41.8981C80.8249 42.0789 80.8589 42.5239 81.0425 42.6491C81.0684 42.6644 81.0977 42.6724 81.1275 42.6724C81.1574 42.6724 81.1867 42.6644 81.2125 42.6491C81.2406 42.6292 81.2639 42.6031 81.2805 42.5726C81.383 42.2614 81.4514 41.9395 81.4846 41.6129C81.5104 41.3157 81.4967 41.0162 81.4438 40.7228C81.5779 40.7546 81.7188 40.7345 81.8393 40.6665C81.9599 40.5984 82.0515 40.4872 82.0967 40.3542C82.1264 40.2477 82.1256 40.1346 82.0942 40.0286C82.0629 39.9225 82.0023 39.8279 81.9198 39.7561C81.8658 39.7095 81.8035 39.6741 81.7362 39.6518C81.7362 39.165 81.8654 38.6852 82.0967 38.2609C82.1919 38.0523 82.3551 37.8715 82.5728 37.7741C82.7496 37.7185 82.9808 37.8089 82.9468 38.0384C82.9128 38.2679 82.702 38.4348 82.6068 38.6434C82.5346 38.8197 82.5129 39.0133 82.5442 39.2017C82.5755 39.39 82.6586 39.5654 82.7836 39.7074C82.906 39.8465 83.0624 39.9369 83.2393 39.9856C83.4443 40.0305 83.6581 40.0059 83.8483 39.9156C84.0385 39.8252 84.1947 39.6741 84.2934 39.4849C84.305 39.4612 84.3097 39.4347 84.307 39.4084C84.3027 39.3812 84.2896 39.3562 84.27 39.3373C84.2503 39.3185 84.2251 39.3068 84.1982 39.3041C84.171 39.2971 84.1438 39.3041 84.1234 39.318L84.0554 39.3597C84.0154 39.3969 83.9632 39.4174 83.9092 39.4174C83.8551 39.4174 83.803 39.3969 83.763 39.3597C83.7086 39.3103 83.669 39.2463 83.6486 39.175C83.6281 39.1037 83.6277 39.0279 83.6473 38.9564C83.7017 38.6365 83.9738 38.407 84.1574 38.1566C84.2453 38.0441 84.3104 37.9149 84.349 37.7764C84.3875 37.6379 84.3987 37.4929 84.3818 37.3499M21.2267 26.8072C21.0226 29.2551 19.4584 31.1814 17.3704 31.2093C16.8812 31.249 16.3928 31.1227 15.9809 30.8499C15.569 30.577 15.2566 30.1729 15.092 29.7002C14.956 29.422 14.9016 29.0951 14.956 28.7822C14.9968 28.7822 15.058 28.97 15.1056 29.0256C15.2564 29.2302 15.4549 29.3927 15.6831 29.4984C15.9112 29.6042 16.1617 29.6496 16.4115 29.6306C16.8638 29.661 17.3105 29.5139 17.6605 29.2193C18.0105 28.9247 18.2375 28.5048 18.2954 28.045C18.3365 27.7498 18.3166 27.449 18.2371 27.1621C18.1576 26.8752 18.0202 26.6085 17.8338 26.3792C17.6473 26.1499 17.416 25.963 17.1546 25.8307C16.8932 25.6984 16.6076 25.6236 16.3162 25.611C15.4822 25.5923 14.6726 25.9001 14.0532 26.4714C13.4337 27.0428 13.0511 27.8346 12.9837 28.6848C12.5416 31.3831 15.058 33.6502 15.058 33.6502L11.8207 36.8144C11.8207 36.8144 11.7731 29.7975 12.1268 26.7237C12.4804 23.643 14.2759 21.3411 16.7379 21.3411C19.7032 21.3411 21.4511 24.1089 21.2267 26.7794M28.2318 26.7794C28.0142 20.6804 21.0498 18.0725 16.7923 18.0725C12.4192 18.0725 4.28506 19.7972 3.59135 28.7127C3.34651 33.8867 3.48933 49.979 3.48933 49.979C3.48933 49.979 3.23769 50.278 2.40115 50.278H0.388023C0.0819724 50.3337 -0.00644217 50.7231 0.000358953 51.0291C0.000358953 51.4672 0.102376 51.7384 0.388023 51.7384C0.97972 51.7802 5.7473 51.5507 7.77404 51.5507C9.80757 51.5507 14.2691 51.7384 14.8268 51.7384C15.2213 51.7384 15.2825 51.3907 15.2825 51.0291C15.2825 50.6675 15.2825 50.2641 14.854 50.2641C14.4255 50.2641 11.8139 50.3197 11.8139 49.9859V39.9161C11.8139 39.4988 16.7651 34.3735 17.0848 34.4569C18.2138 34.8742 19.4176 35.0828 20.6214 35.048C22.7977 35.048 28.4698 33.5807 28.2114 26.7585M179.659 40.4029H178.128C178.038 40.4029 177.948 40.4213 177.864 40.457C177.78 40.4927 177.704 40.5451 177.64 40.6111C177.576 40.677 177.526 40.7553 177.492 40.8413C177.458 40.9273 177.441 41.0194 177.442 41.1122V42.67H175.952C175.861 42.67 175.771 42.6884 175.688 42.7241C175.604 42.7598 175.528 42.8122 175.464 42.8782C175.4 42.9441 175.35 43.0224 175.316 43.1084C175.281 43.1944 175.264 43.2865 175.265 43.3793V49.4991H170.844V41.1053C170.844 41.0121 170.827 40.9199 170.792 40.8338C170.757 40.7477 170.706 40.6696 170.641 40.6037C170.577 40.5378 170.5 40.4856 170.416 40.4499C170.332 40.4143 170.242 40.3959 170.151 40.3959H169.307C169.216 40.395 169.125 40.4127 169.041 40.448C168.956 40.4833 168.879 40.5356 168.815 40.6016C168.75 40.6677 168.699 40.7462 168.665 40.8327C168.63 40.9192 168.613 41.0119 168.614 41.1053V48.7828C168.614 48.971 168.687 49.1514 168.817 49.2844C168.947 49.4174 169.123 49.4922 169.307 49.4922H170.838V51.0291C170.838 51.216 170.91 51.3954 171.038 51.5282C171.167 51.661 171.342 51.7366 171.525 51.7384H178.972C179.063 51.7384 179.153 51.72 179.236 51.6843C179.32 51.6486 179.396 51.5962 179.46 51.5302C179.524 51.4643 179.574 51.386 179.608 51.3C179.643 51.214 179.66 51.1219 179.659 51.0291V49.4922H181.182C181.273 49.4922 181.363 49.4738 181.447 49.4381C181.53 49.4023 181.606 49.35 181.67 49.284C181.734 49.218 181.785 49.1398 181.819 49.0538C181.853 48.9677 181.87 48.8757 181.869 48.7828V42.6839H183.406C183.497 42.6839 183.587 42.6655 183.671 42.6298C183.754 42.594 183.83 42.5417 183.894 42.4757C183.958 42.4098 184.009 42.3315 184.043 42.2455C184.077 42.1595 184.094 42.0674 184.093 41.9746V40.4029H179.659Z" fill="#D00000"/>
<path d="M201.171 24.5262C201.261 24.5262 201.351 24.5078 201.435 24.472C201.519 24.4363 201.595 24.3839 201.659 24.318C201.723 24.252 201.773 24.1738 201.807 24.0877C201.841 24.0017 201.859 23.9096 201.858 23.8168V22.2382H203.306C203.398 22.2391 203.488 22.2214 203.573 22.1861C203.657 22.1508 203.734 22.0985 203.799 22.0325C203.863 21.9664 203.914 21.8879 203.949 21.8014C203.984 21.7149 204.001 21.6223 204 21.5288V20.6735C204 20.4853 203.927 20.3049 203.797 20.1719C203.667 20.0389 203.49 19.9641 203.306 19.9641H193.649C193.557 19.9632 193.467 19.9809 193.382 20.0162C193.298 20.0515 193.221 20.1038 193.156 20.1698C193.091 20.2359 193.04 20.3144 193.006 20.4009C192.971 20.4874 192.954 20.58 192.955 20.6735V22.2451H188.493V20.6735C188.493 20.4853 188.42 20.3049 188.29 20.1719C188.16 20.0389 187.984 19.9641 187.8 19.9641H178.135C178.044 19.9632 177.953 19.9809 177.869 20.0162C177.784 20.0515 177.707 20.1038 177.643 20.1698C177.578 20.2359 177.527 20.3144 177.493 20.4009C177.458 20.4874 177.441 20.58 177.442 20.6735V22.2382H175.925C175.834 22.2373 175.743 22.255 175.658 22.2903C175.574 22.3256 175.497 22.3778 175.432 22.4439C175.368 22.5099 175.317 22.5885 175.282 22.675C175.248 22.7615 175.23 22.8541 175.231 22.9475V24.5262H173.721C173.631 24.5262 173.541 24.5445 173.457 24.5803C173.373 24.616 173.297 24.6684 173.233 24.7343C173.169 24.8003 173.119 24.8785 173.085 24.9646C173.051 25.0506 173.034 25.1427 173.034 25.2355V32.8574C173.034 33.0444 173.107 33.2237 173.235 33.3566C173.364 33.4894 173.539 33.5649 173.721 33.5668H175.238V35.1385C175.238 35.3266 175.311 35.507 175.441 35.64C175.571 35.7731 175.748 35.8478 175.932 35.8478H179.618V37.4473C179.62 37.6342 179.694 37.8129 179.824 37.9444C179.953 38.0759 180.129 38.1497 180.312 38.1497H184.1V40.3959H190.751V49.4991H189.214C189.124 49.4991 189.034 49.5175 188.95 49.5533C188.866 49.589 188.79 49.6413 188.726 49.7073C188.662 49.7733 188.612 49.8515 188.578 49.9375C188.544 50.0236 188.527 50.1157 188.527 50.2085V51.0639C188.527 51.2508 188.6 51.4302 188.728 51.563C188.857 51.6958 189.032 51.7714 189.214 51.7732H203.293C203.384 51.7741 203.475 51.7564 203.559 51.7211C203.644 51.6858 203.721 51.6336 203.785 51.5675C203.85 51.5014 203.901 51.4229 203.935 51.3364C203.97 51.2499 203.987 51.1573 203.986 51.0639V50.2085C203.986 50.1153 203.968 50.0231 203.934 49.937C203.899 49.851 203.848 49.7728 203.783 49.7069C203.719 49.641 203.642 49.5888 203.558 49.5531C203.474 49.5175 203.384 49.4991 203.293 49.4991H201.796V47.9622C201.796 47.7753 201.724 47.5959 201.596 47.4631C201.467 47.3303 201.292 47.2547 201.109 47.2529H197.403V24.5609L201.171 24.5262ZM192.955 35.8687H181.903V34.297C181.903 34.1101 181.831 33.9307 181.702 33.7978C181.574 33.665 181.399 33.5895 181.216 33.5876H179.72V24.5122H190.765V32.8574C190.765 33.0444 190.837 33.2237 190.966 33.3566C191.094 33.4894 191.269 33.5649 191.452 33.5668H192.989L192.955 35.8687ZM57.565 29.1438C56.9806 26.7802 55.852 24.5937 54.2733 22.7667C53.6884 22.0782 53.0627 21.4454 52.3962 20.8473C51.6686 20.2046 50.8982 19.6144 50.0906 19.0809C49.2127 18.4744 48.2894 17.9396 47.3293 17.4814C45.2618 16.5217 44.7041 15.6455 44.7041 15.6455L44.2484 16.1323C44.0947 16.285 43.9234 16.4181 43.7384 16.5287C42.949 17.048 42.1265 17.5127 41.2764 17.9195C38.6719 19.1973 36.4259 21.1278 34.7473 23.5317C33.0636 25.9694 32.0427 28.8204 31.7888 31.7934C31.6324 33.6572 31.748 35.5418 32.1288 37.3708C32.5777 39.4154 33.285 41.3765 34.2644 43.2124C35.3857 45.3359 36.756 47.3116 38.3451 49.0958C39.2438 50.1068 40.1927 51.0701 41.1879 51.9818C42.2853 52.972 43.4197 53.9185 44.5885 54.8192L44.8333 55L45.1054 54.8818C47.9619 53.6022 51.1312 50.591 53.5864 46.8287C54.8638 44.8871 55.9074 42.7949 56.6945 40.5976C57.4962 38.3885 57.9418 36.061 58.0139 33.7059C58.0547 32.1759 57.8983 30.6529 57.531 29.1716M56.9801 33.685C56.8849 37.7324 55.3751 42.1971 52.7294 46.2376C50.4579 49.7147 47.5606 52.5104 44.9626 53.776C33.5571 45.0275 32.4689 36.3207 32.8634 31.8838C33.1151 29.1096 34.069 26.4503 35.6313 24.1676C37.1935 21.8848 39.3101 20.0575 41.7728 18.8653C42.691 18.4328 43.5774 17.9331 44.4253 17.3702L44.7313 17.1407C45.4318 17.6205 46.1596 18.0447 46.9145 18.4342C55.4499 22.7458 57.123 29.0743 57.021 33.6502" fill="#D00000"/>
<path d="M44.9014 18.1977H44.8605L44.5205 18.3368L44.228 18.462L43.8744 18.6219L43.4663 18.8167L43.0038 19.0531L42.4938 19.3313L41.9497 19.6442L41.3716 20.0058C41.1675 20.131 40.9771 20.2701 40.7731 20.4022C40.569 20.5413 40.365 20.6943 40.161 20.8473L39.5285 21.3341C39.0994 21.688 38.6842 22.0592 38.2839 22.4468L37.6718 23.0727C37.4677 23.2883 37.2705 23.5178 37.0801 23.7403L36.5156 24.4497L36.1823 24.9295C36.0599 25.1034 35.9443 25.2911 35.8219 25.4859L35.6042 25.8405C35.1759 26.6074 34.8118 27.41 34.516 28.2398C34.4072 28.5179 34.3256 28.8309 34.244 29.123C34.176 29.422 34.0876 29.7349 34.04 30.0479C33.9788 30.3608 33.9175 30.6946 33.8835 31.0215C33.8495 31.3414 33.8155 31.6822 33.7951 32.0229C33.7747 32.3706 33.7951 32.7323 33.7951 33.08V33.7893C34.516 44.805 42.3509 50.2919 45.289 52.107C45.289 52.107 56.6741 44.5476 55.9804 32.2524C55.3819 21.661 44.8946 18.1699 44.8946 18.1699M48.9956 20.9377C49.2881 21.1464 49.5941 21.3689 49.8866 21.6053C49.7165 21.8001 49.5737 22.0087 49.4581 22.2382C49.2807 22.6026 49.1656 22.9954 49.118 23.3996C48.8917 23.3517 48.657 23.3661 48.4379 23.4413C48.2951 23.483 48.1659 23.5456 48.0367 23.6151C48.0367 23.2952 48.0639 22.9823 48.1183 22.6624C48.1447 22.3255 48.2379 21.9976 48.3922 21.6987C48.5466 21.3998 48.7588 21.1361 49.016 20.9238M49.3901 27.9755C51.8045 27.892 53.1647 28.8448 53.0151 30.1035C52.9541 30.4133 52.8136 30.7008 52.6081 30.9367C52.4025 31.1726 52.1392 31.3482 51.8453 31.4457C51.9035 31.2792 51.9263 31.1018 51.9122 30.9256C51.8982 30.7493 51.8475 30.5781 51.7637 30.4234C51.6345 30.1939 51.4508 30.0062 51.2332 29.8671C51.0292 29.7419 50.7843 29.6793 50.5463 29.6932C50.2538 29.7071 49.9818 29.8045 49.7437 29.9714C49.5091 30.1272 49.3204 30.3455 49.1982 30.6029C49.0759 30.8603 49.0247 31.1469 49.05 31.4318C48.642 31.4318 48.2339 31.4874 47.8394 31.5917C47.4926 31.6891 47.1593 31.8282 46.8533 32.0229C46.554 32.2107 46.3024 32.4471 46.0984 32.7323L46.0303 32.8366L46.0984 32.9409C46.3366 33.3399 46.6498 33.6866 47.0199 33.9612C47.3899 34.2357 47.8095 34.4325 48.2543 34.5404C48.5127 34.596 48.7848 34.6238 49.05 34.6308H49.2473C49.2337 34.7421 49.2337 34.8533 49.2473 34.9715C49.2648 35.2209 49.3353 35.4634 49.454 35.682C49.5726 35.9006 49.7365 36.0901 49.9342 36.2372C50.1382 36.3972 50.3763 36.4806 50.6279 36.4806H50.7843C51.0613 36.4428 51.3187 36.3138 51.5175 36.113C51.7163 35.9122 51.8457 35.6507 51.8861 35.3679C52.6682 36.5085 51.478 38.3792 51.478 38.3792C51.848 38.6533 52.1013 39.0618 52.186 39.5209C52.2708 39.98 52.1805 40.4548 51.9337 40.8479H51.7977C51.6208 40.84 51.4441 40.8685 51.2781 40.9318C51.1122 40.9951 50.9605 41.092 50.8319 41.2165C50.6623 41.3439 50.5233 41.5091 50.4253 41.6995C50.3273 41.89 50.273 42.1007 50.2665 42.3158C50.2599 42.5308 50.3013 42.7446 50.3875 42.9409C50.4737 43.1372 50.6024 43.3109 50.7639 43.4489C50.6959 43.6992 50.5803 43.9357 50.4375 44.1582C50.1458 44.5794 49.7113 44.8746 49.2185 44.9864C48.7258 45.0982 48.21 45.0187 47.7714 44.7632C47.4732 44.5692 47.2386 44.2882 47.0981 43.9565C46.8419 43.3965 46.7377 42.7763 46.7964 42.1609C46.855 41.5455 47.0743 40.9575 47.4314 40.4585C47.6457 40.7 47.9248 40.8718 48.2339 40.9523C48.4583 41.0009 48.6964 41.0009 48.9208 40.9523C49.1542 40.9236 49.3793 40.8458 49.5818 40.7237C49.7844 40.6016 49.9599 40.4379 50.0974 40.2429C50.3422 39.8674 50.4647 39.4154 50.4443 38.9633C50.4286 38.3695 50.1969 37.8031 49.7944 37.3748C49.3918 36.9465 48.8475 36.6872 48.2679 36.6475C47.8054 36.5989 47.343 36.6475 46.8941 36.7797C46.8634 36.3463 46.7788 35.9186 46.6424 35.507C46.52 35.1593 46.3568 34.8255 46.146 34.5195C45.952 34.2334 45.7018 33.9918 45.4114 33.8102L45.2958 33.7406L45.1802 33.831C44.5037 34.3494 44.0156 35.0835 43.7928 35.9173C43.7112 36.1955 43.6567 36.4876 43.6295 36.7866C42.9321 36.6371 42.206 36.725 41.562 37.037C41.2559 37.1761 40.9703 37.3569 40.7187 37.5864C40.422 37.8718 40.2056 38.2332 40.092 38.6332C39.9783 39.0332 39.9716 39.4569 40.0726 39.8604C40.195 40.3751 40.4806 40.834 40.8683 41.1818C41.0723 41.3487 41.3104 41.4808 41.562 41.5573C41.8136 41.6477 42.0789 41.6755 42.3441 41.6477C42.6162 41.6338 42.8678 41.5434 43.0923 41.3834C43.2691 41.2583 43.4119 41.0844 43.5003 40.8897C43.5003 40.8479 43.5343 40.8132 43.5479 40.7715C43.7996 41.6338 44.0784 43.0525 43.6159 44.0817C43.5008 44.3379 43.334 44.5663 43.1266 44.7521C42.9192 44.9379 42.6757 45.0767 42.4121 45.1596C42.121 45.2925 41.8038 45.3547 41.4852 45.3415C41.1667 45.3282 40.8554 45.2398 40.5758 45.0831C40.1632 44.7886 39.8496 44.3708 39.6781 43.887C39.6162 43.7228 39.5617 43.5557 39.5149 43.3863H39.6713C39.8209 43.3863 39.9637 43.3306 40.093 43.2472C40.2821 43.1194 40.426 42.9327 40.5032 42.7147C40.5804 42.4967 40.5868 42.2591 40.5214 42.0371C40.461 41.8098 40.3514 41.5993 40.2007 41.4212C40.0501 41.243 39.8621 41.1018 39.6509 41.0079C39.5428 40.9868 39.436 40.9589 39.3312 40.9244C39.1414 40.8116 38.9846 40.649 38.877 40.4533C38.7694 40.2577 38.7149 40.0362 38.7191 39.8118C38.6922 39.5325 38.743 39.2511 38.8658 39C38.9885 38.749 39.1782 38.5386 39.4128 38.3931C39.4128 38.3931 38.175 37.5864 38.5491 36.4111C38.611 36.1288 38.7792 35.8829 39.0173 35.7266C39.2554 35.5704 39.5442 35.5165 39.8209 35.5766C39.8413 35.9243 39.9773 36.2581 40.195 36.5293C40.3242 36.6647 40.4803 36.7702 40.6527 36.8386C40.8252 36.9069 41.0101 36.9367 41.1947 36.9257H41.4668C41.6406 36.9102 41.8089 36.8554 41.9595 36.7652C42.1101 36.675 42.2391 36.5516 42.3373 36.4041C42.5074 36.1051 42.6026 35.7643 42.5958 35.4236C42.5958 35.1593 42.5618 34.8951 42.487 34.6447C42.8856 34.6238 43.2772 34.5296 43.6431 34.3665C43.9424 34.2274 44.2144 34.0397 44.4457 33.7963C44.6769 33.5598 44.8537 33.2816 44.9558 32.9687V32.8296C44.7971 32.4872 44.5442 32.1996 44.228 32.0021C43.9288 31.8212 43.6159 31.6822 43.2759 31.5987C42.9462 31.5144 42.6089 31.4655 42.2693 31.4527C42.2823 31.1486 42.2334 30.8451 42.1257 30.5614C42.018 30.2777 41.8538 30.0199 41.6436 29.8045C41.3716 29.5263 41.0043 29.3594 40.6166 29.3525C40.2962 29.3734 39.9905 29.4978 39.7436 29.7078C39.4967 29.9177 39.3214 30.2024 39.2428 30.5208C39.1748 30.8059 39.2088 31.1119 39.3448 31.3762C39.5149 31.6543 39.7529 31.8769 40.0386 32.0229C39.5421 32.461 38.6511 32.2733 38.2227 32.1342C37.4609 31.8212 37.1345 30.7155 37.4609 29.6306C37.9302 28.1007 39.9773 28.0659 39.9773 28.0659C39.9773 28.0659 39.0116 26.0144 40.1814 25.0199C40.5007 24.73 40.8849 24.5251 41.3001 24.4232C41.7152 24.3213 42.1486 24.3256 42.5618 24.4357C42.7182 24.5053 42.861 24.6096 42.9766 24.7348C43.1263 24.9086 43.2215 25.1242 43.2623 25.3537V25.458C42.8481 25.3557 42.4112 25.4231 42.0449 25.6458C41.8833 25.7712 41.7537 25.9348 41.6673 26.1225C41.5808 26.3101 41.54 26.5164 41.5484 26.7237C41.5512 27.0059 41.631 27.2817 41.7788 27.5201C41.9266 27.7584 42.1365 27.9499 42.3849 28.0729C42.8501 28.3389 43.3939 28.4229 43.9152 28.3093C43.9474 28.9723 44.1264 29.6191 44.4389 30.2009C44.6565 30.6042 44.9422 30.9589 45.2822 31.244L45.3706 31.3205L45.4863 31.2718C45.7787 31.098 46.0371 30.8546 46.2344 30.5625C46.452 30.2357 46.6152 29.8671 46.7104 29.4776C46.8329 29.0186 46.8941 28.5388 46.8941 28.059H47.2137C47.4045 28.0561 47.5926 28.0127 47.7661 27.9315C47.9396 27.8502 48.0946 27.7329 48.2213 27.587C48.348 27.4411 48.4436 27.2698 48.5019 27.0841C48.5603 26.8983 48.5802 26.7022 48.5604 26.5081C48.5604 26.3343 48.5264 26.1604 48.4447 26.0074C48.2339 25.6388 48.0911 25.618 47.8938 25.4094C47.5538 25.0616 47.8938 24.4218 47.8938 24.4218C48.1425 24.5375 48.4214 24.5669 48.6878 24.5053C48.9543 24.4438 49.1938 24.2948 49.3697 24.0811C49.3697 24.0811 49.9138 24.2758 50.0634 25.7014C50.1148 26.0583 50.0727 26.4228 49.9412 26.7576C49.8098 27.0924 49.5938 27.3855 49.3153 27.6069C49.28 27.6357 49.2544 27.675 49.2419 27.7194C49.2295 27.7637 49.2308 27.8109 49.2458 27.8545C49.2607 27.898 49.2885 27.9357 49.3253 27.9624C49.3622 27.989 49.4062 28.0034 49.4513 28.0033M49.2133 31.9812C49.394 32.4406 49.6518 32.8642 49.975 33.233C49.7097 33.532 49.5057 33.8797 49.3697 34.2553C49.0296 34.2831 48.6964 34.2553 48.3699 34.1857C47.9916 34.101 47.6334 33.9406 47.316 33.7139C46.9985 33.4871 46.728 33.1984 46.52 32.8644C46.8636 32.5108 47.278 32.2376 47.7347 32.0636C48.1914 31.8895 48.6796 31.8187 49.1657 31.856L49.2133 32.0021M45.8807 48.3169C45.9487 48.4907 45.9623 48.6855 45.9351 48.8732C45.9351 48.9567 45.8943 49.0471 45.8739 49.1305C45.8603 49.207 45.8331 49.2835 45.8059 49.3531C45.7738 49.4226 45.7274 49.4843 45.6699 49.5339C45.6155 49.5826 45.5475 49.6174 45.493 49.673C45.4423 49.7148 45.4085 49.7742 45.3978 49.8399C45.3978 49.9025 45.3978 49.979 45.3094 49.9859C45.221 49.9998 45.1734 49.9373 45.1394 49.8816C45.1054 49.826 45.0578 49.7217 45.0034 49.6452C44.9121 49.4966 44.8281 49.3434 44.7517 49.1862C44.6748 49.0367 44.6417 48.8676 44.6565 48.6994C44.6905 48.5603 44.7721 48.4212 44.881 48.3169C44.9626 48.2126 45.0646 48.0735 44.9966 47.9344C44.8584 47.8966 44.713 47.8966 44.5749 47.9344C44.4253 47.9831 44.2756 48.0039 44.126 47.9831C43.9968 47.9494 43.8762 47.8877 43.7724 47.8023C43.5473 47.6298 43.3538 47.4179 43.2011 47.1764C43.2011 47.1625 43.2011 47.1486 43.2147 47.1416C43.3371 47.0373 43.4799 46.933 43.6227 46.8634C43.7588 46.7939 43.8948 46.7661 44.0376 46.7661C44.1736 46.78 44.3097 46.8356 44.4185 46.926C44.6157 47.079 44.7721 47.3294 45.017 47.392C45.0306 47.2112 44.983 47.0303 44.8877 46.8843C44.8061 46.7452 44.7517 46.5853 44.7313 46.4253C44.7154 46.2762 44.7568 46.1265 44.8469 46.0081C45.017 45.7716 45.289 45.6325 45.4182 45.3613L45.4386 45.3474C45.4498 45.3413 45.4627 45.3393 45.4751 45.3418C45.4875 45.3444 45.4987 45.3513 45.5067 45.3613C45.5203 45.41 45.5339 45.4448 45.5611 45.4865L45.7515 45.6951C45.8548 45.7979 45.9342 45.9232 45.9836 46.0616C46.0331 46.2001 46.0514 46.3482 46.0371 46.4949C46.0235 46.5992 45.9963 46.6965 45.9555 46.7869L45.7991 47.0651C45.7515 47.1555 45.7107 47.2459 45.6971 47.3433H45.7651L45.9011 47.2737C45.9827 47.2112 46.0575 47.1347 46.1256 47.0651C46.159 47.0234 46.2004 46.989 46.2471 46.9639C46.2938 46.9388 46.345 46.9236 46.3976 46.9191C46.5041 46.911 46.6105 46.9352 46.7037 46.9886L47.0233 47.1694L47.1797 47.2668C47.2281 47.2881 47.272 47.3188 47.3089 47.3572C47.377 47.4546 47.3089 47.5658 47.2273 47.6354C47.0447 47.8644 46.7819 48.0115 46.4948 48.0453C46.2076 48.0791 45.919 47.9969 45.6903 47.8162C45.7175 47.9831 45.7719 48.1361 45.8535 48.2752M45.4454 44.5476L45.2686 44.4225C44.4049 45.9385 42.3577 46.7174 41.732 46.8704L41.8 46.4045C41.8204 46.168 41.8204 45.9316 41.8 45.6951C42.0381 45.6673 42.2693 45.6047 42.4938 45.5282C42.8071 45.4289 43.0963 45.2629 43.3425 45.0412C43.5886 44.8194 43.7861 44.547 43.922 44.2417C44.0988 43.8383 44.194 43.4002 44.194 42.9551V42.6978C44.9218 42.5657 45.6563 42.5448 46.384 42.6422C46.3806 43.1626 46.5021 43.676 46.7377 44.1373C46.9281 44.5268 47.2137 44.8536 47.5606 45.097C47.7306 45.2153 47.921 45.3057 48.1183 45.3544C48.2815 45.403 48.4447 45.4239 48.608 45.4378C48.6737 45.9169 48.8211 46.3806 49.0432 46.8078C47.0369 46.7174 45.4182 44.5685 45.4182 44.5685M42.2625 41.2652C41.8322 41.2814 41.4105 41.1395 41.0737 40.8652C40.7368 40.591 40.5072 40.2025 40.4262 39.77C40.305 39.2854 40.3682 38.7717 40.603 38.3329C40.8378 37.894 41.2267 37.5626 41.6912 37.4056C42.0213 37.2303 42.3836 37.1273 42.7548 37.1034C43.1261 37.0794 43.4981 37.135 43.8472 37.2665C44.416 37.5521 44.8617 38.0424 45.0986 38.6434L45.2414 39.0607C45.2414 39.0718 45.2457 39.0824 45.2534 39.0902C45.261 39.098 45.2714 39.1024 45.2822 39.1024C45.293 39.1024 45.3034 39.098 45.3111 39.0902C45.3187 39.0824 45.323 39.0718 45.323 39.0607L45.4454 38.6365C45.5754 38.2774 45.7878 37.9554 46.0647 37.6976C46.3417 37.4399 46.6751 37.2538 47.0369 37.1552C47.4237 37.0315 47.8328 36.9983 48.2339 37.0578C48.7254 37.0861 49.1879 37.3045 49.5277 37.6687C49.8675 38.0329 50.059 38.5156 50.0634 39.019C50.0993 39.3939 49.994 39.7688 49.7691 40.0673C49.5442 40.3657 49.2166 40.5653 48.8528 40.6254C48.6081 40.6646 48.3576 40.6333 48.1294 40.535C47.9011 40.4367 47.7042 40.2754 47.5606 40.0691C47.5414 40.0294 47.5087 39.9982 47.4686 39.9816C47.4285 39.9649 47.3838 39.9639 47.343 39.9787C47.2992 39.9864 47.2601 40.0114 47.2341 40.0482C46.9893 40.382 46.7921 40.7436 46.6424 41.14C46.0371 41.0774 45.4318 41.0774 44.8265 41.14C44.4661 41.14 44.1736 41.2026 43.9968 41.2235C43.9016 40.7923 43.7724 40.3751 43.6159 39.9717C43.5991 39.9252 43.5665 39.8863 43.5241 39.862C43.4818 39.8378 43.4323 39.8299 43.3847 39.8396C43.338 39.8525 43.2973 39.882 43.2699 39.9227C43.2425 39.9635 43.2302 40.0129 43.2351 40.0621C43.2625 40.2111 43.2583 40.3645 43.2227 40.5117C43.187 40.6589 43.1209 40.7965 43.0286 40.9153C42.9363 41.034 42.8202 41.1311 42.688 41.1999C42.5558 41.2686 42.4107 41.3075 42.2625 41.3139M44.0648 37.0022C44.092 36.4946 44.2178 35.9975 44.435 35.5402C44.6522 35.0829 44.9564 34.6744 45.3298 34.3387C45.5135 34.4847 45.6767 34.6656 45.8127 34.8603C46.2276 35.4862 46.4588 36.2303 46.4724 36.9883C45.9643 37.25 45.5448 37.6619 45.2686 38.1705C44.9924 37.6619 44.573 37.25 44.0648 36.9883M46.5132 41.5225C46.4588 41.752 46.4112 41.9885 46.3976 42.2319V42.3014C45.6563 42.211 44.915 42.2319 44.1872 42.364C44.1705 42.1445 44.141 41.9262 44.0988 41.7103V41.606C44.915 41.4947 45.7311 41.4669 46.5404 41.5364M40.2358 31.7726C39.6849 31.4805 39.4333 31.0632 39.5421 30.639C39.603 30.4032 39.7337 30.1924 39.9163 30.0355C40.0989 29.8786 40.3246 29.7834 40.5622 29.7628C40.8672 29.7949 41.1531 29.9298 41.3747 30.1464C41.5964 30.363 41.7412 30.6488 41.7864 30.9589C41.8877 31.3276 41.8603 31.7208 41.7089 32.0711C41.5575 32.4213 41.2915 32.7068 40.9567 32.8783C40.6284 33.0627 40.2589 33.1564 39.8844 33.1503C39.5099 33.1442 39.1435 33.0385 38.8212 32.8435C38.7079 32.7815 38.5988 32.7118 38.4947 32.6349H38.7395C39.032 32.6905 39.338 32.6905 39.6373 32.6349C39.9501 32.5654 40.2358 32.3706 40.4194 32.0994L40.5554 31.8977L40.2358 31.7726ZM42.0721 32.155C42.1061 32.0577 42.1401 31.9534 42.1605 31.856C42.487 31.8699 42.8066 31.9186 43.1195 31.9951C43.4008 32.0497 43.6683 32.1623 43.9057 32.3261C44.1431 32.49 44.3453 32.7015 44.5001 32.9478C44.4117 33.1773 44.2757 33.3929 44.092 33.5668C43.6002 34.0317 42.9526 34.2856 42.2829 34.2761C42.2372 34.1766 42.1873 34.0791 42.1333 33.984C41.915 33.6041 41.5657 33.3213 41.1539 33.1912C41.562 32.9617 41.8817 32.5932 42.0585 32.1481M41.7728 22.5511V22.412C42.4899 22.3798 43.1952 22.6062 43.7656 23.0518C44.1396 23.3022 44.4729 23.6082 44.7449 23.9698C45.0306 24.3245 45.2074 24.7626 45.255 25.2216C45.2754 25.7293 45.1938 26.2369 45.017 26.7098C44.8881 27.1086 44.6467 27.4594 44.3233 27.7182C44.0546 27.8968 43.7432 27.9964 43.4229 28.0062C43.1027 28.016 42.786 27.9356 42.5074 27.7738C42.3203 27.6895 42.1597 27.554 42.0432 27.3821C41.9268 27.2103 41.8591 27.0089 41.8476 26.8002C41.8391 26.6534 41.8641 26.5065 41.9208 26.3713C41.9775 26.2361 42.0642 26.1163 42.1741 26.0213C42.5346 25.8405 42.9426 25.8127 43.3167 25.9518L43.5207 26.0213L43.5547 25.7849C43.5896 25.4483 43.5196 25.1091 43.3547 24.8156C43.1898 24.5221 42.9385 24.2894 42.6366 24.1506C42.3373 24.0115 42.0245 23.9142 41.698 23.8446C41.7796 23.4204 41.8 22.9823 41.766 22.5511M47.649 23.9698C47.4917 24.1422 47.3745 24.3487 47.3062 24.5739C47.2379 24.7991 47.2202 25.0371 47.2545 25.2703V25.4163C47.3021 25.5415 47.3702 25.6597 47.4586 25.7571C47.636 25.7997 47.7939 25.9028 47.9064 26.0494C48.0189 26.196 48.0792 26.3774 48.0775 26.5638C48.0906 26.7067 48.0748 26.851 48.0312 26.9875C47.9876 27.124 47.9171 27.2499 47.8241 27.3574C47.731 27.465 47.6174 27.5519 47.4902 27.6127C47.363 27.6736 47.2249 27.7071 47.0845 27.7112C46.8988 27.7369 46.7098 27.7203 46.5311 27.6626C46.3524 27.6049 46.1884 27.5075 46.0507 27.3774C45.7349 27.0297 45.5266 26.5941 45.4522 26.1257C45.3471 25.5889 45.3775 25.0336 45.5407 24.5122C45.6903 23.8864 46.0371 23.33 46.5268 22.9128C46.9043 22.6176 47.3305 22.3938 47.785 22.2521C47.6609 22.8155 47.6061 23.3925 47.6218 23.9698M46.4112 28.0242C46.4447 28.8374 46.2436 29.6427 45.8331 30.34C45.6971 30.5556 45.5135 30.7572 45.3094 30.9102C44.9568 30.563 44.6753 30.1474 44.4815 29.6877C44.2876 29.228 44.1853 28.7334 44.1804 28.2328C44.5028 28.0802 44.7815 27.8456 44.9898 27.5513C45.1258 27.3427 45.2414 27.1201 45.3298 26.8837C45.4158 27.1777 45.5752 27.4437 45.7923 27.6556C45.9555 27.8364 46.1732 27.9616 46.4044 28.0242H46.4112ZM46.4112 21.9948L45.2958 22.7945C45.2552 22.8245 45.2065 22.8406 45.1564 22.8406C45.1063 22.8406 45.0575 22.8245 45.017 22.7945C44.5426 22.448 44.0642 22.1072 43.5819 21.7722C43.571 21.7561 43.5636 21.7379 43.5601 21.7186C43.5566 21.6993 43.5571 21.6795 43.5616 21.6605C43.5661 21.6415 43.5745 21.6236 43.5862 21.6081C43.5979 21.5926 43.6127 21.5798 43.6295 21.5706C43.9764 21.4245 44.5749 21.1533 44.8946 20.9655C44.9612 20.9207 45.0392 20.8968 45.119 20.8968C45.1988 20.8968 45.2768 20.9207 45.3434 20.9655C45.6903 21.2437 46.0507 21.4941 46.4316 21.7236C46.4472 21.7366 46.4599 21.753 46.4685 21.7717C46.4772 21.7903 46.4817 21.8107 46.4817 21.8314C46.4817 21.852 46.4772 21.8724 46.4685 21.891C46.4599 21.9097 46.4472 21.9261 46.4316 21.9391M48.1387 24.0672C48.1333 24.0564 48.1305 24.0445 48.1305 24.0324C48.1305 24.0203 48.1333 24.0084 48.1387 23.9976C48.1537 23.9677 48.1774 23.9434 48.2067 23.9281C48.3291 23.8585 48.4787 23.8446 48.6148 23.8794C48.6624 23.8864 48.71 23.9211 48.744 23.9629C48.7517 23.9766 48.7558 23.9922 48.7558 24.0081C48.7558 24.0239 48.7517 24.0395 48.744 24.0533C48.744 24.1437 48.54 24.1715 48.4719 24.1784C48.3835 24.1923 48.2951 24.1923 48.2135 24.1784C48.1591 24.1784 48.1047 24.1367 48.0979 24.088M44.8673 18.8097C46.2004 19.3035 47.4654 19.9641 48.642 20.7639C48.3974 20.9524 48.1975 21.1949 48.0571 21.4732L48.0163 21.5567C47.2409 21.0351 45.085 19.9085 45.085 19.9085C43.903 20.4538 42.7498 21.062 41.63 21.7305L41.528 21.3828C41.4532 21.1464 41.3512 20.903 41.2287 20.6804C42.3741 19.9065 43.5988 19.2628 44.881 18.761M40.9091 20.8821C41.0179 21.0768 41.1131 21.2854 41.1811 21.4941C41.4124 22.2173 41.4532 22.9823 41.3172 23.7264C41.0179 23.7195 40.7255 23.7542 40.4398 23.8307C40.6439 23.024 40.535 22.1686 40.1542 21.4384C40.4058 21.2368 40.6643 21.0559 40.9091 20.8821ZM35.9987 26.981C35.9987 26.7654 36.0259 26.5499 36.0599 26.3343C36.1007 25.9866 36.2231 25.6528 36.3999 25.3607C37.3446 23.9477 38.5095 22.7026 39.8481 21.6749C39.9161 21.7792 39.9637 21.8835 39.9977 22.0087C40.1882 22.6485 40.2018 23.33 40.0386 23.9698C39.4856 24.212 39.0081 24.6046 38.658 25.1048C38.3078 25.6051 38.0985 26.1938 38.0526 26.8072L38.1546 26.9602C38.1886 27.0088 38.209 27.0645 38.2227 27.1201C38.2431 27.2453 38.2431 27.3774 38.2227 27.5096C38.1838 27.8019 38.033 28.0664 37.8034 28.2451C37.5739 28.4237 37.2843 28.5019 36.9984 28.4623C36.8408 28.456 36.6864 28.4141 36.5465 28.3396C36.4065 28.265 36.2845 28.1597 36.1891 28.0311C36.0117 27.7028 35.9403 27.3255 35.9851 26.9532M35.645 26.6055C35.5362 27.1618 35.611 27.7391 35.8695 28.2467C35.9797 28.4158 36.128 28.5552 36.3021 28.6532C36.4761 28.7513 36.6706 28.8051 36.8692 28.81L36.808 29.0604C36.2639 29.0117 35.7538 28.7822 35.3458 28.4136C35.2166 28.2954 35.1077 28.1494 35.0125 27.9964C35.1962 27.5096 35.407 27.0297 35.645 26.5707M34.8493 28.3997C35.095 28.7153 35.4094 28.9677 35.7674 29.1369C36.0735 29.276 36.3932 29.3733 36.7264 29.415V29.728C36.1676 29.786 35.6072 29.6353 35.1485 29.3038C34.9835 29.1847 34.8406 29.0363 34.7269 28.8657L34.8697 28.3997M35.4342 39.8396C34.482 35.0133 36.3047 33.6502 36.3047 33.6502C35.2592 32.4947 34.6724 30.9822 34.6589 29.4081C34.7337 29.4776 34.8153 29.5541 34.9037 29.6167C35.1417 29.8045 35.4138 29.9436 35.6994 30.027C35.9715 30.1035 36.2571 30.1452 36.5428 30.1383H36.7196C36.7191 30.6252 36.8409 31.1041 37.0733 31.5292C37.2637 31.856 37.4949 32.155 37.767 32.4054C38.2274 32.9753 38.8803 33.3476 39.5965 33.4485C39.9501 33.4694 40.3106 33.4694 40.6643 33.4485C40.9038 33.4516 41.1385 33.5187 41.3449 33.6431C41.5513 33.7675 41.7223 33.945 41.8408 34.1579C42.0585 34.5334 42.1809 34.9646 42.1809 35.4097C42.1809 35.7157 42.0857 36.4459 41.3784 36.5224C41.2112 36.562 41.037 36.5592 40.8711 36.5144C40.7052 36.4696 40.5524 36.384 40.4262 36.2651C40.2891 36.0599 40.1952 35.8278 40.1507 35.5836C40.1062 35.3393 40.112 35.0882 40.1678 34.8464L39.7257 34.6656C39.3047 34.4675 38.8258 34.4401 38.3859 34.5891C37.9642 34.749 37.597 35.0202 37.3181 35.3819C35.7947 37.19 37.1141 40.5002 37.6378 41.5573C37.4609 41.7659 37.3385 42.0232 37.2841 42.3014C37.1954 42.709 37.1954 43.1316 37.2841 43.5393L37.3725 43.8522C36.5883 42.6042 35.9341 41.2756 35.4206 39.8883M34.9241 33.5598C34.9144 33.4381 34.9356 33.3159 34.9857 33.2051C35.0357 33.0942 35.1129 32.9984 35.2098 32.927C35.2225 32.9184 35.2368 32.9127 35.2519 32.9101C35.2669 32.9076 35.2823 32.9083 35.297 32.9123C35.3118 32.9162 35.3256 32.9232 35.3375 32.933C35.3494 32.9427 35.3592 32.9549 35.3662 32.9687C35.4886 33.1843 35.6518 33.379 35.8491 33.525C35.8617 33.5332 35.8721 33.5445 35.8793 33.5579C35.8866 33.5712 35.8904 33.5863 35.8904 33.6015C35.8904 33.6168 35.8866 33.6319 35.8793 33.6452C35.8721 33.6586 35.8617 33.6699 35.8491 33.678C35.6286 33.814 35.433 33.9881 35.271 34.1927C35.2535 34.2011 35.2337 34.203 35.215 34.1979C35.1963 34.1928 35.18 34.1811 35.1689 34.1648C35.0329 33.991 34.9445 33.7824 34.9309 33.5598M38.6171 45.6117C38.3451 45.1944 37.3725 43.5393 37.6242 42.3709V42.2944C37.6355 42.1555 37.6752 42.0206 37.7408 41.8984C37.8064 41.7762 37.8965 41.6694 38.005 41.5851C38.2363 41.3834 38.5083 41.2513 38.8075 41.2096C38.9543 41.1837 39.105 41.1942 39.2471 41.2402C39.3891 41.2862 39.5182 41.3663 39.6237 41.4738C39.6713 41.5017 39.7189 41.5434 39.7597 41.5851C39.9045 41.7046 40.0087 41.8677 40.0575 42.0512C40.1064 42.2348 40.0973 42.4294 40.0317 42.6074C39.9942 42.7064 39.9304 42.7926 39.8475 42.8565C39.7646 42.9204 39.6659 42.9594 39.5625 42.969C39.4605 42.969 39.3584 42.9551 39.2632 42.9273L38.9504 42.7882L38.998 43.122C39.077 43.6906 39.2919 44.2304 39.6237 44.6937C39.8141 44.958 40.0522 45.1805 40.3174 45.3404C40.6575 45.5491 41.0451 45.6603 41.4464 45.6534C41.4668 45.8898 41.4668 46.1263 41.4464 46.3627C41.3988 46.9678 41.1743 47.545 40.7867 48.0039C40.0129 47.2554 39.2924 46.4513 38.6307 45.5978M45.2958 51.495C43.7642 50.5549 42.3288 49.4599 41.0111 48.2265C41.2355 47.9622 41.4192 47.6701 41.5348 47.3502L41.6164 47.1138C42.0585 47.1138 43.3371 47.4893 45.2142 50.8969C45.2142 50.8969 46.6696 47.9205 49.1521 46.9817L49.2201 47.0929C49.3493 47.2737 49.4853 47.4476 49.6281 47.6145C48.3287 49.0703 46.8732 50.372 45.289 51.495H45.2958ZM52.6954 43.4975L52.6478 43.581C51.8247 44.9237 50.8846 46.1876 49.839 47.3572C49.3267 46.8135 48.9978 46.1166 48.9004 45.3683C49.2813 45.3335 49.6485 45.2153 49.9886 45.0205C50.2825 44.8334 50.5337 44.5837 50.725 44.2885C50.9162 43.9933 51.0432 43.6595 51.0972 43.3098V43.1985L51.0156 43.129C50.8737 43.0366 50.7569 42.9092 50.676 42.7585C50.5951 42.6077 50.5527 42.4386 50.5527 42.2666C50.5527 42.0947 50.5951 41.9255 50.676 41.7748C50.7569 41.6241 50.8737 41.4966 51.0156 41.4043C51.1034 41.3141 51.2078 41.2425 51.3228 41.1937C51.4377 41.1448 51.561 41.1197 51.6855 41.1197C51.81 41.1197 51.9332 41.1448 52.0482 41.1937C52.1631 41.2425 52.2675 41.3141 52.3554 41.4043C52.6281 41.6573 52.8078 41.9981 52.8647 42.3701C52.9217 42.7421 52.8523 43.1228 52.6682 43.4489M54.7426 33.8936L54.5385 33.991C54.4025 33.8519 54.0285 33.3234 54.0285 33.3234C54.2869 33.1773 54.5181 32.9826 54.7222 32.767C54.7222 32.7044 55.0622 33.1704 55.0622 33.3721C55.0554 33.5807 55.0282 33.6711 54.7426 33.8936ZM54.8242 28.358C54.9126 29.4985 54.8242 31.7865 53.1783 33.226C54.2785 34.8629 54.8341 36.8185 54.763 38.8034C54.3716 40.06 53.8637 41.2756 53.2463 42.4335V42.3362C53.1749 41.8714 52.952 41.445 52.6138 41.1261C53.0534 40.6056 53.3752 39.9922 53.5562 39.3299C53.7373 38.6675 53.7731 37.9724 53.6612 37.2943C53.6612 37.1204 53.6136 36.9466 53.5796 36.7797C53.5266 36.5018 53.4561 36.2277 53.3687 35.9591C53.264 35.656 53.1247 35.3666 52.9539 35.0967C52.8195 34.8691 52.6399 34.6729 52.4267 34.5207C52.2135 34.3686 51.9714 34.2639 51.7161 34.2135C51.5801 34.1927 51.444 34.2135 51.3216 34.2761C51.2604 34.3109 51.206 34.3387 51.2264 34.4082C51.2468 34.4778 51.3284 34.5543 51.3624 34.6308C51.4304 34.756 51.4644 34.8951 51.478 35.0411C51.4802 35.1595 51.459 35.2772 51.4158 35.3871C51.3726 35.4971 51.3082 35.597 51.2264 35.6809C51.0903 35.8365 50.9037 35.9364 50.701 35.9619C50.4984 35.9875 50.2936 35.9371 50.1246 35.82C49.9672 35.7092 49.8352 35.5647 49.7377 35.3966C49.6402 35.2285 49.5796 35.0408 49.5601 34.8464C49.6009 34.2344 49.8594 33.6641 50.281 33.2399L50.4171 33.1008L50.281 32.9617C50.281 32.9617 49.3085 31.9881 49.3765 31.0841C49.3975 30.9041 49.4588 30.7314 49.5555 30.5795C49.6522 30.4276 49.7817 30.3004 49.9342 30.2078C50.0802 30.0859 50.2575 30.0096 50.4448 29.9882C50.6321 29.9667 50.8215 30.001 50.9903 30.0869C51.159 30.1728 51.2999 30.3067 51.3961 30.4725C51.4923 30.6382 51.5396 30.8289 51.5324 31.0215C51.5214 31.1457 51.4758 31.2641 51.4011 31.3626C51.3264 31.4612 51.2256 31.5359 51.1108 31.5778C51.0496 31.6196 50.9884 31.6543 50.9203 31.6822L50.9544 31.8073C51.4453 31.7723 51.9253 31.6425 52.369 31.4248C52.675 31.2649 52.9403 31.0145 53.1171 30.7155C53.2667 30.4512 53.3551 30.1592 53.3755 29.8462C53.3824 29.5889 53.3619 29.3316 53.3075 29.0812C53.498 29.0534 53.6816 28.9978 53.8584 28.9213C54.2259 28.7486 54.5459 28.4859 54.7902 28.1563L54.8582 28.3441M54.6338 27.7321C54.5249 27.906 54.3889 28.0659 54.2461 28.205C53.9672 28.4832 53.6068 28.6501 53.2259 28.7057C53.1851 28.5666 53.1375 28.4345 53.0899 28.3163C53.3722 28.271 53.6426 28.1675 53.8846 28.0121C54.1266 27.8567 54.3352 27.6526 54.4977 27.4122L54.6338 27.7321ZM54.3141 27.0228C54.2257 27.1897 54.1101 27.3427 53.9809 27.4748C53.7088 27.7599 53.3347 27.9407 52.9403 27.9755C52.8791 27.8364 52.8042 27.7112 52.7362 27.5861C52.9052 27.5888 53.0727 27.554 53.2272 27.4842C53.3818 27.4144 53.5197 27.3111 53.6315 27.1816C53.7433 27.0521 53.8264 26.8993 53.8749 26.7338C53.9235 26.5684 53.9364 26.3941 53.9128 26.223L54.3141 27.0228ZM53.2735 25.159L53.4776 25.4928C53.5823 25.6956 53.6336 25.9228 53.6265 26.152C53.6193 26.3813 53.5539 26.6047 53.4368 26.8002C53.3959 26.8628 53.3415 26.9184 53.2871 26.9602C53.1529 27.0693 52.9966 27.1464 52.8295 27.1861C52.6625 27.2258 52.4889 27.227 52.3214 27.1897C52.1696 27.1558 52.0291 27.0822 51.9134 26.9762C51.7978 26.8701 51.711 26.7352 51.6617 26.5846C51.6071 26.3464 51.6335 26.0962 51.7365 25.8753L51.8997 25.7084C51.8997 25.7084 50.7503 23.942 49.4989 23.4135C49.5465 22.7876 49.7914 22.2034 50.1926 21.7375L50.7231 22.1965C50.9135 22.3703 51.0904 22.5303 51.2672 22.7111C52.0113 23.4492 52.6832 24.2598 53.2735 25.1312M125.889 41.2374C124.736 42.784 123.137 43.9222 121.319 44.492L120.979 44.5963L120.768 43.887L121.108 43.7827C122.822 43.2485 124.322 42.1632 125.386 40.688L124.4 39.6101C123.427 40.7438 122.237 41.6613 120.903 42.3061C119.569 42.9508 118.121 43.309 116.646 43.3585C115.079 43.4095 113.534 42.9718 112.216 42.1036C110.898 41.2353 109.869 39.9776 109.267 38.4974C108.864 37.5166 108.657 36.4634 108.657 35.3996C108.658 34.3358 108.867 33.2828 109.271 32.3026C109.675 31.3224 110.267 30.4346 111.011 29.6916C111.756 28.9485 112.638 28.365 113.606 27.9755C114.572 27.5861 115.606 27.4052 116.64 27.44C121.21 27.44 124.168 31.1814 124.168 31.1814L127.78 27.3357C123.679 22.5442 117.326 20.7291 112.008 22.9406L111.899 22.9823L111.811 22.7598L111.92 22.718C117.326 20.4648 123.781 22.3008 127.943 27.1618L128.637 26.4177C126.12 23.2753 122.498 21.268 118.549 20.8271C114.6 20.3863 110.64 21.5472 107.519 24.0602L107.24 24.2897L106.798 23.7125L107.077 23.49C108.715 22.1568 110.598 21.1721 112.614 20.5941C114.63 20.016 116.739 19.8562 118.816 20.1241C122.849 20.6215 126.542 22.6825 129.133 25.8822L130.323 24.6235C128.638 22.5305 126.511 20.8541 124.103 19.7197C121.694 18.5853 119.066 18.0222 116.415 18.0725C106.152 18.0725 98.399 26.0352 98.399 35.4027C98.399 44.7702 106.152 52.7329 116.415 52.7329C119.08 52.7818 121.721 52.2186 124.145 51.0848C126.569 49.951 128.712 48.2756 130.419 46.1819L125.889 41.2374ZM116.694 24.088H117.292V25.312H116.694C114.055 25.3815 111.546 26.5081 109.702 28.4553C107.856 30.4018 106.823 33.0072 106.823 35.7191C106.823 38.4311 107.856 41.0365 109.702 42.9829C111.546 44.9301 114.055 46.0498 116.694 46.1193H117.292V47.3711H116.694C113.739 47.2942 110.931 46.0358 108.873 43.8661C106.805 41.6907 105.649 38.7768 105.649 35.7435C105.649 32.7101 106.805 29.7963 108.873 27.6208C110.931 25.4511 113.739 24.1928 116.694 24.1158M127.712 45.4378C125.537 47.7806 122.669 49.3269 119.549 49.8384C116.43 50.3498 113.233 49.7981 110.451 48.2682L109.825 49.6034L108.975 49.1862C106.915 48.184 105.114 46.7029 103.714 44.8614C102.315 43.0199 101.356 40.869 100.915 38.5808C100.471 36.292 100.553 33.9289 101.155 31.678C101.757 29.4272 102.862 27.3502 104.384 25.611L105.016 24.9017L106.431 26.2091L105.792 26.9184C103.562 29.4539 102.394 32.7824 102.537 36.1891C102.681 39.5958 104.125 42.809 106.56 45.1388L107.057 44.652L107.308 44.9162C108.588 46.2972 110.128 47.3978 111.836 48.151C113.544 48.9042 115.385 49.2942 117.245 49.2975C119.107 49.2984 120.949 48.9103 122.659 48.1569C124.369 47.4035 125.91 46.3007 127.188 44.9162L127.433 44.652L127.943 45.1596L127.712 45.4378Z" fill="#D00000"/>
</svg>
