<svg width="156" height="40" viewBox="0 0 156 40" fill="none" xmlns="http://www.w3.org/2000/svg">
<path d="M117.232 13.1418V15.3947C116.313 15.5062 115.377 15.4584 114.478 15.2406C114.899 15.7026 115.225 16.2453 115.438 16.8373C115.651 17.4293 115.747 18.0587 115.72 18.6889C115.596 21.8822 112.031 24.3847 111.688 28.3484C111.532 30.3834 111.989 32.4131 112.997 34.1718L111.236 34.3153V13.1472H103.618V37.4713H111.246V35.2504C112.225 35.0228 113.237 34.9867 114.229 35.1441C113.705 34.5108 113.321 33.7699 113.101 32.9715C112.882 32.1731 112.832 31.3359 112.956 30.5163C113.579 26.4038 116.489 25.1233 116.645 20.5007C116.744 17.5678 115.705 16.0801 115.705 16.0801C115.705 16.0801 116.562 16.1598 117.243 16.1492V37.4873H124.689V13.1684L117.238 13.1418H117.232ZM74.3323 15.485C74.2736 15.33 74.1821 15.1901 74.0644 15.0753C73.9468 14.9605 73.8058 14.8736 73.6516 14.8208C73.4819 14.7565 73.2961 14.7513 73.1232 14.8061C72.9503 14.8608 72.7999 14.9725 72.6955 15.1237C72.6465 15.1904 72.6131 15.2677 72.5978 15.3497C72.5825 15.4316 72.5857 15.5161 72.6072 15.5966C72.6387 15.7129 72.7076 15.815 72.8028 15.8864C72.8981 15.9577 73.014 15.9941 73.132 15.9898C73.2151 15.9685 73.2983 15.9685 73.3814 15.9898C73.4853 16.0323 73.4438 16.1492 73.3814 16.2023C73.3191 16.2554 73.1268 16.2023 73.0177 16.1757C72.2684 15.7585 71.5823 15.2323 70.9808 14.6136L70.5547 14.2098C70.3209 13.9973 70.087 13.7847 69.8428 13.5882C69.5986 13.3863 69.3492 13.195 69.0841 13.0196C68.8243 12.8496 68.5541 12.7008 68.2683 12.5786L68.154 12.5255C67.8671 12.4111 67.5665 12.336 67.2603 12.3023C66.8771 12.2644 66.4907 12.2805 66.1119 12.3502C66.0599 12.3502 65.9092 12.4033 65.9872 12.4777C66.0028 12.4989 66.0236 12.5096 66.0495 12.5149C66.2574 12.5839 66.4756 12.6477 66.6835 12.7327C67.567 13.0733 68.3568 13.6275 68.9854 14.348C69.1933 14.5817 69.3855 14.8261 69.557 15.0918C69.7856 15.4372 69.9415 15.8197 70.1805 16.1545C70.2781 16.3151 70.4133 16.4482 70.5739 16.5419C70.7345 16.6356 70.9154 16.6869 71.1003 16.6911C71.3185 16.6911 71.516 16.5955 71.7342 16.5902C71.9265 16.5902 72.1135 16.622 72.2954 16.6805C72.6488 16.8293 73.0229 16.9196 73.4022 16.9355C73.6544 16.924 73.8942 16.8199 74.0774 16.6422C74.2607 16.4646 74.3751 16.2254 74.3999 15.9685C74.4207 15.7985 74.3999 15.6231 74.3375 15.4637M47.6653 33.327C48.2732 33.056 49.0319 32.7425 49.6606 33.1304C49.8165 33.2313 49.9464 32.9869 49.8061 32.8807C49.3025 32.5216 48.7182 32.2986 48.1077 32.2327C47.4971 32.1667 46.8801 32.2599 46.3143 32.5034C46.3105 32.3189 46.2416 32.142 46.1204 32.0053C45.9991 31.8686 45.8336 31.7813 45.6544 31.7596C45.4803 31.7428 45.306 31.7889 45.1617 31.8899C45.0175 31.9908 44.9123 32.1402 44.8645 32.3122C44.8281 32.429 44.8229 32.5459 44.8437 32.6628C44.8697 32.9179 44.9684 33.1516 45.1295 33.3429C45.327 33.5501 45.5816 33.683 45.857 33.7255C46.4857 33.7786 47.1145 33.6405 47.6653 33.327ZM47.7224 27.95C47.6965 28.2103 47.6393 28.4653 47.5562 28.7097C47.4626 28.9542 47.4367 29.2251 47.4938 29.4802C47.5361 29.6049 47.6114 29.7152 47.7114 29.7988C47.8114 29.8823 47.9322 29.9357 48.0602 29.9531C48.0314 30.076 48.0287 30.2038 48.0524 30.3278C48.0761 30.4519 48.1256 30.5693 48.1975 30.6721C48.2695 30.7749 48.3622 30.8607 48.4694 30.9236C48.5766 30.9866 48.6958 31.0252 48.8189 31.037C48.7774 31.1454 48.7635 31.2628 48.7783 31.3782C48.7931 31.4936 48.8362 31.6034 48.9036 31.6972C48.971 31.791 49.0605 31.8659 49.1638 31.9149C49.2671 31.9639 49.3808 31.9854 49.4944 31.9774C49.4944 32.3547 49.962 32.6894 50.2218 32.8807L50.8973 33.3907L51.2299 33.6405C51.339 33.7414 51.4481 33.8424 51.5417 33.9593C51.6092 34.0124 51.7807 34.1187 51.7963 33.9593C51.8043 33.9207 51.8043 33.8809 51.7963 33.8424C51.7057 33.5898 51.5962 33.3446 51.4689 33.1091C51.3754 32.9232 51.2767 32.7478 51.1779 32.5672C51.074 32.3865 50.9545 32.2165 50.835 32.0252L50.6531 31.7808C50.6531 31.7489 50.4713 31.5842 50.4764 31.5524C50.5071 31.3493 50.4599 31.142 50.3447 30.9738C50.2295 30.8055 50.0551 30.6891 49.8581 30.6491C49.9064 30.5318 49.9301 30.4054 49.9275 30.2781C49.925 30.1509 49.8964 30.0256 49.8435 29.9104C49.7905 29.7952 49.7146 29.6926 49.6204 29.6093C49.5262 29.5261 49.416 29.464 49.2969 29.427C49.3697 29.2411 49.3697 29.0392 49.2969 28.8585C49.2138 28.6672 49.0371 28.5291 48.9643 28.3166C48.8916 28.0987 48.9903 27.9712 49.1202 27.8384C49.2709 27.7055 49.3956 27.5515 49.4944 27.3761C49.5879 27.1636 49.6139 26.9192 49.5671 26.6854C49.4112 26.2444 49.167 25.8406 48.85 25.5005C48.7238 25.3473 48.6297 25.1692 48.5733 24.9773C48.517 24.7854 48.4998 24.5837 48.5227 24.3847C48.5892 24.4746 48.6736 24.549 48.7704 24.603C48.8671 24.6571 48.974 24.6895 49.0839 24.6982C49.2556 24.7057 49.4245 24.652 49.5619 24.5464C49.6993 24.4408 49.7966 24.2898 49.8373 24.1191C49.8888 23.9396 49.8856 23.7483 49.8281 23.5708C49.7705 23.3933 49.6613 23.2379 49.5151 23.1255C49.3647 23.0142 49.1898 22.9424 49.0059 22.9165C48.8219 22.8905 48.6346 22.9112 48.4603 22.9767C47.5925 23.3327 47.3795 24.3475 47.4055 25.2083C47.4315 26.0744 47.79 27.0361 47.7172 27.9712M55.3765 36.7115C53.8289 35.6853 52.1685 34.8489 50.4297 34.2196C49.4704 33.8071 48.4162 33.6818 47.3899 33.8583C46.9348 33.9446 46.5118 34.1573 46.1671 34.4731C45.8225 34.789 45.5696 35.1958 45.4361 35.6489C45.3322 36.0899 45.3737 36.5522 45.5608 36.9666C45.7531 37.3651 46.0441 37.7051 46.4026 37.9549C46.7901 38.2461 47.2426 38.4337 47.7191 38.5006C48.1955 38.5674 48.6808 38.5113 49.1306 38.3374C49.5259 38.1766 49.8591 37.8882 50.0795 37.5161C50.2999 37.144 50.3955 36.7086 50.3517 36.2759C50.2998 35.8508 50.1023 35.4629 49.7802 35.192C49.5469 35.0062 49.2637 34.8976 48.9685 34.8805C48.6733 34.8634 48.3801 34.9387 48.1278 35.0963C47.9667 35.2026 47.8264 35.3513 47.7276 35.5214C47.6149 35.715 47.5607 35.9383 47.5718 36.1633C47.5829 36.3883 47.6588 36.6049 47.79 36.7859C47.9182 36.9352 48.0895 37.0388 48.2792 37.0818C48.4688 37.1248 48.667 37.1049 48.8448 37.025C49.0185 36.9293 49.1482 36.7672 49.2056 36.5742C49.2631 36.3811 49.2436 36.1727 49.1514 35.9943C49.3241 36.0942 49.4552 36.2551 49.5203 36.4468C49.5853 36.6385 49.5798 36.8478 49.5048 37.0357C49.3909 37.2775 49.1968 37.4701 48.9569 37.5791C48.7171 37.6881 48.4471 37.7064 48.1953 37.6307C47.8267 37.5128 47.5082 37.2703 47.2921 36.9431C47.0759 36.6158 46.9748 36.2232 47.0054 35.8295C47.0261 35.5639 47.1041 35.3142 47.2288 35.0857C47.364 34.8697 47.5421 34.6852 47.7516 34.5443C47.9611 34.4033 48.1973 34.309 48.4447 34.2674C48.9488 34.2042 49.4569 34.3474 49.8581 34.6659C50.305 34.9741 50.6895 35.3673 51.1312 35.6861C51.5663 35.9857 52.0529 36.1985 52.5653 36.3131C53.2928 36.4193 54.0099 36.5628 54.7166 36.7541C54.9244 36.8284 55.1323 36.9188 55.3297 37.025C55.5116 37.1366 55.6883 37.2588 55.8545 37.3916C55.9896 37.482 56.1403 37.2748 56.026 37.1632C55.8265 36.9781 55.6026 36.8225 55.3609 36.7009" fill="black"/>
<path d="M72.3786 31.1698L72.3006 31.1167C72.199 31.0753 72.0903 31.0549 71.9809 31.0565C71.8715 31.0582 71.7635 31.0819 71.6631 31.1264C71.5627 31.1708 71.4719 31.235 71.3958 31.3154C71.3197 31.3958 71.2599 31.4908 71.2198 31.5949C71.0287 31.9874 70.7895 32.3534 70.5079 32.6841C69.9294 33.3467 69.1688 33.8152 68.3255 34.0283C67.8267 34.1612 67.3122 34.2356 66.7926 34.2515C66.2574 34.2728 65.7274 34.2196 65.2078 34.0921C64.7053 33.9671 64.2498 33.6936 63.8983 33.3057C63.5607 32.9128 63.3552 32.4194 63.3122 31.8981C63.2692 31.3769 63.3908 30.8553 63.6593 30.41C63.7769 30.2 63.9377 30.0185 64.1306 29.8781C64.3235 29.7378 64.5438 29.6419 64.7765 29.5971C65.0259 29.5525 65.2826 29.6017 65.4994 29.7355C65.7162 29.8692 65.8783 30.0786 65.956 30.325C65.9921 30.4565 65.9938 30.5954 65.961 30.7278C65.9281 30.8601 65.8619 30.9814 65.769 31.0795C65.6932 31.1518 65.6024 31.2056 65.5034 31.2369C65.4044 31.2682 65.2998 31.2761 65.1974 31.2601C65.2188 31.178 65.2232 31.0921 65.2103 31.0081C65.1974 30.9241 65.1675 30.8438 65.1225 30.7722C65.0775 30.7007 65.0184 30.6396 64.949 30.5928C64.8795 30.546 64.8013 30.5145 64.7193 30.5003C64.5564 30.4888 64.3942 30.5326 64.258 30.6248C64.1219 30.717 64.0192 30.8525 63.9659 31.0104C63.9295 31.1167 63.9139 31.2229 63.9295 31.3398C63.9535 31.5619 64.0384 31.7726 64.1745 31.9475C64.3106 32.1223 64.4922 32.2543 64.6985 32.3281C64.9045 32.404 65.1253 32.4281 65.3423 32.3986C65.5594 32.369 65.7663 32.2865 65.9456 32.1581C66.1337 32.0223 66.2925 31.8485 66.4123 31.6474C66.532 31.4464 66.6102 31.2223 66.6419 30.9892C66.69 30.6073 66.6406 30.2192 66.4985 29.8626C66.3565 29.506 66.1266 29.193 65.8313 28.9542C65.6338 28.8095 65.4091 28.7082 65.1714 28.6566C64.6829 28.5663 64.1789 28.6566 63.7476 28.917C63.3787 29.1401 63.0565 29.443 62.8123 29.8043C62.6389 30.0567 62.4893 30.3253 62.3654 30.6066C62.3031 30.7447 62.2459 30.8935 62.1888 31.0423C62.1479 31.188 62.0957 31.3301 62.0329 31.4673C61.9965 31.3823 61.9809 31.2814 61.9549 31.1911C61.8781 30.9192 61.7607 30.6611 61.6068 30.4259C61.2857 29.9184 60.822 29.5221 60.2765 29.2889C60.0102 29.1462 59.708 29.0891 59.4094 29.1251C59.1108 29.1611 58.8298 29.2886 58.6033 29.4908C58.418 29.6794 58.3133 29.9354 58.3124 30.2028C58.3383 30.4685 58.4579 30.7129 58.6501 30.8882C58.8906 31.0864 59.1441 31.2674 59.4088 31.4302C59.5335 31.5152 59.653 31.6214 59.7517 31.7489C59.7985 31.8021 59.8401 31.8712 59.8712 31.9455C59.9128 32.0412 59.9232 32.1421 59.918 32.2484C59.914 32.2694 59.9152 32.2912 59.9215 32.3116C59.9279 32.332 59.9392 32.3505 59.9544 32.3653C59.97 32.3812 59.9907 32.3865 60.0063 32.3865C60.0271 32.3865 60.0479 32.3812 60.0583 32.3653C60.2278 32.142 60.3053 31.8598 60.2742 31.5789C60.2432 31.298 60.106 31.0406 59.892 30.8616C59.7881 30.7766 59.6582 30.7182 59.5491 30.6491C59.4399 30.5694 59.3204 30.4472 59.3464 30.309C59.3724 30.1656 59.5231 30.139 59.6322 30.1709C59.8764 30.2772 60.0687 30.4738 60.1882 30.7129C60.3129 30.9254 60.4116 31.1485 60.4896 31.3823C60.6299 31.8712 60.8014 32.3547 61.0144 32.8169C61.2888 33.2476 61.6483 33.6147 62.0698 33.8948C62.4913 34.1748 62.9655 34.3615 63.4618 34.4428C64.9502 34.7664 66.4837 34.8114 67.9877 34.5756C66.8802 35.068 65.6758 35.2899 64.4699 35.2238C63.0451 35.1237 61.6676 34.6597 60.4636 33.8743C59.239 33.0939 58.1975 32.0471 57.4134 30.8085C56.5566 29.4263 55.9887 27.8778 55.7454 26.2603C55.4856 24.6345 55.522 22.9714 55.839 21.3562C56.1195 19.7512 56.7598 18.2345 57.7096 16.9249C58.6128 15.7001 59.8628 14.7892 61.2898 14.3161C62.0142 14.0765 62.7782 13.9877 63.5366 14.0549C64.2951 14.1222 65.0328 14.3441 65.706 14.7076C66.3792 15.0711 66.9744 15.5689 67.4565 16.1714C67.9385 16.774 68.2976 17.4692 68.5126 18.216C68.6009 18.4976 68.6684 18.7899 68.7048 19.0821C68.4717 19.0785 68.244 19.1543 68.0577 19.2977C67.8714 19.441 67.7371 19.6437 67.676 19.8738C67.5996 20.1518 67.5996 20.4459 67.676 20.7239C67.4438 21.0973 67.1439 21.4219 66.7926 21.6803C66.1875 22.1401 65.4292 22.3368 64.6829 22.2275C64.3523 22.1694 64.0376 22.0398 63.7598 21.8474C63.482 21.655 63.2476 21.4042 63.0721 21.1118C62.9014 20.8186 62.8062 20.486 62.7953 20.145C62.7844 19.804 62.8582 19.4657 63.0098 19.1618C63.1812 18.7952 63.4826 18.5136 63.8515 18.3648C64.0159 18.2954 64.1992 18.2895 64.3675 18.3482C64.5357 18.4069 64.6774 18.5261 64.7661 18.6836C64.624 18.6045 64.4612 18.5732 64.3007 18.5942C64.1403 18.6152 63.9904 18.6874 63.8723 18.8005C63.7462 18.9345 63.6647 19.1058 63.6395 19.2899C63.6143 19.4741 63.6467 19.6617 63.732 19.8259C63.8248 19.9902 63.958 20.1267 64.1185 20.2218C64.279 20.3169 64.4611 20.3673 64.6466 20.3679C64.8268 20.3718 65.0057 20.3364 65.1715 20.264C65.3372 20.1917 65.486 20.084 65.6079 19.9482C65.8677 19.6825 66.0184 19.3265 66.034 18.9493C66.034 18.5561 65.9093 18.1735 65.6702 17.8653C65.4015 17.539 65.0455 17.2999 64.6459 17.1772C64.2463 17.0546 63.8204 17.0536 63.4203 17.1746C62.6796 17.3873 62.0517 17.8918 61.6743 18.5773C61.2873 19.2555 61.1596 20.0561 61.3158 20.8248C61.4829 21.6115 61.8972 22.3206 62.4953 22.8439C63.1392 23.3952 63.9427 23.7145 64.7817 23.7525C65.6118 23.7742 66.4331 23.5744 67.1648 23.1729C67.8964 22.7713 68.5131 22.1818 68.9542 21.4624L69.1569 21.133C69.3245 21.1465 69.4915 21.0997 69.6291 21.0008C69.7666 20.9019 69.8661 20.757 69.9103 20.5911C69.9621 20.3919 69.953 20.1812 69.8843 19.9874C69.8156 19.7937 69.6905 19.6261 69.5258 19.5071C69.7441 17.9132 69.3699 16.2926 68.471 14.9696C67.3226 13.3756 65.6235 12.3023 63.7216 11.9676C61.5756 11.6222 59.3776 11.9995 57.455 13.0409C55.7713 13.9132 54.3104 15.1759 53.1889 16.7283C50.9226 19.7636 49.8878 23.5753 50.2998 27.3708C50.5989 29.7076 51.5346 31.9113 53.0002 33.7302C54.4657 35.5491 56.4019 36.9099 58.5878 37.6573C61.2093 38.5681 64.0607 38.506 66.6419 37.482C68.594 36.7294 70.3329 35.4935 71.703 33.8849C71.9317 33.6139 72.1447 33.3429 72.3474 33.0348C72.5916 32.7319 72.7319 32.3493 72.7475 31.9562C72.7482 31.8043 72.7154 31.6543 72.6515 31.5172C72.5876 31.3802 72.4943 31.2596 72.3786 31.1645" fill="black"/>
<path d="M64.4803 26.611C64.4543 26.4038 64.3608 26.2125 64.2101 26.0744C64.0399 25.9298 63.832 25.8397 63.6121 25.8151C63.3922 25.7906 63.17 25.8327 62.9734 25.9362C62.5463 26.1673 62.201 26.5297 61.9861 26.9723C61.7433 27.4363 61.6183 27.9551 61.6224 28.4813C61.5095 28.4552 61.3917 28.4628 61.2829 28.5033C61.1742 28.5438 61.0792 28.6155 61.0092 28.7097C60.9848 28.7508 60.9698 28.797 60.9653 28.8449C60.9608 28.8927 60.9669 28.941 60.9832 28.986C61.0004 29.0317 61.0276 29.0727 61.0627 29.1058C61.0979 29.139 61.14 29.1635 61.1859 29.1773H61.4925C61.5236 29.2305 61.5444 29.2889 61.5444 29.3527C61.5444 29.427 61.586 29.5014 61.6068 29.5758L61.7107 29.9903C61.7523 30.1284 61.7783 30.4684 61.9186 30.5641C61.9383 30.5757 61.9607 30.5819 61.9835 30.5819C62.0063 30.5819 62.0287 30.5757 62.0485 30.5641C62.0699 30.5489 62.0877 30.5289 62.1004 30.5056C62.1787 30.2679 62.231 30.022 62.2563 29.7724C62.2761 29.5453 62.2656 29.3165 62.2251 29.0923C62.3276 29.1166 62.4353 29.1013 62.5273 29.0493C62.6194 28.9973 62.6895 28.9123 62.724 28.8107C62.7467 28.7293 62.7461 28.643 62.7221 28.5619C62.6981 28.4809 62.6519 28.4086 62.5889 28.3538C62.5476 28.3181 62.4999 28.2911 62.4486 28.2741C62.4486 27.9021 62.5473 27.5355 62.724 27.2114C62.7967 27.052 62.9214 26.9139 63.0877 26.8395C63.2228 26.797 63.3995 26.866 63.3735 27.0414C63.3475 27.2167 63.1864 27.3442 63.1137 27.5036C63.0586 27.6383 63.042 27.7862 63.0659 27.9301C63.0898 28.0741 63.1532 28.2081 63.2488 28.3166C63.3423 28.4228 63.4618 28.4919 63.5969 28.5291C63.7536 28.5634 63.9169 28.5446 64.0622 28.4756C64.2075 28.4066 64.3269 28.2911 64.4023 28.1465C64.4112 28.1285 64.4148 28.1082 64.4127 28.0881C64.4094 28.0673 64.3994 28.0482 64.3844 28.0338C64.3694 28.0194 64.3501 28.0105 64.3296 28.0084C64.3088 28.0031 64.288 28.0084 64.2724 28.019L64.2205 28.0509C64.1899 28.0793 64.1501 28.095 64.1087 28.095C64.0675 28.095 64.0276 28.0793 63.997 28.0509C63.9555 28.0132 63.9253 27.9643 63.9096 27.9098C63.894 27.8553 63.8937 27.7974 63.9087 27.7427C63.9503 27.4983 64.1581 27.323 64.2984 27.1317C64.3656 27.0457 64.4153 26.947 64.4448 26.8412C64.4742 26.7353 64.4827 26.6246 64.4699 26.5154M16.2177 18.4604C16.0618 20.3307 14.8667 21.8025 13.2714 21.8237C12.8977 21.8541 12.5245 21.7576 12.2098 21.5492C11.8951 21.3407 11.6564 21.032 11.5307 20.6708C11.4268 20.4582 11.3852 20.2085 11.4268 19.9694C11.458 19.9694 11.5047 20.1129 11.5411 20.1554C11.6563 20.3117 11.808 20.4359 11.9823 20.5166C12.1566 20.5974 12.3479 20.6321 12.5388 20.6176C12.8844 20.6408 13.2256 20.5284 13.493 20.3033C13.7605 20.0783 13.9339 19.7575 13.9781 19.4062C14.0095 19.1806 13.9944 18.9508 13.9336 18.7316C13.8729 18.5124 13.7679 18.3086 13.6255 18.1334C13.483 17.9582 13.3062 17.8155 13.1065 17.7144C12.9068 17.6133 12.6887 17.5561 12.466 17.5465C11.8288 17.5322 11.2103 17.7674 10.737 18.2039C10.2637 18.6405 9.9714 19.2454 9.91988 19.895C9.58212 21.9566 11.5047 23.6887 11.5047 23.6887L9.03132 26.1062C9.03132 26.1062 8.99495 20.7451 9.26515 18.3967C9.53536 16.0429 10.9072 14.2842 12.7882 14.2842C15.0538 14.2842 16.3892 16.3989 16.2177 18.4392M21.5698 18.4392C21.4035 13.7794 16.0826 11.787 12.8298 11.787C9.48859 11.787 3.2739 13.1046 2.74388 19.9163C2.55682 23.8694 2.66594 36.1643 2.66594 36.1643C2.66594 36.1643 2.47368 36.3928 1.83454 36.3928H0.296459C0.062629 36.4353 -0.00492198 36.7328 0.000274249 36.9666C0.000274249 37.3013 0.0782177 37.5085 0.296459 37.5085C0.748531 37.5404 4.39109 37.3651 5.93956 37.3651C7.49324 37.3651 10.902 37.5085 11.3281 37.5085C11.6294 37.5085 11.6762 37.2429 11.6762 36.9666C11.6762 36.6903 11.6762 36.3821 11.3488 36.3821C11.0215 36.3821 9.02612 36.4246 9.02612 36.1696V28.476C9.02612 28.1572 12.809 24.2413 13.0532 24.305C13.9158 24.6238 14.8355 24.7832 15.7552 24.7567C17.418 24.7567 21.7517 23.6356 21.5542 18.4232M137.264 28.8479H136.095C136.025 28.8479 135.957 28.8619 135.893 28.8892C135.829 28.9165 135.771 28.9566 135.722 29.007C135.673 29.0573 135.634 29.1171 135.608 29.1829C135.582 29.2486 135.569 29.3189 135.57 29.3899V30.58H134.432C134.363 30.58 134.294 30.5941 134.23 30.6214C134.166 30.6487 134.108 30.6887 134.059 30.7391C134.01 30.7895 133.972 30.8493 133.946 30.915C133.919 30.9807 133.906 31.0511 133.907 31.122V35.7977H130.53V29.3845C130.53 29.3134 130.516 29.2429 130.489 29.1771C130.463 29.1114 130.424 29.0516 130.374 29.0013C130.325 28.951 130.267 28.9111 130.202 28.8838C130.138 28.8566 130.069 28.8426 130 28.8426H129.355C129.285 28.8419 129.216 28.8554 129.152 28.8824C129.087 28.9094 129.028 28.9493 128.979 28.9997C128.93 29.0502 128.891 29.1102 128.864 29.1763C128.838 29.2424 128.825 29.3132 128.825 29.3845V35.2504C128.825 35.3941 128.881 35.532 128.98 35.6336C129.08 35.7353 129.215 35.7924 129.355 35.7924H130.524V36.9666C130.524 37.1094 130.579 37.2465 130.678 37.3479C130.776 37.4494 130.91 37.5071 131.049 37.5085H136.739C136.808 37.5085 136.877 37.4945 136.941 37.4672C137.005 37.4399 137.063 37.3999 137.112 37.3495C137.161 37.2991 137.199 37.2393 137.225 37.1736C137.251 37.1079 137.265 37.0375 137.264 36.9666V35.7924H138.428C138.497 35.7924 138.566 35.7783 138.63 35.751C138.694 35.7237 138.752 35.6837 138.801 35.6333C138.85 35.5829 138.888 35.5231 138.914 35.4574C138.94 35.3917 138.953 35.3213 138.953 35.2504V30.5907H140.127C140.196 30.5907 140.265 30.5766 140.329 30.5493C140.393 30.522 140.451 30.482 140.5 30.4316C140.549 30.3812 140.587 30.3214 140.613 30.2557C140.639 30.19 140.653 30.1196 140.652 30.0487V28.8479H137.264Z" fill="black"/>
<path d="M153.7 16.7177C153.769 16.7177 153.838 16.7036 153.902 16.6763C153.966 16.649 154.024 16.609 154.072 16.5586C154.121 16.5082 154.16 16.4484 154.186 16.3827C154.212 16.317 154.225 16.2466 154.224 16.1757V14.9696H155.331C155.401 14.9703 155.47 14.9568 155.535 14.9298C155.599 14.9028 155.658 14.8629 155.707 14.8125C155.757 14.762 155.796 14.702 155.822 14.6359C155.849 14.5698 155.862 14.499 155.861 14.4277V13.7741C155.861 13.6304 155.805 13.4925 155.706 13.3909C155.607 13.2893 155.472 13.2322 155.331 13.2322H147.953C147.883 13.2315 147.813 13.245 147.749 13.272C147.684 13.299 147.626 13.3388 147.576 13.3893C147.527 13.4398 147.488 13.4998 147.461 13.5659C147.435 13.632 147.422 13.7028 147.423 13.7741V14.9749H144.014V13.7741C144.014 13.6304 143.958 13.4925 143.859 13.3909C143.759 13.2893 143.624 13.2322 143.484 13.2322H136.1C136.03 13.2315 135.961 13.245 135.896 13.272C135.832 13.299 135.773 13.3388 135.724 13.3893C135.674 13.4398 135.635 13.4998 135.609 13.5659C135.582 13.632 135.569 13.7028 135.57 13.7741V14.9696H134.411C134.341 14.9689 134.272 14.9824 134.208 15.0094C134.143 15.0364 134.084 15.0763 134.035 15.1268C133.985 15.1772 133.946 15.2373 133.92 15.3033C133.894 15.3694 133.88 15.4402 133.881 15.5116V16.7177H132.728C132.658 16.7177 132.59 16.7317 132.526 16.759C132.462 16.7863 132.403 16.8263 132.355 16.8767C132.306 16.9271 132.267 16.9869 132.241 17.0526C132.215 17.1184 132.202 17.1887 132.203 17.2596V23.083C132.203 23.2258 132.258 23.3629 132.356 23.4643C132.454 23.5658 132.588 23.6235 132.728 23.6249H133.886V24.8257C133.886 24.9695 133.942 25.1073 134.042 25.209C134.141 25.3106 134.276 25.3677 134.416 25.3677H137.233V26.5898C137.234 26.7326 137.291 26.8691 137.39 26.9695C137.489 27.07 137.623 27.1264 137.763 27.1264H140.657V28.8426H145.739V35.7977H144.565C144.495 35.7977 144.427 35.8117 144.363 35.839C144.299 35.8663 144.24 35.9063 144.192 35.9567C144.143 36.0071 144.104 36.0669 144.078 36.1326C144.052 36.1983 144.039 36.2687 144.04 36.3396V36.9932C144.04 37.136 144.095 37.273 144.193 37.3745C144.291 37.476 144.425 37.5337 144.565 37.5351H155.321C155.391 37.5358 155.46 37.5223 155.524 37.4953C155.589 37.4683 155.648 37.4284 155.697 37.378C155.746 37.3275 155.785 37.2675 155.812 37.2014C155.838 37.1353 155.852 37.0645 155.851 36.9932V36.3396C155.851 36.2685 155.837 36.198 155.81 36.1322C155.784 36.0665 155.745 36.0067 155.696 35.9564C155.646 35.9061 155.588 35.8662 155.524 35.8389C155.459 35.8117 155.39 35.7977 155.321 35.7977H154.178V34.6234C154.178 34.4806 154.122 34.3436 154.024 34.2421C153.926 34.1406 153.792 34.0829 153.653 34.0815H150.821V16.7442L153.7 16.7177ZM147.423 25.3836H138.979V24.1828C138.979 24.04 138.924 23.903 138.825 23.8015C138.727 23.7 138.593 23.6423 138.454 23.6409H137.311V16.707H145.749V23.083C145.749 23.2258 145.804 23.3629 145.903 23.4643C146.001 23.5658 146.134 23.6235 146.274 23.6249H147.448L147.423 25.3836ZM43.9812 20.2457C43.5346 18.4398 42.6723 16.7693 41.4662 15.3734C41.0193 14.8474 40.5413 14.3639 40.032 13.907C39.4761 13.4159 38.8875 12.965 38.2705 12.5574C37.5998 12.094 36.8944 11.6854 36.1608 11.3353C34.5812 10.6021 34.1551 9.93262 34.1551 9.93262L33.8069 10.3045C33.6895 10.4212 33.5586 10.5229 33.4172 10.6074C32.8141 11.0042 32.1857 11.3592 31.5362 11.6701C29.5463 12.6463 27.8303 14.1213 26.5478 15.9579C25.2614 17.8204 24.4814 19.9986 24.2874 22.2701C24.1679 23.694 24.2563 25.1339 24.5473 26.5313C24.8902 28.0934 25.4306 29.5918 26.1789 30.9945C27.0356 32.6168 28.0825 34.1263 29.2966 35.4895C29.9833 36.262 30.7083 36.9979 31.4686 37.6945C32.3071 38.4511 33.1737 39.1742 34.0668 39.8623L34.2538 40.0005L34.4617 39.9101C36.6441 38.9325 39.0655 36.6319 40.9414 33.7574C41.9174 32.2739 42.7147 30.6755 43.316 28.9967C43.9286 27.3089 44.269 25.5306 44.3241 23.7312C44.3553 22.5623 44.2358 21.3987 43.9552 20.2669M43.5343 23.7153C43.4615 26.8076 42.308 30.2187 40.2866 33.3057C38.5511 35.9624 36.3375 38.0983 34.3525 39.0653C25.6385 32.3812 24.8071 25.729 25.1085 22.3391C25.3008 20.2196 26.0296 18.1878 27.2232 16.4437C28.4168 14.6997 30.0339 13.3035 31.9155 12.3927C32.617 12.0622 33.2943 11.6804 33.942 11.2503L34.1759 11.075C34.7111 11.4416 35.2671 11.7657 35.8439 12.0632C42.3651 15.3575 43.6434 20.1926 43.5655 23.6887" fill="black"/>
<path d="M34.3058 11.8826H34.2746L34.0148 11.9889L33.7914 12.0845L33.5211 12.2067L33.2094 12.3555L32.856 12.5361L32.4663 12.7487L32.0506 12.9878L31.6089 13.264C31.4531 13.3597 31.3076 13.466 31.1517 13.5669C30.9958 13.6732 30.8399 13.7901 30.684 13.907L30.2008 14.2789C29.8729 14.5493 29.5557 14.8329 29.2498 15.129L28.7822 15.6072C28.6263 15.7719 28.4756 15.9473 28.3301 16.1173L27.8988 16.6592L27.6442 17.0258C27.5507 17.1587 27.4623 17.3021 27.3688 17.4509L27.2025 17.7219C26.8753 18.3078 26.5971 18.921 26.3711 19.555C26.288 19.7675 26.2256 20.0066 26.1633 20.2298C26.1113 20.4582 26.0438 20.6973 26.0074 20.9364C25.9606 21.1755 25.9139 21.4306 25.8879 21.6803C25.8619 21.9247 25.8359 22.185 25.8203 22.4454C25.8048 22.7111 25.8203 22.9873 25.8203 23.253V23.795C26.3711 32.2112 32.3572 36.4034 34.602 37.7901C34.602 37.7901 43.3005 32.0146 42.7704 22.6207C42.3132 14.5286 34.3006 11.8613 34.3006 11.8613M37.4339 13.976C37.6573 14.1354 37.8912 14.3054 38.1146 14.4861C37.9847 14.6349 37.8756 14.7943 37.7873 14.9696C37.6517 15.248 37.5638 15.5481 37.5274 15.8569C37.3545 15.8203 37.1752 15.8313 37.0078 15.8888C36.8987 15.9207 36.8 15.9685 36.7012 16.0216C36.7012 15.7772 36.722 15.5381 36.7636 15.2937C36.7838 15.0363 36.855 14.7858 36.9729 14.5574C37.0908 14.329 37.253 14.1276 37.4495 13.9654M37.7353 19.3531C39.58 19.2893 40.6192 20.0172 40.5049 20.9789C40.4583 21.2156 40.351 21.4353 40.1939 21.6155C40.0368 21.7957 39.8357 21.9299 39.6111 22.0044C39.6556 21.8771 39.673 21.7417 39.6623 21.607C39.6515 21.4723 39.6128 21.3415 39.5488 21.2233C39.4501 21.048 39.3097 20.9045 39.1435 20.7983C38.9876 20.7026 38.8005 20.6548 38.6186 20.6654C38.3952 20.6761 38.1874 20.7505 38.0055 20.878C37.8262 20.997 37.6821 21.1638 37.5887 21.3605C37.4953 21.5571 37.4561 21.7761 37.4755 21.9938C37.1637 21.9938 36.8519 22.0363 36.5506 22.116C36.2855 22.1904 36.0309 22.2966 35.7971 22.4454C35.5685 22.5889 35.3762 22.7695 35.2203 22.9873L35.1684 23.067L35.2203 23.1467C35.4024 23.4516 35.6417 23.7165 35.9244 23.9263C36.2071 24.136 36.5276 24.2864 36.8675 24.3688C37.065 24.4113 37.2728 24.4326 37.4755 24.4379H37.6262C37.6158 24.5229 37.6158 24.6079 37.6262 24.6982C37.6396 24.8888 37.6935 25.074 37.7841 25.241C37.8747 25.408 38 25.5528 38.151 25.6652C38.3069 25.7874 38.4887 25.8512 38.681 25.8512H38.8005C39.0121 25.8223 39.2088 25.7237 39.3607 25.5703C39.5126 25.4169 39.6114 25.2171 39.6423 25.0011C40.2399 25.8725 39.3305 27.3017 39.3305 27.3017C39.6132 27.5112 39.8067 27.8233 39.8715 28.174C39.9362 28.5248 39.8672 28.8876 39.6787 29.1879H39.5748C39.4396 29.1818 39.3046 29.2036 39.1778 29.252C39.051 29.3004 38.9351 29.3744 38.8369 29.4695C38.7073 29.5669 38.6011 29.6931 38.5262 29.8386C38.4514 29.9841 38.4099 30.1451 38.4049 30.3094C38.3999 30.4737 38.4315 30.6371 38.4973 30.787C38.5632 30.937 38.6615 31.0697 38.7849 31.1751C38.733 31.3664 38.6446 31.547 38.5355 31.7171C38.3126 32.0389 37.9807 32.2644 37.6042 32.3498C37.2278 32.4353 36.8337 32.3745 36.4986 32.1793C36.2707 32.0311 36.0915 31.8164 35.9842 31.563C35.7884 31.1351 35.7088 30.6612 35.7536 30.191C35.7984 29.7209 35.966 29.2717 36.2388 28.8904C36.4025 29.0749 36.6158 29.2061 36.8519 29.2676C37.0234 29.3048 37.2053 29.3048 37.3768 29.2676C37.5551 29.2458 37.7271 29.1863 37.8818 29.093C38.0365 28.9997 38.1706 28.8747 38.2757 28.7257C38.4628 28.4388 38.5563 28.0934 38.5407 27.748C38.5288 27.2944 38.3517 26.8616 38.0442 26.5344C37.7366 26.2071 37.3208 26.009 36.8779 25.9787C36.5246 25.9415 36.1712 25.9787 35.8283 26.0797C35.8048 25.7485 35.7402 25.4218 35.636 25.1073C35.5425 24.8417 35.4178 24.5866 35.2567 24.3529C35.1085 24.1343 34.9174 23.9497 34.6955 23.8109L34.6072 23.7578L34.5188 23.8268C34.002 24.2229 33.629 24.7838 33.4588 25.4208C33.3964 25.6334 33.3549 25.8565 33.3341 26.085C32.8012 25.9708 32.2465 26.0379 31.7544 26.2763C31.5206 26.3825 31.3024 26.5207 31.1101 26.696C30.8834 26.9141 30.7181 27.1902 30.6313 27.4958C30.5445 27.8014 30.5393 28.1252 30.6165 28.4335C30.71 28.8266 30.9282 29.1773 31.2244 29.443C31.3803 29.5705 31.5622 29.6715 31.7544 29.7299C31.9467 29.799 32.1493 29.8202 32.352 29.799C32.5598 29.7883 32.7521 29.7193 32.9236 29.5971C33.0587 29.5014 33.1678 29.3686 33.2354 29.2198C33.2354 29.1879 33.2613 29.1614 33.2717 29.1295C33.464 29.7883 33.677 30.8723 33.3237 31.6586C33.2357 31.8544 33.1083 32.0289 32.9498 32.1708C32.7913 32.3127 32.6053 32.4188 32.404 32.4822C32.1815 32.5837 31.9392 32.6313 31.6958 32.6211C31.4524 32.611 31.2146 32.5434 31.001 32.4237C30.6857 32.1987 30.4461 31.8795 30.3151 31.5098C30.2678 31.3844 30.2261 31.2567 30.1904 31.1273H30.3099C30.4242 31.1273 30.5333 31.0848 30.632 31.021C30.7766 30.9234 30.8865 30.7807 30.9455 30.6142C31.0044 30.4477 31.0093 30.2661 30.9594 30.0965C30.9133 29.9229 30.8295 29.762 30.7144 29.6259C30.5993 29.4898 30.4557 29.3819 30.2943 29.3101C30.2117 29.294 30.1301 29.2727 30.0501 29.2464C29.9051 29.1602 29.7852 29.0359 29.703 28.8865C29.6208 28.737 29.5791 28.5677 29.5824 28.3963C29.5618 28.1829 29.6006 27.9679 29.6944 27.7761C29.7882 27.5843 29.9331 27.4235 30.1124 27.3124C30.1124 27.3124 29.1667 26.696 29.4525 25.7981C29.4998 25.5824 29.6283 25.3945 29.8102 25.2751C29.9921 25.1558 30.2128 25.1146 30.4242 25.1605C30.4398 25.4261 30.5437 25.6812 30.71 25.8884C30.8087 25.9918 30.928 26.0724 31.0597 26.1247C31.1915 26.1769 31.3327 26.1996 31.4738 26.1913H31.6817C31.8145 26.1794 31.9431 26.1375 32.0581 26.0686C32.1732 25.9997 32.2718 25.9055 32.3468 25.7928C32.4767 25.5643 32.5495 25.3039 32.5443 25.0436C32.5443 24.8417 32.5183 24.6398 32.4611 24.4485C32.7657 24.4325 33.0649 24.3605 33.3445 24.236C33.5731 24.1297 33.781 23.9862 33.9576 23.8003C34.1343 23.6196 34.2694 23.4071 34.3474 23.168V23.0617C34.2261 22.8002 34.0329 22.5804 33.7914 22.4295C33.5627 22.2913 33.3237 22.185 33.0639 22.1213C32.812 22.0569 32.5543 22.0195 32.2948 22.0097C32.3048 21.7774 32.2674 21.5455 32.1851 21.3288C32.1028 21.112 31.9774 20.9151 31.8168 20.7505C31.6089 20.5379 31.3283 20.4104 31.0322 20.4051C30.7873 20.4211 30.5538 20.5162 30.3651 20.6766C30.1765 20.837 30.0425 21.0545 29.9825 21.2977C29.9306 21.5156 29.9565 21.7494 30.0605 21.9513C30.1904 22.1638 30.3722 22.3338 30.5905 22.4454C30.2112 22.7801 29.5304 22.6367 29.2031 22.5304C28.6211 22.2913 28.3717 21.4465 28.6211 20.6176C28.9796 19.4487 30.5437 19.4221 30.5437 19.4221C30.5437 19.4221 29.8058 17.8547 30.6996 17.0949C30.9435 16.8734 31.2371 16.7169 31.5543 16.639C31.8715 16.5612 32.2026 16.5645 32.5183 16.6486C32.6378 16.7017 32.7469 16.7814 32.8352 16.8771C32.9496 17.0099 33.0223 17.1746 33.0535 17.35V17.4297C32.737 17.3515 32.4032 17.403 32.1234 17.5731C31.9999 17.6689 31.9009 17.7939 31.8348 17.9373C31.7688 18.0807 31.7376 18.2383 31.744 18.3967C31.7462 18.6123 31.8071 18.823 31.9201 19.0051C32.033 19.1872 32.1934 19.3335 32.3832 19.4274C32.7386 19.6307 33.1541 19.6949 33.5523 19.6081C33.5769 20.1146 33.7137 20.6088 33.9524 21.0533C34.1187 21.3615 34.337 21.6325 34.5968 21.8503L34.6643 21.9088L34.7527 21.8716C34.9761 21.7387 35.1735 21.5528 35.3242 21.3296C35.4905 21.0799 35.6152 20.7983 35.688 20.5007C35.7815 20.1501 35.8283 19.7834 35.8283 19.4168H36.0725C36.2183 19.4147 36.362 19.3815 36.4945 19.3194C36.6271 19.2574 36.7455 19.1677 36.8423 19.0563C36.9391 18.9448 37.0121 18.8139 37.0567 18.672C37.1013 18.5301 37.1165 18.3802 37.1014 18.232C37.1014 18.0991 37.0754 17.9663 37.013 17.8494C36.8519 17.5678 36.7428 17.5519 36.5921 17.3925C36.3323 17.1268 36.5921 16.638 36.5921 16.638C36.7821 16.7264 36.9952 16.7488 37.1987 16.7018C37.4024 16.6548 37.5853 16.5409 37.7197 16.3776C37.7197 16.3776 38.1354 16.5264 38.2497 17.6156C38.289 17.8883 38.2568 18.1668 38.1564 18.4225C38.0559 18.6783 37.8909 18.9023 37.6781 19.0715C37.6512 19.0935 37.6316 19.1235 37.6221 19.1574C37.6126 19.1913 37.6136 19.2273 37.625 19.2606C37.6364 19.2938 37.6577 19.3227 37.6858 19.343C37.714 19.3634 37.7476 19.3743 37.7821 19.3743M37.6002 22.4135C37.7383 22.7645 37.9352 23.0882 38.1822 23.3699C37.9795 23.5984 37.8236 23.864 37.7197 24.151C37.4599 24.1722 37.2053 24.151 36.9559 24.0978C36.6668 24.0331 36.3932 23.9106 36.1506 23.7373C35.908 23.5641 35.7014 23.3435 35.5425 23.0883C35.805 22.8182 36.1216 22.6094 36.4705 22.4764C36.8195 22.3434 37.1925 22.2893 37.5638 22.3179L37.6002 22.4295M35.054 34.8944C35.106 35.0272 35.1164 35.176 35.0956 35.3195C35.0956 35.3832 35.0644 35.4523 35.0488 35.5161C35.0385 35.5745 35.0177 35.633 34.9969 35.6861C34.9723 35.7392 34.9369 35.7864 34.893 35.8242C34.8514 35.8614 34.7994 35.888 34.7579 35.9305C34.7191 35.9624 34.6932 36.0078 34.6851 36.058C34.6851 36.1058 34.6851 36.1643 34.6176 36.1696C34.55 36.1802 34.5136 36.1324 34.4877 36.0899C34.4617 36.0474 34.4253 35.9677 34.3837 35.9092C34.314 35.7957 34.2498 35.6787 34.1915 35.5586C34.1327 35.4444 34.1074 35.3152 34.1187 35.1866C34.1447 35.0804 34.2071 34.9741 34.2902 34.8944C34.3526 34.8147 34.4305 34.7084 34.3785 34.6022C34.273 34.5733 34.1619 34.5733 34.0564 34.6022C33.942 34.6394 33.8277 34.6553 33.7134 34.6394C33.6147 34.6136 33.5226 34.5665 33.4432 34.5012C33.2712 34.3694 33.1234 34.2075 33.0067 34.023C33.0067 34.0124 33.0067 34.0018 33.0171 33.9965C33.1106 33.9168 33.2198 33.8371 33.3289 33.7839C33.4328 33.7308 33.5367 33.7095 33.6459 33.7095C33.7498 33.7202 33.8537 33.7627 33.9369 33.8317C34.0875 33.9486 34.2071 34.1399 34.3941 34.1877C34.4045 34.0496 34.3681 33.9114 34.2954 33.7999C34.233 33.6936 34.1915 33.5714 34.1759 33.4492C34.1637 33.3352 34.1954 33.2209 34.2642 33.1304C34.3941 32.9497 34.602 32.8435 34.7007 32.6363L34.7163 32.6256C34.7248 32.6209 34.7346 32.6194 34.7441 32.6214C34.7536 32.6233 34.7621 32.6286 34.7682 32.6363C34.7786 32.6735 34.789 32.7 34.8098 32.7319L34.9553 32.8913C35.0343 32.9698 35.0949 33.0655 35.1327 33.1713C35.1705 33.2771 35.1844 33.3903 35.1735 33.5023C35.1632 33.582 35.1424 33.6564 35.1112 33.7255L34.9917 33.938C34.9553 34.0071 34.9241 34.0762 34.9137 34.1505H34.9657L35.0696 34.0974C35.132 34.0496 35.1891 33.9912 35.2411 33.938C35.2667 33.9061 35.2983 33.8799 35.334 33.8607C35.3697 33.8415 35.4088 33.8299 35.449 33.8264C35.5303 33.8203 35.6116 33.8388 35.6828 33.8796L35.927 34.0177L36.0465 34.0921C36.0835 34.1084 36.117 34.1319 36.1452 34.1612C36.1972 34.2356 36.1452 34.3206 36.0829 34.3737C35.9434 34.5487 35.7425 34.6611 35.5232 34.6869C35.3038 34.7127 35.0833 34.6499 34.9085 34.5118C34.9293 34.6394 34.9709 34.7563 35.0333 34.8625M34.7215 32.0146L34.5864 31.919C33.9265 33.0773 32.3624 33.6724 31.8843 33.7892L31.9363 33.4333C31.9519 33.2526 31.9519 33.072 31.9363 32.8913C32.1182 32.87 32.2948 32.8222 32.4663 32.7638C32.7057 32.6879 32.9267 32.5611 33.1148 32.3917C33.3028 32.2223 33.4537 32.0141 33.5575 31.7808C33.6926 31.4727 33.7654 31.1379 33.7654 30.7979V30.6013C34.3214 30.5003 34.8826 30.4844 35.4386 30.5588C35.436 30.9564 35.5288 31.3486 35.7088 31.7011C35.8543 31.9987 36.0725 32.2484 36.3375 32.4344C36.4674 32.5247 36.6129 32.5938 36.7636 32.631C36.8883 32.6681 37.013 32.6841 37.1377 32.6947C37.188 33.0608 37.3005 33.415 37.4703 33.7414C35.9374 33.6723 34.7007 32.0306 34.7007 32.0306M32.2896 29.5067C31.9609 29.5191 31.6387 29.4107 31.3813 29.2011C31.124 28.9916 30.9485 28.6948 30.8867 28.3644C30.7941 27.9941 30.8423 27.6017 31.0217 27.2664C31.2011 26.9311 31.4983 26.6778 31.8532 26.5579C32.1054 26.4239 32.3822 26.3453 32.6658 26.327C32.9494 26.3087 33.2337 26.3511 33.5004 26.4516C33.935 26.6698 34.2755 27.0444 34.4565 27.5036L34.5656 27.8224C34.5656 27.8309 34.5689 27.839 34.5747 27.845C34.5806 27.851 34.5885 27.8543 34.5968 27.8543C34.605 27.8543 34.613 27.851 34.6188 27.845C34.6247 27.839 34.6279 27.8309 34.6279 27.8224L34.7215 27.4983C34.8208 27.2239 34.983 26.978 35.1946 26.781C35.4062 26.5841 35.6609 26.442 35.9374 26.3666C36.233 26.2721 36.5455 26.2467 36.8519 26.2922C37.2274 26.3138 37.5808 26.4806 37.8404 26.7589C38.1 27.0372 38.2464 27.406 38.2497 27.7906C38.2771 28.077 38.1967 28.3635 38.0249 28.5915C37.8531 28.8195 37.6027 28.972 37.3248 29.0179C37.1379 29.0478 36.9465 29.0239 36.7721 28.9488C36.5977 28.8738 36.4472 28.7505 36.3375 28.5929C36.3229 28.5625 36.2979 28.5387 36.2672 28.526C36.2366 28.5133 36.2024 28.5125 36.1712 28.5238C36.1378 28.5297 36.108 28.5488 36.0881 28.5769C35.901 28.832 35.7503 29.1082 35.636 29.4111C35.1736 29.3633 34.7111 29.3633 34.2486 29.4111C33.9732 29.4111 33.7498 29.4589 33.6147 29.4749C33.5419 29.1454 33.4432 28.8266 33.3237 28.5185C33.3108 28.4829 33.2859 28.4532 33.2536 28.4347C33.2212 28.4162 33.1834 28.4101 33.147 28.4175C33.1113 28.4274 33.0803 28.4499 33.0593 28.4811C33.0384 28.5122 33.029 28.5499 33.0327 28.5875C33.0537 28.7014 33.0504 28.8186 33.0232 28.931C32.996 29.0435 32.9454 29.1487 32.8749 29.2394C32.8045 29.3301 32.7157 29.4043 32.6147 29.4568C32.5137 29.5094 32.4029 29.5391 32.2896 29.5439M33.6666 26.2497C33.6874 25.8618 33.7835 25.4821 33.9495 25.1327C34.1154 24.7833 34.3479 24.4712 34.6331 24.2147C34.7734 24.3263 34.8982 24.4644 35.0021 24.6132C35.319 25.0914 35.4957 25.6599 35.5061 26.2391C35.1179 26.439 34.7974 26.7537 34.5864 27.1423C34.3753 26.7537 34.0549 26.439 33.6666 26.2391M35.5373 29.7033C35.4957 29.8787 35.4593 30.0593 35.449 30.2453V30.2984C34.8826 30.2293 34.3162 30.2453 33.7602 30.3462C33.7474 30.1785 33.7249 30.0117 33.6926 29.8468V29.7671C34.3162 29.6821 34.9397 29.6608 35.5581 29.714M30.7412 22.2541C30.3203 22.031 30.128 21.7122 30.2112 21.388C30.2577 21.2079 30.3575 21.0468 30.4971 20.927C30.6366 20.8071 30.809 20.7343 30.9906 20.7186C31.2236 20.7431 31.442 20.8462 31.6113 21.0117C31.7807 21.1772 31.8914 21.3956 31.9259 21.6325C32.0033 21.9141 31.9824 22.2146 31.8667 22.4822C31.751 22.7498 31.5478 22.9679 31.292 23.0989C31.0412 23.2398 30.7588 23.3114 30.4727 23.3068C30.1866 23.3021 29.9066 23.2213 29.6604 23.0724C29.5738 23.025 29.4905 22.9717 29.4109 22.913H29.598C29.8214 22.9555 30.0553 22.9555 30.2839 22.913C30.5229 22.8598 30.7412 22.7111 30.8815 22.5038L30.9854 22.3498L30.7412 22.2541ZM32.1441 22.5463C32.1701 22.472 32.1961 22.3923 32.2117 22.3179C32.4611 22.3285 32.7053 22.3657 32.9444 22.4241C33.1593 22.4659 33.3637 22.5519 33.5451 22.6771C33.7264 22.8022 33.8809 22.9638 33.9992 23.1521C33.9317 23.3274 33.8277 23.4921 33.6874 23.6249C33.3117 23.9801 32.8169 24.1741 32.3052 24.1669C32.2703 24.0908 32.2322 24.0164 32.1909 23.9437C32.0241 23.6535 31.7572 23.4374 31.4427 23.338C31.7544 23.1627 31.9987 22.8811 32.1338 22.541M31.9155 15.2087V15.1024C32.4634 15.0778 33.0023 15.2508 33.438 15.5913C33.7238 15.7825 33.9784 16.0163 34.1863 16.2926C34.4045 16.5636 34.5396 16.8983 34.576 17.249C34.5916 17.6369 34.5292 18.0247 34.3941 18.386C34.2957 18.6907 34.1112 18.9588 33.8641 19.1565C33.6589 19.2929 33.4209 19.369 33.1762 19.3765C32.9315 19.384 32.6896 19.3226 32.4767 19.199C32.3338 19.1346 32.2111 19.031 32.1221 18.8997C32.0332 18.7684 31.9814 18.6146 31.9727 18.4551C31.9661 18.3429 31.9853 18.2307 32.0286 18.1274C32.0719 18.0241 32.1381 17.9326 32.2221 17.86C32.4975 17.7219 32.8093 17.7006 33.0951 17.8069L33.2509 17.86L33.2769 17.6794C33.3035 17.4222 33.25 17.163 33.1241 16.9388C32.9981 16.7146 32.8061 16.5368 32.5754 16.4308C32.3468 16.3245 32.1078 16.2501 31.8584 16.197C31.9207 15.8729 31.9363 15.5381 31.9103 15.2087M36.4051 16.2926C36.2849 16.4243 36.1953 16.5821 36.1431 16.7541C36.0909 16.9262 36.0775 17.1081 36.1037 17.2862V17.3978C36.14 17.4934 36.192 17.5837 36.2596 17.6581C36.3951 17.6907 36.5158 17.7695 36.6017 17.8815C36.6877 17.9935 36.7337 18.1321 36.7324 18.2745C36.7424 18.3837 36.7304 18.4939 36.6971 18.5982C36.6638 18.7025 36.6099 18.7987 36.5388 18.8809C36.4677 18.963 36.3809 19.0294 36.2837 19.0759C36.1865 19.1224 36.081 19.148 35.9738 19.1512C35.8319 19.1708 35.6875 19.1581 35.551 19.114C35.4144 19.0699 35.2891 18.9955 35.1839 18.8961C34.9426 18.6304 34.7835 18.2977 34.7267 17.9397C34.6464 17.5296 34.6696 17.1054 34.7942 16.707C34.9085 16.2289 35.1736 15.8038 35.5477 15.485C35.8361 15.2595 36.1617 15.0885 36.509 14.9802C36.4142 15.4107 36.3723 15.8516 36.3843 16.2926M35.4593 19.3903C35.4849 20.0115 35.3313 20.6268 35.0177 21.1596C34.9137 21.3243 34.7734 21.4784 34.6176 21.5953C34.3481 21.33 34.1331 21.0124 33.985 20.6612C33.8369 20.31 33.7587 19.9321 33.755 19.5497C34.0013 19.4331 34.2142 19.2538 34.3733 19.029C34.4773 18.8696 34.5656 18.6995 34.6331 18.5189C34.6988 18.7435 34.8206 18.9468 34.9865 19.1087C35.1112 19.2468 35.2775 19.3424 35.4541 19.3903H35.4593ZM35.4593 14.7836L34.6072 15.3947C34.5762 15.4176 34.5389 15.4299 34.5006 15.4299C34.4624 15.4299 34.4251 15.4176 34.3941 15.3947C34.0317 15.1299 33.6662 14.8695 33.2977 14.6136C33.2894 14.6013 33.2837 14.5873 33.281 14.5726C33.2783 14.5579 33.2787 14.5428 33.2822 14.5283C33.2856 14.5137 33.292 14.5001 33.3009 14.4882C33.3099 14.4764 33.3212 14.4666 33.3341 14.4595C33.5991 14.348 34.0564 14.1407 34.3006 13.9973C34.3515 13.963 34.4111 13.9447 34.4721 13.9447C34.533 13.9447 34.5926 13.963 34.6435 13.9973C34.9085 14.2098 35.1839 14.4011 35.4749 14.5764C35.4869 14.5864 35.4965 14.599 35.5031 14.6132C35.5097 14.6274 35.5132 14.643 35.5132 14.6588C35.5132 14.6745 35.5097 14.6901 35.5031 14.7044C35.4965 14.7186 35.4869 14.7312 35.4749 14.7411M36.7792 16.367C36.7751 16.3588 36.7729 16.3497 36.7729 16.3404C36.7729 16.3312 36.7751 16.3221 36.7792 16.3139C36.7906 16.291 36.8088 16.2724 36.8311 16.2607C36.9247 16.2076 37.039 16.197 37.1429 16.2235C37.1793 16.2289 37.2157 16.2554 37.2417 16.2873C37.2476 16.2978 37.2507 16.3097 37.2507 16.3218C37.2507 16.334 37.2476 16.3459 37.2417 16.3564C37.2417 16.4254 37.0858 16.4467 37.0338 16.452C36.9663 16.4626 36.8987 16.4626 36.8363 16.452C36.7948 16.452 36.7532 16.4201 36.748 16.3829M34.2798 12.3502C35.2983 12.7274 36.2648 13.2322 37.1637 13.8432C36.9769 13.9873 36.8241 14.1725 36.7168 14.3851L36.6857 14.4489C36.0933 14.0504 34.4461 13.1897 34.4461 13.1897C33.543 13.6063 32.662 14.071 31.8064 14.5817L31.7284 14.3161C31.6713 14.1354 31.5933 13.9495 31.4998 13.7794C32.3749 13.1881 33.3106 12.6964 34.2902 12.313M31.2556 13.9335C31.3387 14.0823 31.4115 14.2417 31.4634 14.4011C31.6401 14.9537 31.6713 15.5381 31.5674 16.1066C31.3387 16.1013 31.1153 16.1279 30.8971 16.1863C31.0529 15.57 30.9698 14.9165 30.6788 14.3586C30.8711 14.2045 31.0685 14.0663 31.2556 13.9335ZM27.5039 18.5933C27.5039 18.4286 27.5247 18.2638 27.5507 18.0991C27.5819 17.8335 27.6754 17.5784 27.8105 17.3553C28.5323 16.2757 29.4222 15.3244 30.445 14.5392C30.4969 14.6189 30.5333 14.6986 30.5593 14.7943C30.7048 15.2831 30.7152 15.8038 30.5905 16.2926C30.168 16.4777 29.8032 16.7776 29.5357 17.1598C29.2682 17.542 29.1082 17.9918 29.0732 18.4604L29.1511 18.5773C29.1771 18.6145 29.1927 18.657 29.2031 18.6995C29.2187 18.7952 29.2187 18.8961 29.2031 18.9971C29.1734 19.2204 29.0582 19.4225 28.8828 19.559C28.7074 19.6955 28.4862 19.7552 28.2678 19.725C28.1473 19.7202 28.0294 19.6882 27.9224 19.6312C27.8155 19.5743 27.7223 19.4938 27.6494 19.3956C27.5139 19.1447 27.4593 18.8565 27.4935 18.572M27.2337 18.3063C27.1506 18.7314 27.2077 19.1724 27.4052 19.5603C27.4894 19.6894 27.6027 19.796 27.7357 19.8709C27.8686 19.9458 28.0173 19.9869 28.169 19.9907L28.1223 20.1819C27.7066 20.1447 27.3169 19.9694 27.0051 19.6878C26.9063 19.5975 26.8232 19.4859 26.7505 19.369C26.8908 18.9971 27.0518 18.6305 27.2337 18.2798M26.6258 19.6772C26.8135 19.9183 27.0537 20.1111 27.3272 20.2404C27.5611 20.3466 27.8053 20.421 28.0599 20.4529V20.692C27.633 20.7363 27.2048 20.6212 26.8544 20.3679C26.7283 20.2769 26.6191 20.1636 26.5322 20.0332L26.6413 19.6772M27.0726 28.4175C26.3452 24.7301 27.7377 23.6887 27.7377 23.6887C26.9389 22.8059 26.4906 21.6503 26.4803 20.4476C26.5374 20.5007 26.5998 20.5592 26.6673 20.607C26.8492 20.7505 27.057 20.8567 27.2753 20.9205C27.4831 20.9789 27.7014 21.0108 27.9196 21.0055H28.0547C28.0543 21.3775 28.1474 21.7434 28.3249 22.0681C28.4704 22.3179 28.6471 22.5463 28.8549 22.7376C29.2067 23.1731 29.7056 23.4575 30.2527 23.5346C30.5229 23.5506 30.7983 23.5506 31.0685 23.5346C31.2516 23.5369 31.4308 23.5882 31.5885 23.6833C31.7462 23.7783 31.8769 23.9139 31.9675 24.0766C32.1338 24.3635 32.2273 24.6929 32.2273 25.033C32.2273 25.2667 32.1545 25.8246 31.6141 25.8831C31.4864 25.9133 31.3533 25.9113 31.2266 25.877C31.0998 25.8427 30.9831 25.7773 30.8867 25.6865C30.7819 25.5298 30.7102 25.3525 30.6762 25.1658C30.6422 24.9792 30.6466 24.7874 30.6892 24.6026L30.3514 24.4644C30.0298 24.3131 29.6639 24.2922 29.3278 24.406C29.0056 24.5282 28.725 24.7354 28.512 25.0117C27.348 26.3932 28.3561 28.9223 28.7562 29.7299C28.6211 29.8893 28.5276 30.0859 28.486 30.2984C28.4183 30.6099 28.4183 30.9327 28.486 31.2442L28.5536 31.4833C27.9544 30.5298 27.4546 29.5147 27.0622 28.4547M26.6829 23.6196C26.6755 23.5266 26.6917 23.4333 26.7299 23.3486C26.7682 23.2639 26.8272 23.1907 26.9012 23.1361C26.9109 23.1296 26.9218 23.1252 26.9333 23.1233C26.9448 23.1213 26.9566 23.1219 26.9678 23.1249C26.9791 23.1279 26.9896 23.1333 26.9987 23.1407C27.0078 23.1481 27.0153 23.1574 27.0207 23.168C27.1142 23.3327 27.2389 23.4815 27.3896 23.5931C27.3993 23.5993 27.4072 23.6079 27.4127 23.6181C27.4183 23.6283 27.4212 23.6398 27.4212 23.6515C27.4212 23.6632 27.4183 23.6747 27.4127 23.6849C27.4072 23.6951 27.3993 23.7037 27.3896 23.71C27.2212 23.8138 27.0717 23.9469 26.9479 24.1031C26.9346 24.1096 26.9194 24.111 26.9051 24.1071C26.8909 24.1032 26.8784 24.0943 26.87 24.0819C26.7661 23.949 26.6985 23.7897 26.6881 23.6196M29.5045 32.8275C29.2966 32.5087 28.5536 31.2442 28.7458 30.3516V30.2931C28.7545 30.187 28.7848 30.0839 28.835 29.9905C28.8851 29.8971 28.9539 29.8156 29.0368 29.7512C29.2135 29.5971 29.4213 29.4961 29.65 29.4642C29.7621 29.4445 29.8773 29.4525 29.9858 29.4876C30.0942 29.5228 30.1929 29.584 30.2735 29.6661C30.3099 29.6874 30.3463 29.7193 30.3774 29.7512C30.488 29.8424 30.5676 29.9671 30.605 30.1073C30.6423 30.2475 30.6354 30.3962 30.5853 30.5322C30.5566 30.6078 30.5078 30.6737 30.4445 30.7226C30.3811 30.7714 30.3057 30.8011 30.2267 30.8085C30.1488 30.8085 30.0709 30.7979 29.9981 30.7766L29.7591 30.6703L29.7955 30.9254C29.8558 31.3598 30.02 31.7722 30.2735 32.1262C30.419 32.3281 30.6009 32.4981 30.8035 32.6203C31.0633 32.7797 31.3595 32.8647 31.6661 32.8594C31.6817 33.0401 31.6817 33.2207 31.6661 33.4014C31.6297 33.8636 31.4582 34.3046 31.1621 34.6553C30.5709 34.0834 30.0204 33.469 29.5149 32.8169M34.6072 37.3226C33.437 36.6043 32.3403 35.7677 31.3335 34.8253C31.505 34.6234 31.6453 34.4003 31.7337 34.1559L31.796 33.9752C32.1338 33.9752 33.1106 34.2621 34.5448 36.8656C34.5448 36.8656 35.6568 34.5916 37.5534 33.8743L37.6054 33.9593C37.7041 34.0974 37.808 34.2302 37.9172 34.3578C36.9244 35.4701 35.8123 36.4646 34.602 37.3226H34.6072ZM40.2607 31.2123L40.2243 31.2761C39.5954 32.3019 38.8771 33.2675 38.0782 34.1612C37.6868 33.7458 37.4356 33.2133 37.3612 32.6416C37.6522 32.615 37.9327 32.5247 38.1926 32.3759C38.4171 32.2329 38.609 32.0422 38.7552 31.8166C38.9013 31.5911 38.9983 31.3361 39.0395 31.0688V30.9838L38.9772 30.9307C38.8688 30.8601 38.7796 30.7628 38.7178 30.6476C38.656 30.5325 38.6236 30.4032 38.6236 30.2719C38.6236 30.1405 38.656 30.0112 38.7178 29.8961C38.7796 29.7809 38.8688 29.6836 38.9772 29.613C39.0443 29.5441 39.1241 29.4894 39.2119 29.4521C39.2997 29.4148 39.3939 29.3956 39.489 29.3956C39.5841 29.3956 39.6783 29.4148 39.7661 29.4521C39.854 29.4894 39.9337 29.5441 40.0009 29.613C40.2092 29.8063 40.3465 30.0667 40.39 30.3509C40.4335 30.6351 40.3805 30.926 40.2399 31.1751M41.8247 23.8747L41.6688 23.949C41.5649 23.8428 41.2791 23.439 41.2791 23.439C41.4766 23.3274 41.6532 23.1786 41.8091 23.0139C41.8091 22.9661 42.0689 23.3221 42.0689 23.4762C42.0637 23.6356 42.043 23.7046 41.8247 23.8747ZM41.8871 19.6453C41.9546 20.5167 41.8871 22.2647 40.6296 23.3646C41.4702 24.6152 41.8947 26.1093 41.8403 27.6258C41.5413 28.586 41.1533 29.5147 40.6816 30.3994V30.325C40.627 29.9699 40.4567 29.6441 40.1983 29.4005C40.5341 29.0028 40.78 28.5342 40.9183 28.0281C41.0566 27.522 41.084 26.991 40.9985 26.4729C40.9985 26.34 40.9622 26.2072 40.9362 26.0797C40.8957 25.8674 40.8419 25.658 40.7751 25.4527C40.695 25.2212 40.5886 25 40.4581 24.7939C40.3555 24.6199 40.2183 24.47 40.0553 24.3538C39.8924 24.2375 39.7075 24.1576 39.5124 24.1191C39.4085 24.1031 39.3046 24.1191 39.211 24.1669C39.1643 24.1935 39.1227 24.2147 39.1383 24.2678C39.1539 24.321 39.2162 24.3794 39.2422 24.4379C39.2942 24.5335 39.3201 24.6398 39.3305 24.7514C39.3322 24.8419 39.316 24.9318 39.283 25.0157C39.25 25.0997 39.2007 25.1761 39.1383 25.2402C39.0343 25.3591 38.8917 25.4354 38.7369 25.4549C38.5821 25.4745 38.4256 25.4359 38.2965 25.3464C38.1762 25.2618 38.0753 25.1514 38.0009 25.023C37.9264 24.8946 37.8801 24.7511 37.8652 24.6026C37.8964 24.135 38.0938 23.6993 38.416 23.3752L38.5199 23.269L38.416 23.1627C38.416 23.1627 37.6729 22.4188 37.7249 21.7281C37.741 21.5906 37.7878 21.4587 37.8616 21.3426C37.9355 21.2265 38.0345 21.1293 38.151 21.0586C38.2625 20.9655 38.398 20.9072 38.5411 20.8908C38.6842 20.8744 38.829 20.9006 38.9579 20.9662C39.0868 21.0319 39.1945 21.1341 39.2679 21.2608C39.3414 21.3875 39.3776 21.5331 39.3721 21.6803C39.3637 21.7752 39.3288 21.8656 39.2717 21.9409C39.2147 22.0162 39.1377 22.0733 39.0499 22.1053C39.0032 22.1372 38.9564 22.1638 38.9044 22.185L38.9304 22.2807C39.3055 22.2539 39.6722 22.1548 40.0112 21.9884C40.2451 21.8662 40.4477 21.675 40.5828 21.4465C40.6971 21.2446 40.7647 21.0214 40.7803 20.7823C40.7855 20.5857 40.7699 20.3892 40.7283 20.1979C40.8738 20.1766 41.0141 20.1341 41.1492 20.0757C41.43 19.9438 41.6745 19.743 41.8611 19.4912L41.9131 19.6347M41.7416 19.1671C41.6584 19.2999 41.5545 19.4221 41.4454 19.5284C41.2324 19.7409 40.957 19.8685 40.666 19.911C40.6348 19.8047 40.5984 19.7037 40.562 19.6134C40.7778 19.5788 40.9843 19.4998 41.1692 19.381C41.3541 19.2623 41.5135 19.1064 41.6377 18.9227L41.7416 19.1671ZM41.4974 18.6251C41.4298 18.7527 41.3415 18.8696 41.2427 18.9705C41.0349 19.1884 40.7491 19.3265 40.4477 19.3531C40.401 19.2468 40.3438 19.1512 40.2918 19.0555C40.4209 19.0576 40.5489 19.031 40.667 18.9777C40.7851 18.9243 40.8904 18.8455 40.9759 18.7465C41.0613 18.6475 41.1247 18.5308 41.1618 18.4044C41.1989 18.278 41.2088 18.1448 41.1908 18.0141L41.4974 18.6251ZM40.7023 17.2012L40.8582 17.4562C40.9383 17.6112 40.9775 17.7848 40.972 17.9599C40.9665 18.135 40.9166 18.3057 40.827 18.4551C40.7959 18.5029 40.7543 18.5454 40.7127 18.5773C40.6102 18.6607 40.4907 18.7196 40.3631 18.75C40.2355 18.7803 40.1029 18.7812 39.9749 18.7527C39.8589 18.7268 39.7515 18.6706 39.6632 18.5896C39.5748 18.5085 39.5086 18.4055 39.4708 18.2904C39.4292 18.1084 39.4493 17.9172 39.528 17.7485L39.6527 17.6209C39.6527 17.6209 38.7745 16.2714 37.8184 15.8676C37.8548 15.3894 38.0419 14.943 38.3484 14.5871L38.7538 14.9377C38.8992 15.0706 39.0344 15.1928 39.1695 15.3309C39.7379 15.8949 40.2513 16.5142 40.7023 17.1799M96.1825 29.4855C95.3013 30.6672 94.0801 31.5368 92.6906 31.9721L92.4308 32.0518L92.2697 31.5098L92.5295 31.4301C93.8394 31.022 94.9855 30.1928 95.798 29.0657L95.0445 28.2422C94.3011 29.1083 93.3919 29.8094 92.373 30.302C91.3541 30.7946 90.2472 31.0682 89.1208 31.106C87.9235 31.145 86.7429 30.8107 85.7359 30.1473C84.7289 29.4839 83.9431 28.5229 83.4829 27.3921C83.175 26.6427 83.0166 25.8381 83.0171 25.0253C83.0176 24.2125 83.1769 23.408 83.4858 22.6591C83.7946 21.9102 84.2467 21.2319 84.8156 20.6642C85.3844 20.0964 86.0584 19.6507 86.7981 19.3531C87.536 19.0555 88.3258 18.9174 89.1156 18.9439C92.6075 18.9439 94.8678 21.8025 94.8678 21.8025L97.627 18.8642C94.4937 15.2034 89.6404 13.8166 85.577 15.5062L85.4938 15.5381L85.4263 15.3681L85.5094 15.3362C89.6404 13.6147 94.5716 15.0174 97.7517 18.7314L98.2818 18.1629C96.3588 15.762 93.5915 14.2283 90.5745 13.8915C87.5575 13.5547 84.5317 14.4416 82.1475 16.3617L81.9344 16.537L81.5967 16.096L81.8097 15.926C83.0614 14.9074 84.4997 14.1551 86.0399 13.7135C87.5802 13.2718 89.1913 13.1497 90.7784 13.3544C93.86 13.7344 96.6815 15.3091 98.6611 17.7538L99.5704 16.7921C98.2825 15.1929 96.6578 13.9122 94.8177 13.0454C92.9776 12.1787 90.9697 11.7485 88.9441 11.787C81.103 11.787 75.1793 17.8707 75.1793 25.0276C75.1793 32.1846 81.103 38.2683 88.9441 38.2683C90.9801 38.3057 92.9983 37.8754 94.85 37.0091C96.7016 36.1429 98.3396 34.8628 99.6432 33.2632L96.1825 29.4855ZM89.1572 16.3829H89.6144V17.3181H89.1572C87.141 17.3712 85.2236 18.232 83.8155 19.7197C82.4044 21.2068 81.6153 23.1974 81.6153 25.2694C81.6153 27.3414 82.4044 29.332 83.8155 30.8191C85.2236 32.3068 87.141 33.1623 89.1572 33.2154H89.6144V34.1718H89.1572C86.8994 34.113 84.754 33.1516 83.1815 31.4939C81.602 29.8318 80.7184 27.6056 80.7184 25.288C80.7184 22.9704 81.602 20.7442 83.1815 19.0821C84.754 17.4244 86.8994 16.463 89.1572 16.4042M97.5751 32.6947C95.9133 34.4846 93.722 35.6661 91.3388 36.0568C88.9556 36.4476 86.5128 36.0261 84.387 34.8572L83.909 35.8774L83.2595 35.5586C81.686 34.7929 80.3096 33.6613 79.2404 32.2543C78.1712 30.8473 77.4388 29.204 77.1019 27.4558C76.7625 25.7071 76.8251 23.9016 77.285 22.1819C77.745 20.4622 78.5895 18.8753 79.752 17.5465L80.2353 17.0046L81.3161 18.0035L80.8276 18.5454C79.124 20.4826 78.2313 23.0257 78.3411 25.6285C78.4509 28.2312 79.5544 30.6862 81.4148 32.4662L81.7941 32.0943L81.9864 32.2962C82.9637 33.3513 84.1407 34.1922 85.4458 34.7676C86.7509 35.3431 88.1568 35.6411 89.5781 35.6436C91.0006 35.6443 92.4082 35.3478 93.7146 34.7722C95.021 34.1965 96.1985 33.354 97.175 32.2962L97.362 32.0943L97.7517 32.4822L97.5751 32.6947Z" fill="black"/>
<g clip-path="url(#clip0_594_13512)">
<path d="M4.76012 0.197593H5.78693V5.73019H4.62954V2.03977L2.89346 4.30752L1.15739 2.05497V5.73019H0V0.197593H1.04165L2.89346 2.60823L4.76012 0.197593ZM11.2266 4.66319V5.73019H7.17579V0.197593H11.1495V1.26459H8.33317V2.37111H10.5322V3.43811H8.33317V4.66319H11.2266ZM14.5445 3.35908L12.9627 5.73019H11.6124L13.7729 2.48967L11.7668 0.197593H13.117L15.0074 2.3316V0.197593H16.1648V2.3316L18.0552 0.197593H19.4055L17.3994 2.48967L19.5598 5.73019H18.2095L16.6278 3.35908L16.1648 3.87282V5.73019H15.0074V3.87282L14.5445 3.35908ZM19.8684 4.66319C19.8684 4.66319 20.7172 3.87282 20.7172 1.89689V0.197593H24.4594V4.66319H25.1153V6.87623H23.9579V5.73019H20.7172V6.87623H19.5598V4.66319H19.8684ZM21.0258 4.66319H23.302V1.26459H21.8746V1.89689C21.8746 3.87282 21.0258 4.66319 21.0258 4.66319ZM27.9316 2.80582L29.0118 0.197593H30.2463L28.3559 4.34704C27.9405 5.25597 27.3915 5.80923 26.4655 5.80923C26.1183 5.80923 25.8483 5.69067 25.8483 5.69067V4.66319C25.8483 4.66319 26.0412 4.74223 26.3112 4.74223C26.7742 4.74223 27.0442 4.4656 27.1986 4.18897L27.3529 3.91234L25.4239 0.197593H26.6584L27.9316 2.80582ZM35.5703 5.73019H34.4129V3.47763H32.0982V5.73019H30.9408V0.197593H32.0982V2.41063H34.4129V0.197593H35.5703V5.73019ZM38.0394 4.42608L37.5764 5.73019H36.3419L38.4638 0.197593H39.6983L41.8202 5.73019H40.5856L40.1227 4.42608H38.0394ZM39.081 1.58074L38.4252 3.3986H39.7369L39.081 1.58074ZM44.868 0.197593C45.9868 0.197593 46.7969 1.01228 46.7969 2.05497C46.7969 3.10677 45.9868 3.91234 44.868 3.91234H43.7492V5.73019H42.5918V0.197593H44.868ZM43.7492 1.26459V2.84534H44.8294C45.2923 2.84534 45.6396 2.48967 45.6396 2.05497C45.6396 1.62026 45.2923 1.26459 44.8294 1.26459H43.7492ZM50.462 0.0790371C52.1209 0.0790371 53.394 1.38315 53.394 2.96389C53.394 4.54463 52.1209 5.84875 50.462 5.84875C48.8031 5.84875 47.53 4.54463 47.53 2.96389C47.53 1.38315 48.8031 0.0790371 50.462 0.0790371ZM50.462 4.78175C51.4265 4.78175 52.1981 3.99137 52.1981 2.96389C52.1981 1.93641 51.4265 1.14604 50.462 1.14604C49.4975 1.14604 48.7259 1.93641 48.7259 2.96389C48.7259 3.99137 49.4975 4.78175 50.462 4.78175ZM53.9342 4.66319C53.9342 4.66319 54.7829 3.87282 54.7829 1.89689V0.197593H58.5251V4.66319H59.181V6.87623H58.0236V5.73019H54.7829V6.87623H53.6255V4.66319H53.9342ZM55.0915 4.66319H57.3677V1.26459H55.9403V1.89689C55.9403 3.87282 55.0915 4.66319 55.0915 4.66319ZM64.6978 5.73019H63.5405V3.47763H61.2257V5.73019H60.0683V0.197593H61.2257V2.41063H63.5405V0.197593H64.6978V5.73019ZM67.1669 4.42608L66.704 5.73019H65.4694L67.5913 0.197593H68.8258L70.9477 5.73019H69.7132L69.2502 4.42608H67.1669ZM68.2086 1.58074L67.5527 3.3986H68.8644L68.2086 1.58074ZM75.7316 5.73019H74.5742V3.79378H73.5711L72.5295 5.73019H71.2949L72.4523 3.63571C72.4523 3.63571 71.4878 3.201 71.4878 2.01545C71.4878 1.00316 72.2594 0.197593 73.3396 0.197593H75.7316V5.73019ZM73.3782 2.72678H74.5742V1.26459H73.3782C72.9538 1.26459 72.6452 1.58074 72.6452 2.01545C72.6452 2.41063 72.9538 2.72678 73.3782 2.72678ZM78.7022 5.73019V0.197593H81.017C82.02 0.197593 82.7145 0.908927 82.7145 1.65978C82.7145 2.45015 82.0972 2.80582 82.0972 2.80582C82.0972 2.80582 82.9845 3.16149 82.9845 4.10993C82.9845 4.96414 82.2515 5.73019 81.1475 5.73019H78.7022ZM79.8596 1.18556V2.37111H80.9398C81.3256 2.37111 81.5571 2.134 81.5571 1.77834C81.5571 1.42267 81.3256 1.18556 80.9398 1.18556H79.8596ZM81.0941 4.74223C81.5185 4.74223 81.8271 4.42608 81.8271 4.03089C81.8271 3.63571 81.5185 3.31956 81.0941 3.31956H79.8596V4.74223H81.0941ZM84.0647 5.73019V0.197593H85.2221V2.01545H86.2638C87.3826 2.01545 88.1928 2.82102 88.1928 3.87282C88.1928 4.9155 87.3826 5.73019 86.2638 5.73019H84.0647ZM86.2252 4.66319C86.6881 4.66319 87.0354 4.30752 87.0354 3.87282C87.0354 3.43811 86.6881 3.08245 86.2252 3.08245H85.2221V4.66319H86.2252ZM89.9674 5.73019H88.81V0.197593H89.9674V5.73019ZM96.2173 1.18556L95.4843 1.93641C95.4843 1.93641 94.9827 1.14604 93.9797 1.14604C92.9766 1.14604 92.205 1.93641 92.205 2.96389C92.205 3.99137 92.9766 4.78175 93.9797 4.78175C95.0213 4.78175 95.5614 3.99137 95.5614 3.99137L96.2559 4.74223C96.2559 4.74223 95.4843 5.84875 93.9797 5.84875C92.3208 5.84875 91.0476 4.54463 91.0476 2.96389C91.0476 1.38315 92.3208 0.0790371 93.9797 0.0790371C95.4843 0.0790371 96.2173 1.18556 96.2173 1.18556ZM100.885 0.197593V1.26459H99.3422V5.73019H98.1849V1.26459H96.6417V0.197593H100.885ZM102.351 4.42608L101.888 5.73019H100.654L102.776 0.197593H104.01L106.132 5.73019H104.898L104.435 4.42608H102.351ZM103.393 1.58074L102.737 3.3986H104.049L103.393 1.58074ZM106.904 5.73019V0.197593H109.219C110.222 0.197593 110.916 0.908927 110.916 1.65978C110.916 2.45015 110.299 2.80582 110.299 2.80582C110.299 2.80582 111.186 3.16149 111.186 4.10993C111.186 4.96414 110.453 5.73019 109.349 5.73019H106.904ZM108.061 1.18556V2.37111H109.141C109.527 2.37111 109.759 2.134 109.759 1.77834C109.759 1.42267 109.527 1.18556 109.141 1.18556H108.061ZM109.296 4.74223C109.72 4.74223 110.029 4.42608 110.029 4.03089C110.029 3.63571 109.72 3.31956 109.296 3.31956H108.061V4.74223H109.296ZM113.424 2.60823L115.546 0.197593H116.896L114.89 2.48967L117.05 5.73019H115.7L114.118 3.35908L113.424 4.14945V5.73019H112.266V0.197593H113.424V2.60823ZM118.825 4.42608L118.362 5.73019H117.127L119.249 0.197593H120.484L122.606 5.73019H121.371L120.908 4.42608H118.825ZM119.867 1.58074L119.211 3.3986H120.522L119.867 1.58074ZM125.731 3.52627H122.953V2.57783H125.731V3.52627ZM129.936 5.88827H128.778V5.17693C127.312 5.13741 126.309 4.10993 126.309 2.88485C126.309 1.65978 127.312 0.632297 128.778 0.592778V0H129.936V0.592778C131.402 0.632297 132.405 1.65978 132.405 2.88485C132.405 4.10993 131.402 5.13741 129.936 5.17693V5.88827ZM128.778 4.14945V1.62026C127.968 1.65978 127.467 2.17352 127.467 2.88485C127.467 3.59619 127.968 4.10993 128.778 4.14945ZM129.936 1.62026V4.14945C130.746 4.10993 131.247 3.59619 131.247 2.88485C131.247 2.17352 130.746 1.65978 129.936 1.62026ZM136.031 0.0790371C137.69 0.0790371 138.963 1.38315 138.963 2.96389C138.963 4.54463 137.69 5.84875 136.031 5.84875C134.372 5.84875 133.099 4.54463 133.099 2.96389C133.099 1.38315 134.372 0.0790371 136.031 0.0790371ZM136.031 4.78175C136.996 4.78175 137.767 3.99137 137.767 2.96389C137.767 1.93641 136.996 1.14604 136.031 1.14604C135.067 1.14604 134.295 1.93641 134.295 2.96389C134.295 3.99137 135.067 4.78175 136.031 4.78175ZM142.32 0.197593C143.439 0.197593 144.249 1.01228 144.249 2.05497C144.249 3.10677 143.439 3.91234 142.32 3.91234H141.201V5.73019H140.044V0.197593H142.32ZM141.201 1.26459V2.84534H142.281C142.744 2.84534 143.091 2.48967 143.091 2.05497C143.091 1.62026 142.744 1.26459 142.281 1.26459H141.201ZM147.065 2.80582L148.145 0.197593H149.38L147.489 4.34704C147.074 5.25597 146.525 5.80923 145.599 5.80923C145.252 5.80923 144.982 5.69067 144.982 5.69067V4.66319C144.982 4.66319 145.175 4.74223 145.445 4.74223C145.908 4.74223 146.178 4.4656 146.332 4.18897L146.486 3.91234L144.557 0.197593H145.792L147.065 2.80582ZM154.834 0.197593H155.861V5.73019H154.704V2.03977L152.968 4.30752L151.232 2.05497V5.73019H150.074V0.197593H151.116L152.968 2.60823L154.834 0.197593Z" fill="black"/>
</g>
<defs>
<clipPath id="clip0_594_13512">
<rect width="155.861" height="6.87623" fill="white"/>
</clipPath>
</defs>
</svg>
