<svg width="723" height="149" viewBox="0 0 723 149" fill="none" xmlns="http://www.w3.org/2000/svg">
<g clip-path="url(#clip0_301_48969)">
<path d="M108.386 74.5055L128.726 54.1651L96.5233 54.2201L90.5647 60.1786L88.0999 62.6434L76.1875 74.5557L88.0629 86.431L90.5248 88.8929L96.4649 94.8329L128.663 94.7827L108.386 74.5055Z" fill="#D00000"/>
<path d="M40.6145 74.5055L20.2739 54.1651L52.4767 54.2201L58.4353 60.1786L60.9001 62.6434L72.8125 74.5557L60.9371 86.431L58.4752 88.8929L52.5351 94.8329L20.3371 94.7827L40.6145 74.5055Z" fill="#D00000"/>
<path d="M74.5046 40.6167L54.164 20.2763L54.2189 52.4788L60.1775 58.4374L62.6423 60.9021L74.5547 72.8145L86.4301 60.9392L88.892 58.4773L94.832 52.5372L94.7819 20.3395L74.5046 40.6167Z" fill="#D00000"/>
<path d="M74.5046 108.38L54.164 128.721L54.2189 96.5182L60.1775 90.5597L62.6423 88.0949L74.5547 76.1826L86.4301 88.0579L88.892 90.5198L94.832 96.4598L94.7819 128.658L74.5046 108.38Z" fill="#D00000"/>
<path d="M211.587 24.6074C216.752 24.6074 220.57 25.8104 223.058 28.1985C225.546 30.5866 226.732 33.9981 226.732 38.2894C226.732 42.8232 225.528 46.3245 223.058 48.8382C220.588 51.352 216.77 52.6268 211.587 52.6268H190.478V64.1541H178.891V24.6074H211.587ZM215.073 37.8495C215.114 36.6288 214.683 35.4391 213.869 34.5278C213.069 33.63 211.749 33.2619 209.854 33.2619H190.478V43.9903H209.809C211.704 43.9903 213.078 43.5234 213.878 42.6705C214.687 41.7107 215.112 40.4862 215.073 39.2321V37.8495Z" fill="#0E0E0E"/>
<path d="M274.705 24.6074V33.0914H244.353V39.9772H267.591V48.0572H244.353V55.6882H274.894V64.1721H232.766V24.6074H274.705Z" fill="#0E0E0E"/>
<path d="M281.811 34.7615C282.973 32.1907 284.796 29.9729 287.093 28.3335C289.638 26.6085 292.508 25.4202 295.528 24.8412C299.228 24.1148 302.994 23.7689 306.765 23.8088C314.508 23.8088 320.652 24.895 325.179 27.1305C329.706 29.3659 332.293 33.2622 332.922 38.8823H321.245C321.05 37.6967 320.526 36.5897 319.732 35.688C318.938 34.7862 317.905 34.126 316.753 33.783C313.507 32.8808 310.142 32.4752 306.774 32.58C304.739 32.558 302.706 32.6931 300.693 32.984C299.024 33.199 297.409 33.7227 295.932 34.5281C294.628 35.2737 293.556 36.3641 292.833 37.6793C292.016 39.2932 291.624 41.0881 291.692 42.8953V46.0555C291.613 47.8028 291.988 49.5407 292.779 51.1009C293.508 52.3956 294.58 53.4642 295.878 54.1893C297.354 54.9998 298.969 55.5266 300.639 55.7424C302.69 56.0503 304.762 56.2034 306.837 56.2003C310.102 56.295 313.365 55.9294 316.529 55.114C317.647 54.835 318.674 54.2705 319.509 53.4757C320.343 52.681 320.957 51.6832 321.29 50.5802H332.967C332.221 55.7963 329.635 59.4681 325.107 61.6497C320.58 63.8313 314.436 64.9715 306.747 64.9715C302.976 65.0113 299.21 64.6654 295.51 63.939C292.483 63.4468 289.602 62.291 287.075 60.5544C284.76 58.9957 282.93 56.8182 281.793 54.2701C280.501 51.2056 279.888 47.8978 279.997 44.5741C279.905 41.2122 280.523 37.8686 281.811 34.7615Z" fill="#0E0E0E"/>
<path d="M386.971 24.6074V64.1721H375.294V33.7826H350.655V64.1721H339.031V24.6074H386.971Z" fill="#0E0E0E"/>
<path d="M413.832 53.9555L391.375 24.6523H404.508L420.056 44.8342L433.881 24.6523H445.558L418.485 64.217H406.807L413.832 53.9555Z" fill="#0E0E0E"/>
<path d="M493.739 24.6074V32.9208H461.402V39.4565H482.754C487.514 39.4565 491.009 40.5428 493.191 42.6705C495.374 44.7983 496.461 47.8237 496.461 51.6482C496.461 55.4727 495.374 58.579 493.191 60.8145C491.009 63.0499 487.514 64.1452 482.754 64.1452H449.859V24.6074H493.739ZM484.856 51.2622C484.887 50.6973 484.795 50.1322 484.586 49.6066C484.376 49.0809 484.055 48.6073 483.643 48.2187C482.556 47.4573 481.239 47.0927 479.915 47.1863H461.393V56.2448H479.915C481.24 56.3429 482.558 55.9779 483.643 55.2124C484.057 54.8647 484.383 54.4239 484.594 53.9261C484.805 53.4283 484.894 52.8877 484.856 52.3485V51.2622Z" fill="#0E0E0E"/>
<path d="M501.15 54.3056C503.791 54.3056 505.452 53.2193 506.198 51.0378C506.944 48.8562 507.231 45.5344 507.231 41.0097V24.6074H549.907V64.1721H538.32V33.7826H518.19V41.0097C518.218 44.4762 518.044 47.9415 517.669 51.3879C517.441 53.891 516.74 56.3282 515.603 58.57C514.605 60.4191 513.027 61.889 511.111 62.7536C508.701 63.7675 506.098 64.2395 503.485 64.1362H499.641V54.2607L501.15 54.3056Z" fill="#0E0E0E"/>
<path d="M570.778 64.1721H558.688V24.6074H570.275V51.325L596.666 24.6074H608.828V64.1721H597.151V37.4545L570.778 64.1721Z" fill="#0E0E0E"/>
<path d="M629.166 24.6074V39.286H635.247L652.116 24.6074H666.686L645.128 43.3618L667.791 64.1721H652.143L634.933 48.4612H629.166V64.1721H617.578V24.6074H629.166Z" fill="#0E0E0E"/>
<path d="M702.584 24.6074L723.01 64.1721H711.018L706.428 55.1944H682.283L677.693 64.1721H666.617L687.214 24.6074H702.584ZM702.305 47.0517L694.382 31.5651L686.469 47.0517H702.305Z" fill="#0E0E0E"/>
<path d="M189.382 85.5749V116.593H178.891V77.0371H196.559L208.605 102.318L220.462 77.0371H238.355V116.593H226.75V85.3774L214.453 111.547H201.724L189.382 85.5749Z" fill="#0E0E0E"/>
<path d="M247.103 86.9575C248.343 84.4079 250.244 82.2376 252.609 80.6731C255.36 78.9828 258.409 77.8339 261.592 77.2885C265.623 76.5617 269.713 76.216 273.808 76.256C277.934 76.2203 282.054 76.569 286.115 77.2975C289.297 77.8433 292.346 78.9921 295.097 80.682C297.467 82.2437 299.372 84.4145 300.613 86.9664C303.128 93.2388 303.128 100.239 300.613 106.511C299.41 109.126 297.499 111.352 295.097 112.939C292.361 114.67 289.308 115.839 286.115 116.377C282.063 117.106 277.952 117.451 273.835 117.41C269.74 117.454 265.649 117.109 261.619 116.377C258.426 115.839 255.372 114.67 252.636 112.939C250.239 111.349 248.332 109.123 247.13 106.511C244.603 100.241 244.603 93.2364 247.13 86.9664L247.103 86.9575ZM290.821 95.1002C290.821 91.3655 289.384 88.735 286.519 87.2358C283.653 85.7365 279.405 85.0003 273.835 85.0003C268.266 85.0003 264.026 85.7545 261.26 87.2358C258.493 88.7171 256.957 91.3655 256.957 95.1002V98.3681C256.957 102.318 258.391 105.012 261.26 106.448C264.071 107.884 268.32 108.63 273.835 108.63C279.351 108.63 283.644 107.884 286.519 106.448C289.393 105.012 290.821 102.318 290.821 98.3681V95.1002Z" fill="#0E0E0E"/>
<path d="M342.051 77.0371C347.216 77.0371 351.034 78.2401 353.531 80.6282C356.028 83.0163 357.196 86.4188 357.196 90.7191C357.196 95.208 355.992 98.7452 353.531 101.268C351.07 103.791 347.243 105.057 342.051 105.057H320.942V116.575H309.391V77.0371H342.051ZM345.492 90.2792C345.537 89.0579 345.105 87.8669 344.288 86.9575C343.489 86.0597 342.168 85.6916 340.273 85.6916H320.942V96.4199H340.273C342.168 96.4199 343.543 95.9531 344.351 95.1002C345.142 94.1299 345.548 92.9029 345.492 91.6528V90.2792Z" fill="#0E0E0E"/>
<path d="M359.898 107.427H365.18C366.193 105.697 366.927 103.818 367.354 101.86C368.049 98.5831 368.35 95.2348 368.252 91.8862V77.0371H412.716V107.427H418.564V125.193H407.785V116.593H370.687V125.193H359.907L359.898 107.427ZM379.229 86.2123V91.8862C379.293 95.2245 379.065 98.562 378.546 101.86C378.222 103.799 377.601 105.677 376.705 107.427H401.147V86.2123H379.229Z" fill="#0E0E0E"/>
<path d="M424.56 86.9575C425.8 84.4079 427.702 82.2376 430.067 80.6731C432.819 78.9857 435.867 77.8371 439.049 77.2885C443.08 76.5617 447.17 76.216 451.266 76.256C455.391 76.2199 459.511 76.5686 463.572 77.2975C466.754 77.8461 469.802 78.9947 472.554 80.682C474.92 82.2466 476.821 84.4169 478.061 86.9664C480.576 93.2388 480.576 100.239 478.061 106.511C476.859 109.123 474.952 111.349 472.554 112.939C469.817 114.667 466.764 115.836 463.572 116.377C459.529 117.101 455.427 117.444 451.319 117.401C447.224 117.445 443.133 117.1 439.103 116.368C435.911 115.827 432.858 114.658 430.121 112.93C427.723 111.34 425.816 109.114 424.614 106.502C422.087 100.232 422.087 93.2275 424.614 86.9575H424.56ZM468.279 95.1002C468.279 91.3655 466.841 88.735 463.976 87.2358C461.111 85.7365 456.862 85.0003 451.293 85.0003C445.723 85.0003 441.484 85.7545 438.672 87.2358C435.86 88.7171 434.369 91.3655 434.369 95.1002V98.3681C434.369 102.318 435.804 105.012 438.672 106.448C441.484 107.884 445.732 108.63 451.293 108.63C456.853 108.63 461.102 107.884 463.976 106.448C466.85 105.012 468.279 102.318 468.279 98.3681V95.1002Z" fill="#0E0E0E"/>
<path d="M519.401 77.0371C523.533 77.0371 526.686 77.8391 528.86 79.4432C529.951 80.2818 530.82 81.3751 531.39 82.6273C531.96 83.8794 532.214 85.2522 532.13 86.6253C532.15 88.4588 531.676 90.2639 530.755 91.8503C529.596 93.6228 527.819 94.9023 525.77 95.4414C528.098 95.9097 530.187 97.1808 531.672 99.0325C532.895 100.775 533.525 102.865 533.468 104.994C533.468 108.782 532.381 111.646 530.145 113.648C527.908 115.65 524.521 116.629 519.994 116.629H486.812V77.0371H519.401ZM520.434 87.9899C520.473 87.4595 520.384 86.9276 520.174 86.4387C519.965 85.9499 519.641 85.5182 519.231 85.1799C518.167 84.4889 516.902 84.1729 515.638 84.2821H498.346V92.8289H515.674C516.956 92.9242 518.231 92.558 519.267 91.7964C519.683 91.4373 520.009 90.9852 520.218 90.4767C520.427 89.9683 520.514 89.4178 520.47 88.8697L520.434 87.9899ZM521.863 103.809C521.893 103.243 521.79 102.678 521.56 102.16C521.331 101.642 520.982 101.185 520.542 100.828C519.349 100.062 517.942 99.7005 516.527 99.7956H498.346V109.375H516.527C517.934 109.476 519.333 109.089 520.488 108.279C520.965 107.887 521.339 107.384 521.578 106.815C521.818 106.246 521.915 105.627 521.863 105.012V103.809Z" fill="#0E0E0E"/>
<path d="M552.387 116.593H540.242V77.0371H551.83V103.755L578.221 77.0371H590.383V116.593H578.706V89.8662L552.387 116.593Z" fill="#0E0E0E"/>
<path d="M618.467 103.413L609.404 116.593H596.828L606.413 102.668C603.771 102.061 601.42 100.561 599.756 98.4217C598.099 96.0391 597.272 93.1778 597.403 90.279C597.403 86.2121 598.67 82.9981 601.248 80.5921C603.826 78.186 607.383 77.001 612.143 77.001H645.307V116.557H633.657V103.413H618.467ZM614.398 85.6375C613.022 85.5613 611.657 85.9228 610.5 86.6699C610.024 87.0011 609.641 87.4494 609.389 87.9716C609.138 88.4938 609.025 89.0721 609.062 89.6505V90.7638C609.025 91.3511 609.138 91.9383 609.389 92.4705C609.64 93.0027 610.022 93.4626 610.5 93.8072C611.64 94.597 613.013 94.9797 614.398 94.8935H633.657V85.6375H614.398Z" fill="#0E0E0E"/>
</g>
<defs>
<clipPath id="clip0_301_48969">
<rect width="723" height="149" fill="white"/>
</clipPath>
</defs>
</svg>
