<svg width="340" height="72" viewBox="0 0 340 72" fill="none" xmlns="http://www.w3.org/2000/svg">
<g clip-path="url(#clip0_387_67393)">
<path d="M42.5828 36.0031L52.4118 26.1742L36.8508 26.2007L33.9715 29.08L32.7805 30.2711L27.0242 36.0273L32.7626 41.7657L33.9522 42.9554L36.8225 45.8257L52.3812 45.8015L42.5828 36.0031Z" fill="#D00000"/>
<path d="M9.84051 36.0031L0.0115893 26.1742L15.5726 26.2007L18.4519 29.08L19.6429 30.2711L25.3992 36.0273L19.6608 41.7657L18.4711 42.9554L15.6008 45.8257L0.0421292 45.8015L9.84051 36.0031Z" fill="#D00000"/>
<path d="M26.2187 19.6269L16.3898 9.79797L16.4163 25.3589L19.2956 28.2382L20.4866 29.4293L26.2429 35.1855L31.9813 29.4472L33.171 28.2575L36.0413 25.3872L36.0171 9.82851L26.2187 19.6269Z" fill="#D00000"/>
<path d="M26.2187 52.3721L16.3898 62.2011L16.4163 46.6401L19.2956 43.7608L20.4866 42.5698L26.2429 36.8135L31.9813 42.5519L33.171 43.7415L36.0413 46.6119L36.0171 62.1705L26.2187 52.3721Z" fill="#D00000"/>
<path d="M92.4262 11.8906C94.922 11.8906 96.7667 12.4719 97.9691 13.6259C99.1714 14.7799 99.7444 16.4284 99.7444 18.5021C99.7444 20.6929 99.1627 22.3848 97.9691 23.5995C96.7754 24.8142 94.9307 25.4302 92.4262 25.4302H82.2259V31.0005H76.6266V11.8906H92.4262ZM94.1103 18.2895C94.1302 17.6996 93.9219 17.1247 93.5287 16.6843C93.1424 16.2505 92.5043 16.0727 91.5885 16.0727H82.2259V21.2568H91.5668C92.4826 21.2568 93.1467 21.0312 93.533 20.6191C93.9238 20.1553 94.1294 19.5636 94.1103 18.9576V18.2895Z" fill="#0E0E0E"/>
<path d="M122.924 11.8906V15.9902H108.257V19.3176H119.486V23.222H108.257V26.9095H123.015V31.0091H102.658V11.8906H122.924Z" fill="#0E0E0E"/>
<path d="M126.361 16.797C126.922 15.5547 127.803 14.4831 128.913 13.6909C130.143 12.8573 131.53 12.2831 132.989 12.0033C134.777 11.6523 136.597 11.4852 138.419 11.5044C142.16 11.5044 145.129 12.0293 147.317 13.1096C149.505 14.1898 150.755 16.0726 151.059 18.7883H145.416C145.322 18.2154 145.069 17.6805 144.685 17.2447C144.301 16.809 143.802 16.49 143.246 16.3242C141.677 15.8882 140.051 15.6922 138.423 15.7429C137.44 15.7322 136.458 15.7975 135.485 15.9381C134.678 16.042 133.898 16.295 133.184 16.6842C132.554 17.0445 132.036 17.5714 131.687 18.207C131.292 18.9868 131.102 19.8542 131.135 20.7275V22.2545C131.097 23.0989 131.278 23.9387 131.661 24.6926C132.013 25.3182 132.531 25.8346 133.158 26.1849C133.871 26.5766 134.652 26.8312 135.459 26.9354C136.45 27.0842 137.451 27.1582 138.454 27.1567C140.032 27.2025 141.608 27.0258 143.137 26.6318C143.677 26.497 144.174 26.2242 144.577 25.8401C144.98 25.4561 145.277 24.974 145.438 24.441H151.08C150.72 26.9615 149.47 28.7358 147.282 29.79C145.095 30.8442 142.126 31.3951 138.41 31.3951C136.588 31.4144 134.768 31.2472 132.98 30.8962C131.517 30.6584 130.125 30.0999 128.904 29.2607C127.786 28.5075 126.901 27.4553 126.352 26.224C125.728 24.7432 125.432 23.1448 125.484 21.5387C125.44 19.9141 125.738 18.2984 126.361 16.797Z" fill="#0E0E0E"/>
<path d="M177.175 11.8906V31.0091H171.532V16.3243H159.626V31.0091H154.009V11.8906H177.175Z" fill="#0E0E0E"/>
<path d="M190.158 26.072L179.306 11.9121H185.652L193.166 21.6644L199.846 11.9121H205.489L192.406 31.0306H186.763L190.158 26.072Z" fill="#0E0E0E"/>
<path d="M228.768 11.8906V15.9078H213.142V19.066H223.459C225.76 19.066 227.448 19.591 228.503 20.6191C229.558 21.6473 230.083 23.1092 230.083 24.9573C230.083 26.8054 229.558 28.3064 228.503 29.3867C227.448 30.4669 225.76 30.9961 223.459 30.9961H207.564V11.8906H228.768ZM224.475 24.7708C224.49 24.4978 224.446 24.2248 224.344 23.9708C224.243 23.7167 224.088 23.4879 223.889 23.3001C223.364 22.9322 222.728 22.756 222.088 22.8012H213.137V27.1785H222.088C222.728 27.2259 223.364 27.0495 223.889 26.6796C224.089 26.5116 224.247 26.2986 224.348 26.0581C224.45 25.8175 224.494 25.5562 224.475 25.2957V24.7708Z" fill="#0E0E0E"/>
<path d="M232.348 26.2414C233.624 26.2414 234.427 25.7165 234.787 24.6623C235.148 23.6081 235.287 22.003 235.287 19.8165V11.8906H255.909V31.0091H250.309V16.3243H240.582V19.8165C240.596 21.4917 240.511 23.1662 240.33 24.8315C240.22 26.0411 239.881 27.2188 239.332 28.3021C238.85 29.1956 238.087 29.9059 237.162 30.3237C235.997 30.8136 234.739 31.0417 233.477 30.9918H231.619V26.2197L232.348 26.2414Z" fill="#0E0E0E"/>
<path d="M266 31.0091H260.158V11.8906H265.757V24.8012L278.51 11.8906H284.387V31.0091H278.744V18.0986L266 31.0091Z" fill="#0E0E0E"/>
<path d="M294.21 11.8906V18.9836H297.149L305.3 11.8906H312.341L301.923 20.9532L312.875 31.0091H305.313L296.997 23.4173H294.21V31.0091H288.611V11.8906H294.21Z" fill="#0E0E0E"/>
<path d="M329.678 11.8906L339.548 31.0091H333.754L331.536 26.6709H319.868L317.65 31.0091H312.298L322.251 11.8906H329.678ZM329.543 22.7362L325.715 15.2527L321.891 22.7362H329.543Z" fill="#0E0E0E"/>
<path d="M81.6963 41.3512V56.3398H76.6266V37.2256H85.1644L90.9851 49.442L96.7147 37.2256H105.361V56.3398H99.753V41.2558L93.8108 53.9017H87.6603L81.6963 41.3512Z" fill="#0E0E0E"/>
<path d="M109.592 42.0193C110.191 40.7873 111.11 39.7386 112.253 38.9826C113.582 38.1658 115.055 37.6106 116.593 37.3471C118.541 36.9959 120.517 36.8288 122.496 36.8482C124.49 36.8309 126.481 36.9994 128.443 37.3514C129.981 37.6152 131.454 38.1703 132.784 38.9869C133.929 39.7415 134.849 40.7905 135.449 42.0237C136.664 45.0546 136.664 48.4371 135.449 51.468C134.867 52.7315 133.944 53.8074 132.784 54.5741C131.461 55.4106 129.986 55.9754 128.443 56.2357C126.485 56.5876 124.499 56.7546 122.509 56.7346C120.53 56.7561 118.554 56.589 116.606 56.2357C115.063 55.9757 113.588 55.4108 112.266 54.5741C111.107 53.806 110.186 52.7304 109.605 51.468C108.384 48.4382 108.384 45.0535 109.605 42.0237L109.592 42.0193ZM130.717 45.9541C130.717 44.1494 130.023 42.8783 128.638 42.1538C127.254 41.4293 125.201 41.0736 122.509 41.0736C119.818 41.0736 117.77 41.438 116.433 42.1538C115.096 42.8696 114.354 44.1494 114.354 45.9541V47.5332C114.354 49.442 115.047 50.7435 116.433 51.4376C117.791 52.1317 119.844 52.4918 122.509 52.4918C125.175 52.4918 127.249 52.1317 128.638 51.4376C130.027 50.7435 130.717 49.442 130.717 47.5332V45.9541Z" fill="#0E0E0E"/>
<path d="M155.471 37.2256C157.967 37.2256 159.812 37.8069 161.019 38.9609C162.225 40.1148 162.789 41.759 162.789 43.837C162.789 46.0061 162.208 47.7154 161.019 48.9344C159.829 50.1535 157.98 50.7652 155.471 50.7652H145.271V56.3311H139.689V37.2256H155.471ZM157.134 43.6245C157.155 43.0343 156.947 42.4588 156.552 42.0193C156.166 41.5855 155.528 41.4076 154.612 41.4076H145.271V46.5918H154.612C155.528 46.5918 156.192 46.3662 156.583 45.9541C156.965 45.4852 157.161 44.8923 157.134 44.2882V43.6245Z" fill="#0E0E0E"/>
<path d="M164.095 51.9104H166.648C167.137 51.0746 167.491 50.1669 167.698 49.2207C168.034 47.6371 168.179 46.0191 168.132 44.401V37.2256H189.618V51.9104H192.443V60.4958H187.235V56.3398H169.308V60.4958H164.1L164.095 51.9104ZM173.436 41.6592V44.401C173.467 46.0141 173.357 47.6269 173.106 49.2207C172.95 50.1577 172.65 51.0649 172.216 51.9104H184.027V41.6592H173.436Z" fill="#0E0E0E"/>
<path d="M195.337 42.0193C195.936 40.7873 196.855 39.7386 197.998 38.9826C199.328 38.1672 200.801 37.6122 202.338 37.3471C204.286 36.9959 206.262 36.8288 208.241 36.8482C210.235 36.8307 212.226 36.9992 214.188 37.3514C215.725 37.6165 217.198 38.1716 218.528 38.9869C219.671 39.7429 220.59 40.7917 221.189 42.0237C222.404 45.0546 222.404 48.4371 221.189 51.468C220.608 52.7304 219.687 53.8061 218.528 54.5741C217.206 55.4094 215.73 55.9741 214.188 56.2357C212.234 56.5855 210.252 56.7511 208.267 56.7302C206.288 56.7518 204.312 56.5847 202.364 56.2313C200.822 55.9697 199.346 55.405 198.024 54.5698C196.865 53.8017 195.944 52.7261 195.363 51.4636C194.142 48.4338 194.142 45.0491 195.363 42.0193H195.337ZM216.462 45.9541C216.462 44.1494 215.768 42.8783 214.383 42.1538C212.998 41.4293 210.945 41.0736 208.254 41.0736C205.563 41.0736 203.514 41.438 202.156 42.1538C200.797 42.8696 200.077 44.1494 200.077 45.9541V47.5332C200.077 49.442 200.77 50.7435 202.156 51.4376C203.514 52.1317 205.567 52.4918 208.254 52.4918C210.941 52.4918 212.994 52.1317 214.383 51.4376C215.772 50.7435 216.462 49.442 216.462 47.5332V45.9541Z" fill="#0E0E0E"/>
<path d="M241.163 37.2256C243.16 37.2256 244.683 37.6131 245.734 38.3882C246.261 38.7935 246.681 39.3218 246.956 39.9269C247.232 40.5319 247.354 41.1953 247.314 41.8588C247.324 42.7448 247.094 43.6171 246.65 44.3836C246.089 45.2401 245.231 45.8584 244.241 46.1189C245.365 46.3452 246.375 46.9594 247.092 47.8542C247.684 48.6964 247.988 49.7064 247.96 50.7348C247.96 52.5655 247.435 53.9494 246.354 54.9168C245.274 55.8842 243.637 56.3571 241.45 56.3571H225.416V37.2256H241.163ZM241.662 42.5182C241.681 42.2619 241.638 42.0049 241.537 41.7686C241.435 41.5324 241.279 41.3238 241.081 41.1603C240.566 40.8264 239.955 40.6738 239.344 40.7265H230.989V44.8565H239.362C239.982 44.9026 240.597 44.7256 241.098 44.3576C241.299 44.1841 241.457 43.9656 241.558 43.7199C241.659 43.4742 241.701 43.2082 241.68 42.9434L241.662 42.5182ZM242.352 50.1621C242.367 49.8888 242.317 49.6158 242.206 49.3655C242.095 49.1152 241.927 48.8946 241.714 48.7219C241.138 48.3519 240.458 48.177 239.774 48.223H230.989V52.8518H239.774C240.454 52.9006 241.13 52.7137 241.688 52.3226C241.919 52.1327 242.099 51.8898 242.215 51.6148C242.331 51.3397 242.378 51.0407 242.352 50.7435V50.1621Z" fill="#0E0E0E"/>
<path d="M257.104 56.3398H251.236V37.2256H256.835V50.1361L269.588 37.2256H275.465V56.3398H269.822V43.4249L257.104 56.3398Z" fill="#0E0E0E"/>
<path d="M289.036 49.972L284.656 56.3405H278.58L283.211 49.6119C281.934 49.3186 280.798 48.5938 279.995 47.56C279.194 46.4086 278.794 45.026 278.858 43.6252C278.858 41.66 279.47 40.1069 280.715 38.9443C281.961 37.7816 283.68 37.209 285.98 37.209H302.006V56.3232H296.376V49.972H289.036ZM287.07 41.3823C286.405 41.3455 285.745 41.5202 285.186 41.8812C284.956 42.0412 284.771 42.2579 284.65 42.5102C284.528 42.7626 284.473 43.042 284.492 43.3215V43.8595C284.474 44.1433 284.528 44.427 284.649 44.6842C284.771 44.9413 284.955 45.1636 285.186 45.3301C285.737 45.7118 286.401 45.8967 287.07 45.855H296.376V41.3823H287.07Z" fill="#0E0E0E"/>
</g>
<defs>
<clipPath id="clip0_387_67393">
<rect width="340" height="72" fill="white"/>
</clipPath>
</defs>
</svg>
