<svg width="350" height="72" viewBox="0 0 350 72" fill="none" xmlns="http://www.w3.org/2000/svg">
<g clip-path="url(#clip0_115_42263)">
<path d="M52.3731 36.0031L62.202 26.1742L46.6411 26.2007L43.7618 29.08L42.5707 30.2711L36.8145 36.0273L42.5528 41.7657L43.7425 42.9554L46.6128 45.8257L62.1715 45.8015L52.3731 36.0031Z" fill="#D00000"/>
<path d="M19.6269 36.0031L9.79797 26.1742L25.3589 26.2007L28.2382 29.08L29.4293 30.2711L35.1855 36.0273L29.4472 41.7657L28.2575 42.9554L25.3872 45.8257L9.82851 45.8015L19.6269 36.0031Z" fill="#D00000"/>
<path d="M36.0031 19.6269L26.1742 9.79797L26.2007 25.3589L29.08 28.2382L30.2711 29.4293L36.0273 35.1855L41.7657 29.4472L42.9554 28.2575L45.8257 25.3872L45.8015 9.82851L36.0031 19.6269Z" fill="#D00000"/>
<path d="M36.0031 52.3721L26.1742 62.2011L26.2007 46.6401L29.08 43.7608L30.2711 42.5698L36.0273 36.8135L41.7657 42.5519L42.9554 43.7415L45.8257 46.6119L45.8015 62.1705L36.0031 52.3721Z" fill="#D00000"/>
<path d="M102.241 11.8916C104.737 11.8916 106.582 12.4729 107.784 13.6269C108.986 14.7809 109.559 16.4294 109.559 18.503C109.559 20.6938 108.978 22.3857 107.784 23.6004C106.59 24.8151 104.746 25.4312 102.241 25.4312H92.0407V31.0014H86.4414V11.8916H102.241ZM103.925 18.2905C103.945 17.7006 103.737 17.1257 103.344 16.6853C102.957 16.2515 102.319 16.0736 101.403 16.0736H92.0407V21.2578H101.382C102.297 21.2578 102.962 21.0322 103.348 20.6201C103.739 20.1563 103.944 19.5646 103.925 18.9586V18.2905Z" fill="#0E0E0E"/>
<path d="M132.739 11.8916V15.9912H118.072V19.3186H129.301V23.223H118.072V26.9105H132.83V31.0101H112.473V11.8916H132.739Z" fill="#0E0E0E"/>
<path d="M136.176 16.798C136.737 15.5557 137.618 14.4841 138.728 13.6919C139.958 12.8583 141.344 12.2841 142.804 12.0043C144.592 11.6533 146.411 11.4861 148.234 11.5054C151.975 11.5054 154.944 12.0303 157.132 13.1105C159.319 14.1907 160.57 16.0735 160.873 18.7893H155.231C155.137 18.2164 154.883 17.6815 154.5 17.2457C154.116 16.8099 153.617 16.4909 153.06 16.3251C151.491 15.8892 149.866 15.6932 148.238 15.7438C147.255 15.7332 146.272 15.7985 145.299 15.9391C144.493 16.043 143.713 16.296 142.999 16.6852C142.369 17.0455 141.851 17.5724 141.501 18.2079C141.107 18.9878 140.917 19.8551 140.95 20.7284V22.2555C140.912 23.0998 141.093 23.9397 141.475 24.6936C141.828 25.3192 142.346 25.8355 142.973 26.1859C143.686 26.5776 144.466 26.8321 145.273 26.9364C146.265 27.0852 147.266 27.1592 148.268 27.1577C149.846 27.2035 151.423 27.0268 152.952 26.6328C153.492 26.4979 153.988 26.2252 154.392 25.8411C154.795 25.4571 155.092 24.9749 155.252 24.4419H160.895C160.535 26.9624 159.285 28.7368 157.097 29.791C154.909 30.8452 151.941 31.3961 148.225 31.3961C146.403 31.4154 144.583 31.2482 142.795 30.8972C141.332 30.6594 139.94 30.1008 138.719 29.2617C137.601 28.5085 136.716 27.4563 136.167 26.225C135.543 24.7441 135.246 23.1458 135.299 21.5397C135.254 19.9151 135.553 18.2994 136.176 16.798Z" fill="#0E0E0E"/>
<path d="M186.992 11.8916V31.0101H181.349V16.3253H169.443V31.0101H163.826V11.8916H186.992Z" fill="#0E0E0E"/>
<path d="M199.969 26.073L189.117 11.9131H195.463L202.977 21.6654L209.657 11.9131H215.3L202.217 31.0316H196.575L199.969 26.073Z" fill="#0E0E0E"/>
<path d="M238.583 11.8916V15.9088H222.957V19.067H233.274C235.575 19.067 237.263 19.5919 238.318 20.6201C239.373 21.6482 239.898 23.1102 239.898 24.9583C239.898 26.8064 239.373 28.3074 238.318 29.3876C237.263 30.4678 235.575 30.9971 233.274 30.9971H217.379V11.8916H238.583ZM234.29 24.7718C234.305 24.4988 234.26 24.2257 234.159 23.9717C234.058 23.7177 233.903 23.4888 233.704 23.3011C233.178 22.9331 232.542 22.757 231.902 22.8022H222.952V27.1795H231.902C232.543 27.2268 233.179 27.0505 233.704 26.6806C233.904 26.5126 234.061 26.2996 234.163 26.059C234.265 25.8185 234.308 25.5572 234.29 25.2967V24.7718Z" fill="#0E0E0E"/>
<path d="M242.165 26.2424C243.441 26.2424 244.244 25.7175 244.604 24.6633C244.964 23.6091 245.103 22.004 245.103 19.8175V11.8916H265.725V31.0101H260.126V16.3253H250.399V19.8175C250.412 21.4926 250.328 23.1671 250.147 24.8325C250.037 26.0421 249.698 27.2198 249.149 28.3031C248.667 29.1966 247.904 29.9069 246.978 30.3247C245.814 30.8146 244.556 31.0427 243.293 30.9928H241.436V26.2207L242.165 26.2424Z" fill="#0E0E0E"/>
<path d="M275.811 31.0101H269.969V11.8916H275.568V24.8021L288.321 11.8916H294.198V31.0101H288.555V18.0996L275.811 31.0101Z" fill="#0E0E0E"/>
<path d="M304.025 11.8916V18.9846H306.964L315.115 11.8916H322.156L311.738 20.9541L322.69 31.0101H315.128L306.812 23.4182H304.025V31.0101H298.426V11.8916H304.025Z" fill="#0E0E0E"/>
<path d="M339.497 11.8916L349.367 31.0101H343.573L341.355 26.6719H329.687L327.469 31.0101H322.117L332.07 11.8916H339.497ZM339.362 22.7371L335.534 15.2537L331.71 22.7371H339.362Z" fill="#0E0E0E"/>
<path d="M91.5112 41.3522V56.3407H86.4414V37.2266H94.9793L100.8 49.443L106.53 37.2266H115.176V56.3407H109.568V41.2568L103.626 53.9027H97.4751L91.5112 41.3522Z" fill="#0E0E0E"/>
<path d="M119.403 42.0203C120.002 40.7883 120.921 39.7396 122.064 38.9836C123.393 38.1668 124.866 37.6116 126.404 37.3481C128.352 36.9969 130.328 36.8298 132.307 36.8492C134.301 36.8319 136.292 37.0004 138.254 37.3524C139.792 37.6162 141.265 38.1713 142.594 38.9879C143.74 39.7425 144.66 40.7915 145.26 42.0246C146.475 45.0556 146.475 48.438 145.26 51.4689C144.678 52.7324 143.755 53.8083 142.594 54.5751C141.272 55.4116 139.797 55.9764 138.254 56.2366C136.296 56.5885 134.31 56.7556 132.32 56.7355C130.341 56.7571 128.365 56.59 126.417 56.2366C124.874 55.9766 123.399 55.4118 122.077 54.5751C120.918 53.807 119.997 52.7314 119.416 51.4689C118.195 48.4392 118.195 45.0544 119.416 42.0246L119.403 42.0203ZM140.528 45.9551C140.528 44.1504 139.834 42.8793 138.449 42.1548C137.065 41.4303 135.012 41.0746 132.32 41.0746C129.629 41.0746 127.58 41.439 126.244 42.1548C124.907 42.8706 124.164 44.1504 124.164 45.9551V47.5342C124.164 49.443 124.858 50.7445 126.244 51.4386C127.602 52.1327 129.655 52.4928 132.32 52.4928C134.985 52.4928 137.06 52.1327 138.449 51.4386C139.838 50.7445 140.528 49.443 140.528 47.5342V45.9551Z" fill="#0E0E0E"/>
<path d="M165.284 37.2266C167.78 37.2266 169.625 37.8079 170.831 38.9618C172.038 40.1158 172.602 41.76 172.602 43.838C172.602 46.0071 172.021 47.7164 170.831 48.9354C169.642 50.1545 167.793 50.7661 165.284 50.7661H155.084V56.3321H149.502V37.2266H165.284ZM166.947 43.6254C166.968 43.0352 166.76 42.4597 166.365 42.0203C165.979 41.5865 165.341 41.4086 164.425 41.4086H155.084V46.5928H164.425C165.341 46.5928 166.005 46.3672 166.395 45.955C166.777 45.4862 166.974 44.8933 166.947 44.2892V43.6254Z" fill="#0E0E0E"/>
<path d="M173.908 51.9114H176.461C176.95 51.0756 177.304 50.1679 177.511 49.2217C177.847 47.6381 177.992 46.0201 177.945 44.402V37.2266H199.431V51.9114H202.257V60.4968H197.048V56.3407H179.121V60.4968H173.913L173.908 51.9114ZM183.249 41.6602V44.402C183.28 46.0151 183.17 47.6278 182.919 49.2217C182.763 50.1586 182.463 51.0658 182.03 51.9114H193.84V41.6602H183.249Z" fill="#0E0E0E"/>
<path d="M205.152 42.0203C205.751 40.7883 206.669 39.7396 207.812 38.9836C209.142 38.1682 210.615 37.6132 212.153 37.3481C214.101 36.9969 216.077 36.8298 218.056 36.8492C220.05 36.8317 222.04 37.0002 224.003 37.3524C225.54 37.6175 227.013 38.1725 228.343 38.9879C229.486 39.7439 230.405 40.7926 231.004 42.0246C232.219 45.0556 232.219 48.438 231.004 51.469C230.423 52.7314 229.502 53.807 228.343 54.5751C227.02 55.4103 225.545 55.9751 224.003 56.2366C222.049 56.5865 220.067 56.752 218.082 56.7312C216.103 56.7527 214.126 56.5857 212.179 56.2323C210.636 55.9707 209.161 55.406 207.838 54.5708C206.68 53.8027 205.758 52.727 205.178 51.4646C203.956 48.4348 203.956 45.0501 205.178 42.0203H205.152ZM226.277 45.9551C226.277 44.1504 225.583 42.8793 224.198 42.1548C222.813 41.4303 220.76 41.0746 218.069 41.0746C215.378 41.0746 213.329 41.439 211.971 42.1548C210.612 42.8706 209.891 44.1504 209.891 45.9551V47.5342C209.891 49.443 210.585 50.7445 211.971 51.4386C213.329 52.1327 215.382 52.4928 218.069 52.4928C220.756 52.4928 222.809 52.1327 224.198 51.4386C225.587 50.7445 226.277 49.443 226.277 47.5342V45.9551Z" fill="#0E0E0E"/>
<path d="M250.98 37.2266C252.977 37.2266 254.5 37.6141 255.551 38.3892C256.078 38.7945 256.497 39.3228 256.773 39.9279C257.048 40.5329 257.171 41.1963 257.131 41.8598C257.14 42.7458 256.911 43.6181 256.466 44.3846C255.906 45.2411 255.048 45.8594 254.057 46.1199C255.182 46.3462 256.192 46.9604 256.909 47.8552C257.5 48.6974 257.805 49.7073 257.777 50.7358C257.777 52.5665 257.252 53.9504 256.171 54.9178C255.09 55.8852 253.454 56.3581 251.266 56.3581H235.232V37.2266H250.98ZM251.479 42.5192C251.498 42.2629 251.455 42.0059 251.353 41.7696C251.252 41.5334 251.096 41.3248 250.897 41.1613C250.383 40.8274 249.772 40.6747 249.161 40.7275H240.806V44.8575H249.179C249.798 44.9036 250.414 44.7266 250.915 44.3586C251.116 44.185 251.274 43.9666 251.375 43.7209C251.476 43.4752 251.517 43.2092 251.496 42.9443L251.479 42.5192ZM252.169 50.1631C252.184 49.8898 252.134 49.6168 252.023 49.3665C251.912 49.1161 251.744 48.8956 251.531 48.7228C250.955 48.3529 250.275 48.178 249.591 48.2239H240.806V52.8528H249.591C250.271 52.9016 250.947 52.7147 251.505 52.3236C251.735 52.1337 251.916 51.8908 252.032 51.6158C252.148 51.3407 252.195 51.0417 252.169 50.7444V50.1631Z" fill="#0E0E0E"/>
<path d="M266.923 56.3407H261.055V37.2266H266.654V50.1371L279.407 37.2266H285.284V56.3407H279.641V43.4259L266.923 56.3407Z" fill="#0E0E0E"/>
<path d="M298.855 49.972L294.475 56.3405H288.398L293.03 49.6119C291.753 49.3186 290.617 48.5938 289.813 47.56C289.013 46.4086 288.613 45.026 288.676 43.6252C288.676 41.66 289.288 40.1069 290.534 38.9443C291.78 37.7816 293.499 37.209 295.799 37.209H311.824V56.3232H306.195V49.972H298.855ZM296.889 41.3823C296.224 41.3455 295.564 41.5202 295.005 41.8812C294.775 42.0412 294.59 42.2579 294.468 42.5102C294.347 42.7626 294.292 43.042 294.31 43.3215V43.8595C294.292 44.1433 294.347 44.427 294.468 44.6842C294.589 44.9413 294.774 45.1636 295.005 45.3301C295.556 45.7118 296.219 45.8967 296.889 45.855H306.195V41.3823H296.889Z" fill="#0E0E0E"/>
</g>
<defs>
<clipPath id="clip0_115_42263">
<rect width="349.366" height="72" fill="white"/>
</clipPath>
</defs>
</svg>
