<svg width="960" height="620" viewBox="0 0 960 620" fill="none" xmlns="http://www.w3.org/2000/svg">
<g clip-path="url(#clip0_110_209012)">
<g opacity="0.2">
<path d="M929.201 371.802L898.302 340.903L867.403 310.004L898.254 279.152H898.302L929.153 248.253H929.201L960.1 217.306L929.201 186.407L898.302 155.507L867.403 124.608L836.504 155.507H836.456L805.556 186.455L836.456 217.354L867.355 186.455L898.254 217.354L867.403 248.205H867.355L836.504 279.104L805.604 248.205L774.705 217.306L743.806 186.407L712.907 155.507L682.007 124.608L712.859 93.7569H712.907L743.758 62.8577L774.657 93.7569L743.758 124.656L774.657 155.555L805.556 124.656H805.604L836.504 93.7089L805.604 62.8097L774.705 31.9105L743.806 1.01123L712.907 31.9105H712.859L682.007 62.8097H681.959L651.108 93.7089L620.209 62.8097L589.31 31.9105L558.41 1.01123L527.511 31.9105H527.463L496.612 62.8097H496.564L465.665 93.7569L496.564 124.656L527.463 155.555L558.41 124.608L527.511 93.7089L558.363 62.8577L589.262 93.7569L620.161 124.656L589.31 155.507H589.262L558.41 186.407H558.363L527.511 217.306H527.463L496.612 248.205H496.564L465.713 279.104L434.814 248.205L403.914 217.306L434.766 186.455L465.665 217.354L496.612 186.407L465.713 155.507L434.814 124.608L403.914 155.507H403.866L373.015 186.407H372.967L342.068 217.354L372.967 248.253L403.866 279.152L434.766 310.052L403.914 340.903H403.866L373.015 371.802H372.967L342.068 402.749L372.967 433.648L403.866 464.548L434.766 495.447L465.665 464.548H465.713L496.612 433.6L465.713 402.701L434.814 433.6L403.914 402.701L434.766 371.85H434.814L465.665 340.951L496.564 371.85L527.463 402.749L558.363 433.648L589.262 464.548L620.161 495.447L589.31 526.298H589.262L558.41 557.197L527.511 526.298L558.41 495.399L527.511 464.5L496.612 495.399H496.564L465.665 526.346L496.564 557.245L527.463 588.145L558.363 619.044L589.262 588.145H589.31L620.161 557.245H620.209L651.06 526.346L681.959 557.245L712.859 588.145L743.758 619.044L774.657 588.145H774.705L805.556 557.245H805.604L836.504 526.298L805.604 495.399L774.705 464.5L743.758 495.447L774.657 526.346L743.806 557.197L712.907 526.298L682.007 495.399L712.859 464.548H712.907L743.758 433.648H743.806L774.657 402.749H774.705L805.556 371.85H805.604L836.456 340.951L867.355 371.85L898.254 402.749L867.403 433.6L836.504 402.701L805.556 433.648L836.456 464.548L867.355 495.447L898.254 464.548H898.302L929.153 433.648H929.201L960.1 402.701L929.201 371.802ZM774.657 340.903H774.609L743.758 371.802H743.71L712.859 402.701H712.811L681.959 433.6H681.911L651.06 464.5L620.161 433.6L589.262 402.701L558.363 371.802L527.463 340.903L496.564 310.004L527.415 279.152H527.463L558.315 248.253H558.363L589.214 217.354H589.262L620.113 186.455H620.161L651.012 155.555L681.911 186.455L712.811 217.354L743.71 248.253L774.609 279.152L805.508 310.052L774.657 340.903Z" fill="white"/>
<path d="M681.913 248.159L651.014 217.259L620.115 248.159H620.067L589.216 279.058H589.168L558.268 310.005L589.168 340.904L620.067 371.803L650.966 402.703L681.865 371.803H681.913L712.764 340.904H712.812L743.712 309.957L712.812 279.058L681.913 248.159ZM651.014 340.856L620.115 309.957L650.966 279.106L681.865 310.005L651.014 340.856Z" fill="white"/>
</g>
<mask id="mask0_110_209012" style="mask-type:luminance" maskUnits="userSpaceOnUse" x="-508" y="-212" width="2066" height="857">
<path d="M1557.83 -212H-507.254V645H1557.83V-212Z" fill="white"/>
</mask>
<g mask="url(#mask0_110_209012)">
<path d="M1591.09 -16.0141L1706.83 1.21873L1709 -0.255997L1593.29 -17.4785L1593.5 -17.6126L1588.88 -18.3139L1588.66 -18.1695L1534.24 -26.2651L1595.47 -68.7851L1620.38 -65.1859L1622.49 -66.6709L1597.6 -70.2804L1598.63 -70.992L1593.99 -71.6727L1592.95 -70.9508L1544.51 -77.9635L1633.1 -139.191L1619.17 -141.233L1600.4 -128.259L1597.17 -129.414C1596.24 -129.146 1503.15 -102.756 1459.58 -92.0819C1459.12 -91.9684 1458.6 -91.8653 1458.13 -91.7519L1413.6 -112.862C1477.91 -123.062 1529.24 -135.901 1530.05 -136.108L1530.46 -136.211L1556.62 -152.031L1552.1 -152.783L1526.45 -137.273C1518.3 -135.252 1395.8 -105.251 1294.69 -102.343C1275.94 -101.807 1257.47 -100.621 1239.76 -98.8162C1184.06 -93.1544 1148.57 -82.6972 1135.78 -78.4173C1123.99 -82.4909 1115.39 -85.8941 1113.75 -87.5958C1112.84 -88.5239 1112.91 -89.9368 1113 -91.4322C1113.16 -94.7735 1113.39 -99.3421 1101.56 -102.498C1085.21 -106.86 1051.06 -107.128 990.796 -103.385C984.198 -102.972 977.952 -102.642 972.035 -102.395C976.764 -121.876 1025.54 -148.277 1026.12 -148.586L1012.93 -151.082C1010.45 -149.751 960.563 -122.763 956.64 -101.9C881.161 -100.219 866.654 -112.512 855.73 -121.793C852.343 -124.671 849.431 -127.146 845.084 -129.033C834.325 -133.705 793.509 -141.037 757.05 -146.957L767.272 -153.021L753.756 -155.331L743.348 -149.153C719.93 -152.856 700.487 -155.681 695.521 -156.403L689.191 -151.958C700.332 -150.35 717.442 -147.782 736.058 -144.832L691.04 -118.122L613.393 -130.549L634.653 -146.678L629.944 -147.307L608.829 -131.281L542.529 -141.893L552.865 -149.514L548.167 -150.154L537.945 -142.625L531.182 -143.708L528.89 -142.254L535.921 -141.13L452.698 -79.7786L371.066 -92.5872L396.993 -110.542L423.54 -107.066L460.164 -121.876L485.223 -146.75L480.36 -147.245L455.579 -122.649L421.908 -109.036L399.141 -112.017L452.275 -148.813L438.336 -150.855L206.768 9.51027L164.589 5.59138L322.154 -114.811L326.883 -114.946L409.012 -152.783L396.394 -155.558L318.355 -119.597L229.35 -117.049L2.17017 -152.041L-4.50006 -147.637L10.4821 -145.327L-120.145 -86.4717L-311.784 -112.935L-228.148 -158.105L-232.547 -158.93L-316.503 -113.584L-454.264 -132.611L-456.298 -131.116L-319.125 -112.171L-343.132 -99.2081L-454.223 -115.306L-456.34 -113.821L-345.744 -97.7952L-405.229 -65.6603L-476.805 -76.0763L-483.175 -71.6314L-231.091 -34.9588L-286.724 3.79695L-478.932 -24.1303L-481.048 -22.6453L-334.995 -1.42136C-339.115 1.40437 -354.841 12.2432 -378.3 29.0429L-513.067 10.686L-515.081 12.1813L-380.376 30.5279C-387.397 35.5709 -395.069 41.1089 -403.308 47.111C-407.944 50.4834 -411.021 53.7319 -412.839 56.8258L-502.587 40.6242L-505.106 42.0371L-413.716 58.5377C-417.919 68.0049 -410.402 76.0799 -399.571 82.412L-449.938 117.507L-445.281 118.187L-396.432 84.1549C-382.234 91.6524 -364.165 96.4066 -358.599 97.7679L-402.4 129.707L-537.735 110.577L-539.81 112.062L-404.454 131.182L-428.946 149.044L-484.321 141.649L-486.294 143.145L-430.991 150.539L-443.557 159.707L-438.879 160.357L-426.282 151.168L-318.072 165.627L-348.016 187.645L-465.87 172.753L-471.528 177.29L-354.118 192.12L-439.241 254.709L-520.78 244.128L-522.701 245.634L-441.264 256.205L-464.868 273.561L-450.795 275.5L-427.057 258.051L-393.613 262.392L-456.928 279.615L-453.614 280.852L-388.285 263.083L-244.359 281.75L-272.806 306.243L-495.38 282.987L-496.97 284.534L-274.582 307.769L-292.486 323.187L-633.389 287.185L-635 288.731L-294.262 324.713L-312.527 340.44L-537.952 316.081L-539.593 317.628L-314.303 341.977L-330.638 356.044L-502.959 335.645L-504.745 337.171L-332.414 357.57L-351.175 373.73L-479.148 359.426L-480.842 360.963L-352.951 375.256L-372.394 391.994L-487.615 377.938L-489.443 379.454L-374.17 393.521L-394.201 410.764L-551.395 389.375L-553.409 390.87L-395.957 412.28L-416.05 429.585L-511.611 419.282L-516.526 423.913L-421.367 434.174L-443.619 453.335L-438.828 453.902L-416.525 434.7L-314.623 445.693L-465.591 478.746L-456.907 482.768L-297.246 447.807L-247.756 456.563L-437.95 518.719L-434.295 519.853L-243.13 457.378L-133.722 476.735L-167.156 508.705L-162.303 509.221L-129.035 477.385L-7.52539 492.462L-50.7372 522.04L-36.8289 524.102L6.5791 494.391L71.9595 504.075L67.5403 508.726L72.4345 509.2L76.6472 504.766L119.973 511.18L126.436 506.756L81.1285 500.053L113.199 466.329L129.214 468.031L130.825 466.484L114.676 464.855L131.465 447.282H175.947L127.541 508.86L132.497 509.21L155.44 479.973L216.928 477.777L188.265 511.624L193.2 512.046L222.173 477.839L277.559 482.789L248.328 517.935L253.274 518.358L293.13 470.434L344.777 474.879L321.411 506.158L326.388 506.539L349.723 475.312L402.476 479.85L381.298 502.528L386.193 502.992L407.411 480.272L461.578 484.934L442.796 508.798L447.753 509.19L485.802 460.853L536.788 465.432L504.15 502.528L509.075 502.961L520.072 490.462L575.323 494.783L558.461 513.191L573.185 514.563L590.594 495.556L676.739 486.244L696.368 501.764L701.107 501.156L681.582 485.718L810.546 471.785L831.228 489.142L796.545 500.909L800.282 502.022L833.251 490.843L847.79 503.043L852.57 502.466L837.154 489.523L920.883 461.121L961.131 471.022L885.611 502.641L897.816 505.601L973.274 474.013L1040.9 490.637L1010.64 503.641L1014.75 504.611L1044.94 491.627L1081.85 500.702L1084.97 499.413L1047.99 490.317L1126.86 456.408L1197.38 474.59L1126.07 505.879L1130.2 506.838L1167.15 490.627L1232.26 504.796L1235.14 503.456L1170.16 489.307L1201.35 475.611L1357.18 515.78L1366.84 511.985L1267.05 486.264L1293.02 473.837L1367.71 489.987L1376.12 502.919L1381.13 502.589L1345.98 448.499L1378.01 433.184L1445.06 430.987L1503.95 504.322L1508.9 503.92L1450.2 430.822L1515.51 428.677L1565.27 504.281L1570.28 503.94L1520.62 428.502L1581.71 426.501L1619.34 449.354L1632.93 447.086L1598.14 425.965L1666.44 423.727L1665.91 422.108L1595.58 424.418L1480.13 354.321L1586.81 327.848L1583.67 326.559L1477.07 353.012L1423.92 335.531L1603.73 295.59L1600.81 294.259L1420.31 334.572L1364.78 316.525H1456.74L1630.96 271.468L1621.32 267.559L1555.38 284.472L1548.31 254.317L1644.16 252.77L1643.9 251.141L1547.91 252.678L1536.13 202.547L1682.54 199.401L1682.2 197.782L1535.75 200.917L1529.68 175.094L1588.73 162.254L1610.53 162.502L1611.06 157.624L1525.46 156.675L1521.78 127.459L1566.08 104.853L1585.57 104.028L1584.89 102.409L1569.58 103.058L1594.98 90.0951L1601.27 90.9408L1603.25 89.4454L1597.71 88.7029L1612.94 80.927L1608.61 80.0607L1592.94 88.0532L1516.37 77.7506L1576.19 33.663L1578.21 33.9518L1580.27 32.4564L1578.22 32.1677L1613.11 6.45767L1608.42 5.81827L1573.54 31.518L1529.25 25.289L1591.09 -16.0141ZM1524.6 24.598L1501.87 21.401L1559.68 -20.6961L1586.47 -16.705L1524.6 24.598ZM1510.54 78.6994L1513.89 105.389L1460.63 107.648L1460.8 72.0063L1510.54 78.6994ZM1521.36 161.471L1523.47 170.494L1413.96 194.307L1409.33 184.788L1456.45 160.738L1521.36 161.471ZM1295.6 434.205L1323.54 421.943L1330.75 433.05L1295.6 434.205ZM1331.79 434.659L1340.54 448.127L1291.62 471.527L1237.32 459.781L1291.56 435.968L1331.79 434.659ZM1288.78 434.432L1168.74 438.361L1256.76 400.523L1320.07 416.611L1322.14 419.787L1288.78 434.432ZM654.26 464.061L634.054 448.076L642.262 439.114L756.399 426.295L783.183 448.787L654.26 464.061ZM405.687 451.933L408.578 442.156L460.628 423.789L493.814 426.367L481.806 458.78L405.687 451.933ZM310.105 443.332L345.799 435.236L403.384 442.342L400.689 451.479L310.105 443.332ZM205.219 441.589L273.449 372.843L343.115 379.464L309.929 415.116L279.139 423.015L275.329 429.595L274.317 429.812L292.396 441.042L288.597 441.599H205.219V441.589ZM-127.052 -67.0319L-126.051 -67.7641L-148.281 -70.9817L-118.379 -84.4503L-52.3583 -75.3337L-122.179 -24.4913L-174.869 -32.1537L-127.052 -67.0319ZM-179.516 -32.8344L-219.888 -38.7127L-151.276 -69.6307L-132.742 -66.9494L-179.516 -32.8344ZM238.198 -102.426L238.333 -101.91L164.795 -47.3446L117.443 -53.7695L181.894 -101.033L207.16 -105.829L227.171 -108.263L241.947 -101.951V-102.426H238.198ZM339.067 -50.0569L314.503 -53.4292L323.848 -59.9057L347.266 -55.9352L354.297 -57.0593L341.556 -48.0253L339.067 -50.0569ZM335.082 -48.84L344.529 -41.1259L321.938 -24.8935L281.379 -30.5037L312.356 -51.9545L335.082 -48.84ZM319.862 -23.3981L264.962 16.059L222.638 10.1703L279.242 -29.0289L319.862 -23.3981ZM318.716 -6.43343L339.202 -10.9402L348.773 -19.3967L367.297 -16.8288L313.522 22.8139L292.562 19.9057L308.731 7.69522L304.013 7.06612L287.874 19.2663L269.639 16.7293L324.55 -22.7278L344.075 -20.0258L334.937 -11.9611L315.804 -7.75348L318.716 -6.43343ZM600.744 -85.0897L625.184 -79.0464L596.108 -61.793L533.371 -69.837L560.589 -90.4834L600.744 -85.0897ZM1019.62 -37.0524L982.453 -30.2458L985.004 -28.833L1021.48 -35.5157C1029.31 -29.0186 1035.68 -23.8312 1038.98 -21.1499L1014.91 -16.4472L950.042 -23.4497L946.666 -48.5409L1014.93 -40.9609C1016.54 -39.6203 1018.11 -38.3208 1019.62 -37.0524ZM1393.13 -78.6545L1358.15 -53.6767L1328.84 -76.4682C1347.27 -76.6951 1370.14 -77.2623 1393.13 -78.6545ZM1465.98 -87.5339L1470.34 -86.9048L1412.56 -44.3951L1361.41 -52.006L1399.27 -79.0567C1423.58 -80.6964 1447.52 -83.3262 1465.98 -87.5339ZM1470.67 -88.6477C1471.67 -88.8952 1472.68 -89.1427 1473.74 -89.4108L1472.36 -88.4002L1470.67 -88.6477ZM1412.41 203.526L1397.27 203.856L1411.85 200.68L1412.41 203.526ZM1373.39 203.135L1405.19 186.912L1409.27 195.328L1373.39 203.135ZM1362.89 205.414L1348.64 208.508L1345.99 159.511L1392.1 160.027L1404 184.448L1362.89 205.414ZM1139.39 369.553H1137.56L1140.73 316.483H1207.94V341.193L1139.39 369.553ZM1118.5 405.102L1096.51 388.952L1140.29 370.935L1177.51 380.392L1118.5 405.102ZM1094.17 387.24L1069.8 369.347L1133.96 343.287L1132.43 368.522L1132.4 368.924L1136.28 369.914L1094.17 387.24ZM924.848 397.996L947.987 389.21L944.074 388.158L920.883 396.965L874.398 384.981L1012.04 331.025L1063.91 369.1L966.397 408.701L924.848 397.996ZM505.513 392.995L431.727 386.147L465.946 352.341L530.015 358.797L528.828 360.014L506.7 392.726L505.513 392.995ZM457.396 422.5L451.604 424.542L427.979 416.58L497.49 400.801L492.296 406.401L465.636 409.846L457.396 422.5ZM405.398 440.846L350.787 434.102L395.836 423.871L425.026 433.916L405.398 440.846ZM311.664 416.838L320.223 420.571L281.224 428.419L283.826 423.944L311.664 416.838ZM296.279 344.607L234.12 339.13L242.917 329.869L304.684 336.098L296.279 344.607ZM244.394 328.323L288.029 282.42L351.303 288.917L306.222 334.552L244.394 328.323ZM136.576 358.209L55.5319 344.545L71.4536 333.128L152.58 339.852L146.499 346.597L136.576 358.209ZM-66.8138 428.234L-113.258 414.93L-36.5707 389.87L-17.6649 392.995L-66.8138 428.234ZM-88.6211 381.279L-41.3101 389.096L-117.057 413.847L-155.643 402.792L-88.6211 381.279ZM-65.7503 228.556L-81.9612 241.87L-178.039 229.329L-162.892 216.283L-65.7503 228.556ZM204.724 61.3944L125.27 99.3148L108.098 96.8707L158.301 54.8663L204.724 61.3944ZM526.639 -68.9295L492.565 -43.0751L467.495 -46.3649L498.285 -72.3843L526.639 -68.9295ZM808.594 -37.0008L703.75 26.2378L700.25 25.8356L696.956 27.0422L605.535 14.3883L703.048 -48.3862L808.594 -37.0008ZM952.623 -4.29866L950.279 -21.7171L1009.24 -15.3541L952.623 -4.29866ZM947.636 -3.31892L938.818 -1.59668L938.064 -1.45229L937.445 -1.25635L863.536 -12.7243L887.728 -28.4617L945.086 -22.274L947.636 -3.31892ZM1051.01 -8.43413L1122.88 -11.4455L1136.27 16.6365L1038.1 20.5966L1051.01 -8.43413ZM1359.32 -50.5107L1410.51 -42.8895L1351.79 0.311203L1346.53 -0.43132L1339.63 0.816528L1316.99 -22.4081L1320.4 -22.7175L1359.32 -50.5107ZM1391 70.2841L1393.97 110.484L1343.44 112.629L1341.11 69.6962L1391 70.2841ZM1345.72 154.623L1343.53 114.268L1394.1 112.123L1397.28 155.211L1345.72 154.623ZM1203.78 240.013L1144.58 252.884L1145.65 235.383L1203.62 235.043L1203.78 240.013ZM1208.72 235.012L1227.26 234.898L1208.85 238.9L1208.72 235.012ZM1015.27 329.529L1016.32 316.473H1076.2L1039.78 347.628L1015.27 329.529ZM735.945 413.569L821.057 377.525L860.738 387.756L772.177 422.479L735.945 413.569ZM384.448 381.754L417.922 347.505L461.062 351.846L426.813 385.683L384.448 381.754ZM419.44 345.947L444.335 320.474L488.249 324.992L462.631 350.299L419.44 345.947ZM81.0975 322.228L32.7953 315.947L84.2571 285.741L140.995 279.285L81.0975 322.228ZM-28.9402 211.529L-10.3649 195.988L119.622 212.313L135.316 227.586L49.6876 237.899L-46.0082 225.813L-30.7679 213.066L76.9984 228.618L79.1047 227.133L-28.9402 211.529ZM-68.7756 188.645L-24.6346 194.193L-42.9312 209.508L-107.393 200.206L-68.7756 188.645ZM47.3954 133.925L-25.5329 153.127L-24.6139 143.175L5.30908 121.869L54.5096 127.974L47.3954 133.925ZM71.6705 129.965L78.733 130.697V169.432L76.8228 169.504L118.145 210.302L-8.24817 194.461L68.4076 130.697L71.6705 129.965ZM331.427 79.2047L311.364 94.4265L223.278 81.9376L256.278 68.6443L331.427 79.2047ZM450.654 -7.0625L495.311 -40.9506L550.304 -33.7316L496.561 -0.699478L450.654 -7.0625ZM598.545 15.1824L536.964 53.866L462.177 43.4706L508.363 2.69347L598.545 15.1824ZM790.04 -22.3256L856.69 -11.9818L783.648 35.5193L708.603 26.7947L790.04 -22.3256ZM1279.09 12.5216C1279.68 13.1507 1280.28 13.7695 1280.87 14.4089L1236.95 65.9939L1235.65 66.6746L1150.34 57.5683L1158.41 53.5669L1158.92 53.3091L1142.1 18.0494L1279.09 12.5216ZM730.834 347.979L769.482 339.77L826.323 353.837L825.724 372.441L730.834 347.979ZM448.475 297.178L466.679 278.728L511.625 283.142L495.621 302.014L448.475 297.178ZM272.954 226.648L280.089 219.522C281.854 218.903 285.726 217.531 291.075 215.696L410.385 229.102L399.739 239.879L272.954 226.648ZM223.826 260.887L159.25 253.008L162.988 242.561H189.081L234.719 249.089L223.826 260.887ZM236.268 247.377L190.237 240.653H162.007L142.451 232.103L203.774 224.637L253.738 229.886L236.268 247.377ZM379.977 119.734L438.181 118.651L438.026 117.837L440.308 118.208L471.119 98.8508L495.074 102.213L340.977 158.686L379.977 119.734ZM696.089 84.6705L724.339 87.7747L691.225 120.353L642.17 115.3L656.604 98.2835L696.089 84.6705ZM1050.3 104.224L1004.36 127.026L940.594 129.738L979.046 91.3739L983.372 87.4447L1050.3 104.224ZM1147.49 58.9812L1232.94 68.0977L1185.84 92.7868L1113.74 75.7499L1147.49 58.9812ZM1183.18 94.179L1135.24 119.322L1062.65 101.109L1110.97 77.1112L1183.18 94.179ZM1121.4 122.065L1011.01 126.757L1054.34 105.245L1121.4 122.065ZM1029.86 177.713L1080.84 181.168L1079.5 234.145L1038.54 234.383C1033.03 234.414 1027.78 234.527 1022.77 234.713L1027.17 179.116L1029.86 177.713ZM1032.67 176.239L1064.46 159.563L1079.95 179.446L1032.67 176.239ZM1027.37 175.878L1003.55 174.259L1056.23 148.992L1062.72 157.335L1027.37 175.878ZM998.169 173.898L925.922 168.999L1007.38 128.552L1100.99 124.571L998.169 173.898ZM789.482 280.533L822.007 248.068L882.545 254.225L876.814 289.649L789.482 280.533ZM873.923 311.678L773.922 298.291L786.942 285.194L873.923 294.197V311.678ZM730.359 326.105L657.771 318.659L699.145 276.253L715.552 277.965L689.264 314.245L738.774 317.185L730.359 326.105ZM411.923 227.545L294.885 214.386C305.272 210.859 319.583 206.125 334.235 201.691L428.258 211.014L411.923 227.545ZM219.613 168.256L304.777 178.776L286.718 196.813L197.857 184.757L219.613 168.256ZM338.035 161.625L338.995 161.893L499.958 102.893L506.969 103.873L571.038 120.59L501.155 144.681L439.812 125.582L436.24 126.747L497.686 145.877C484.81 150.302 396.559 180.446 364.334 187.284C342.186 191.986 311.85 201.588 291.054 208.539L338.035 161.625ZM611.482 113.846L635.974 116.372L599.815 158.985L507.423 149.724C509.106 149.147 510.18 148.775 510.541 148.652L611.482 113.846ZM615.292 112.536L649.119 100.872L637.296 114.805L615.292 112.536ZM768.687 119.456L808.285 123.272L821.367 116.589L846.747 119.466L832.229 134.348L828.481 134.513L760.819 127.541L768.687 119.456ZM827.448 136.111L827.996 136.173L830.556 136.06L789.616 178.023L718.536 170.896L759.291 129.088L827.448 136.111ZM920.584 168.628L902.886 167.359L938.859 131.45L1000.74 128.82L920.584 168.628ZM887.862 166.287L811.723 160.841L836.142 135.812L922.06 132.161L887.862 166.287ZM774.913 279.017L703.699 271.581L751.061 223.038L823.463 230.567L774.913 279.017ZM554.527 285.638L535.725 283.792L540.65 279.017L559.122 280.852L554.527 285.638ZM560.619 279.295L542.251 277.47L558.627 261.588L575.86 263.382L560.619 279.295ZM532.214 258.834L518.42 275.108L474.536 270.756L490.582 254.482L532.214 258.834ZM511.057 236.889L544.037 233.537L547.651 238.755L544.316 239.539L521.837 244.582L509.333 240.849L511.057 236.889ZM580.63 228.123L547.269 231.505L534.868 224.07L541.022 216.015H560.361L559.504 216.304L580.63 228.123ZM627.022 163.43L610.925 174.815L610.46 177.095L539.174 169.112L552.173 155.922L627.022 163.43ZM640.652 245.304L616.49 242.385L607.001 237.92L617.75 224.823L655.82 229.752L640.652 245.304ZM583.315 229.67L589.531 232.598L571.265 233.197L552.153 237.703L548.921 233.052L583.139 229.577L583.315 229.67ZM573.175 234.774L592.773 234.125L610.749 242.592L604.399 247.697L578.111 252.028H566.154L549.034 240.601L573.175 234.774ZM657.327 228.195L619.041 223.234L629.562 210.415L670.502 214.675L657.327 228.195ZM630.987 208.848L655.035 184.84C657.637 184.52 660.136 184.231 662.459 183.994C679.403 182.272 692.206 188.243 694.922 189.635L672.041 213.107L630.987 208.848ZM717.018 172.454L788.098 179.58L747.705 220.986L676.884 213.623L717.018 172.454ZM696.863 187.634C691.236 185.149 678.257 180.673 660.89 182.447C659.341 182.602 657.709 182.787 656.036 182.983C656.79 180.281 657.926 174.454 654.498 172.629C652.154 171.381 651.462 167.957 651.349 165.874L712.155 171.969L696.863 187.634ZM646.217 165.358C646.238 167.06 646.62 171.618 650.11 173.475C652.516 174.743 651.782 180.25 650.708 183.643C646.981 184.118 643.109 184.654 639.258 185.211C638.081 184.19 635.788 182.509 632.36 181.385C628.21 180.013 619.743 180.467 614.797 180.89L615.964 175.228L631.927 163.935L646.217 165.358ZM612.536 187.665L613.454 187.438L614.446 182.602C619.516 182.096 626.464 181.766 628.684 182.498C631.596 183.458 633.62 185.005 634.591 185.871C619.03 188.181 605.019 190.625 604.11 190.78L603.398 190.903L597.584 194.668L586.505 194.1C592.731 192.533 604.492 189.635 612.536 187.665ZM537.645 170.67L610.119 178.786L608.519 186.603C599.102 188.913 584.998 192.378 580.217 193.636L524.46 184.045L537.645 170.67ZM582.365 195.534L600.506 196.462L607.28 192.079C611.255 191.398 631.204 187.995 648.871 185.623L626.124 208.332L578.699 203.403C580.01 200.216 581.528 196.864 582.365 195.534ZM624.699 209.91L603.17 236.125L587.662 228.824L565.111 215.716L577.46 205.001L624.699 209.91ZM537.078 259.34L553.763 261.083L537.367 276.985L523.303 275.593L537.078 259.34ZM520.299 252.451L523.933 246.108L544.811 241.705L562.943 253.925H579.308L608.395 249.006L614.59 244.025L639.123 246.923L623.212 263.217L520.299 252.451ZM675.366 215.17L746.188 222.533L698.825 271.076L628.065 263.692L675.366 215.17ZM825.012 229.02L752.569 221.491L792.982 180.075L866.664 187.459L825.012 229.02ZM868.213 185.902L794.49 178.507L810.195 162.409L886.303 167.844L868.213 185.902ZM713.663 170.412L652.01 164.234L694.519 122.416L754.448 128.593L713.663 170.412ZM647.126 163.739L604.699 159.48L640.838 116.878L689.656 121.91L647.126 163.739ZM429.797 209.456L338.51 200.412C350.652 196.802 362.774 193.502 372.852 191.368C378.603 190.14 385.934 188.263 394.184 185.953L447.546 191.502L429.797 209.456ZM398.604 184.695C420.896 178.322 448.754 169.35 471.119 161.955L473.308 165.41L449.064 189.944L398.604 184.695ZM478.584 165.503L475.435 160.532C487.299 156.593 497.294 153.2 503.572 151.055L547.3 155.438L507.32 195.998L453.937 190.45L478.584 165.503ZM522.88 185.634L577.522 195.029C576.81 196.029 575.674 198.164 573.753 202.908L512.162 196.503L522.88 185.634ZM573.888 204.496L564.584 213.695V214.118H536.964L529.488 224.142L542.416 232.155L509.261 235.434L480.835 228.329L511.295 198.061L573.888 204.496ZM479.183 229.958L506.008 236.62L503.902 241.457L518.833 245.923L515.394 251.935L462.91 246.459L479.183 229.958ZM485.74 253.987L469.663 270.282L442.135 267.549L458.326 251.131L485.74 253.987ZM440.607 269.096L468.125 271.829L463.323 276.696L435.775 273.994L440.607 269.096ZM473.008 272.313L517.088 276.686L512.947 281.564L468.207 277.171L473.008 272.313ZM521.972 277.171L535.777 278.542L530.851 283.327L517.852 282.049L521.972 277.171ZM529.251 284.864L519.937 293.898L508.631 292.918L516.52 283.616L529.251 284.864ZM534.135 285.349L553.041 287.205L534.971 306.057L514.909 303.994L534.135 285.349ZM580.723 263.898L618.669 267.858L577.202 310.388L539.824 306.552L580.723 263.898ZM623.522 268.363L694.282 275.748L652.908 318.164L582.065 310.894L623.522 268.363ZM740.25 315.617L721.944 314.534L742.419 295.971L756.926 297.941L740.25 315.617ZM739.404 293.795L716.863 314.235L695.438 312.967L720.426 278.48L770.37 283.688L758.402 296.373L739.404 293.795ZM882.834 252.544L823.576 246.521L838.414 231.712L885.694 234.857L882.834 252.544ZM839.973 230.154L901.327 168.916L917.641 170.082L894.667 181.488L894.295 181.673L885.952 233.207L839.973 230.154ZM899.344 182.189L922.969 170.453L995.123 175.352L991.819 176.94L991.602 177.043L935.989 236.538L891.022 233.547L899.344 182.189ZM964.497 89.827L944.033 110.246L869.132 102.007L903 67.283L970.631 84.2477L964.497 89.827ZM942.473 111.793L923.774 130.46L837.805 134.11L867.614 103.564L942.473 111.793ZM848.265 117.899L819.209 114.599L806.023 121.343L770.204 117.899L792.27 95.2515L862.782 103.017L848.265 117.899ZM755.945 127.026L696.078 120.858L729.161 88.311L787.427 94.7256L755.945 127.026ZM574.517 119.404L509.942 102.553L508.321 103.182L509.354 102.44L503.479 101.615L602.334 65.3855L674.994 84.753L574.517 119.404ZM498.584 100.924L473.432 97.3863L534.713 58.8884L544.13 60.1981C547.775 60.8272 574.703 65.2411 599.949 63.7663L498.584 100.924ZM323.879 159.686L243.981 149.765L280.254 122.24L351.706 131.904L323.879 159.686ZM322.33 161.244L319.769 163.801L238.498 153.932L242.019 151.261L322.33 161.244ZM318.2 165.358L306.325 177.218L221.585 166.751L236.495 155.438L318.2 165.358ZM194.625 184.128L84.4223 168.989V136.627L233.934 154.87L194.625 184.128ZM191.177 185.634L152.828 214.726L123.731 211.075L82.4295 170.886L191.177 185.634ZM150.846 216.232L138.589 225.534L125.796 213.086L150.846 216.232ZM155.606 216.83L189.401 221.069L142.585 226.71L155.606 216.83ZM205.963 219.656L203.392 219.388L196.515 220.213L157.578 215.324L195.875 186.273L285.158 198.38L258.385 225.132L205.963 219.656ZM452.389 192.007L505.771 197.555L458.047 245.964L404.592 240.385L452.389 192.007ZM453.463 250.615L434.154 270.199L380.586 264.682L399.998 245.036L453.463 250.615ZM434.247 275.541L461.795 278.243L443.612 296.672L416.198 293.857L434.247 275.541ZM507.299 294.486L518.337 295.435L510.035 303.489L500.495 302.509L507.299 294.486ZM575.684 311.946L557.656 330.437L494.681 323.95L513.319 305.541L575.684 311.946ZM580.547 312.441L651.39 319.711L633.331 338.223L562.519 330.932L580.547 312.441ZM656.253 320.206L728.882 327.663L711.339 346.257L638.184 338.728L656.253 320.206ZM826.385 351.795L773.963 338.821L827.159 327.528L826.385 351.795ZM731.381 341.997L771.123 299.859L867.955 312.998L731.381 341.997ZM883.113 290.175L891.394 235.197L939.871 238.446L996.444 177.744L1000.58 175.723L1024.59 177.352L1022.45 178.466L1022.09 178.652L1017.63 234.939C995.556 236.033 978.695 238.704 967.399 242.942C949.051 249.821 952.086 258.288 952.417 259.092L956.815 293.991L889.101 308.986V290.681L883.113 290.175ZM955.556 301.427L954.885 312.688H903.764L955.556 301.427ZM960.739 299.539L1013.48 288.453L1011.59 312.688H959.996L960.739 299.539ZM960.574 292.898L957.528 258.999L957.497 258.907C957.456 258.824 953.945 250.491 971.333 243.984C981.658 240.117 997.136 237.652 1017.49 236.6L1013.94 281.306L960.574 292.898ZM1022.63 236.352C1027.69 236.156 1033.01 236.043 1038.62 236.012L1079.46 235.775L1078.66 267.229L1019.16 280.161L1022.63 236.352ZM1084.56 235.744L1140.51 235.414L1139.39 254.018L1083.8 266.105L1084.56 235.744ZM1084.61 234.114L1085.96 181.065L1144.29 173.475L1140.63 233.795L1084.61 234.114ZM1085.18 179.405L1068.2 157.603L1118.98 130.975L1143.99 171.742L1085.18 179.405ZM1066.46 155.376L1060.06 147.146L1107.74 124.272L1127.01 123.457L1127.23 123.509L1066.46 155.376ZM1142.59 121.157L1139.28 120.332L1198.99 89.0226L1199.93 118.734L1142.59 121.157ZM1200 120.363L1200.47 135.678L1148.2 122.56L1200 120.363ZM1204.04 86.3825L1239.74 68.4793L1270.57 68.8196V115.857L1206.61 118.507L1204.04 86.3825ZM1153.59 52.9378L1144.95 57.228L1102 58.3315L1086.42 20.2872L1137.03 18.2453L1153.59 52.9378ZM1141.49 58.9502L1109.62 74.7702L1108.64 74.533L1102.66 59.9403L1141.49 58.9502ZM1103.85 75.4302L1106.85 76.1418L1058.61 100.099L1041.18 95.726L1030.11 61.8069L1097.56 60.0743L1103.85 75.4302ZM1025 61.9306L1035.58 94.3131L988.731 82.5564L1011.04 62.2813L1025 61.9306ZM976 79.3697L917.496 64.6945L994.338 62.7247L976 79.3697ZM864.31 101.47L793.798 93.7046L835.957 50.4627L898.714 66.2002L864.31 101.47ZM788.955 93.1684L699.878 83.3608L798.403 49.3799L813.168 44.7391L831.651 49.3799L788.955 93.1684ZM787.489 45.956L678.453 83.5567L605.69 64.1479L608.922 62.9619C614.446 62.2813 619.732 61.2397 624.492 59.7237C646.63 52.6697 691.907 36.2825 704.876 31.5592L798.589 42.4496L787.489 45.956ZM613.661 56.2792C592.525 63.0032 551.636 55.9389 551.234 55.8667L550.914 55.8151L541.662 54.526L603.243 15.8321L693.425 28.321C680.745 32.9308 635.231 49.4005 613.661 56.2792ZM530.025 58.2386L468.754 96.7366L411.108 88.6307L411.634 88.0944L456.963 48.0805L530.025 58.2386ZM466.441 98.1804L436.415 117.043L381.639 118.064L409.549 90.1776L466.441 98.1804ZM353.254 130.336L282.226 120.735L336.094 79.8544L395.434 88.1975L353.254 130.336ZM220.005 83.2474L309.382 95.9219L277.518 120.095L165.962 105.018L220.005 83.2474ZM162.678 106.348L275.545 121.611L239.21 149.178L99.4457 131.811L162.678 106.348ZM238.715 150.673L235.927 153.354L84.4326 134.874V131.326L238.715 150.673ZM44.6489 242.509L28.9336 256.349L-67.7844 243.726L-51.5013 230.361L44.6489 242.509ZM49.3986 243.107L49.5637 243.128L137.464 232.547L158.053 241.385L154.325 252.09L121.8 247.975L99.3735 265.558L33.6523 256.978L49.3986 243.107ZM97.4633 267.054L79.559 281.09L73.5703 281.77L73.0128 282.1L13.9721 274.324L31.9279 258.504L97.4633 267.054ZM86.0124 280.357L124.629 250.079L153.737 253.76L146.881 273.427L86.0124 280.357ZM158.672 254.39L222.411 262.454L221.43 263.537L195.1 267.941L152.24 272.819L158.672 254.39ZM249.804 249.769L268.297 231.299L325.603 237.28L284.642 280.368L227.491 274.5L249.804 249.769ZM330.466 237.786L395.145 244.53L352.841 287.36L289.516 280.863L330.466 237.786ZM379.058 266.239L432.626 271.756L411.324 293.362L357.705 287.855L379.058 266.239ZM409.796 294.919L391.634 313.338L337.983 307.821L356.166 289.412L409.796 294.919ZM414.66 295.414L459.028 299.972L441 318.422L396.497 313.843L414.66 295.414ZM463.901 300.467L508.456 305.036L489.828 323.445L445.873 318.917L463.901 300.467ZM493.122 325.497L556.149 331.984L531.522 357.24L467.505 350.794L493.122 325.497ZM561.002 332.489L631.813 339.78L607.332 364.882L536.396 357.735L561.002 332.489ZM636.676 340.286L706.218 347.443L607.91 369.749L636.676 340.286ZM817.082 376.504L765.517 398.347L694.819 381.723L722.036 352.001L817.082 376.504ZM693.291 383.393L762.44 399.646L731.329 412.826L670.11 408.701L693.291 383.393ZM830.37 373.349H830.804L832.312 326.507L881.254 316.483H889.029L885.57 378.237L870.412 383.93L830.37 373.349ZM894.13 316.483H954.585L952.438 352.032L890.795 376.308L894.13 316.483ZM959.696 316.483H1011.2L1010.17 329.395L957.683 350.083L959.696 316.483ZM1016.7 312.688L1018.67 286.937L1078.5 274.304L1077.53 312.688H1016.7ZM1083.65 272.808L1139.03 261.155L1135.91 312.688H1082.65L1083.65 272.808ZM1144.21 259.639L1203.96 247.026L1206.03 312.678H1141.04L1144.21 259.639ZM1145.74 233.754L1149.44 172.794L1201.43 166.029L1203.57 233.413L1145.74 233.754ZM1148.83 171.113L1122.93 128.902L1131.26 124.53L1200.67 141.938L1201.37 164.265L1148.83 171.113ZM1205.82 143.237L1259.53 156.706L1206.46 163.616L1205.82 143.237ZM1207.19 136.977L1207.43 120.147L1270.56 117.496V152.467L1207.19 136.977ZM1276.26 117.28L1330.08 114.918L1331.3 154.458L1275.09 153.818L1276.26 153.767V117.28ZM1330 113.278L1276.26 115.64V68.8815L1328.54 69.5106L1330 113.278ZM1241.22 66.8808L1241.51 66.7365L1241.69 66.6333L1283.65 17.3584C1298.46 33.1371 1313.29 49.287 1325.39 62.7041L1325.67 67.8709L1241.22 66.8808ZM1334.69 55.3613C1326.53 46.3788 1310.62 28.981 1293.66 10.9747L1346.82 1.38374L1401.64 9.09776L1334.69 55.3613ZM1335.09 1.63124L1292.15 9.37624C1291.27 8.43776 1290.38 7.48895 1289.48 6.55048C1280.35 -3.09206 1272.62 -11.1154 1266.05 -17.7879L1312.07 -21.9646L1335.09 1.63124ZM1277.6 10.9335L1204.7 13.8726L1189.29 -14.2403L1250.9 -16.8185C1259.17 -8.41351 1268.31 1.10529 1277.6 10.9335ZM1199.62 14.0789L1141.34 16.4302L1127.95 -11.6621L1184.22 -14.0237L1199.62 14.0789ZM1081.34 20.4935L1096.9 58.4655L1012.91 60.6209L1025.3 49.3696L1037.36 22.2776L1081.34 20.4935ZM1010.32 48.1939L996.176 61.0437L911.58 63.2094L905.467 61.6728L900.346 27.7744L1021.59 22.8861L1010.32 48.1939ZM900.15 60.3425L824.155 41.2843L881.512 23.2264L895.183 27.4341L900.15 60.3425ZM810.649 38.6648L788.48 36.0866L861.295 -11.2702L933.614 -0.0497589L810.649 38.6648ZM858.931 -13.4462L792.425 -23.759L813.499 -36.4748L882.844 -28.9877L858.931 -13.4462ZM600.847 13.7283L510.665 1.23935L605.391 -56.9768L608.199 -58.6372L698.174 -48.9225L600.847 13.7283ZM591.823 -59.2457L552.669 -35.1857L497.294 -42.4563L531.399 -68.3416L593.681 -60.3595L591.823 -59.2457ZM465.688 -44.8489L490.582 -41.5797L445.956 -7.72253L425.161 -10.5998L465.688 -44.8489ZM443.994 -6.21687L425.243 8.01492L405.966 5.64294L423.374 -9.0632L443.994 -6.21687ZM448.672 -5.56715L494.279 0.744324L448.093 41.5112L396.146 34.2921L448.672 -5.56715ZM442.879 46.121L397.168 86.4753L397.003 86.6403L338.076 78.359L390.209 38.7989L442.879 46.121ZM333.399 77.699L258.86 67.2211L312.139 27.9497L385.532 38.1492L333.399 77.699ZM94.4689 131.192L74.9952 128.779L97.1639 122.942L96.534 122.694L128.45 100.738L209.484 62.0647L251.477 67.9637L94.4689 131.192ZM122.791 100.738L91.4023 122.343L71.34 127.624L106.281 98.397L122.791 100.738ZM56.3268 126.458L7.39484 120.384L49.5741 90.3323L92.2593 96.3963L56.3268 126.458ZM2.62451 119.786L-47.1646 113.598L-5.15057 82.5564L44.907 89.6723L2.62451 119.786ZM-158.72 60.7447L-118.575 66.4477L-162.819 99.2323L-204.1 94.1068L-158.72 60.7447ZM-113.898 67.1077L-63.7265 74.2339L-108.343 105.998L-158.039 99.8201L-113.898 67.1077ZM34.086 49.4521L-7.79382 80.401L-56.9738 73.4192L-16.9731 44.9453L34.086 49.4521ZM-61.6409 72.7592L-111.884 65.6227L-46.5038 17.1728L-22.5076 44.4606L-21.95 44.5122L-61.6409 72.7592ZM-59.0491 74.9043L-9.81763 81.8964L-51.9246 113.01L-103.572 106.596L-59.0491 74.9043ZM-3.12677 81.6901L39.0938 51.1124H100.798L46.9927 89.1257L-3.12677 81.6901ZM40.2192 44.9247L-10.0654 40.4799L-10.3546 40.1601L55.6248 -8.27945L103.659 -1.95764L40.2192 44.9247ZM-12.5435 37.6748L-36.8599 10.0362L-35.9925 9.41745L-0.679626 -15.6738L50.906 -8.88789L-12.5435 37.6748ZM1.40607 -17.1794L61.2314 -59.6582L110.721 -52.8207L52.9298 -10.3936L1.40607 -17.1794ZM-3.32294 -17.7982L-49.1574 -23.8313L9.59418 -66.7844L56.5334 -60.2976L-3.32294 -17.7982ZM-51.1915 -22.3462L-5.40869 -16.3235L-39.0178 7.54054L-57.6139 -13.6009L-55.8896 -14.8694L-60.505 -15.5397L-51.1915 -22.3462ZM-67.2888 -6.47469L-48.7031 14.677L-116.562 64.9626L-156.686 59.2596L-67.2888 -6.47469ZM-129.107 26.6915L-177.285 19.6891L-123.676 -19.3451L-75.9415 -12.4046L-129.107 26.6915ZM-131.141 28.1766L-170.739 57.2898L-219.764 50.6174L-179.33 21.1742L-131.141 28.1766ZM-172.773 58.7955L-217.947 92.0133L-264.948 83.5258L-221.808 52.1128L-172.773 58.7955ZM-206.124 95.6022L-164.823 100.728L-195.458 123.437L-234.86 116.723L-206.124 95.6022ZM-160.063 101.326L-110.428 107.493L-144.502 131.749L-139.835 132.409L-105.658 108.081L-54.95 114.382L-112.597 137.555L-190.935 124.21L-160.063 101.326ZM-115.157 138.958L-149.087 165.472L-202.665 157.902L-165.576 130.377L-115.157 138.958ZM-109.695 139.009L-49.9731 115.001L0.538757 121.281L-29.4875 142.67L-29.694 142.815L-30.7782 154.52L-99.1736 172.526L-144.42 166.132L-109.695 139.009ZM43.7196 137.008L-22.8069 192.667L-64.6455 187.407L-33.1324 177.971L-36.6327 176.785L-111.729 199.257L-145.308 186.768L43.7196 137.008ZM-111.43 201.412L-44.7588 211.034L-60.2572 223.997L-149.314 212.746L-111.43 201.412ZM-83.8198 243.386L-102.767 258.938L-197.895 246.407L-179.825 230.856L-83.8198 243.386ZM-69.6327 245.242L27.1886 257.886L9.24304 273.695L-88.5901 260.804L-69.6327 245.242ZM7.50842 275.232L-11.4181 291.908L-110.542 278.841L-90.4384 262.33L7.50842 275.232ZM12.2374 275.851L70.5656 283.534L43.8951 299.189L-6.68903 292.516L12.2374 275.851ZM41.448 300.632L18.5153 314.101L-24.7792 308.481L-8.41333 294.063L41.448 300.632ZM16.0578 315.535L-14.1543 333.273L-48.8167 329.653L-26.5242 310.017L16.0578 315.535ZM-16.8079 334.696L-44.4594 349.381L-68.3524 346.855L-50.5513 331.169L-16.8079 334.696ZM-47.1543 350.815L-75.8073 366.026L-88.5385 364.655L-70.087 348.402L-47.1543 350.815ZM-78.4919 367.45L-95.8695 376.669L-105.813 379.856L-90.2731 366.171L-78.4919 367.45ZM-15.5792 391.51L-32.8433 388.653L6.2074 375.896L-15.5792 391.51ZM12.1858 371.616L-37.5826 387.879L-84.8523 380.073L-83.6752 379.691L-2.50726 336.614L48.9236 345.287L12.1858 371.616ZM0.00183105 335.191L30.3378 317.381L79.0118 323.702L50.999 343.782L0.00183105 335.191ZM153.995 338.295L73.5599 331.633L94.3657 316.721L167.439 323.383L153.995 338.295ZM168.853 321.825L96.4617 315.225L115.182 301.808L182.214 307.016L168.853 321.825ZM117.298 300.292L147.655 278.532L200.779 272.489L215.586 270.024L183.629 305.438L117.298 300.292ZM226.087 276.057L283.166 281.915L255.494 311.018L198.539 306.593L226.087 276.057ZM336.455 309.367L390.106 314.895L364.901 340.461L311.096 335.047L336.455 309.367ZM394.969 315.39L439.482 319.969L414.567 345.452L369.765 340.935L394.969 315.39ZM413.049 347.009L379.543 381.3L334.152 377.092L368.247 342.503L413.049 347.009ZM425.594 387.271L416.673 404.163L331.106 398.223L348.03 380.083L425.594 387.271ZM329.64 399.78L415.816 405.762L411.263 414.373L346.212 429.131L314.958 415.497L329.64 399.78ZM323.238 421.881L342.041 430.09L296.609 440.403L280.946 430.399L323.238 421.881ZM428.465 432.709L400.039 422.923L423.777 417.539L448.176 425.759L428.465 432.709ZM417.158 413.043L430.53 387.725L500.226 394.191L417.158 413.043ZM533.763 360.427L534.878 359.282L605.803 366.429L601.043 371.307L512.854 391.324L533.763 360.427ZM704.359 353.868L655.107 407.649L596.221 403.318L603.594 376.731L704.359 353.868ZM668.675 410.269L731.288 414.487L767.303 423.335L644.028 437.185L668.675 410.269ZM772.125 424.521L818.362 435.886L787.324 447.663L761.211 425.738L772.125 424.521ZM776.224 423.469L864.713 388.777L911.012 400.709L821.646 434.628L776.224 423.469ZM1042.71 349.681L1081.64 316.483H1135.63L1134.13 340.801L1067.49 367.872L1042.71 349.681ZM1215.54 316.483H1267.22L1215.54 339.089V316.483ZM1270.57 273.479L1253.5 273.685V255.823H1270.57V273.479ZM1270.57 253.925H1245.91V275.366L1270.57 275.108V312.688H1211.13L1210.59 245.541L1270.56 232.083V253.925H1270.57ZM1236.52 233.228L1209.46 233.382L1206.92 165.358L1264.34 157.861L1265.35 158.397L1269.28 159.15H1270.56V226.163L1236.52 233.228ZM1276.26 158.696L1332.48 159.346L1336.26 211.808L1276.26 225.06V158.696ZM1397.3 160.089L1450.56 160.687L1408.12 182.333L1397.3 160.089ZM1402.4 155.262L1399.19 111.907L1455.51 109.514L1455.29 155.85L1402.4 155.262ZM1399.07 110.267L1396.12 70.3459L1453.46 71.0266L1455.7 71.3257L1455.52 107.875L1399.07 110.267ZM1341.01 68.0565L1340.73 62.8588L1415.68 11.0675L1464.87 17.9772L1391.89 68.6546L1341.01 68.0565ZM1417.82 9.59279L1479.01 -32.7003L1527.48 -25.4813L1467 16.5024L1417.82 9.59279ZM1403.79 7.62303L1356.48 0.971207L1415.16 -42.1985L1465.12 -34.7629L1403.79 7.62303ZM1417.19 -43.7042L1475 -86.2345L1528.4 -78.5101L1467.25 -36.2479L1417.19 -43.7042ZM1323.39 -76.4063L1355.27 -51.6245L1316.72 -24.0788L1315.48 -23.9653L1266.27 -74.4262C1276.81 -75.5194 1288.18 -76.3032 1298.97 -76.3032C1304.94 -76.3032 1313.37 -76.3135 1323.39 -76.4063ZM1310.55 -23.5219L1264.53 -19.3348C1234.18 -50.0981 1229.77 -50.9025 1226.09 -51.5729C1222.84 -52.171 1213.34 -54.6977 1201.18 -58.1628L1224.2 -68.2488C1228.4 -69.0635 1243.32 -71.8377 1261.43 -73.9106L1310.55 -23.5219ZM1217.35 -47.5509C1221.81 -45.3542 1234 -33.9069 1249.33 -18.386L1188.4 -15.8284L1172.16 -45.447L1192.14 -54.1924C1203.82 -50.9129 1213.15 -48.4481 1217.35 -47.5509ZM1167.79 -43.9723L1183.33 -15.6222L1127.18 -13.2709L1117.89 -32.7519L1167.79 -43.9723ZM1113.21 -31.7103L1122.1 -13.0646L1051.76 -10.1151L1055.61 -18.7676L1113.21 -31.7103ZM1022.33 21.2257L898.57 26.2068L885.136 22.0714L947.584 2.40471L1038.58 -15.3644L1022.33 21.2257ZM941.482 -49.1287L944.859 -24.0169L890 -29.9365L922.711 -51.2119L941.482 -49.1287ZM885.105 -30.4624L815.915 -37.9393L851.104 -59.1632L917.837 -51.7585L885.105 -30.4624ZM811.01 -38.4652L751.546 -44.8798L762.946 -56.6056L758.072 -57.0903L746.704 -45.4058L705.34 -49.8713L739.104 -71.6005L846.23 -59.6994L811.01 -38.4652ZM780.571 -101.972L736.544 -73.6321L696.099 -78.4895L749.234 -106.994L780.571 -101.972ZM691.236 -79.0567L650.781 -83.9141L702.325 -114.492L744.639 -107.716L691.236 -79.0567ZM648.354 -82.4703L734.272 -72.1574L700.456 -50.3972L610.646 -60.0913L648.354 -82.4703ZM528.621 -70.4351L457.365 -79.1289L486.328 -100.487L555.89 -91.1331L528.621 -70.4351ZM455.331 -77.6335L493.504 -72.9824L420.473 -11.2495L374.009 -17.6848L455.331 -77.6335ZM418.666 -9.72324L399.388 6.57112L423.261 9.51027L391.458 33.6424L318.21 23.4636L371.985 -16.1791L418.666 -9.72324ZM216.236 14.6152L307.451 27.3L254.182 66.5714L160.273 53.371L216.236 14.6152ZM94.0765 94.8803L51.6702 88.8576L106.271 49.9471L142.327 54.4951L94.0765 94.8803ZM107.458 45.4197H45.7124L167.469 -44.7664L216.371 -37.9083L107.458 45.4197ZM105.682 -3.4427L57.6589 -9.76447L115.419 -52.171L162.782 -45.6327L105.682 -3.4427ZM203.712 -107.046L177.857 -102.106L112.755 -54.3161L63.3172 -61.1432L151.352 -123.639L208.503 -114.832L203.712 -107.046ZM58.6295 -61.7826L11.6385 -68.2694L98.5062 -131.776L146.746 -124.351L58.6295 -61.7826ZM6.95081 -68.9295L-45.6055 -76.1897L42.5837 -140.398L93.901 -132.498L6.95081 -68.9295ZM4.90637 -67.4341L-65.1721 -16.21L-117.532 -23.8313L-47.6705 -74.7047L4.90637 -67.4341ZM-128.322 -20.0258L-181.932 19.0085L-234.56 11.3666L-181.002 -27.6883L-128.322 -20.0258ZM-183.987 20.5038L-224.472 49.978L-277.597 42.7384L-236.615 12.8517L-183.987 20.5038ZM-282.295 42.099L-327.293 35.9628L-284.195 5.93173L-241.251 12.171L-282.295 42.099ZM-284.339 43.5943L-324.371 72.7901L-368.667 64.7873L-329.43 37.4479L-284.339 43.5943ZM-279.631 44.2337L-226.507 51.4734L-269.409 82.7111L-319.889 73.5945L-279.631 44.2337ZM-271.484 84.2065L-300.953 105.668L-352.156 97.1079L-321.965 75.0899L-271.484 84.2065ZM-267.013 85.0212L-219.991 93.519L-248.458 114.444L-296.42 106.431L-267.013 85.0212ZM-250.492 115.929L-290.669 145.465L-340.406 138.442L-298.475 107.916L-250.492 115.929ZM-258.226 133.904L-223.822 139.318L-221.561 137.854L-256.192 132.409L-236.904 118.229L-170.109 129.604L-207.343 157.242L-276.657 147.455L-258.226 133.904ZM-151.017 166.978L-172.009 183.375L-301.903 166.018L-278.681 148.951L-151.017 166.978ZM-146.34 167.638L-103.572 173.681L-179.743 193.74L-146.34 167.638ZM-149.242 187.82L-115.457 200.381L-154.559 212.076L-213.238 204.661L-149.242 187.82ZM-167.652 215.685L-182.789 228.71L-236.274 221.729L-199.33 211.674L-167.652 215.685ZM-240.642 222.915L-184.554 230.237L-202.613 245.789L-284.876 234.95L-240.642 222.915ZM-289.233 236.136L-204.379 247.315L-223.667 263.919L-333.922 249.388L-336.173 248.903L-289.233 236.136ZM-199.66 247.934L-104.615 260.454L-124.719 276.954L-218.948 264.537L-199.66 247.934ZM-126.567 278.48L-144.223 292.98L-237.854 280.832L-220.714 266.074L-126.567 278.48ZM-112.39 280.357L-13.1424 293.434L-29.5185 307.862L-130.016 294.826L-112.39 280.357ZM-31.2635 309.388L-53.6799 329.137L-158.483 318.185L-131.874 296.342L-31.2635 309.388ZM-55.4146 330.674L-73.2053 346.349L-179.154 335.16L-160.331 319.711L-55.4146 330.674ZM-74.9399 347.876L-93.3811 364.119L-197.089 352.908L-180.786 336.697L-74.9399 347.876ZM-95.1158 365.655L-113.381 381.754L-214.085 369.832L-198.638 354.466L-95.1158 365.655ZM-116.107 383.166L-154.951 395.645L-231.452 387.096L-215.654 371.379L-116.107 383.166ZM-158.937 396.924L-206.568 412.218L-251.236 406.773L-233.022 388.653L-158.937 396.924ZM-210.502 413.476L-259.197 429.11L-271.959 427.378L-252.795 408.32L-210.502 413.476ZM-263.069 430.358L-280.622 435.999L-273.528 428.935L-263.069 430.358ZM-159.247 403.957L-120.63 415.013L-176.408 433.235L-241.757 430.441L-159.247 403.957ZM-116.83 416.106L-69.0029 429.801L-79.5864 437.381L-170.099 433.514L-116.83 416.106ZM53.4564 346.04L135.203 359.818L92.8065 409.423L41.7578 406.009L40.7045 407.608L91.4642 411.001L63.6785 443.507L-74.2894 437.608L53.4564 346.04ZM149.524 361.344L202.679 366.119L130.783 441.589H80.6638L149.524 361.344ZM150.866 360.086L161.264 347.917L197.124 308.161L254.007 312.585L204.156 365.026L150.866 360.086ZM232.633 340.688L294.74 346.164L270.052 371.142L209.06 365.48L232.633 340.688ZM309.557 336.594L363.363 342.008L329.227 376.638L274.967 371.606L309.557 336.594ZM494.423 424.738L462.755 422.283L470.086 411.042L496.488 407.629L503.582 400.007L494.423 424.738ZM598.173 377.958L591.265 402.833L523.076 395.006L598.173 377.958ZM595.323 404.916L653.672 409.206L627.466 437.814L572.938 430.348L595.323 404.916ZM571.554 431.936L626.021 439.392L598.648 469.279L543.087 464.277L571.554 431.936ZM631.731 450.602L649.459 464.628L615.169 468.691L631.731 450.602ZM822.42 436.886L866.995 447.849L812.879 469.124L789.399 449.416L822.42 436.886ZM825.703 435.638L914.987 401.75L956.826 412.538L870.216 446.591L825.703 435.638ZM960.801 413.548L1003.49 424.552L920.15 458.842L874.264 447.56L960.801 413.548ZM970.352 409.732L1066.21 370.801L1090.6 388.704L1012.87 420.685L970.352 409.732ZM1092.92 390.416L1114.95 406.577L1055.19 431.596L1016.85 421.716L1092.92 390.416ZM1189.5 383.445L1252.75 399.523L1132.02 451.427L1067.1 434.69L1189.5 383.445ZM1324.71 415.714L1259.79 399.213L1322.19 372.389L1389.51 390.21L1326.2 418.003L1324.71 415.714ZM1255.8 398.203L1192.6 382.145L1257.06 355.157L1318.26 371.358L1255.8 398.203ZM1180.61 379.093L1143.42 369.636L1209.34 342.513L1245.27 352.022L1180.61 379.093ZM1212.47 341.451L1273.69 316.483H1331.21L1248.35 351.052L1212.47 341.451ZM1276.26 312.688V230.969L1335.64 218.418L1338.87 312.688H1276.26ZM1351.3 258.185L1422.97 257.422L1433.93 312.699H1354.21L1351.3 258.185ZM1351.2 255.792L1348.96 214.355L1389.43 205.558L1389.45 205.651L1412.73 205.156L1422.64 254.647L1351.2 255.792ZM1417.83 205.042L1475.78 203.805L1484.73 253.647L1427.74 254.565L1417.83 205.042ZM1417.51 203.423L1416.76 199.618L1472.85 187.418L1475.49 202.175L1417.51 203.423ZM1460.63 109.298L1514.1 107.029L1516.61 126.984L1460.42 155.654L1460.63 109.298ZM1455.02 69.4591L1454.58 69.3972L1397.41 68.7165L1469.54 18.6269L1522.38 26.0521L1456.99 69.7066L1455.02 69.4591ZM1555.05 -21.3768L1497.2 20.7513L1471.69 17.1624L1532.12 -24.7903L1555.05 -21.3768ZM1590.82 -69.4657L1529.61 -26.9664L1481.15 -34.1854L1542.36 -76.4888L1590.82 -69.4657ZM1530.54 -79.9745L1477.02 -87.7195L1482.23 -91.5559C1515.52 -100.095 1563.72 -113.502 1589.5 -120.731L1530.54 -79.9745ZM1453.95 -90.8134C1433.77 -86.5851 1404.1 -83.7387 1365.35 -82.3053L1360.72 -105.633C1377.15 -107.489 1393.4 -109.727 1408.96 -112.14L1453.95 -90.8134ZM1295.15 -100.734C1314.88 -101.302 1335.4 -102.879 1355.72 -105.076L1360.27 -82.1299C1341.79 -81.5112 1321.38 -81.1915 1298.97 -81.1915C1286.45 -81.1915 1273.55 -80.3046 1261.7 -79.0876L1243.74 -97.5064C1260.35 -99.1462 1277.63 -100.229 1295.15 -100.734ZM1238.86 -97.0217L1256.86 -78.572C1233.85 -75.9835 1215.9 -72.3636 1214.74 -72.1264L1213.53 -71.8789L1189.76 -61.4732C1173.19 -66.3409 1154.19 -72.2089 1139.25 -77.2519C1151.21 -81.274 1185.17 -91.3703 1238.86 -97.0217ZM993.718 -98.5996C1046.78 -101.9 1079.74 -101.951 1091.71 -98.7646C1097.51 -97.2177 1097.82 -95.0004 1097.65 -91.525C1097.57 -89.7202 1097.47 -87.8433 1099.09 -86.1726C1104.11 -80.9749 1147.39 -67.1969 1180.69 -57.5028L1158.89 -47.9634L1052.04 -23.9447C1038.25 -35.1548 988.525 -75.9525 974.09 -92.9688C972.892 -94.392 972.169 -95.9079 971.839 -97.5064C978.746 -97.7539 986.016 -98.1252 993.718 -98.5996ZM841.357 -120.081C852.591 -110.542 870.588 -95.3201 956.609 -97.032C957.001 -95.1551 957.848 -93.3607 959.283 -91.6693C968.855 -80.3871 992.934 -59.4416 1012.56 -42.941L741.376 -73.0649L785.135 -101.24L787.778 -100.817L790.071 -102.271L787.396 -102.694L826.808 -128.063C829.369 -127.362 831.372 -126.723 832.704 -126.145C835.791 -124.805 838.383 -122.618 841.357 -120.081ZM749.75 -142.636C777.928 -138.057 807.015 -132.941 822.73 -129.105L782.832 -103.426L704.741 -115.925L749.75 -142.636ZM688.624 -116.688L627.652 -80.5108L603.625 -86.4407L602.055 -85.8013L603.047 -86.5542L562.571 -91.9994L611.4 -129.054L688.624 -116.688ZM606.826 -129.786L557.863 -92.6284L488.352 -101.972L540.475 -140.398L606.826 -129.786ZM369.331 -18.3242L326.625 -24.2334L350.064 -41.0744L344.168 -45.8905L361.525 -58.2144L376.745 -60.6482L409.796 -84.6875L450.654 -78.2729L369.331 -18.3242ZM405.202 -85.4094L372.8 -61.8445L347.328 -57.7709L325.985 -61.3907L368.908 -91.1124L405.202 -85.4094ZM204.579 10.9953L148.264 49.9883L112.363 45.461L162.586 7.08676L204.579 10.9953ZM218.332 -39.7337L169.483 -46.4783L243.568 -101.219L246.676 -101.611L247.646 -102.415V-112.522L318.953 -114.636L218.332 -39.7337ZM241.947 -112.388V-105.004L229.164 -110.305L210.578 -107.902L213.841 -114.11L229.04 -112.079L241.947 -112.388ZM15.1389 -144.616L37.9683 -141.099L-50.3035 -76.8291L-115.364 -85.8116L15.1389 -144.616ZM-314.396 -111.522L-123.16 -85.1104L-153.01 -71.6624L-338.454 -98.5274L-314.396 -111.522ZM-341.067 -97.1249L-156.015 -70.3217L-224.627 -39.4037L-400.551 -65.0003L-341.067 -97.1249ZM-226.434 -34.2988L-185.659 -28.3689L-239.217 10.686L-282.078 4.45697L-226.434 -34.2988ZM-330.339 -0.761353L-288.841 5.2717L-331.991 35.3337L-373.592 29.672C-350.133 12.862 -334.428 2.03345 -330.339 -0.761353ZM-398.621 47.7504C-390.371 41.738 -382.699 36.2 -375.667 31.157L-334.118 36.8188L-373.117 63.9932L-408.079 57.6817C-406.406 54.5157 -403.37 51.2052 -398.621 47.7504ZM-408.905 59.3937L-375.265 65.4679L-396.886 80.5351C-406.024 74.7805 -412.095 67.6543 -408.905 59.3937ZM-393.85 82.3398L-370.794 66.2827L-326.425 74.2958L-356.493 96.2209C-362.957 94.5915 -380.613 89.7651 -393.85 82.3398ZM-354.201 98.6032L-303.007 107.163L-345.083 137.792L-397.743 130.357L-354.201 98.6032ZM-399.777 131.842L-347.117 139.277L-371.134 156.768L-424.238 149.673L-399.777 131.842ZM-366.416 157.397L-342.44 139.937L-292.692 146.96L-316.038 164.121L-366.416 157.397ZM-303.926 167.514L-173.93 184.881L-188.055 195.926L-218.649 203.98L-333.746 189.439L-303.926 167.514ZM-204.71 211.003L-340.571 247.954L-396.845 235.826L-339.859 193.925L-204.71 211.003ZM-425.033 256.555L-398.91 237.353L-344.608 249.058L-389.255 261.196L-425.033 256.555ZM-383.917 261.887L-340.21 249.996L-336.575 250.78L-336.358 250.821L-225.433 265.435L-242.583 280.203L-383.917 261.887ZM-239.63 282.358L-146.072 294.496L-173.062 316.659L-267.942 306.748L-239.63 282.358ZM-269.729 308.274L-174.921 318.185L-193.723 333.623L-287.633 323.702L-269.729 308.274ZM-289.409 325.229L-195.334 335.16L-211.607 351.341L-307.685 340.966L-289.409 325.229ZM-309.461 342.492L-213.166 352.898L-228.479 368.13L-325.847 356.611L-309.461 342.492ZM-327.613 358.127L-230.038 369.677L-245.929 385.476L-346.343 374.256L-327.613 358.127ZM-348.119 375.782L-247.488 387.023L-265.578 405.009L-367.613 392.561L-348.119 375.782ZM-369.379 394.088L-267.137 406.566L-286.125 425.449L-389.472 411.393L-369.379 394.088ZM-391.248 412.919L-287.695 427.006L-302.584 441.816L-411.197 430.1L-391.248 412.919ZM-285.082 444.363L-246.269 431.905L-180.858 434.7L-236.656 452.933L-285.082 444.363ZM-174.539 434.968L-81.734 438.938L-128.064 472.146L-232.01 453.758L-174.539 434.968ZM-123.459 472.837L-110.645 463.648L-39.4309 474.291L-37.2625 472.816L-108.57 462.163L-76.4785 439.155L61.7374 445.064L-1.0307 488.028L-123.459 472.837ZM76.4717 499.434L13.0635 490.09L75.687 447.271H126.137L76.4717 499.434ZM207.584 366.728L268.535 372.224L199.86 441.589H136.122L207.584 366.728ZM156.772 478.344L181.233 447.271H242.897L218.374 476.189L156.772 478.344ZM223.505 476.333L248.193 447.271H293.522L304.777 444.631L309.041 444.971L278.891 481.252L223.505 476.333ZM294.441 468.835L313.956 445.374L363.477 449.829L345.965 473.27L294.441 468.835ZM350.9 473.693L368.412 450.272L425.305 455.388L403.942 478.261L350.9 473.693ZM462.828 483.325L408.867 478.684L430.22 455.831L480.887 460.389L462.828 483.325ZM486.772 459.224L509.426 398.099L518.017 396.15L590.419 404.463L538.182 463.844L486.772 459.224ZM521.455 488.873L541.703 465.855L597.223 470.846L576.758 493.194L521.455 488.873ZM592.349 493.617L613.382 470.64L651.369 466.133L674.829 484.697L592.349 493.617ZM656.16 465.566L703.513 459.956L727.488 479.004L679.682 484.171L656.16 465.566ZM732.331 478.488L708.304 459.389L784.99 450.293L808.739 470.228L732.331 478.488ZM835.12 487.791L814.975 470.877L871.042 448.839L916.805 460.09L835.12 487.791ZM924.198 459.843L1007.47 425.583L1045.9 435.494L964.229 469.681L924.198 459.843ZM1043.94 489.276L976.372 472.662L1057.82 438.557L1122.88 455.336L1043.94 489.276ZM1136 452.438L1164.61 440.135L1284.74 436.195L1206.39 470.578L1136 452.438ZM1263.07 485.192L1210.38 471.61L1234.31 461.101L1288.8 472.878L1263.07 485.192ZM1366.23 487.667L1295.86 472.455L1342 450.375L1366.23 487.667ZM1344.53 446.23L1336.91 434.494L1371.42 433.359L1344.53 446.23ZM1335.87 432.895L1327.61 420.169L1393.47 391.262L1418.54 397.893L1443.79 429.347L1335.87 432.895ZM1423.07 396.986L1396.47 389.942L1426.82 376.628L1505.65 427.326L1448.93 429.182L1423.07 396.986ZM1511.06 427.151L1430.19 375.143L1469.06 358.086L1579.14 424.923L1511.06 427.151ZM1466.38 356.487L1392.52 388.9L1325.24 371.09L1391.07 342.792L1411.15 338.326L1466.38 356.487ZM1387.82 341.523L1387.48 341.595L1321.31 370.038L1260.18 353.847L1347.38 317.329L1407.57 337.119L1387.82 341.523ZM1451.31 312.688H1439.05L1428.07 256.947L1485.03 255.658L1493.13 301.354L1451.31 312.688ZM1550.54 285.627L1498.02 299.137L1490.12 255.194L1543.17 254.338L1550.54 285.627ZM1542.8 252.719L1489.83 253.575L1480.88 203.702L1531.03 202.629L1542.8 252.719ZM1530.64 200.989L1480.59 202.062L1477.77 186.345L1524.81 176.115L1530.64 200.989ZM1528.35 169.442L1526.49 161.532L1562.85 161.935L1528.35 169.442ZM1520.33 156.572L1465.83 155.963L1516.97 129.872L1520.33 156.572ZM1521.42 124.53L1519.19 106.812L1559.5 105.1L1521.42 124.53ZM1563.01 103.306L1518.98 105.173L1515.73 79.4007L1590.21 89.4248L1563.01 103.306ZM1571.54 32.9824L1511.68 77.0906L1461.71 70.3666L1527.06 26.7328L1571.54 32.9824Z" fill="url(#paint0_radial_110_209012)" fill-opacity="0.22"/>
</g>
<path d="M717.039 351.867C715.686 351.867 714.406 351.145 713.724 349.928C712.909 348.463 713.146 346.638 714.313 345.442L823.421 233.155L749.182 224.956L700.518 276.737C699.713 277.593 698.546 278.026 697.379 277.913L261.513 234.63C260.057 234.485 258.818 233.516 258.323 232.144C257.827 230.773 258.158 229.236 259.18 228.195L321.204 165.09L60.2403 131.625C58.7327 131.429 57.4834 130.356 57.0704 128.902C56.6573 127.438 57.1529 125.87 58.33 124.921L144.681 55.1032C146.313 53.7832 148.698 54.0307 150.02 55.6601C151.341 57.2896 151.083 59.6718 149.462 60.9919L70.008 125.231L329.744 158.531C331.168 158.717 332.376 159.686 332.841 161.047C333.316 162.409 332.975 163.914 331.963 164.946L270.135 227.854L696.264 270.168L744.948 218.366C745.764 217.5 746.962 217.067 748.129 217.191L831.961 226.441C833.396 226.596 834.625 227.565 835.11 228.927C835.605 230.288 835.275 231.814 834.263 232.846L728.603 341.585L886.344 306.438C888.389 305.985 890.423 307.274 890.877 309.316C891.332 311.358 890.041 313.389 887.997 313.843L717.855 351.753C717.586 351.836 717.307 351.867 717.039 351.867Z" fill="#E43729"/>
<path d="M165.869 57.1558C165.869 61.6007 157.65 65.1999 147.51 65.1999C137.381 65.1999 129.162 61.6007 129.162 57.1558C129.162 52.711 137.381 49.1118 147.51 49.1118C157.65 49.1118 165.869 52.7213 165.869 57.1558Z" fill="#E43729"/>
<path d="M906.014 311.162C906.014 315.607 897.795 319.206 887.656 319.206C877.527 319.206 869.308 315.607 869.308 311.162C869.308 306.717 877.527 303.118 887.656 303.118C897.806 303.118 906.014 306.717 906.014 311.162Z" fill="#E43729"/>
<path d="M44.16 460H30.4V402.8H44.16V460ZM86.32 460H68.4L42.16 430.32H43.44L66.32 402.8H82.96L58.32 431.52V429.12L86.32 460ZM132.123 449.6H96.4425V438.16H132.123V449.6ZM144.283 460H129.483L112.363 412.88H115.883L98.6825 460H84.3625L106.683 402.8H121.963L144.283 460ZM163.229 460H149.469V402.8H173.389C177.655 402.8 181.415 403.573 184.669 405.12C187.922 406.667 190.455 408.827 192.269 411.6C194.082 414.32 194.989 417.52 194.989 421.2C194.989 424.827 194.082 428.027 192.269 430.8C190.455 433.573 187.922 435.733 184.669 437.28C181.415 438.827 177.655 439.6 173.389 439.6H162.429V428.16H173.389C175.735 428.16 177.602 427.547 178.989 426.32C180.375 425.04 181.069 423.333 181.069 421.2C181.069 419.067 180.375 417.387 178.989 416.16C177.602 414.88 175.735 414.24 173.389 414.24H163.229V460ZM226.354 460H212.594V413.6H226.354V460ZM243.554 414.4H195.394V402.8H243.554V414.4ZM282.913 449.6H247.233V438.16H282.913V449.6ZM295.073 460H280.273L263.153 412.88H266.673L249.473 460H235.153L257.473 402.8H272.753L295.073 460ZM312.684 460V402.8H363.404V460H349.644V406.16L356.204 414.32H319.084L326.444 406.16V460H312.684ZM386.76 460H373V402.8H396.92C401.187 402.8 404.947 403.573 408.2 405.12C411.453 406.667 413.987 408.827 415.8 411.6C417.613 414.32 418.52 417.52 418.52 421.2C418.52 424.827 417.613 428.027 415.8 430.8C413.987 433.573 411.453 435.733 408.2 437.28C404.947 438.827 401.187 439.6 396.92 439.6H385.96V428.16H396.92C399.267 428.16 401.133 427.547 402.52 426.32C403.907 425.04 404.6 423.333 404.6 421.2C404.6 419.067 403.907 417.387 402.52 416.16C401.133 414.88 399.267 414.24 396.92 414.24H386.76V460ZM452.967 461.28C448.434 461.28 444.274 460.533 440.487 459.04C436.701 457.547 433.394 455.467 430.567 452.8C427.794 450.133 425.634 446.987 424.087 443.36C422.594 439.68 421.847 435.68 421.847 431.36C421.847 427.04 422.594 423.067 424.087 419.44C425.634 415.813 427.794 412.667 430.567 410C433.394 407.333 436.701 405.253 440.487 403.76C444.274 402.267 448.434 401.52 452.967 401.52C457.501 401.52 461.661 402.267 465.447 403.76C469.234 405.253 472.514 407.333 475.287 410C478.114 412.667 480.274 415.813 481.767 419.44C483.314 423.067 484.087 427.04 484.087 431.36C484.087 435.68 483.314 439.68 481.767 443.36C480.274 446.987 478.114 450.133 475.287 452.8C472.514 455.467 469.234 457.547 465.447 459.04C461.661 460.533 457.501 461.28 452.967 461.28ZM452.967 449.2C456.274 449.2 459.154 448.453 461.607 446.96C464.114 445.413 466.061 443.307 467.447 440.64C468.887 437.92 469.607 434.827 469.607 431.36C469.607 427.893 468.887 424.827 467.447 422.16C466.061 419.493 464.114 417.413 461.607 415.92C459.154 414.373 456.274 413.6 452.967 413.6C449.714 413.6 446.834 414.373 444.327 415.92C441.821 417.413 439.847 419.493 438.407 422.16C437.021 424.827 436.327 427.893 436.327 431.36C436.327 434.827 437.021 437.92 438.407 440.64C439.847 443.307 441.821 445.413 444.327 446.96C446.834 448.453 449.714 449.2 452.967 449.2ZM496.068 460H479.828L501.988 428.72V432L481.748 402.8H498.068L510.388 422.08H508.308L520.628 402.8H536.788L516.788 432V428.72L538.868 460H522.548L508.228 438.48H510.468L496.068 460ZM565.708 461.28C561.175 461.28 557.015 460.533 553.228 459.04C549.441 457.547 546.135 455.467 543.308 452.8C540.535 450.133 538.375 446.987 536.828 443.36C535.335 439.68 534.588 435.68 534.588 431.36C534.588 427.04 535.335 423.067 536.828 419.44C538.375 415.813 540.535 412.667 543.308 410C546.135 407.333 549.441 405.253 553.228 403.76C557.015 402.267 561.175 401.52 565.708 401.52C570.241 401.52 574.401 402.267 578.188 403.76C581.975 405.253 585.255 407.333 588.028 410C590.855 412.667 593.015 415.813 594.508 419.44C596.055 423.067 596.828 427.04 596.828 431.36C596.828 435.68 596.055 439.68 594.508 443.36C593.015 446.987 590.855 450.133 588.028 452.8C585.255 455.467 581.975 457.547 578.188 459.04C574.401 460.533 570.241 461.28 565.708 461.28ZM565.708 449.2C569.015 449.2 571.895 448.453 574.348 446.96C576.855 445.413 578.801 443.307 580.188 440.64C581.628 437.92 582.348 434.827 582.348 431.36C582.348 427.893 581.628 424.827 580.188 422.16C578.801 419.493 576.855 417.413 574.348 415.92C571.895 414.373 569.015 413.6 565.708 413.6C562.455 413.6 559.575 414.373 557.068 415.92C554.561 417.413 552.588 419.493 551.148 422.16C549.761 424.827 549.068 427.893 549.068 431.36C549.068 434.827 549.761 437.92 551.148 440.64C552.588 443.307 554.561 445.413 557.068 446.96C559.575 448.453 562.455 449.2 565.708 449.2ZM597.188 453.6V448.48H600.868C602.361 448.48 603.561 447.467 604.468 445.44C605.375 443.36 606.121 439.973 606.708 435.28L610.708 402.8H650.468V451.6H636.868V404.56L643.268 414.32H612.228L623.748 404.56L619.588 436.8C619.108 440.587 618.201 443.733 616.868 446.24C615.588 448.693 613.855 450.533 611.668 451.76C609.481 452.987 606.868 453.6 603.828 453.6H597.188ZM595.188 473.92V448.48H657.908V473.92H645.108V453.44L652.308 460H601.988L607.988 454.88V473.92H595.188ZM707.235 449.6H671.555V438.16H707.235V449.6ZM719.395 460H704.595L687.475 412.88H690.995L673.795 460H659.475L681.795 402.8H697.075L719.395 460ZM44.16 544H30.4V486.8H44.16V544ZM86.32 544H68.4L42.16 514.32H43.44L66.32 486.8H82.96L58.32 515.52V513.12L86.32 544ZM122.51 545.28C117.23 545.28 112.483 544.293 108.27 542.32C104.057 540.347 100.67 537.787 98.11 534.64L106.51 526.16C108.377 528.187 110.643 529.867 113.31 531.2C115.977 532.533 118.937 533.2 122.19 533.2C125.71 533.2 128.723 532.453 131.23 530.96C133.79 529.413 135.737 527.307 137.07 524.64C138.457 521.92 139.15 518.827 139.15 515.36C139.15 511.893 138.483 508.827 137.15 506.16C135.817 503.493 133.897 501.413 131.39 499.92C128.883 498.373 125.87 497.6 122.35 497.6C119.203 497.6 116.27 498.293 113.55 499.68C110.883 501.013 108.617 502.773 106.75 504.96L98.35 496.16C100.91 493.013 104.27 490.453 108.43 488.48C112.643 486.507 117.283 485.52 122.35 485.52C127.043 485.52 131.257 486.267 134.99 487.76C138.777 489.2 142.003 491.253 144.67 493.92C147.337 496.587 149.39 499.76 150.83 503.44C152.27 507.067 152.99 511.067 152.99 515.44C152.99 521.253 151.737 526.4 149.23 530.88C146.723 535.36 143.177 538.88 138.59 541.44C134.057 544 128.697 545.28 122.51 545.28ZM113.15 520.56V509.04H146.99V520.56H113.15ZM173.701 544H159.941V486.8H173.701V544ZM215.861 544H197.941L171.701 514.32H172.981L195.861 486.8H212.501L187.861 515.52V513.12L215.861 544ZM255.177 525.6L263.977 534.64C261.417 537.787 258.057 540.347 253.897 542.32C249.79 544.293 245.257 545.28 240.297 545.28C235.657 545.28 231.444 544.56 227.657 543.12C223.87 541.627 220.59 539.547 217.817 536.88C215.097 534.213 212.99 531.067 211.497 527.44C210.004 523.76 209.257 519.733 209.257 515.36C209.257 511.04 210.03 507.067 211.577 503.44C213.124 499.76 215.284 496.587 218.057 493.92C220.884 491.253 224.19 489.2 227.977 487.76C231.817 486.267 236.03 485.52 240.617 485.52C245.577 485.52 250.057 486.507 254.057 488.48C258.11 490.453 261.417 493.013 263.977 496.16L255.177 505.2C253.524 502.853 251.417 501.013 248.857 499.68C246.35 498.293 243.604 497.6 240.617 497.6C237.417 497.6 234.537 498.373 231.977 499.92C229.47 501.413 227.497 503.493 226.057 506.16C224.617 508.827 223.897 511.893 223.897 515.36C223.897 518.827 224.617 521.92 226.057 524.64C227.497 527.307 229.47 529.413 231.977 530.96C234.537 532.453 237.417 533.2 240.617 533.2C243.604 533.2 246.35 532.507 248.857 531.12C251.417 529.733 253.524 527.893 255.177 525.6ZM269.556 544V486.8H320.276V544H306.516V490.16L313.076 498.32H275.956L283.316 490.16V544H269.556ZM358.352 545.28C353.819 545.28 349.659 544.533 345.872 543.04C342.085 541.547 338.779 539.467 335.952 536.8C333.179 534.133 331.019 530.987 329.472 527.36C327.979 523.68 327.232 519.68 327.232 515.36C327.232 511.04 327.979 507.067 329.472 503.44C331.019 499.813 333.179 496.667 335.952 494C338.779 491.333 342.085 489.253 345.872 487.76C349.659 486.267 353.819 485.52 358.352 485.52C362.885 485.52 367.045 486.267 370.832 487.76C374.619 489.253 377.899 491.333 380.672 494C383.499 496.667 385.659 499.813 387.152 503.44C388.699 507.067 389.472 511.04 389.472 515.36C389.472 519.68 388.699 523.68 387.152 527.36C385.659 530.987 383.499 534.133 380.672 536.8C377.899 539.467 374.619 541.547 370.832 543.04C367.045 544.533 362.885 545.28 358.352 545.28ZM358.352 533.2C361.659 533.2 364.539 532.453 366.992 530.96C369.499 529.413 371.445 527.307 372.832 524.64C374.272 521.92 374.992 518.827 374.992 515.36C374.992 511.893 374.272 508.827 372.832 506.16C371.445 503.493 369.499 501.413 366.992 499.92C364.539 498.373 361.659 497.6 358.352 497.6C355.099 497.6 352.219 498.373 349.712 499.92C347.205 501.413 345.232 503.493 343.792 506.16C342.405 508.827 341.712 511.893 341.712 515.36C341.712 518.827 342.405 521.92 343.792 524.64C345.232 527.307 347.205 529.413 349.712 530.96C352.219 532.453 355.099 533.2 358.352 533.2ZM415.718 545.28C410.544 545.28 405.824 544.373 401.558 542.56C397.291 540.693 393.798 538.053 391.078 534.64L399.638 525.92C401.771 528.32 404.251 530.16 407.078 531.44C409.958 532.667 412.998 533.28 416.198 533.28C418.491 533.28 420.464 532.987 422.118 532.4C423.771 531.813 425.051 531.013 425.958 530C426.864 528.933 427.318 527.707 427.318 526.32C427.318 524.453 426.438 523.04 424.678 522.08C422.918 521.067 420.358 520.56 416.998 520.56H406.358V509.12H417.078C419.798 509.12 421.904 508.64 423.398 507.68C424.891 506.667 425.638 505.333 425.638 503.68C425.638 501.813 424.731 500.32 422.918 499.2C421.158 498.08 418.784 497.52 415.798 497.52C412.918 497.52 410.304 498.133 407.958 499.36C405.611 500.533 403.371 502.48 401.238 505.2L392.518 496.24C395.504 492.613 398.998 489.92 402.998 488.16C406.998 486.347 411.424 485.44 416.278 485.44C420.758 485.44 424.758 486.133 428.278 487.52C431.798 488.907 434.544 490.827 436.518 493.28C438.544 495.68 439.558 498.453 439.558 501.6C439.558 504.32 438.784 506.72 437.238 508.8C435.691 510.88 433.558 512.507 430.838 513.68C434.038 514.747 436.571 516.48 438.438 518.88C440.304 521.227 441.238 524 441.238 527.2C441.238 530.72 440.118 533.84 437.878 536.56C435.691 539.28 432.678 541.413 428.838 542.96C424.998 544.507 420.624 545.28 415.718 545.28ZM446.987 544V486.8H460.747V538.32H451.307L484.107 486.8H498.507V544H484.747V491.76H494.347L461.387 544H446.987ZM508.084 544V486.8H521.844V540.64L514.484 532.48H550.964L544.404 540.64V486.8H558.164V544H508.084ZM552.804 557.92V532.48H565.604V557.92H552.804ZM571.603 544V486.8H585.363V538.32H575.923L608.723 486.8H623.123V544H609.363V491.76H618.963L586.003 544H571.603ZM632.7 544V486.8H646.46V538.32H637.02L669.82 486.8H684.22V544H670.46V491.76H680.06L647.1 544H632.7Z" fill="#2B2B2B"/>
<path d="M40.9688 574.455V589H38.7812V576.33H31.9347V589H29.7472V574.455H40.9688ZM56.9595 581.727C56.9595 583.28 56.6754 584.616 56.1072 585.733C55.5391 586.846 54.7602 587.703 53.7706 588.304C52.7857 588.901 51.666 589.199 50.4112 589.199C49.1518 589.199 48.0272 588.901 47.0376 588.304C46.0528 587.703 45.2763 586.843 44.7081 585.726C44.1399 584.608 43.8558 583.276 43.8558 581.727C43.8558 580.174 44.1399 578.841 44.7081 577.729C45.2763 576.611 46.0528 575.754 47.0376 575.158C48.0272 574.556 49.1518 574.256 50.4112 574.256C51.666 574.256 52.7857 574.556 53.7706 575.158C54.7602 575.754 55.5391 576.611 56.1072 577.729C56.6754 578.841 56.9595 580.174 56.9595 581.727ZM54.7862 581.727C54.7862 580.544 54.5945 579.547 54.2109 578.737C53.8321 577.923 53.3113 577.307 52.6484 576.891C51.9903 576.469 51.2446 576.259 50.4112 576.259C49.5732 576.259 48.825 576.469 48.1669 576.891C47.5088 577.307 46.9879 577.923 46.6044 578.737C46.2256 579.547 46.0362 580.544 46.0362 581.727C46.0362 582.911 46.2256 583.91 46.6044 584.724C46.9879 585.534 47.5088 586.15 48.1669 586.571C48.825 586.988 49.5732 587.196 50.4112 587.196C51.2446 587.196 51.9903 586.988 52.6484 586.571C53.3113 586.15 53.8321 585.534 54.2109 584.724C54.5945 583.91 54.7862 582.911 54.7862 581.727ZM71.7766 579.185H69.5607C69.4755 578.711 69.3169 578.295 69.0849 577.935C68.8529 577.575 68.5688 577.269 68.2326 577.018C67.8964 576.768 67.52 576.578 67.1033 576.45C66.6914 576.322 66.2534 576.259 65.7894 576.259C64.9513 576.259 64.2009 576.469 63.538 576.891C62.8799 577.312 62.359 577.93 61.9755 578.744C61.5967 579.559 61.4073 580.553 61.4073 581.727C61.4073 582.911 61.5967 583.91 61.9755 584.724C62.359 585.539 62.8822 586.154 63.5451 586.571C64.208 586.988 64.9537 587.196 65.7823 587.196C66.2416 587.196 66.6772 587.134 67.0891 587.011C67.5058 586.884 67.8822 586.696 68.2184 586.45C68.5546 586.204 68.8387 585.903 69.0707 585.548C69.3074 585.188 69.4708 584.777 69.5607 584.312L71.7766 584.32C71.6583 585.035 71.4286 585.693 71.0877 586.294C70.7515 586.891 70.3183 587.407 69.788 587.842C69.2624 588.273 68.6611 588.607 67.984 588.844C67.3069 589.08 66.5683 589.199 65.7681 589.199C64.5086 589.199 63.3865 588.901 62.4016 588.304C61.4168 587.703 60.6403 586.843 60.0721 585.726C59.5086 584.608 59.2269 583.276 59.2269 581.727C59.2269 580.174 59.511 578.841 60.0792 577.729C60.6474 576.611 61.4239 575.754 62.4087 575.158C63.3936 574.556 64.5134 574.256 65.7681 574.256C66.5399 574.256 67.2596 574.367 67.9272 574.589C68.5996 574.807 69.2032 575.129 69.7383 575.555C70.2733 575.977 70.716 576.493 71.0664 577.104C71.4168 577.71 71.6535 578.403 71.7766 579.185ZM74.4027 574.455H77.0661L81.6967 585.761H81.8672L86.4979 574.455H89.1612V589H87.0732V578.474H86.9382L82.6484 588.979H80.9155L76.6257 578.467H76.4908V589H74.4027V574.455ZM104.987 581.727C104.987 583.28 104.703 584.616 104.135 585.733C103.566 586.846 102.788 587.703 101.798 588.304C100.813 588.901 99.6933 589.199 98.4386 589.199C97.1791 589.199 96.0546 588.901 95.065 588.304C94.0801 587.703 93.3036 586.843 92.7354 585.726C92.1673 584.608 91.8832 583.276 91.8832 581.727C91.8832 580.174 92.1673 578.841 92.7354 577.729C93.3036 576.611 94.0801 575.754 95.065 575.158C96.0546 574.556 97.1791 574.256 98.4386 574.256C99.6933 574.256 100.813 574.556 101.798 575.158C102.788 575.754 103.566 576.611 104.135 577.729C104.703 578.841 104.987 580.174 104.987 581.727ZM102.814 581.727C102.814 580.544 102.622 579.547 102.238 578.737C101.859 577.923 101.339 577.307 100.676 576.891C100.018 576.469 99.2719 576.259 98.4386 576.259C97.6005 576.259 96.8524 576.469 96.1942 576.891C95.5361 577.307 95.0153 577.923 94.6317 578.737C94.253 579.547 94.0636 580.544 94.0636 581.727C94.0636 582.911 94.253 583.91 94.6317 584.724C95.0153 585.534 95.5361 586.15 96.1942 586.571C96.8524 586.988 97.6005 587.196 98.4386 587.196C99.2719 587.196 100.018 586.988 100.676 586.571C101.339 586.15 101.859 585.534 102.238 584.724C102.622 583.91 102.814 582.911 102.814 581.727ZM106.381 576.344V574.455H117.638V576.344H113.099V589H110.912V576.344H106.381ZM120.125 589V574.455H125.31C126.442 574.455 127.379 574.661 128.123 575.072C128.866 575.484 129.422 576.048 129.792 576.763C130.161 577.473 130.346 578.273 130.346 579.163C130.346 580.058 130.158 580.863 129.784 581.578C129.415 582.288 128.856 582.852 128.108 583.268C127.365 583.68 126.43 583.886 125.303 583.886H121.738V582.026H125.104C125.819 582.026 126.399 581.902 126.844 581.656C127.289 581.405 127.616 581.064 127.824 580.634C128.033 580.203 128.137 579.713 128.137 579.163C128.137 578.614 128.033 578.126 127.824 577.7C127.616 577.274 127.287 576.94 126.837 576.699C126.392 576.457 125.805 576.337 125.076 576.337H122.32V589H120.125ZM132.918 589V574.455H142.038V576.344H135.113V580.776H141.562V582.658H135.113V587.111H142.123V589H132.918ZM144.252 576.344V574.455H155.509V576.344H150.971V589H148.783V576.344H144.252ZM159.538 580.321H163.458C164.538 580.321 165.456 580.496 166.214 580.847C166.971 581.197 167.549 581.692 167.947 582.331C168.349 582.97 168.548 583.723 168.543 584.589C168.548 585.456 168.349 586.221 167.947 586.884C167.549 587.546 166.971 588.065 166.214 588.439C165.456 588.813 164.538 589 163.458 589H158.011V574.455H160.212V587.153H163.458C164.088 587.153 164.618 587.03 165.049 586.784C165.485 586.538 165.814 586.218 166.036 585.825C166.263 585.432 166.377 585.011 166.377 584.561C166.377 583.908 166.126 583.347 165.624 582.878C165.122 582.404 164.4 582.168 163.458 582.168H159.538V580.321ZM176.512 589V574.455H181.697C182.828 574.455 183.766 574.661 184.509 575.072C185.253 575.484 185.809 576.048 186.178 576.763C186.548 577.473 186.732 578.273 186.732 579.163C186.732 580.058 186.545 580.863 186.171 581.578C185.802 582.288 185.243 582.852 184.495 583.268C183.752 583.68 182.817 583.886 181.69 583.886H178.124V582.026H181.491C182.206 582.026 182.786 581.902 183.231 581.656C183.676 581.405 184.003 581.064 184.211 580.634C184.419 580.203 184.523 579.713 184.523 579.163C184.523 578.614 184.419 578.126 184.211 577.7C184.003 577.274 183.674 576.94 183.224 576.699C182.779 576.457 182.192 576.337 181.462 576.337H178.707V589H176.512ZM194.014 589H189.305V574.455H194.163C195.588 574.455 196.812 574.746 197.835 575.328C198.858 575.906 199.641 576.737 200.186 577.821C200.735 578.901 201.01 580.196 201.01 581.706C201.01 583.221 200.733 584.523 200.179 585.612C199.629 586.701 198.834 587.539 197.792 588.126C196.751 588.709 195.491 589 194.014 589ZM191.5 587.082H193.893C195.001 587.082 195.922 586.874 196.656 586.457C197.39 586.036 197.939 585.428 198.304 584.632C198.668 583.832 198.85 582.857 198.85 581.706C198.85 580.565 198.668 579.597 198.304 578.801C197.944 578.006 197.406 577.402 196.691 576.99C195.976 576.578 195.089 576.372 194.028 576.372H191.5V587.082ZM203.739 589V574.455H212.759V576.344H205.933V580.776H212.112V582.658H205.933V589H203.739Z" fill="#2B2B2B"/>
</g>
<defs>
<radialGradient id="paint0_radial_110_209012" cx="0" cy="0" r="1" gradientUnits="userSpaceOnUse" gradientTransform="translate(537 182.583) scale(1123.26 357.75)">
<stop stop-color="#565656"/>
<stop offset="1" stop-color="#F2F2F2"/>
</radialGradient>
<clipPath id="clip0_110_209012">
<rect width="960" height="620" fill="white"/>
</clipPath>
</defs>
</svg>
