<svg width="960" height="620" viewBox="0 0 960 620" fill="none" xmlns="http://www.w3.org/2000/svg">
<g clip-path="url(#clip0_110_208993)">
<rect width="960" height="620" fill="#D20000"/>
<g opacity="0.2">
<path d="M753.959 206.739H547.997L650.978 309.72L753.959 206.739Z" fill="white"/>
<path d="M753.976 412.701V206.739L650.995 309.72L753.976 412.701Z" fill="white"/>
<path d="M650.978 309.715L547.997 412.696H753.959L650.978 309.715Z" fill="white"/>
<path d="M547.997 206.739V412.701L650.978 309.72L547.997 206.739Z" fill="white"/>
<path d="M753.976 206.738V0.719238L650.995 103.7L753.976 206.738Z" fill="white"/>
<path d="M547.997 0.719238V206.738L650.978 103.7L547.997 0.719238Z" fill="white"/>
<path d="M753.976 618.722V412.703L650.995 515.684L753.976 618.722Z" fill="white"/>
<path d="M547.997 412.703V618.722L650.978 515.684L547.997 412.703Z" fill="white"/>
<path d="M753.994 412.696H960.013L857.032 309.715L753.994 412.696Z" fill="white"/>
<path d="M960.013 206.739H753.994L857.032 309.72L960.013 206.739Z" fill="white"/>
<path d="M342 412.696H548.019L445.038 309.715L342 412.696Z" fill="white"/>
<path d="M548.019 206.739H342L445.038 309.72L548.019 206.739Z" fill="white"/>
</g>
<path d="M44.16 460H30.4V402.8H44.16V460ZM86.32 460H68.4L42.16 430.32H43.44L66.32 402.8H82.96L58.32 431.52V429.12L86.32 460ZM132.123 449.6H96.4425V438.16H132.123V449.6ZM144.283 460H129.483L112.363 412.88H115.883L98.6825 460H84.3625L106.683 402.8H121.963L144.283 460ZM163.229 460H149.469V402.8H173.389C177.655 402.8 181.415 403.573 184.669 405.12C187.922 406.667 190.455 408.827 192.269 411.6C194.082 414.32 194.989 417.52 194.989 421.2C194.989 424.827 194.082 428.027 192.269 430.8C190.455 433.573 187.922 435.733 184.669 437.28C181.415 438.827 177.655 439.6 173.389 439.6H162.429V428.16H173.389C175.735 428.16 177.602 427.547 178.989 426.32C180.375 425.04 181.069 423.333 181.069 421.2C181.069 419.067 180.375 417.387 178.989 416.16C177.602 414.88 175.735 414.24 173.389 414.24H163.229V460ZM226.354 460H212.594V413.6H226.354V460ZM243.554 414.4H195.394V402.8H243.554V414.4ZM282.913 449.6H247.233V438.16H282.913V449.6ZM295.073 460H280.273L263.153 412.88H266.673L249.473 460H235.153L257.473 402.8H272.753L295.073 460ZM312.684 460V402.8H363.404V460H349.644V406.16L356.204 414.32H319.084L326.444 406.16V460H312.684ZM386.76 460H373V402.8H396.92C401.187 402.8 404.947 403.573 408.2 405.12C411.453 406.667 413.987 408.827 415.8 411.6C417.613 414.32 418.52 417.52 418.52 421.2C418.52 424.827 417.613 428.027 415.8 430.8C413.987 433.573 411.453 435.733 408.2 437.28C404.947 438.827 401.187 439.6 396.92 439.6H385.96V428.16H396.92C399.267 428.16 401.133 427.547 402.52 426.32C403.907 425.04 404.6 423.333 404.6 421.2C404.6 419.067 403.907 417.387 402.52 416.16C401.133 414.88 399.267 414.24 396.92 414.24H386.76V460ZM452.967 461.28C448.434 461.28 444.274 460.533 440.487 459.04C436.701 457.547 433.394 455.467 430.567 452.8C427.794 450.133 425.634 446.987 424.087 443.36C422.594 439.68 421.847 435.68 421.847 431.36C421.847 427.04 422.594 423.067 424.087 419.44C425.634 415.813 427.794 412.667 430.567 410C433.394 407.333 436.701 405.253 440.487 403.76C444.274 402.267 448.434 401.52 452.967 401.52C457.501 401.52 461.661 402.267 465.447 403.76C469.234 405.253 472.514 407.333 475.287 410C478.114 412.667 480.274 415.813 481.767 419.44C483.314 423.067 484.087 427.04 484.087 431.36C484.087 435.68 483.314 439.68 481.767 443.36C480.274 446.987 478.114 450.133 475.287 452.8C472.514 455.467 469.234 457.547 465.447 459.04C461.661 460.533 457.501 461.28 452.967 461.28ZM452.967 449.2C456.274 449.2 459.154 448.453 461.607 446.96C464.114 445.413 466.061 443.307 467.447 440.64C468.887 437.92 469.607 434.827 469.607 431.36C469.607 427.893 468.887 424.827 467.447 422.16C466.061 419.493 464.114 417.413 461.607 415.92C459.154 414.373 456.274 413.6 452.967 413.6C449.714 413.6 446.834 414.373 444.327 415.92C441.821 417.413 439.847 419.493 438.407 422.16C437.021 424.827 436.327 427.893 436.327 431.36C436.327 434.827 437.021 437.92 438.407 440.64C439.847 443.307 441.821 445.413 444.327 446.96C446.834 448.453 449.714 449.2 452.967 449.2ZM496.068 460H479.828L501.988 428.72V432L481.748 402.8H498.068L510.388 422.08H508.308L520.628 402.8H536.788L516.788 432V428.72L538.868 460H522.548L508.228 438.48H510.468L496.068 460ZM565.708 461.28C561.175 461.28 557.015 460.533 553.228 459.04C549.441 457.547 546.135 455.467 543.308 452.8C540.535 450.133 538.375 446.987 536.828 443.36C535.335 439.68 534.588 435.68 534.588 431.36C534.588 427.04 535.335 423.067 536.828 419.44C538.375 415.813 540.535 412.667 543.308 410C546.135 407.333 549.441 405.253 553.228 403.76C557.015 402.267 561.175 401.52 565.708 401.52C570.241 401.52 574.401 402.267 578.188 403.76C581.975 405.253 585.255 407.333 588.028 410C590.855 412.667 593.015 415.813 594.508 419.44C596.055 423.067 596.828 427.04 596.828 431.36C596.828 435.68 596.055 439.68 594.508 443.36C593.015 446.987 590.855 450.133 588.028 452.8C585.255 455.467 581.975 457.547 578.188 459.04C574.401 460.533 570.241 461.28 565.708 461.28ZM565.708 449.2C569.015 449.2 571.895 448.453 574.348 446.96C576.855 445.413 578.801 443.307 580.188 440.64C581.628 437.92 582.348 434.827 582.348 431.36C582.348 427.893 581.628 424.827 580.188 422.16C578.801 419.493 576.855 417.413 574.348 415.92C571.895 414.373 569.015 413.6 565.708 413.6C562.455 413.6 559.575 414.373 557.068 415.92C554.561 417.413 552.588 419.493 551.148 422.16C549.761 424.827 549.068 427.893 549.068 431.36C549.068 434.827 549.761 437.92 551.148 440.64C552.588 443.307 554.561 445.413 557.068 446.96C559.575 448.453 562.455 449.2 565.708 449.2ZM597.188 453.6V448.48H600.868C602.361 448.48 603.561 447.467 604.468 445.44C605.375 443.36 606.121 439.973 606.708 435.28L610.708 402.8H650.468V451.6H636.868V404.56L643.268 414.32H612.228L623.748 404.56L619.588 436.8C619.108 440.587 618.201 443.733 616.868 446.24C615.588 448.693 613.855 450.533 611.668 451.76C609.481 452.987 606.868 453.6 603.828 453.6H597.188ZM595.188 473.92V448.48H657.908V473.92H645.108V453.44L652.308 460H601.988L607.988 454.88V473.92H595.188ZM707.235 449.6H671.555V438.16H707.235V449.6ZM719.395 460H704.595L687.475 412.88H690.995L673.795 460H659.475L681.795 402.8H697.075L719.395 460ZM44.16 544H30.4V486.8H44.16V544ZM86.32 544H68.4L42.16 514.32H43.44L66.32 486.8H82.96L58.32 515.52V513.12L86.32 544ZM102.75 544V486.8H153.47V544H139.71V490.16L146.27 498.32H109.15L116.51 490.16V544H102.75ZM206.426 533.6H170.746V522.16H206.426V533.6ZM218.586 544H203.786L186.666 496.88H190.186L172.986 544H158.666L180.986 486.8H196.266L218.586 544ZM223.772 544V486.8H249.052C252.892 486.8 256.252 487.413 259.132 488.64C262.012 489.867 264.252 491.6 265.852 493.84C267.452 496.027 268.252 498.613 268.252 501.6C268.252 504.427 267.452 506.933 265.852 509.12C264.252 511.307 262.012 513.013 259.132 514.24C256.252 515.467 252.892 516.08 249.052 516.08H238.332V511.84H249.052C253.372 511.84 257.132 512.48 260.332 513.76C263.585 514.987 266.119 516.747 267.932 519.04C269.745 521.333 270.652 524.053 270.652 527.2C270.652 530.56 269.745 533.52 267.932 536.08C266.119 538.587 263.585 540.533 260.332 541.92C257.132 543.307 253.372 544 249.052 544H223.772ZM237.532 532.72H249.132C251.479 532.72 253.319 532.16 254.652 531.04C256.039 529.867 256.732 528.267 256.732 526.24C256.732 524.373 256.039 522.907 254.652 521.84C253.319 520.773 251.479 520.24 249.132 520.24H236.732V509.28H248.092C250.065 509.28 251.585 508.773 252.652 507.76C253.772 506.693 254.332 505.253 254.332 503.44C254.332 501.733 253.772 500.427 252.652 499.52C251.585 498.56 250.065 498.08 248.092 498.08H237.532V532.72ZM276.431 544V486.8H290.191V538.32H280.751L313.551 486.8H327.951V544H314.191V491.76H323.791L290.831 544H276.431ZM333.528 544V532.48H339.368C340.915 532.48 341.955 532.213 342.488 531.68C343.075 531.147 343.475 530.053 343.688 528.4L348.408 486.8H388.328V544H374.568V488.56L381.128 498.32H351.208L361.528 488.56L356.648 528.4C356.168 532.187 355.368 535.227 354.248 537.52C353.128 539.813 351.555 541.467 349.528 542.48C347.555 543.493 344.968 544 341.768 544H333.528ZM397.922 544V486.8H411.682V533.68L410.722 532.56H423.282C425.629 532.56 427.469 531.92 428.802 530.64C430.189 529.36 430.882 527.573 430.882 525.28C430.882 523.147 430.189 521.493 428.802 520.32C427.469 519.093 425.629 518.48 423.282 518.48H404.402V507.04H423.202C427.575 507.04 431.362 507.787 434.562 509.28C437.815 510.773 440.322 512.907 442.082 515.68C443.895 518.4 444.802 521.6 444.802 525.28C444.802 528.96 443.895 532.213 442.082 535.04C440.322 537.813 437.815 540 434.562 541.6C431.309 543.2 427.522 544 423.202 544H397.922ZM478.671 545.28C474.137 545.28 469.977 544.533 466.191 543.04C462.404 541.547 459.097 539.467 456.271 536.8C453.497 534.133 451.337 530.987 449.791 527.36C448.297 523.68 447.551 519.68 447.551 515.36C447.551 511.04 448.297 507.067 449.791 503.44C451.337 499.813 453.497 496.667 456.271 494C459.097 491.333 462.404 489.253 466.191 487.76C469.977 486.267 474.137 485.52 478.671 485.52C483.204 485.52 487.364 486.267 491.151 487.76C494.937 489.253 498.217 491.333 500.991 494C503.817 496.667 505.977 499.813 507.471 503.44C509.017 507.067 509.791 511.04 509.791 515.36C509.791 519.68 509.017 523.68 507.471 527.36C505.977 530.987 503.817 534.133 500.991 536.8C498.217 539.467 494.937 541.547 491.151 543.04C487.364 544.533 483.204 545.28 478.671 545.28ZM478.671 533.2C481.977 533.2 484.857 532.453 487.311 530.96C489.817 529.413 491.764 527.307 493.151 524.64C494.591 521.92 495.311 518.827 495.311 515.36C495.311 511.893 494.591 508.827 493.151 506.16C491.764 503.493 489.817 501.413 487.311 499.92C484.857 498.373 481.977 497.6 478.671 497.6C475.417 497.6 472.537 498.373 470.031 499.92C467.524 501.413 465.551 503.493 464.111 506.16C462.724 508.827 462.031 511.893 462.031 515.36C462.031 518.827 462.724 521.92 464.111 524.64C465.551 527.307 467.524 529.413 470.031 530.96C472.537 532.453 475.417 533.2 478.671 533.2ZM553.876 544V486.8H567.636V544H553.876ZM530.516 544H516.756V486.8H530.516V544ZM529.716 520.56V509.04H554.676V520.56H529.716ZM576.188 544V532.48H584.268C586.188 532.48 587.841 532.16 589.228 531.52C590.615 530.88 591.868 529.813 592.988 528.32C594.161 526.773 595.335 524.667 596.508 522L612.268 486.8H626.268L604.668 531.52C603.281 534.347 601.655 536.693 599.788 538.56C597.975 540.373 595.868 541.733 593.468 542.64C591.068 543.547 588.321 544 585.228 544H576.188ZM593.708 531.28L571.628 486.8H585.628L603.788 525.12L593.708 531.28Z" fill="white"/>
<path d="M36.9688 574.455V589H34.7812V576.33H27.9347V589H25.7472V574.455H36.9688ZM52.9595 581.727C52.9595 583.28 52.6754 584.616 52.1072 585.733C51.5391 586.846 50.7602 587.703 49.7706 588.304C48.7857 588.901 47.666 589.199 46.4112 589.199C45.1518 589.199 44.0272 588.901 43.0376 588.304C42.0528 587.703 41.2763 586.843 40.7081 585.726C40.1399 584.608 39.8558 583.276 39.8558 581.727C39.8558 580.174 40.1399 578.841 40.7081 577.729C41.2763 576.611 42.0528 575.754 43.0376 575.158C44.0272 574.556 45.1518 574.256 46.4112 574.256C47.666 574.256 48.7857 574.556 49.7706 575.158C50.7602 575.754 51.5391 576.611 52.1072 577.729C52.6754 578.841 52.9595 580.174 52.9595 581.727ZM50.7862 581.727C50.7862 580.544 50.5945 579.547 50.2109 578.737C49.8321 577.923 49.3113 577.307 48.6484 576.891C47.9903 576.469 47.2446 576.259 46.4112 576.259C45.5732 576.259 44.825 576.469 44.1669 576.891C43.5088 577.307 42.9879 577.923 42.6044 578.737C42.2256 579.547 42.0362 580.544 42.0362 581.727C42.0362 582.911 42.2256 583.91 42.6044 584.724C42.9879 585.534 43.5088 586.15 44.1669 586.571C44.825 586.988 45.5732 587.196 46.4112 587.196C47.2446 587.196 47.9903 586.988 48.6484 586.571C49.3113 586.15 49.8321 585.534 50.2109 584.724C50.5945 583.91 50.7862 582.911 50.7862 581.727ZM67.7766 579.185H65.5607C65.4755 578.711 65.3169 578.295 65.0849 577.935C64.8529 577.575 64.5688 577.269 64.2326 577.018C63.8964 576.768 63.52 576.578 63.1033 576.45C62.6914 576.322 62.2534 576.259 61.7894 576.259C60.9513 576.259 60.2009 576.469 59.538 576.891C58.8799 577.312 58.359 577.93 57.9755 578.744C57.5967 579.559 57.4073 580.553 57.4073 581.727C57.4073 582.911 57.5967 583.91 57.9755 584.724C58.359 585.539 58.8822 586.154 59.5451 586.571C60.208 586.988 60.9537 587.196 61.7823 587.196C62.2416 587.196 62.6772 587.134 63.0891 587.011C63.5058 586.884 63.8822 586.696 64.2184 586.45C64.5546 586.204 64.8387 585.903 65.0707 585.548C65.3074 585.188 65.4708 584.777 65.5607 584.312L67.7766 584.32C67.6583 585.035 67.4286 585.693 67.0877 586.294C66.7515 586.891 66.3183 587.407 65.788 587.842C65.2624 588.273 64.6611 588.607 63.984 588.844C63.3069 589.08 62.5683 589.199 61.7681 589.199C60.5086 589.199 59.3865 588.901 58.4016 588.304C57.4168 587.703 56.6403 586.843 56.0721 585.726C55.5086 584.608 55.2269 583.276 55.2269 581.727C55.2269 580.174 55.511 578.841 56.0792 577.729C56.6474 576.611 57.4239 575.754 58.4087 575.158C59.3936 574.556 60.5134 574.256 61.7681 574.256C62.5399 574.256 63.2596 574.367 63.9272 574.589C64.5996 574.807 65.2032 575.129 65.7383 575.555C66.2733 575.977 66.716 576.493 67.0664 577.104C67.4168 577.71 67.6535 578.403 67.7766 579.185ZM70.4027 574.455H73.0661L77.6967 585.761H77.8672L82.4979 574.455H85.1612V589H83.0732V578.474H82.9382L78.6484 588.979H76.9155L72.6257 578.467H72.4908V589H70.4027V574.455ZM100.987 581.727C100.987 583.28 100.703 584.616 100.135 585.733C99.5664 586.846 98.7875 587.703 97.7979 588.304C96.8131 588.901 95.6933 589.199 94.4386 589.199C93.1791 589.199 92.0546 588.901 91.065 588.304C90.0801 587.703 89.3036 586.843 88.7354 585.726C88.1673 584.608 87.8832 583.276 87.8832 581.727C87.8832 580.174 88.1673 578.841 88.7354 577.729C89.3036 576.611 90.0801 575.754 91.065 575.158C92.0546 574.556 93.1791 574.256 94.4386 574.256C95.6933 574.256 96.8131 574.556 97.7979 575.158C98.7875 575.754 99.5664 576.611 100.135 577.729C100.703 578.841 100.987 580.174 100.987 581.727ZM98.8136 581.727C98.8136 580.544 98.6218 579.547 98.2383 578.737C97.8595 577.923 97.3387 577.307 96.6758 576.891C96.0176 576.469 95.2719 576.259 94.4386 576.259C93.6005 576.259 92.8524 576.469 92.1942 576.891C91.5361 577.307 91.0153 577.923 90.6317 578.737C90.253 579.547 90.0636 580.544 90.0636 581.727C90.0636 582.911 90.253 583.91 90.6317 584.724C91.0153 585.534 91.5361 586.15 92.1942 586.571C92.8524 586.988 93.6005 587.196 94.4386 587.196C95.2719 587.196 96.0176 586.988 96.6758 586.571C97.3387 586.15 97.8595 585.534 98.2383 584.724C98.6218 583.91 98.8136 582.911 98.8136 581.727ZM102.381 576.344V574.455H113.638V576.344H109.099V589H106.912V576.344H102.381ZM116.125 589V574.455H121.31C122.442 574.455 123.379 574.661 124.123 575.072C124.866 575.484 125.422 576.048 125.792 576.763C126.161 577.473 126.346 578.273 126.346 579.163C126.346 580.058 126.158 580.863 125.784 581.578C125.415 582.288 124.856 582.852 124.108 583.268C123.365 583.68 122.43 583.886 121.303 583.886H117.738V582.026H121.104C121.819 582.026 122.399 581.902 122.844 581.656C123.289 581.405 123.616 581.064 123.824 580.634C124.033 580.203 124.137 579.713 124.137 579.163C124.137 578.614 124.033 578.126 123.824 577.7C123.616 577.274 123.287 576.94 122.837 576.699C122.392 576.457 121.805 576.337 121.076 576.337H118.32V589H116.125ZM128.918 589V574.455H138.038V576.344H131.113V580.776H137.562V582.658H131.113V587.111H138.123V589H128.918ZM140.252 576.344V574.455H151.509V576.344H146.971V589H144.783V576.344H140.252ZM155.538 580.321H159.458C160.538 580.321 161.456 580.496 162.214 580.847C162.971 581.197 163.549 581.692 163.947 582.331C164.349 582.97 164.548 583.723 164.543 584.589C164.548 585.456 164.349 586.221 163.947 586.884C163.549 587.546 162.971 588.065 162.214 588.439C161.456 588.813 160.538 589 159.458 589H154.011V574.455H156.212V587.153H159.458C160.088 587.153 160.618 587.03 161.049 586.784C161.485 586.538 161.814 586.218 162.036 585.825C162.263 585.432 162.377 585.011 162.377 584.561C162.377 583.908 162.126 583.347 161.624 582.878C161.122 582.404 160.4 582.168 159.458 582.168H155.538V580.321ZM172.512 589V574.455H177.697C178.828 574.455 179.766 574.661 180.509 575.072C181.253 575.484 181.809 576.048 182.178 576.763C182.548 577.473 182.732 578.273 182.732 579.163C182.732 580.058 182.545 580.863 182.171 581.578C181.802 582.288 181.243 582.852 180.495 583.268C179.752 583.68 178.817 583.886 177.69 583.886H174.124V582.026H177.491C178.206 582.026 178.786 581.902 179.231 581.656C179.676 581.405 180.003 581.064 180.211 580.634C180.419 580.203 180.523 579.713 180.523 579.163C180.523 578.614 180.419 578.126 180.211 577.7C180.003 577.274 179.674 576.94 179.224 576.699C178.779 576.457 178.192 576.337 177.462 576.337H174.707V589H172.512ZM190.014 589H185.305V574.455H190.163C191.588 574.455 192.812 574.746 193.835 575.328C194.858 575.906 195.641 576.737 196.186 577.821C196.735 578.901 197.01 580.196 197.01 581.706C197.01 583.221 196.733 584.523 196.179 585.612C195.629 586.701 194.834 587.539 193.792 588.126C192.751 588.709 191.491 589 190.014 589ZM187.5 587.082H189.893C191.001 587.082 191.922 586.874 192.656 586.457C193.39 586.036 193.939 585.428 194.304 584.632C194.668 583.832 194.85 582.857 194.85 581.706C194.85 580.565 194.668 579.597 194.304 578.801C193.944 578.006 193.406 577.402 192.691 576.99C191.976 576.578 191.089 576.372 190.028 576.372H187.5V587.082ZM199.739 589V574.455H208.759V576.344H201.933V580.776H208.112V582.658H201.933V589H199.739Z" fill="white"/>
</g>
<defs>
<clipPath id="clip0_110_208993">
<rect width="960" height="620" fill="white"/>
</clipPath>
</defs>
</svg>
