<svg width="522" height="520" viewBox="0 0 522 520" fill="none" xmlns="http://www.w3.org/2000/svg">
<path d="M423.738 258.678L423.385 259.031L423.738 259.385L520.491 356.135L366.919 356.374L269.815 259.272L367.201 161.889L520.791 161.627L423.738 258.678ZM98.2619 259.385L98.6154 259.031L98.2619 258.678L1.20919 161.627L154.799 161.889L252.185 259.272L155.081 356.374L1.50946 356.135L98.2619 259.385ZM260.678 96.26L261.031 96.6136L261.385 96.26L358.137 -0.490597L358.376 153.078L261.272 250.18L163.887 152.796L163.625 -0.790834L260.678 96.26ZM261.385 421.74L261.031 421.386L260.678 421.74L163.625 518.791L163.887 365.204L261.272 267.82L358.376 364.922L358.137 518.491L261.385 421.74Z" fill="#0E0E0E" stroke="black"/>
</svg>
